<?xml version="1.0" encoding="UTF-8" standalone="no"?>
<!DOCTYPE svg PUBLIC "-//W3C//DTD SVG 1.1//EN"
 "http://www.w3.org/Graphics/SVG/1.1/DTD/svg11.dtd">
<!-- Generated by graphviz version 2.43.0 (0)
 -->
<!-- Title: amr_wind::pde::icns::BodyForce Pages: 1 -->
<svg width="513pt" height="162pt"
 viewBox="0.00 0.00 513.00 161.50" xmlns="http://www.w3.org/2000/svg" xmlns:xlink="http://www.w3.org/1999/xlink">
<g id="graph0" class="graph" transform="scale(1 1) rotate(0) translate(4 157.5)">
<title>amr_wind::pde::icns::BodyForce</title>
<!-- Node1 -->
<g id="Node000001" class="node">
<title>Node1</title>
<g id="a_Node000001"><a xlink:title=" ">
<polygon fill="#999999" stroke="#666666" points="505,-100 391,-100 391,-70 505,-70 505,-100"/>
<text text-anchor="start" x="399" y="-88" font-family="Helvetica,sans-Serif" font-size="10.00">amr_wind::pde::icns</text>
<text text-anchor="middle" x="448" y="-77" font-family="Helvetica,sans-Serif" font-size="10.00">::BodyForce</text>
</a>
</g>
</g>
<!-- Node2 -->
<g id="Node000002" class="node">
<title>Node2</title>
<g id="a_Node000002"><a xlink:title=" ">
<polygon fill="white" stroke="#666666" points="282,-153.5 141,-153.5 141,-112.5 282,-112.5 282,-153.5"/>
<text text-anchor="start" x="149" y="-141.5" font-family="Helvetica,sans-Serif" font-size="10.00">amr_wind::Factory&lt;</text>
<text text-anchor="start" x="149" y="-130.5" font-family="Helvetica,sans-Serif" font-size="10.00"> MomentumSource, const</text>
<text text-anchor="middle" x="211.5" y="-119.5" font-family="Helvetica,sans-Serif" font-size="10.00"> CFDSim &amp; &gt;::Register</text>
</a>
</g>
</g>
<!-- Node2&#45;&gt;Node1 -->
<g id="edge1_Node000001_Node000002" class="edge">
<title>Node2&#45;&gt;Node1</title>
<g id="a_edge1_Node000001_Node000002"><a xlink:title=" ">
<path fill="none" stroke="#63b8ff" d="M292.47,-121.32C318.29,-117.08 346.96,-111.87 373,-106 380.69,-104.27 388.76,-102.22 396.64,-100.09"/>
<polygon fill="#63b8ff" stroke="#63b8ff" points="291.66,-117.91 282.35,-122.96 292.78,-124.82 291.66,-117.91"/>
</a>
</g>
</g>
<!-- Node3 -->
<g id="Node000003" class="node">
<title>Node3</title>
<g id="a_Node000003"><a xlink:href="classamr__wind_1_1_sim_time.html" target="_top" xlink:title=" ">
<polygon fill="white" stroke="#666666" points="268.5,-94.5 154.5,-94.5 154.5,-75.5 268.5,-75.5 268.5,-94.5"/>
<text text-anchor="middle" x="211.5" y="-82.5" font-family="Helvetica,sans-Serif" font-size="10.00">amr_wind::SimTime</text>
</a>
</g>
</g>
<!-- Node3&#45;&gt;Node1 -->
<g id="edge2_Node000001_Node000003" class="edge">
<title>Node3&#45;&gt;Node1</title>
<g id="a_edge2_Node000001_Node000003"><a xlink:title=" ">
<path fill="none" stroke="#9a32cd" stroke-dasharray="5,2" d="M278.89,-85C314.24,-85 357.23,-85 390.88,-85"/>
<polygon fill="#9a32cd" stroke="#9a32cd" points="278.67,-81.5 268.67,-85 278.67,-88.5 278.67,-81.5"/>
</a>
</g>
<text text-anchor="start" x="317.5" y="-90.5" font-family="Helvetica,sans-Serif" font-size="10.00" fill="grey">m_time</text>
</g>
<!-- Node4 -->
<g id="Node000004" class="node">
<title>Node4</title>
<g id="a_Node000004"><a xlink:title=" ">
<polygon fill="white" stroke="#666666" points="244,-24.5 179,-24.5 179,-5.5 244,-5.5 244,-24.5"/>
<text text-anchor="middle" x="211.5" y="-12.5" font-family="Helvetica,sans-Serif" font-size="10.00">std::string</text>
</a>
</g>
</g>
<!-- Node4&#45;&gt;Node1 -->
<g id="edge3_Node000001_Node000004" class="edge">
<title>Node4&#45;&gt;Node1</title>
<g id="a_edge3_Node000001_Node000004"><a xlink:title=" ">
<path fill="none" stroke="#9a32cd" stroke-dasharray="5,2" d="M254.27,-14.49C287.45,-15.36 334.5,-19.48 373,-34 394.61,-42.15 415.96,-57.92 430.14,-69.78"/>
<polygon fill="#9a32cd" stroke="#9a32cd" points="254.08,-10.99 244.02,-14.31 253.96,-17.99 254.08,-10.99"/>
</a>
</g>
<text text-anchor="start" x="303.5" y="-69.5" font-family="Helvetica,sans-Serif" font-size="10.00" fill="grey">m_bforce_file</text>
<text text-anchor="start" x="303.5" y="-54.5" font-family="Helvetica,sans-Serif" font-size="10.00" fill="grey">m_type</text>
<text text-anchor="start" x="303.5" y="-39.5" font-family="Helvetica,sans-Serif" font-size="10.00" fill="grey">m_utt_file</text>
</g>
<!-- Node5 -->
<g id="Node000005" class="node">
<title>Node5</title>
<g id="a_Node000005"><a xlink:title=" ">
<polygon fill="white" stroke="#666666" points="104,-30 0,-30 0,0 104,0 104,-30"/>
<text text-anchor="start" x="8" y="-18" font-family="Helvetica,sans-Serif" font-size="10.00">std::basic_string&lt;</text>
<text text-anchor="middle" x="52" y="-7" font-family="Helvetica,sans-Serif" font-size="10.00"> Char &gt;</text>
</a>
</g>
</g>
<!-- Node5&#45;&gt;Node4 -->
<g id="edge4_Node000004_Node000005" class="edge">
<title>Node5&#45;&gt;Node4</title>
<g id="a_edge4_Node000004_Node000005"><a xlink:title=" ">
<path fill="none" stroke="#63b8ff" d="M114.43,-15C136.47,-15 160.4,-15 178.87,-15"/>
<polygon fill="#63b8ff" stroke="#63b8ff" points="114.14,-11.5 104.14,-15 114.14,-18.5 114.14,-11.5"/>
</a>
</g>
</g>
</g>
</svg>
