<?xml version="1.0" encoding="UTF-8" standalone="no"?>
<!DOCTYPE svg PUBLIC "-//W3C//DTD SVG 1.1//EN"
 "http://www.w3.org/Graphics/SVG/1.1/DTD/svg11.dtd">
<!-- Generated by graphviz version 2.43.0 (0)
 -->
<!-- Title: amr_wind::EkmanSpiral Pages: 1 -->
<!--zoomable 289 -->

<svg id="main" version="1.1" xmlns="http://www.w3.org/2000/svg" xmlns:xlink="http://www.w3.org/1999/xlink" xml:space="preserve" onload="init(evt)">

<style type="text/css"><![CDATA[
.node, .edge {opacity: 0.7;}
.node.selected, .edge.selected {opacity: 1;}
.edge:hover path { stroke: red; }
.edge:hover polygon { stroke: red; fill: red; }
]]></style>

<defs>
  <circle id="rim" cx="0" cy="0" r="7"/>
  <circle id="rim2" cx="0" cy="0" r="3.5"/>
  <g id="zoomPlus">
    <use xlink:href="#rim" fill="#404040"><set attributeName="fill" to="#808080" begin="zoomplus.mouseover" end="zoomplus.mouseout"/></use>
    <path d="M-4,0h8M0,-4v8" fill="none" stroke="white" stroke-width="1.5" pointer-events="none"/>
  </g>
  <g id="zoomMin">
    <use xlink:href="#rim" fill="#404040"><set attributeName="fill" to="#808080" begin="zoomminus.mouseover" end="zoomminus.mouseout"/></use>
    <path d="M-4,0h8" fill="none" stroke="white" stroke-width="1.5" pointer-events="none"/>
  </g>
  <g id="arrowUp" transform="translate(30 24)">
    <use xlink:href="#rim"/>
    <path pointer-events="none" fill="none" stroke="white" stroke-width="1.5" d="M0,-3.0v7 M-2.5,-0.5L0,-3.0L2.5,-0.5"/>
  </g>
  <g id="arrowRight" transform="rotate(90) translate(36 -43)">
    <use xlink:href="#rim"/>
    <path pointer-events="none" fill="none" stroke="white" stroke-width="1.5" d="M0,-3.0v7 M-2.5,-0.5L0,-3.0L2.5,-0.5"/>
  </g>
  <g id="arrowDown" transform="rotate(180) translate(-30 -48)">
    <use xlink:href="#rim"/>
    <path pointer-events="none" fill="none" stroke="white" stroke-width="1.5" d="M0,-3.0v7 M-2.5,-0.5L0,-3.0L2.5,-0.5"/>
  </g>
  <g id="arrowLeft" transform="rotate(270) translate(-36 17)">
    <use xlink:href="#rim"/>
    <path pointer-events="none" fill="none" stroke="white" stroke-width="1.5" d="M0,-3.0v7 M-2.5,-0.5L0,-3.0L2.5,-0.5"/>
  </g>
  <g id="resetDef">
    <use xlink:href="#rim2" fill="#404040"><set attributeName="fill" to="#808080" begin="reset.mouseover" end="reset.mouseout"/></use>
  </g>
</defs>
<script type="application/ecmascript">
var viewWidth = 1508;
var viewHeight = 289;
var sectionId = 'dynsection-1';
</script>
<script type="application/ecmascript" xlink:href="svg.min.js"/>
<svg id="graph" class="graph">
<g id="viewport">
<title>amr_wind::EkmanSpiral</title>
<!-- Node1 -->
<g id="Node000001" class="node">
<title>Node1</title>
<g id="a_Node000001"><a xlink:title=" ">
<polygon fill="#999999" stroke="#666666" points="1500,-119.5 1368,-119.5 1368,-100.5 1500,-100.5 1500,-119.5"/>
<text text-anchor="middle" x="1434" y="-107.5" font-family="Helvetica,sans-Serif" font-size="10.00">amr_wind::EkmanSpiral</text>
</a>
</g>
</g>
<!-- Node2 -->
<g id="Node000002" class="node">
<title>Node2</title>
<g id="a_Node000002"><a xlink:title=" ">
<polygon fill="white" stroke="#666666" points="1268,-213 1160,-213 1160,-183 1268,-183 1268,-213"/>
<text text-anchor="start" x="1168" y="-201" font-family="Helvetica,sans-Serif" font-size="10.00">Physics::Register&lt;</text>
<text text-anchor="middle" x="1214" y="-190" font-family="Helvetica,sans-Serif" font-size="10.00"> EkmanSpiral &gt;</text>
</a>
</g>
</g>
<!-- Node2&#45;&gt;Node1 -->
<g id="edge1_Node000001_Node000002" class="edge">
<title>Node2&#45;&gt;Node1</title>
<g id="a_edge1_Node000001_Node000002"><a xlink:title=" ">
<path fill="none" stroke="#63b8ff" d="M1277.84,-184.71C1301.02,-178.8 1327.18,-170.9 1350,-161 1376.38,-149.56 1404.32,-130.82 1420.12,-119.53"/>
<polygon fill="#63b8ff" stroke="#63b8ff" points="1276.97,-181.32 1268.11,-187.13 1278.66,-188.12 1276.97,-181.32"/>
</a>
</g>
</g>
<!-- Node3 -->
<g id="Node000003" class="node">
<title>Node3</title>
<g id="a_Node000003"><a xlink:href="classamr__wind_1_1_sim_time.html" target="_top" xlink:title=" ">
<polygon fill="white" stroke="#666666" points="1271,-164.5 1157,-164.5 1157,-145.5 1271,-145.5 1271,-164.5"/>
<text text-anchor="middle" x="1214" y="-152.5" font-family="Helvetica,sans-Serif" font-size="10.00">amr_wind::SimTime</text>
</a>
</g>
</g>
<!-- Node3&#45;&gt;Node1 -->
<g id="edge2_Node000001_Node000003" class="edge">
<title>Node3&#45;&gt;Node1</title>
<g id="a_edge2_Node000001_Node000003"><a xlink:title=" ">
<path fill="none" stroke="#9a32cd" stroke-dasharray="5,2" d="M1271.08,-143.42C1306.99,-136.01 1353.03,-126.51 1386.83,-119.53"/>
<polygon fill="#9a32cd" stroke="#9a32cd" points="1270.32,-140.01 1261.23,-145.46 1271.73,-146.86 1270.32,-140.01"/>
</a>
</g>
<text text-anchor="start" x="1300.5" y="-145.5" font-family="Helvetica,sans-Serif" font-size="10.00" fill="grey">m_time</text>
</g>
<!-- Node4 -->
<g id="Node000004" class="node">
<title>Node4</title>
<g id="a_Node000004"><a xlink:href="classamr__wind_1_1_field_repo.html" target="_top" xlink:title=" ">
<polygon fill="white" stroke="#666666" points="1077.5,-108.5 958.5,-108.5 958.5,-89.5 1077.5,-89.5 1077.5,-108.5"/>
<text text-anchor="middle" x="1018" y="-96.5" font-family="Helvetica,sans-Serif" font-size="10.00">amr_wind::FieldRepo</text>
</a>
</g>
</g>
<!-- Node4&#45;&gt;Node1 -->
<g id="edge3_Node000001_Node000004" class="edge">
<title>Node4&#45;&gt;Node1</title>
<g id="a_edge3_Node000001_Node000004"><a xlink:title=" ">
<path fill="none" stroke="#9a32cd" stroke-dasharray="5,2" d="M1088.07,-100.84C1165.94,-102.9 1291.61,-106.24 1367.84,-108.27"/>
<polygon fill="#9a32cd" stroke="#9a32cd" points="1087.97,-97.33 1077.88,-100.56 1087.78,-104.33 1087.97,-97.33"/>
</a>
</g>
<text text-anchor="start" x="1196" y="-111.5" font-family="Helvetica,sans-Serif" font-size="10.00" fill="grey">m_repo</text>
</g>
<!-- Node11 -->
<g id="Node000011" class="node">
<title>Node11</title>
<g id="a_Node000011"><a xlink:href="classamr__wind_1_1_field.html" target="_top" xlink:title=" ">
<polygon fill="white" stroke="#666666" points="1261,-73.5 1167,-73.5 1167,-54.5 1261,-54.5 1261,-73.5"/>
<text text-anchor="middle" x="1214" y="-61.5" font-family="Helvetica,sans-Serif" font-size="10.00">amr_wind::Field</text>
</a>
</g>
</g>
<!-- Node4&#45;&gt;Node11 -->
<g id="edge11_Node000011_Node000004" class="edge">
<title>Node4&#45;&gt;Node11</title>
<g id="a_edge11_Node000011_Node000004"><a xlink:title=" ">
<path fill="none" stroke="#9a32cd" stroke-dasharray="5,2" d="M1061.98,-86.81C1073.01,-83.97 1084.89,-81.15 1096,-79 1119.22,-74.51 1145.31,-71.02 1166.94,-68.54"/>
<polygon fill="#9a32cd" stroke="#9a32cd" points="1060.92,-83.47 1052.14,-89.41 1062.71,-90.24 1060.92,-83.47"/>
</a>
</g>
<text text-anchor="start" x="1099.5" y="-84.5" font-family="Helvetica,sans-Serif" font-size="10.00" fill="grey">m_repo</text>
</g>
<!-- Node5 -->
<g id="Node000005" class="node">
<title>Node5</title>
<g id="a_Node000005"><a xlink:title=" ">
<polygon fill="white" stroke="#666666" points="843,-114 721,-114 721,-84 843,-84 843,-114"/>
<text text-anchor="start" x="729" y="-102" font-family="Helvetica,sans-Serif" font-size="10.00">std::unordered_map</text>
<text text-anchor="middle" x="782" y="-91" font-family="Helvetica,sans-Serif" font-size="10.00">&lt; std::string, size_t &gt;</text>
</a>
</g>
</g>
<!-- Node5&#45;&gt;Node4 -->
<g id="edge4_Node000004_Node000005" class="edge">
<title>Node5&#45;&gt;Node4</title>
<g id="a_edge4_Node000004_Node000005"><a xlink:title=" ">
<path fill="none" stroke="#9a32cd" stroke-dasharray="5,2" d="M853.43,-99C886.86,-99 926.35,-99 958.16,-99"/>
<polygon fill="#9a32cd" stroke="#9a32cd" points="853.26,-95.5 843.26,-99 853.26,-102.5 853.26,-95.5"/>
</a>
</g>
<text text-anchor="start" x="864.5" y="-120" font-family="Helvetica,sans-Serif" font-size="10.00" fill="grey">m_fid_map</text>
<text text-anchor="start" x="864.5" y="-105" font-family="Helvetica,sans-Serif" font-size="10.00" fill="grey">m_int_fid_map</text>
</g>
<!-- Node6 -->
<g id="Node000006" class="node">
<title>Node6</title>
<g id="a_Node000006"><a xlink:title=" ">
<polygon fill="white" stroke="#666666" points="508,-62.5 443,-62.5 443,-43.5 508,-43.5 508,-62.5"/>
<text text-anchor="middle" x="475.5" y="-50.5" font-family="Helvetica,sans-Serif" font-size="10.00">std::string</text>
</a>
</g>
</g>
<!-- Node6&#45;&gt;Node1 -->
<g id="edge22_Node000001_Node000006" class="edge">
<title>Node6&#45;&gt;Node1</title>
<g id="a_edge22_Node000001_Node000006"><a xlink:title=" ">
<path fill="none" stroke="#9a32cd" stroke-dasharray="5,2" d="M518.11,-41.07C576.38,-25.44 685.83,0 781,0 781,0 781,0 1215,0 1303.6,0 1392.83,-73.32 1422.61,-100.24"/>
<polygon fill="#9a32cd" stroke="#9a32cd" points="516.92,-37.77 508.19,-43.77 518.75,-44.52 516.92,-37.77"/>
</a>
</g>
<text text-anchor="start" x="976" y="-5.5" font-family="Helvetica,sans-Serif" font-size="10.00" fill="grey">m_output_fname</text>
</g>
<!-- Node6&#45;&gt;Node5 -->
<g id="edge5_Node000005_Node000006" class="edge">
<title>Node6&#45;&gt;Node5</title>
<g id="a_edge5_Node000005_Node000006"><a xlink:title=" ">
<path fill="none" stroke="#9a32cd" stroke-dasharray="5,2" d="M518.33,-56.08C563.97,-59.84 639.09,-67.19 703,-79 710.56,-80.4 718.47,-82.12 726.24,-83.96"/>
<polygon fill="#9a32cd" stroke="#9a32cd" points="518.46,-52.58 508.21,-55.26 517.9,-59.55 518.46,-52.58"/>
</a>
</g>
<text text-anchor="start" x="629.5" y="-84.5" font-family="Helvetica,sans-Serif" font-size="10.00" fill="grey">keys</text>
</g>
<!-- Node6&#45;&gt;Node11 -->
<g id="edge12_Node000011_Node000006" class="edge">
<title>Node6&#45;&gt;Node11</title>
<g id="a_edge12_Node000011_Node000006"><a xlink:title=" ">
<path fill="none" stroke="#9a32cd" stroke-dasharray="5,2" d="M518.32,-53.62C646.39,-55.54 1032.55,-61.3 1166.58,-63.31"/>
<polygon fill="#9a32cd" stroke="#9a32cd" points="518.2,-50.12 508.15,-53.47 518.09,-57.12 518.2,-50.12"/>
</a>
</g>
<text text-anchor="start" x="879.5" y="-65.5" font-family="Helvetica,sans-Serif" font-size="10.00" fill="grey">m_name</text>
</g>
<!-- Node13 -->
<g id="Node000013" class="node">
<title>Node13</title>
<g id="a_Node000013"><a xlink:href="structamr__wind_1_1_field_info.html" target="_top" xlink:title=" ">
<polygon fill="white" stroke="#666666" points="838.5,-193.5 725.5,-193.5 725.5,-174.5 838.5,-174.5 838.5,-193.5"/>
<text text-anchor="middle" x="782" y="-181.5" font-family="Helvetica,sans-Serif" font-size="10.00">amr_wind::FieldInfo</text>
</a>
</g>
</g>
<!-- Node6&#45;&gt;Node13 -->
<g id="edge15_Node000013_Node000006" class="edge">
<title>Node6&#45;&gt;Node13</title>
<g id="a_edge15_Node000013_Node000006"><a xlink:title=" ">
<path fill="none" stroke="#9a32cd" stroke-dasharray="5,2" d="M504.22,-66.98C524.25,-76.51 552.21,-88.7 578,-96 632.07,-111.3 652.1,-91.19 703,-115 733.13,-129.1 760.24,-158.57 773.11,-174.04"/>
<polygon fill="#9a32cd" stroke="#9a32cd" points="505.59,-63.75 495.07,-62.54 502.54,-70.05 505.59,-63.75"/>
</a>
</g>
<text text-anchor="start" x="607.5" y="-120.5" font-family="Helvetica,sans-Serif" font-size="10.00" fill="grey">m_basename</text>
</g>
<!-- Node7 -->
<g id="Node000007" class="node">
<title>Node7</title>
<g id="a_Node000007"><a xlink:title=" ">
<polygon fill="white" stroke="#666666" points="204,-68 100,-68 100,-38 204,-38 204,-68"/>
<text text-anchor="start" x="108" y="-56" font-family="Helvetica,sans-Serif" font-size="10.00">std::basic_string&lt;</text>
<text text-anchor="middle" x="152" y="-45" font-family="Helvetica,sans-Serif" font-size="10.00"> Char &gt;</text>
</a>
</g>
</g>
<!-- Node7&#45;&gt;Node6 -->
<g id="edge6_Node000006_Node000007" class="edge">
<title>Node7&#45;&gt;Node6</title>
<g id="a_edge6_Node000006_Node000007"><a xlink:title=" ">
<path fill="none" stroke="#63b8ff" d="M214.48,-53C282.65,-53 389.98,-53 442.88,-53"/>
<polygon fill="#63b8ff" stroke="#63b8ff" points="214.3,-49.5 204.3,-53 214.3,-56.5 214.3,-49.5"/>
</a>
</g>
</g>
<!-- Node8 -->
<g id="Node000008" class="node">
<title>Node8</title>
<g id="a_Node000008"><a xlink:title=" ">
<polygon fill="white" stroke="#666666" points="532.5,-161 418.5,-161 418.5,-131 532.5,-131 532.5,-161"/>
<text text-anchor="start" x="426.5" y="-149" font-family="Helvetica,sans-Serif" font-size="10.00">std::unordered_map</text>
<text text-anchor="middle" x="475.5" y="-138" font-family="Helvetica,sans-Serif" font-size="10.00">&lt; K, T &gt;</text>
</a>
</g>
</g>
<!-- Node8&#45;&gt;Node5 -->
<g id="edge7_Node000005_Node000008" class="edge">
<title>Node8&#45;&gt;Node5</title>
<g id="a_edge7_Node000005_Node000008"><a xlink:title=" ">
<path fill="none" stroke="orange" stroke-dasharray="5,2" d="M542.85,-149.93C588.53,-150.98 650.26,-149.1 703,-136 721.62,-131.37 741.12,-122.12 755.96,-114.03"/>
<polygon fill="orange" stroke="orange" points="542.86,-146.43 532.77,-149.65 542.66,-153.43 542.86,-146.43"/>
</a>
</g>
<text text-anchor="start" x="587.5" y="-156.5" font-family="Helvetica,sans-Serif" font-size="10.00" fill="grey">&lt; std::string, size_t &gt;</text>
</g>
<!-- Node9 -->
<g id="Node000009" class="node">
<title>Node9</title>
<g id="a_Node000009"><a xlink:title=" ">
<polygon fill="white" stroke="#666666" points="166.5,-109.5 137.5,-109.5 137.5,-90.5 166.5,-90.5 166.5,-109.5"/>
<text text-anchor="middle" x="152" y="-97.5" font-family="Helvetica,sans-Serif" font-size="10.00">K</text>
</a>
</g>
</g>
<!-- Node9&#45;&gt;Node8 -->
<g id="edge8_Node000008_Node000009" class="edge">
<title>Node9&#45;&gt;Node8</title>
<g id="a_edge8_Node000008_Node000009"><a xlink:title=" ">
<path fill="none" stroke="#9a32cd" stroke-dasharray="5,2" d="M176.74,-99.85C217.31,-99.99 302.45,-102 373,-115 393.11,-118.71 414.87,-125.03 433.06,-131"/>
<polygon fill="#9a32cd" stroke="#9a32cd" points="176.52,-96.35 166.53,-99.86 176.53,-103.35 176.52,-96.35"/>
</a>
</g>
<text text-anchor="start" x="294" y="-120.5" font-family="Helvetica,sans-Serif" font-size="10.00" fill="grey">keys</text>
</g>
<!-- Node10 -->
<g id="Node000010" class="node">
<title>Node10</title>
<g id="a_Node000010"><a xlink:title=" ">
<polygon fill="white" stroke="#666666" points="29,-200.5 0,-200.5 0,-181.5 29,-181.5 29,-200.5"/>
<text text-anchor="middle" x="14.5" y="-188.5" font-family="Helvetica,sans-Serif" font-size="10.00">T</text>
</a>
</g>
</g>
<!-- Node10&#45;&gt;Node8 -->
<g id="edge9_Node000008_Node000010" class="edge">
<title>Node10&#45;&gt;Node8</title>
<g id="a_edge9_Node000008_Node000010"><a xlink:title=" ">
<path fill="none" stroke="#9a32cd" stroke-dasharray="5,2" d="M37.88,-176.07C51.01,-168.19 68.26,-159.28 85,-155 200.49,-125.45 341.58,-132.32 418.28,-139.47"/>
<polygon fill="#9a32cd" stroke="#9a32cd" points="35.74,-173.28 29.11,-181.55 39.45,-179.22 35.74,-173.28"/>
</a>
</g>
<text text-anchor="start" x="129" y="-160.5" font-family="Helvetica,sans-Serif" font-size="10.00" fill="grey">elements</text>
</g>
<!-- Node16 -->
<g id="Node000016" class="node">
<title>Node16</title>
<g id="a_Node000016"><a xlink:title=" ">
<polygon fill="white" stroke="#666666" points="211,-200.5 93,-200.5 93,-181.5 211,-181.5 211,-200.5"/>
<text text-anchor="middle" x="152" y="-188.5" font-family="Helvetica,sans-Serif" font-size="10.00">std::unique_ptr&lt; T &gt;</text>
</a>
</g>
</g>
<!-- Node10&#45;&gt;Node16 -->
<g id="edge19_Node000016_Node000010" class="edge">
<title>Node10&#45;&gt;Node16</title>
<g id="a_edge19_Node000016_Node000010"><a xlink:title=" ">
<path fill="none" stroke="#9a32cd" stroke-dasharray="5,2" d="M39.53,-191C54.35,-191 74.04,-191 92.75,-191"/>
<polygon fill="#9a32cd" stroke="#9a32cd" points="39.24,-187.5 29.24,-191 39.24,-194.5 39.24,-187.5"/>
</a>
</g>
<text text-anchor="start" x="50" y="-196.5" font-family="Helvetica,sans-Serif" font-size="10.00" fill="grey">ptr</text>
</g>
<!-- Node17 -->
<g id="Node000017" class="node">
<title>Node17</title>
<g id="a_Node000017"><a xlink:title=" ">
<polygon fill="white" stroke="#666666" points="364,-280.5 246,-280.5 246,-261.5 364,-261.5 364,-280.5"/>
<text text-anchor="middle" x="305" y="-268.5" font-family="Helvetica,sans-Serif" font-size="10.00">std::shared_ptr&lt; T &gt;</text>
</a>
</g>
</g>
<!-- Node10&#45;&gt;Node17 -->
<g id="edge21_Node000017_Node000010" class="edge">
<title>Node10&#45;&gt;Node17</title>
<g id="a_edge21_Node000017_Node000010"><a xlink:title=" ">
<path fill="none" stroke="#9a32cd" stroke-dasharray="5,2" d="M28.25,-209.11C40.68,-225.14 61.17,-247.55 85,-258 135.93,-280.33 200,-281.42 245.65,-278.23"/>
<polygon fill="#9a32cd" stroke="#9a32cd" points="30.98,-206.91 22.2,-200.98 25.36,-211.09 30.98,-206.91"/>
</a>
</g>
<text text-anchor="start" x="50" y="-251.5" font-family="Helvetica,sans-Serif" font-size="10.00" fill="grey">ptr</text>
</g>
<!-- Node11&#45;&gt;Node1 -->
<g id="edge10_Node000001_Node000011" class="edge">
<title>Node11&#45;&gt;Node1</title>
<g id="a_edge10_Node000001_Node000011"><a xlink:title=" ">
<path fill="none" stroke="#9a32cd" stroke-dasharray="5,2" d="M1271.26,-57.75C1295.8,-56.61 1324.69,-57.45 1350,-64 1377.27,-71.05 1405.15,-89.21 1420.65,-100.49"/>
<polygon fill="#9a32cd" stroke="#9a32cd" points="1270.81,-54.27 1261.03,-58.35 1271.21,-61.26 1270.81,-54.27"/>
</a>
</g>
<text text-anchor="start" x="1292.5" y="-85" font-family="Helvetica,sans-Serif" font-size="10.00" fill="grey">m_density</text>
<text text-anchor="start" x="1292.5" y="-70" font-family="Helvetica,sans-Serif" font-size="10.00" fill="grey">m_velocity</text>
</g>
<!-- Node12 -->
<g id="Node000012" class="node">
<title>Node12</title>
<g id="a_Node000012"><a xlink:title=" ">
<polygon fill="white" stroke="#666666" points="1078,-199 958,-199 958,-169 1078,-169 1078,-199"/>
<text text-anchor="start" x="966" y="-187" font-family="Helvetica,sans-Serif" font-size="10.00">std::shared_ptr&lt; amr</text>
<text text-anchor="middle" x="1018" y="-176" font-family="Helvetica,sans-Serif" font-size="10.00">_wind::FieldInfo &gt;</text>
</a>
</g>
</g>
<!-- Node12&#45;&gt;Node11 -->
<g id="edge13_Node000011_Node000012" class="edge">
<title>Node12&#45;&gt;Node11</title>
<g id="a_edge13_Node000011_Node000012"><a xlink:title=" ">
<path fill="none" stroke="#9a32cd" stroke-dasharray="5,2" d="M1048.94,-162.94C1087.8,-135.64 1151.36,-91.13 1157,-88 1166.71,-82.61 1177.88,-77.61 1187.67,-73.58"/>
<polygon fill="#9a32cd" stroke="#9a32cd" points="1046.75,-160.2 1040.58,-168.82 1050.77,-165.93 1046.75,-160.2"/>
</a>
</g>
<text text-anchor="start" x="1100.5" y="-135.5" font-family="Helvetica,sans-Serif" font-size="10.00" fill="grey">m_info</text>
</g>
<!-- Node13&#45;&gt;Node12 -->
<g id="edge14_Node000012_Node000013" class="edge">
<title>Node13&#45;&gt;Node12</title>
<g id="a_edge14_Node000012_Node000013"><a xlink:title=" ">
<path fill="none" stroke="#9a32cd" stroke-dasharray="5,2" d="M849.13,-184C883.38,-184 924.85,-184 958,-184"/>
<polygon fill="#9a32cd" stroke="#9a32cd" points="848.75,-180.5 838.75,-184 848.75,-187.5 848.75,-180.5"/>
</a>
</g>
<text text-anchor="start" x="893.5" y="-189.5" font-family="Helvetica,sans-Serif" font-size="10.00" fill="grey">ptr</text>
</g>
<!-- Node14 -->
<g id="Node000014" class="node">
<title>Node14</title>
<g id="a_Node000014"><a xlink:title=" ">
<polygon fill="white" stroke="#666666" points="560,-213 391,-213 391,-183 560,-183 560,-213"/>
<text text-anchor="start" x="399" y="-201" font-family="Helvetica,sans-Serif" font-size="10.00">std::unique_ptr&lt; amr</text>
<text text-anchor="middle" x="475.5" y="-190" font-family="Helvetica,sans-Serif" font-size="10.00">_wind::FieldFillPatchOpsBase &gt;</text>
</a>
</g>
</g>
<!-- Node14&#45;&gt;Node13 -->
<g id="edge16_Node000013_Node000014" class="edge">
<title>Node14&#45;&gt;Node13</title>
<g id="a_edge16_Node000013_Node000014"><a xlink:title=" ">
<path fill="none" stroke="#9a32cd" stroke-dasharray="5,2" d="M570.13,-193.7C620.98,-191.36 682.13,-188.55 725.45,-186.55"/>
<polygon fill="#9a32cd" stroke="#9a32cd" points="569.94,-190.2 560.11,-194.16 570.26,-197.19 569.94,-190.2"/>
</a>
</g>
<text text-anchor="start" x="604.5" y="-199.5" font-family="Helvetica,sans-Serif" font-size="10.00" fill="grey">m_fillpatch_op</text>
</g>
<!-- Node15 -->
<g id="Node000015" class="node">
<title>Node15</title>
<g id="a_Node000015"><a xlink:href="classamr__wind_1_1_field_fill_patch_ops_base.html" target="_top" xlink:title=" ">
<polygon fill="white" stroke="#666666" points="219,-249 85,-249 85,-219 219,-219 219,-249"/>
<text text-anchor="start" x="93" y="-237" font-family="Helvetica,sans-Serif" font-size="10.00">amr_wind::FieldFillPatch</text>
<text text-anchor="middle" x="152" y="-226" font-family="Helvetica,sans-Serif" font-size="10.00">OpsBase</text>
</a>
</g>
</g>
<!-- Node15&#45;&gt;Node14 -->
<g id="edge17_Node000014_Node000015" class="edge">
<title>Node15&#45;&gt;Node14</title>
<g id="a_edge17_Node000014_Node000015"><a xlink:title=" ">
<path fill="none" stroke="#9a32cd" stroke-dasharray="5,2" d="M228.99,-227.11C271.41,-223.08 325.19,-217.69 373,-212 378.83,-211.31 384.84,-210.56 390.89,-209.78"/>
<polygon fill="#9a32cd" stroke="#9a32cd" points="228.64,-223.62 219.01,-228.05 229.3,-230.59 228.64,-223.62"/>
</a>
</g>
<text text-anchor="start" x="298" y="-230.5" font-family="Helvetica,sans-Serif" font-size="10.00" fill="grey">ptr</text>
</g>
<!-- Node16&#45;&gt;Node14 -->
<g id="edge18_Node000014_Node000016" class="edge">
<title>Node16&#45;&gt;Node14</title>
<g id="a_edge18_Node000014_Node000016"><a xlink:title=" ">
<path fill="none" stroke="orange" stroke-dasharray="5,2" d="M221.36,-181.3C226.64,-180.78 231.9,-180.33 237,-180 297.32,-176.07 312.79,-174.7 373,-180 381.2,-180.72 389.73,-181.76 398.21,-182.99"/>
<polygon fill="orange" stroke="orange" points="220.77,-177.84 211.2,-182.38 221.51,-184.8 220.77,-177.84"/>
</a>
</g>
<text text-anchor="start" x="240" y="-201" font-family="Helvetica,sans-Serif" font-size="10.00" fill="grey">&lt; amr_wind::FieldFillPatch</text>
<text text-anchor="start" x="240" y="-186" font-family="Helvetica,sans-Serif" font-size="10.00" fill="grey">  OpsBase &gt;</text>
</g>
<!-- Node17&#45;&gt;Node12 -->
<g id="edge20_Node000012_Node000017" class="edge">
<title>Node17&#45;&gt;Node12</title>
<g id="a_edge20_Node000012_Node000017"><a xlink:title=" ">
<path fill="none" stroke="orange" stroke-dasharray="5,2" d="M374.37,-267.53C491.15,-260.8 736.21,-243.13 940,-205 948.58,-203.39 957.6,-201.31 966.33,-199.07"/>
<polygon fill="orange" stroke="orange" points="373.93,-264.05 364.15,-268.11 374.33,-271.04 373.93,-264.05"/>
</a>
</g>
<text text-anchor="start" x="581.5" y="-257.5" font-family="Helvetica,sans-Serif" font-size="10.00" fill="grey">&lt; amr_wind::FieldInfo &gt;</text>
</g>
</g>
</svg>

<g id="navigator" transform="translate(0 0)" fill="#404254">
  <rect fill="#f2f5e9" fill-opacity="0.5" stroke="#606060" stroke-width=".5" x="0" y="0" width="60" height="60"/>
  <use id="zoomplus" xlink:href="#zoomPlus" x="17" y="9" onmousedown="handleZoom(evt,'in')"/>
  <use id="zoomminus" xlink:href="#zoomMin" x="42" y="9" onmousedown="handleZoom(evt,'out')"/>
  <use id="reset" xlink:href="#resetDef" x="30" y="36" onmousedown="handleReset()"/>
   <use id="arrowup" xlink:href="#arrowUp" x="0" y="0" onmousedown="handlePan(0,-1)"/>
  <use id="arrowright" xlink:href="#arrowRight" x="0" y="0" onmousedown="handlePan(1,0)"/>
  <use id="arrowdown" xlink:href="#arrowDown" x="0" y="0" onmousedown="handlePan(0,1)"/>
  <use id="arrowleft" xlink:href="#arrowLeft" x="0" y="0" onmousedown="handlePan(-1,0)"/>
</g>
<svg viewBox="0 0 15 15" width="100%" height="30px" preserveAspectRatio="xMaxYMin meet">
 <g id="arrow_out" transform="scale(0.3 0.3)">
  <a xlink:href="classamr__wind_1_1_ekman_spiral__coll__graph_org.svg" target="_base">
   <rect id="button" ry="5" rx="5" y="6" x="6" height="38" width="38"
        fill="#f2f5e9" fill-opacity="0.5" stroke="#606060" stroke-width="1.0"/>
   <path id="arrow"
     d="M 11.500037,31.436501 C 11.940474,20.09759 22.043105,11.32322 32.158766,21.979434 L 37.068811,17.246167 C 37.068811,17.246167 37.088388,32 37.088388,32 L 22.160133,31.978069 C 22.160133,31.978069 26.997745,27.140456 26.997745,27.140456 C 18.528582,18.264221 13.291696,25.230495 11.500037,31.436501 z"
     style="fill:#404040;"/>
  </a>
 </g>
</svg>

<style type='text/css'>
<![CDATA[
[data-mouse-over-selected='false'] { opacity: 0.7; }
[data-mouse-over-selected='true']  { opacity: 1.0; }
]]>
</style>
<script type="application/ecmascript"><![CDATA[
document.addEventListener('DOMContentLoaded', (event) => {
  highlightEdges();
  highlightAdjacentNodes();
});
]]></script>
</svg>
