<?xml version="1.0" encoding="UTF-8" standalone="no"?>
<!DOCTYPE svg PUBLIC "-//W3C//DTD SVG 1.1//EN"
 "http://www.w3.org/Graphics/SVG/1.1/DTD/svg11.dtd">
<!-- Generated by graphviz version 2.43.0 (0)
 -->
<!-- Title: amr_wind::pde::icns::ABLForcing Pages: 1 -->
<!--zoomable 273 -->

<svg id="main" version="1.1" xmlns="http://www.w3.org/2000/svg" xmlns:xlink="http://www.w3.org/1999/xlink" xml:space="preserve" onload="init(evt)">

<style type="text/css"><![CDATA[
.node, .edge {opacity: 0.7;}
.node.selected, .edge.selected {opacity: 1;}
.edge:hover path { stroke: red; }
.edge:hover polygon { stroke: red; fill: red; }
]]></style>

<defs>
  <circle id="rim" cx="0" cy="0" r="7"/>
  <circle id="rim2" cx="0" cy="0" r="3.5"/>
  <g id="zoomPlus">
    <use xlink:href="#rim" fill="#404040"><set attributeName="fill" to="#808080" begin="zoomplus.mouseover" end="zoomplus.mouseout"/></use>
    <path d="M-4,0h8M0,-4v8" fill="none" stroke="white" stroke-width="1.5" pointer-events="none"/>
  </g>
  <g id="zoomMin">
    <use xlink:href="#rim" fill="#404040"><set attributeName="fill" to="#808080" begin="zoomminus.mouseover" end="zoomminus.mouseout"/></use>
    <path d="M-4,0h8" fill="none" stroke="white" stroke-width="1.5" pointer-events="none"/>
  </g>
  <g id="arrowUp" transform="translate(30 24)">
    <use xlink:href="#rim"/>
    <path pointer-events="none" fill="none" stroke="white" stroke-width="1.5" d="M0,-3.0v7 M-2.5,-0.5L0,-3.0L2.5,-0.5"/>
  </g>
  <g id="arrowRight" transform="rotate(90) translate(36 -43)">
    <use xlink:href="#rim"/>
    <path pointer-events="none" fill="none" stroke="white" stroke-width="1.5" d="M0,-3.0v7 M-2.5,-0.5L0,-3.0L2.5,-0.5"/>
  </g>
  <g id="arrowDown" transform="rotate(180) translate(-30 -48)">
    <use xlink:href="#rim"/>
    <path pointer-events="none" fill="none" stroke="white" stroke-width="1.5" d="M0,-3.0v7 M-2.5,-0.5L0,-3.0L2.5,-0.5"/>
  </g>
  <g id="arrowLeft" transform="rotate(270) translate(-36 17)">
    <use xlink:href="#rim"/>
    <path pointer-events="none" fill="none" stroke="white" stroke-width="1.5" d="M0,-3.0v7 M-2.5,-0.5L0,-3.0L2.5,-0.5"/>
  </g>
  <g id="resetDef">
    <use xlink:href="#rim2" fill="#404040"><set attributeName="fill" to="#808080" begin="reset.mouseover" end="reset.mouseout"/></use>
  </g>
</defs>
<script type="application/ecmascript">
var viewWidth = 1500;
var viewHeight = 273;
var sectionId = 'dynsection-1';
</script>
<script type="application/ecmascript" xlink:href="svg.min.js"/>
<svg id="graph" class="graph">
<g id="viewport">
<title>amr_wind::pde::icns::ABLForcing</title>
<!-- Node1 -->
<g id="Node000001" class="node">
<title>Node1</title>
<g id="a_Node000001"><a xlink:title=" ">
<polygon fill="#999999" stroke="#666666" points="1492,-156 1378,-156 1378,-126 1492,-126 1492,-156"/>
<text text-anchor="start" x="1386" y="-144" font-family="Helvetica,sans-Serif" font-size="10.00">amr_wind::pde::icns</text>
<text text-anchor="middle" x="1435" y="-133" font-family="Helvetica,sans-Serif" font-size="10.00">::ABLForcing</text>
</a>
</g>
</g>
<!-- Node2 -->
<g id="Node000002" class="node">
<title>Node2</title>
<g id="a_Node000002"><a xlink:title=" ">
<polygon fill="white" stroke="#666666" points="1298,-229.5 1157,-229.5 1157,-188.5 1298,-188.5 1298,-229.5"/>
<text text-anchor="start" x="1165" y="-217.5" font-family="Helvetica,sans-Serif" font-size="10.00">amr_wind::Factory&lt;</text>
<text text-anchor="start" x="1165" y="-206.5" font-family="Helvetica,sans-Serif" font-size="10.00"> MomentumSource, const</text>
<text text-anchor="middle" x="1227.5" y="-195.5" font-family="Helvetica,sans-Serif" font-size="10.00"> CFDSim &amp; &gt;::Register</text>
</a>
</g>
</g>
<!-- Node2&#45;&gt;Node1 -->
<g id="edge1_Node000001_Node000002" class="edge">
<title>Node2&#45;&gt;Node1</title>
<g id="a_edge1_Node000001_Node000002"><a xlink:title=" ">
<path fill="none" stroke="#63b8ff" d="M1308.34,-189.08C1325.52,-184.26 1343.48,-178.8 1360,-173 1374,-168.08 1389.09,-161.75 1401.97,-156.02"/>
<polygon fill="#63b8ff" stroke="#63b8ff" points="1307.04,-185.81 1298.33,-191.85 1308.91,-192.56 1307.04,-185.81"/>
</a>
</g>
</g>
<!-- Node3 -->
<g id="Node000003" class="node">
<title>Node3</title>
<g id="a_Node000003"><a xlink:href="classamr__wind_1_1_sim_time.html" target="_top" xlink:title=" ">
<polygon fill="white" stroke="#666666" points="1284.5,-170.5 1170.5,-170.5 1170.5,-151.5 1284.5,-151.5 1284.5,-170.5"/>
<text text-anchor="middle" x="1227.5" y="-158.5" font-family="Helvetica,sans-Serif" font-size="10.00">amr_wind::SimTime</text>
</a>
</g>
</g>
<!-- Node3&#45;&gt;Node1 -->
<g id="edge2_Node000001_Node000003" class="edge">
<title>Node3&#45;&gt;Node1</title>
<g id="a_edge2_Node000001_Node000003"><a xlink:title=" ">
<path fill="none" stroke="#9a32cd" stroke-dasharray="5,2" d="M1294.73,-154.55C1321.56,-151.94 1352.21,-148.96 1377.91,-146.46"/>
<polygon fill="#9a32cd" stroke="#9a32cd" points="1294.27,-151.08 1284.65,-155.53 1294.95,-158.05 1294.27,-151.08"/>
</a>
</g>
<text text-anchor="start" x="1319" y="-157.5" font-family="Helvetica,sans-Serif" font-size="10.00" fill="grey">m_time</text>
</g>
<!-- Node4 -->
<g id="Node000004" class="node">
<title>Node4</title>
<g id="a_Node000004"><a xlink:title=" ">
<polygon fill="white" stroke="#666666" points="508,-124.5 443,-124.5 443,-105.5 508,-105.5 508,-124.5"/>
<text text-anchor="middle" x="475.5" y="-112.5" font-family="Helvetica,sans-Serif" font-size="10.00">std::string</text>
</a>
</g>
</g>
<!-- Node4&#45;&gt;Node1 -->
<g id="edge3_Node000001_Node000004" class="edge">
<title>Node4&#45;&gt;Node1</title>
<g id="a_edge3_Node000001_Node000004"><a xlink:title=" ">
<path fill="none" stroke="#9a32cd" stroke-dasharray="5,2" d="M508.88,-101.73C563.84,-80.43 679.34,-41 781,-41 781,-41 781,-41 1228.5,-41 1305.08,-41 1382.99,-97.84 1416.7,-125.81"/>
<polygon fill="#9a32cd" stroke="#9a32cd" points="507.37,-98.56 499.34,-105.48 509.93,-105.08 507.37,-98.56"/>
</a>
</g>
<text text-anchor="start" x="972" y="-62" font-family="Helvetica,sans-Serif" font-size="10.00" fill="grey">m_force_timetable</text>
<text text-anchor="start" x="972" y="-47" font-family="Helvetica,sans-Serif" font-size="10.00" fill="grey">m_vel_timetable</text>
</g>
<!-- Node6 -->
<g id="Node000006" class="node">
<title>Node6</title>
<g id="a_Node000006"><a xlink:href="classamr__wind_1_1_field.html" target="_top" xlink:title=" ">
<polygon fill="white" stroke="#666666" points="1274.5,-132.5 1180.5,-132.5 1180.5,-113.5 1274.5,-113.5 1274.5,-132.5"/>
<text text-anchor="middle" x="1227.5" y="-120.5" font-family="Helvetica,sans-Serif" font-size="10.00">amr_wind::Field</text>
</a>
</g>
</g>
<!-- Node4&#45;&gt;Node6 -->
<g id="edge12_Node000006_Node000004" class="edge">
<title>Node4&#45;&gt;Node6</title>
<g id="a_edge12_Node000006_Node000004"><a xlink:title=" ">
<path fill="none" stroke="#9a32cd" stroke-dasharray="5,2" d="M518.49,-119.54C536.75,-121.31 558.41,-123.11 578,-124 807.99,-134.4 865.78,-124.78 1096,-125 1115.11,-125.02 1119.89,-125.22 1139,-125 1152.37,-124.85 1166.89,-124.56 1180.18,-124.26"/>
<polygon fill="#9a32cd" stroke="#9a32cd" points="518.75,-116.05 508.45,-118.55 518.06,-123.02 518.75,-116.05"/>
</a>
</g>
<text text-anchor="start" x="879.5" y="-132.5" font-family="Helvetica,sans-Serif" font-size="10.00" fill="grey">m_name</text>
</g>
<!-- Node8 -->
<g id="Node000008" class="node">
<title>Node8</title>
<g id="a_Node000008"><a xlink:title=" ">
<polygon fill="white" stroke="#666666" points="843,-99 721,-99 721,-69 843,-69 843,-99"/>
<text text-anchor="start" x="729" y="-87" font-family="Helvetica,sans-Serif" font-size="10.00">std::unordered_map</text>
<text text-anchor="middle" x="782" y="-76" font-family="Helvetica,sans-Serif" font-size="10.00">&lt; std::string, size_t &gt;</text>
</a>
</g>
</g>
<!-- Node4&#45;&gt;Node8 -->
<g id="edge8_Node000008_Node000004" class="edge">
<title>Node4&#45;&gt;Node8</title>
<g id="a_edge8_Node000008_Node000004"><a xlink:title=" ">
<path fill="none" stroke="#9a32cd" stroke-dasharray="5,2" d="M518.18,-110.76C570.6,-105.42 660.97,-96.22 720.87,-90.12"/>
<polygon fill="#9a32cd" stroke="#9a32cd" points="517.82,-107.28 508.23,-111.77 518.53,-114.24 517.82,-107.28"/>
</a>
</g>
<text text-anchor="start" x="629.5" y="-109.5" font-family="Helvetica,sans-Serif" font-size="10.00" fill="grey">keys</text>
</g>
<!-- Node13 -->
<g id="Node000013" class="node">
<title>Node13</title>
<g id="a_Node000013"><a xlink:href="structamr__wind_1_1_field_info.html" target="_top" xlink:title=" ">
<polygon fill="white" stroke="#666666" points="838.5,-205.5 725.5,-205.5 725.5,-186.5 838.5,-186.5 838.5,-205.5"/>
<text text-anchor="middle" x="782" y="-193.5" font-family="Helvetica,sans-Serif" font-size="10.00">amr_wind::FieldInfo</text>
</a>
</g>
</g>
<!-- Node4&#45;&gt;Node13 -->
<g id="edge15_Node000013_Node000004" class="edge">
<title>Node4&#45;&gt;Node13</title>
<g id="a_edge15_Node000013_Node000004"><a xlink:title=" ">
<path fill="none" stroke="#9a32cd" stroke-dasharray="5,2" d="M512.17,-127.95C531.5,-134.71 555.9,-142.84 578,-149 632.84,-164.28 647.56,-164.04 703,-177 715.89,-180.01 729.96,-183.41 742.55,-186.48"/>
<polygon fill="#9a32cd" stroke="#9a32cd" points="513.15,-124.58 502.56,-124.55 510.82,-131.18 513.15,-124.58"/>
</a>
</g>
<text text-anchor="start" x="607.5" y="-182.5" font-family="Helvetica,sans-Serif" font-size="10.00" fill="grey">m_basename</text>
</g>
<!-- Node5 -->
<g id="Node000005" class="node">
<title>Node5</title>
<g id="a_Node000005"><a xlink:title=" ">
<polygon fill="white" stroke="#666666" points="204,-130 100,-130 100,-100 204,-100 204,-130"/>
<text text-anchor="start" x="108" y="-118" font-family="Helvetica,sans-Serif" font-size="10.00">std::basic_string&lt;</text>
<text text-anchor="middle" x="152" y="-107" font-family="Helvetica,sans-Serif" font-size="10.00"> Char &gt;</text>
</a>
</g>
</g>
<!-- Node5&#45;&gt;Node4 -->
<g id="edge4_Node000004_Node000005" class="edge">
<title>Node5&#45;&gt;Node4</title>
<g id="a_edge4_Node000004_Node000005"><a xlink:title=" ">
<path fill="none" stroke="#63b8ff" d="M214.48,-115C282.65,-115 389.98,-115 442.88,-115"/>
<polygon fill="#63b8ff" stroke="#63b8ff" points="214.3,-111.5 204.3,-115 214.3,-118.5 214.3,-111.5"/>
</a>
</g>
</g>
<!-- Node6&#45;&gt;Node1 -->
<g id="edge5_Node000001_Node000006" class="edge">
<title>Node6&#45;&gt;Node1</title>
<g id="a_edge5_Node000001_Node000006"><a xlink:title=" ">
<path fill="none" stroke="#9a32cd" stroke-dasharray="5,2" d="M1284.71,-119.29C1308.08,-118.6 1335.44,-118.9 1360,-122 1367.24,-122.91 1374.78,-124.31 1382.16,-125.95"/>
<polygon fill="#9a32cd" stroke="#9a32cd" points="1284.49,-115.8 1274.62,-119.66 1284.74,-122.79 1284.49,-115.8"/>
</a>
</g>
<text text-anchor="start" x="1323" y="-127.5" font-family="Helvetica,sans-Serif" font-size="10.00" fill="grey">m_vof</text>
</g>
<!-- Node7 -->
<g id="Node000007" class="node">
<title>Node7</title>
<g id="a_Node000007"><a xlink:href="classamr__wind_1_1_field_repo.html" target="_top" xlink:title=" ">
<polygon fill="white" stroke="#666666" points="1077.5,-110.5 958.5,-110.5 958.5,-91.5 1077.5,-91.5 1077.5,-110.5"/>
<text text-anchor="middle" x="1018" y="-98.5" font-family="Helvetica,sans-Serif" font-size="10.00">amr_wind::FieldRepo</text>
</a>
</g>
</g>
<!-- Node7&#45;&gt;Node6 -->
<g id="edge6_Node000006_Node000007" class="edge">
<title>Node7&#45;&gt;Node6</title>
<g id="a_edge6_Node000006_Node000007"><a xlink:title=" ">
<path fill="none" stroke="#9a32cd" stroke-dasharray="5,2" d="M1087.96,-103.7C1104.7,-104.72 1122.52,-106.11 1139,-108 1152.47,-109.54 1167.03,-111.8 1180.32,-114.09"/>
<polygon fill="#9a32cd" stroke="#9a32cd" points="1087.89,-100.19 1077.71,-103.11 1087.49,-107.18 1087.89,-100.19"/>
</a>
</g>
<text text-anchor="start" x="1099.5" y="-113.5" font-family="Helvetica,sans-Serif" font-size="10.00" fill="grey">m_repo</text>
</g>
<!-- Node8&#45;&gt;Node7 -->
<g id="edge7_Node000007_Node000008" class="edge">
<title>Node8&#45;&gt;Node7</title>
<g id="a_edge7_Node000007_Node000008"><a xlink:title=" ">
<path fill="none" stroke="#9a32cd" stroke-dasharray="5,2" d="M853.36,-81.48C880.5,-81.28 911.76,-82.01 940,-85 952.63,-86.34 966.24,-88.82 978.46,-91.43"/>
<polygon fill="#9a32cd" stroke="#9a32cd" points="853.13,-77.98 843.17,-81.6 853.21,-84.98 853.13,-77.98"/>
</a>
</g>
<text text-anchor="start" x="864.5" y="-106" font-family="Helvetica,sans-Serif" font-size="10.00" fill="grey">m_fid_map</text>
<text text-anchor="start" x="864.5" y="-91" font-family="Helvetica,sans-Serif" font-size="10.00" fill="grey">m_int_fid_map</text>
</g>
<!-- Node9 -->
<g id="Node000009" class="node">
<title>Node9</title>
<g id="a_Node000009"><a xlink:title=" ">
<polygon fill="white" stroke="#666666" points="532.5,-30 418.5,-30 418.5,0 532.5,0 532.5,-30"/>
<text text-anchor="start" x="426.5" y="-18" font-family="Helvetica,sans-Serif" font-size="10.00">std::unordered_map</text>
<text text-anchor="middle" x="475.5" y="-7" font-family="Helvetica,sans-Serif" font-size="10.00">&lt; K, T &gt;</text>
</a>
</g>
</g>
<!-- Node9&#45;&gt;Node8 -->
<g id="edge9_Node000008_Node000009" class="edge">
<title>Node9&#45;&gt;Node8</title>
<g id="a_edge9_Node000008_Node000009"><a xlink:title=" ">
<path fill="none" stroke="orange" stroke-dasharray="5,2" d="M542.69,-30C595.76,-42.02 669.59,-58.75 720.95,-70.39"/>
<polygon fill="orange" stroke="orange" points="543.23,-26.53 532.7,-27.74 541.68,-33.36 543.23,-26.53"/>
</a>
</g>
<text text-anchor="start" x="587.5" y="-71.5" font-family="Helvetica,sans-Serif" font-size="10.00" fill="grey">&lt; std::string, size_t &gt;</text>
</g>
<!-- Node10 -->
<g id="Node000010" class="node">
<title>Node10</title>
<g id="a_Node000010"><a xlink:title=" ">
<polygon fill="white" stroke="#666666" points="166.5,-24.5 137.5,-24.5 137.5,-5.5 166.5,-5.5 166.5,-24.5"/>
<text text-anchor="middle" x="152" y="-12.5" font-family="Helvetica,sans-Serif" font-size="10.00">K</text>
</a>
</g>
</g>
<!-- Node10&#45;&gt;Node9 -->
<g id="edge10_Node000009_Node000010" class="edge">
<title>Node10&#45;&gt;Node9</title>
<g id="a_edge10_Node000009_Node000010"><a xlink:title=" ">
<path fill="none" stroke="#9a32cd" stroke-dasharray="5,2" d="M177.13,-15C228,-15 347.39,-15 418.45,-15"/>
<polygon fill="#9a32cd" stroke="#9a32cd" points="176.81,-11.5 166.81,-15 176.81,-18.5 176.81,-11.5"/>
</a>
</g>
<text text-anchor="start" x="294" y="-20.5" font-family="Helvetica,sans-Serif" font-size="10.00" fill="grey">keys</text>
</g>
<!-- Node11 -->
<g id="Node000011" class="node">
<title>Node11</title>
<g id="a_Node000011"><a xlink:title=" ">
<polygon fill="white" stroke="#666666" points="29,-216.5 0,-216.5 0,-197.5 29,-197.5 29,-216.5"/>
<text text-anchor="middle" x="14.5" y="-204.5" font-family="Helvetica,sans-Serif" font-size="10.00">T</text>
</a>
</g>
</g>
<!-- Node11&#45;&gt;Node9 -->
<g id="edge11_Node000009_Node000011" class="edge">
<title>Node11&#45;&gt;Node9</title>
<g id="a_edge11_Node000009_Node000011"><a xlink:title=" ">
<path fill="none" stroke="#9a32cd" stroke-dasharray="5,2" d="M19.74,-187.22C27.27,-157.34 46,-101.27 85,-74 190.81,-0.01 245.7,-57.54 373,-36 387.73,-33.51 403.57,-30.43 418.27,-27.4"/>
<polygon fill="#9a32cd" stroke="#9a32cd" points="16.26,-186.75 17.38,-197.28 23.07,-188.34 16.26,-186.75"/>
</a>
</g>
<text text-anchor="start" x="129" y="-79.5" font-family="Helvetica,sans-Serif" font-size="10.00" fill="grey">elements</text>
</g>
<!-- Node16 -->
<g id="Node000016" class="node">
<title>Node16</title>
<g id="a_Node000016"><a xlink:title=" ">
<polygon fill="white" stroke="#666666" points="211,-216.5 93,-216.5 93,-197.5 211,-197.5 211,-216.5"/>
<text text-anchor="middle" x="152" y="-204.5" font-family="Helvetica,sans-Serif" font-size="10.00">std::unique_ptr&lt; T &gt;</text>
</a>
</g>
</g>
<!-- Node11&#45;&gt;Node16 -->
<g id="edge19_Node000016_Node000011" class="edge">
<title>Node11&#45;&gt;Node16</title>
<g id="a_edge19_Node000016_Node000011"><a xlink:title=" ">
<path fill="none" stroke="#9a32cd" stroke-dasharray="5,2" d="M39.53,-207C54.35,-207 74.04,-207 92.75,-207"/>
<polygon fill="#9a32cd" stroke="#9a32cd" points="39.24,-203.5 29.24,-207 39.24,-210.5 39.24,-203.5"/>
</a>
</g>
<text text-anchor="start" x="50" y="-212.5" font-family="Helvetica,sans-Serif" font-size="10.00" fill="grey">ptr</text>
</g>
<!-- Node17 -->
<g id="Node000017" class="node">
<title>Node17</title>
<g id="a_Node000017"><a xlink:title=" ">
<polygon fill="white" stroke="#666666" points="364,-260.5 246,-260.5 246,-241.5 364,-241.5 364,-260.5"/>
<text text-anchor="middle" x="305" y="-248.5" font-family="Helvetica,sans-Serif" font-size="10.00">std::shared_ptr&lt; T &gt;</text>
</a>
</g>
</g>
<!-- Node11&#45;&gt;Node17 -->
<g id="edge21_Node000017_Node000011" class="edge">
<title>Node11&#45;&gt;Node17</title>
<g id="a_edge21_Node000017_Node000011"><a xlink:title=" ">
<path fill="none" stroke="#9a32cd" stroke-dasharray="5,2" d="M36.24,-222.06C39.7,-224.01 43.35,-225.75 47,-227 112.62,-249.43 192.82,-253.51 245.99,-253.23"/>
<polygon fill="#9a32cd" stroke="#9a32cd" points="37.99,-219.03 27.67,-216.64 34.25,-224.94 37.99,-219.03"/>
</a>
</g>
<text text-anchor="start" x="50" y="-237.5" font-family="Helvetica,sans-Serif" font-size="10.00" fill="grey">ptr</text>
</g>
<!-- Node12 -->
<g id="Node000012" class="node">
<title>Node12</title>
<g id="a_Node000012"><a xlink:title=" ">
<polygon fill="white" stroke="#666666" points="1078,-211 958,-211 958,-181 1078,-181 1078,-211"/>
<text text-anchor="start" x="966" y="-199" font-family="Helvetica,sans-Serif" font-size="10.00">std::shared_ptr&lt; amr</text>
<text text-anchor="middle" x="1018" y="-188" font-family="Helvetica,sans-Serif" font-size="10.00">_wind::FieldInfo &gt;</text>
</a>
</g>
</g>
<!-- Node12&#45;&gt;Node6 -->
<g id="edge13_Node000006_Node000012" class="edge">
<title>Node12&#45;&gt;Node6</title>
<g id="a_edge13_Node000006_Node000012"><a xlink:title=" ">
<path fill="none" stroke="#9a32cd" stroke-dasharray="5,2" d="M1076.11,-177.67C1096.27,-170.64 1118.91,-162.11 1139,-153 1147.34,-149.22 1148.55,-146.51 1157,-143 1166.62,-139 1177.31,-135.5 1187.37,-132.58"/>
<polygon fill="#9a32cd" stroke="#9a32cd" points="1074.75,-174.43 1066.43,-180.99 1077.03,-181.05 1074.75,-174.43"/>
</a>
</g>
<text text-anchor="start" x="1100.5" y="-175.5" font-family="Helvetica,sans-Serif" font-size="10.00" fill="grey">m_info</text>
</g>
<!-- Node13&#45;&gt;Node12 -->
<g id="edge14_Node000012_Node000013" class="edge">
<title>Node13&#45;&gt;Node12</title>
<g id="a_edge14_Node000012_Node000013"><a xlink:title=" ">
<path fill="none" stroke="#9a32cd" stroke-dasharray="5,2" d="M849.13,-196C883.38,-196 924.85,-196 958,-196"/>
<polygon fill="#9a32cd" stroke="#9a32cd" points="848.75,-192.5 838.75,-196 848.75,-199.5 848.75,-192.5"/>
</a>
</g>
<text text-anchor="start" x="893.5" y="-201.5" font-family="Helvetica,sans-Serif" font-size="10.00" fill="grey">ptr</text>
</g>
<!-- Node14 -->
<g id="Node000014" class="node">
<title>Node14</title>
<g id="a_Node000014"><a xlink:title=" ">
<polygon fill="white" stroke="#666666" points="560,-219 391,-219 391,-189 560,-189 560,-219"/>
<text text-anchor="start" x="399" y="-207" font-family="Helvetica,sans-Serif" font-size="10.00">std::unique_ptr&lt; amr</text>
<text text-anchor="middle" x="475.5" y="-196" font-family="Helvetica,sans-Serif" font-size="10.00">_wind::FieldFillPatchOpsBase &gt;</text>
</a>
</g>
</g>
<!-- Node14&#45;&gt;Node13 -->
<g id="edge16_Node000013_Node000014" class="edge">
<title>Node14&#45;&gt;Node13</title>
<g id="a_edge16_Node000013_Node000014"><a xlink:title=" ">
<path fill="none" stroke="#9a32cd" stroke-dasharray="5,2" d="M570.13,-201.54C620.98,-200.2 682.13,-198.6 725.45,-197.46"/>
<polygon fill="#9a32cd" stroke="#9a32cd" points="570.01,-198.04 560.11,-201.8 570.2,-205.04 570.01,-198.04"/>
</a>
</g>
<text text-anchor="start" x="604.5" y="-206.5" font-family="Helvetica,sans-Serif" font-size="10.00" fill="grey">m_fillpatch_op</text>
</g>
<!-- Node15 -->
<g id="Node000015" class="node">
<title>Node15</title>
<g id="a_Node000015"><a xlink:href="classamr__wind_1_1_field_fill_patch_ops_base.html" target="_top" xlink:title=" ">
<polygon fill="white" stroke="#666666" points="219,-179 85,-179 85,-149 219,-149 219,-179"/>
<text text-anchor="start" x="93" y="-167" font-family="Helvetica,sans-Serif" font-size="10.00">amr_wind::FieldFillPatch</text>
<text text-anchor="middle" x="152" y="-156" font-family="Helvetica,sans-Serif" font-size="10.00">OpsBase</text>
</a>
</g>
</g>
<!-- Node15&#45;&gt;Node14 -->
<g id="edge17_Node000014_Node000015" class="edge">
<title>Node15&#45;&gt;Node14</title>
<g id="a_edge17_Node000014_Node000015"><a xlink:title=" ">
<path fill="none" stroke="#9a32cd" stroke-dasharray="5,2" d="M229.3,-165.35C271.81,-166.97 325.58,-170.49 373,-178 389.62,-180.63 407.48,-184.76 423.52,-188.95"/>
<polygon fill="#9a32cd" stroke="#9a32cd" points="229.42,-161.85 219.3,-164.99 229.17,-168.84 229.42,-161.85"/>
</a>
</g>
<text text-anchor="start" x="298" y="-183.5" font-family="Helvetica,sans-Serif" font-size="10.00" fill="grey">ptr</text>
</g>
<!-- Node16&#45;&gt;Node14 -->
<g id="edge18_Node000014_Node000016" class="edge">
<title>Node16&#45;&gt;Node14</title>
<g id="a_edge18_Node000014_Node000016"><a xlink:title=" ">
<path fill="none" stroke="orange" stroke-dasharray="5,2" d="M221.41,-201.71C226.68,-201.42 231.92,-201.18 237,-201 288.1,-199.18 345.42,-199.82 390.94,-200.98"/>
<polygon fill="orange" stroke="orange" points="221.04,-198.22 211.26,-202.3 221.45,-205.21 221.04,-198.22"/>
</a>
</g>
<text text-anchor="start" x="240" y="-222" font-family="Helvetica,sans-Serif" font-size="10.00" fill="grey">&lt; amr_wind::FieldFillPatch</text>
<text text-anchor="start" x="240" y="-207" font-family="Helvetica,sans-Serif" font-size="10.00" fill="grey">  OpsBase &gt;</text>
</g>
<!-- Node17&#45;&gt;Node12 -->
<g id="edge20_Node000012_Node000017" class="edge">
<title>Node17&#45;&gt;Node12</title>
<g id="a_edge20_Node000012_Node000017"><a xlink:title=" ">
<path fill="none" stroke="orange" stroke-dasharray="5,2" d="M374.35,-252.07C491.11,-252.85 736.13,-249.88 940,-217 949.17,-215.52 958.81,-213.38 968.05,-211.02"/>
<polygon fill="orange" stroke="orange" points="374.16,-248.57 364.13,-251.99 374.1,-255.57 374.16,-248.57"/>
</a>
</g>
<text text-anchor="start" x="581.5" y="-253.5" font-family="Helvetica,sans-Serif" font-size="10.00" fill="grey">&lt; amr_wind::FieldInfo &gt;</text>
</g>
</g>
</svg>

<g id="navigator" transform="translate(0 0)" fill="#404254">
  <rect fill="#f2f5e9" fill-opacity="0.5" stroke="#606060" stroke-width=".5" x="0" y="0" width="60" height="60"/>
  <use id="zoomplus" xlink:href="#zoomPlus" x="17" y="9" onmousedown="handleZoom(evt,'in')"/>
  <use id="zoomminus" xlink:href="#zoomMin" x="42" y="9" onmousedown="handleZoom(evt,'out')"/>
  <use id="reset" xlink:href="#resetDef" x="30" y="36" onmousedown="handleReset()"/>
   <use id="arrowup" xlink:href="#arrowUp" x="0" y="0" onmousedown="handlePan(0,-1)"/>
  <use id="arrowright" xlink:href="#arrowRight" x="0" y="0" onmousedown="handlePan(1,0)"/>
  <use id="arrowdown" xlink:href="#arrowDown" x="0" y="0" onmousedown="handlePan(0,1)"/>
  <use id="arrowleft" xlink:href="#arrowLeft" x="0" y="0" onmousedown="handlePan(-1,0)"/>
</g>
<svg viewBox="0 0 15 15" width="100%" height="30px" preserveAspectRatio="xMaxYMin meet">
 <g id="arrow_out" transform="scale(0.3 0.3)">
  <a xlink:href="classamr__wind_1_1pde_1_1icns_1_1_a_b_l_forcing__coll__graph_org.svg" target="_base">
   <rect id="button" ry="5" rx="5" y="6" x="6" height="38" width="38"
        fill="#f2f5e9" fill-opacity="0.5" stroke="#606060" stroke-width="1.0"/>
   <path id="arrow"
     d="M 11.500037,31.436501 C 11.940474,20.09759 22.043105,11.32322 32.158766,21.979434 L 37.068811,17.246167 C 37.068811,17.246167 37.088388,32 37.088388,32 L 22.160133,31.978069 C 22.160133,31.978069 26.997745,27.140456 26.997745,27.140456 C 18.528582,18.264221 13.291696,25.230495 11.500037,31.436501 z"
     style="fill:#404040;"/>
  </a>
 </g>
</svg>

<style type='text/css'>
<![CDATA[
[data-mouse-over-selected='false'] { opacity: 0.7; }
[data-mouse-over-selected='true']  { opacity: 1.0; }
]]>
</style>
<script type="application/ecmascript"><![CDATA[
document.addEventListener('DOMContentLoaded', (event) => {
  highlightEdges();
  highlightAdjacentNodes();
});
]]></script>
</svg>
