<?xml version="1.0" encoding="UTF-8" standalone="no"?>
<!DOCTYPE svg PUBLIC "-//W3C//DTD SVG 1.1//EN"
 "http://www.w3.org/Graphics/SVG/1.1/DTD/svg11.dtd">
<!-- Generated by graphviz version 2.43.0 (0)
 -->
<!-- Title: amr_wind::pde::temperature::BodyForce Pages: 1 -->
<svg width="569pt" height="147pt"
 viewBox="0.00 0.00 569.00 146.50" xmlns="http://www.w3.org/2000/svg" xmlns:xlink="http://www.w3.org/1999/xlink">
<g id="graph0" class="graph" transform="scale(1 1) rotate(0) translate(4 142.5)">
<title>amr_wind::pde::temperature::BodyForce</title>
<!-- Node1 -->
<g id="Node000001" class="node">
<title>Node1</title>
<g id="a_Node000001"><a xlink:title=" ">
<polygon fill="#999999" stroke="#666666" points="561,-85 406,-85 406,-55 561,-55 561,-85"/>
<text text-anchor="start" x="414" y="-73" font-family="Helvetica,sans-Serif" font-size="10.00">amr_wind::pde::temperature</text>
<text text-anchor="middle" x="483.5" y="-62" font-family="Helvetica,sans-Serif" font-size="10.00">::BodyForce</text>
</a>
</g>
</g>
<!-- Node2 -->
<g id="Node000002" class="node">
<title>Node2</title>
<g id="a_Node000002"><a xlink:title=" ">
<polygon fill="white" stroke="#666666" points="297,-138.5 141,-138.5 141,-97.5 297,-97.5 297,-138.5"/>
<text text-anchor="start" x="149" y="-126.5" font-family="Helvetica,sans-Serif" font-size="10.00">amr_wind::Factory&lt;</text>
<text text-anchor="start" x="149" y="-115.5" font-family="Helvetica,sans-Serif" font-size="10.00"> TemperatureSource,</text>
<text text-anchor="middle" x="219" y="-104.5" font-family="Helvetica,sans-Serif" font-size="10.00"> const CFDSim &amp; &gt;::Register</text>
</a>
</g>
</g>
<!-- Node2&#45;&gt;Node1 -->
<g id="edge1_Node000001_Node000002" class="edge">
<title>Node2&#45;&gt;Node1</title>
<g id="a_edge1_Node000001_Node000002"><a xlink:title=" ">
<path fill="none" stroke="#63b8ff" d="M307.33,-104.97C333.34,-100.82 361.87,-96 388,-91 397.49,-89.18 407.49,-87.12 417.28,-85.02"/>
<polygon fill="#63b8ff" stroke="#63b8ff" points="306.44,-101.57 297.11,-106.59 307.54,-108.48 306.44,-101.57"/>
</a>
</g>
</g>
<!-- Node3 -->
<g id="Node000003" class="node">
<title>Node3</title>
<g id="a_Node000003"><a xlink:href="classamr__wind_1_1_sim_time.html" target="_top" xlink:title=" ">
<polygon fill="white" stroke="#666666" points="276,-79.5 162,-79.5 162,-60.5 276,-60.5 276,-79.5"/>
<text text-anchor="middle" x="219" y="-67.5" font-family="Helvetica,sans-Serif" font-size="10.00">amr_wind::SimTime</text>
</a>
</g>
</g>
<!-- Node3&#45;&gt;Node1 -->
<g id="edge2_Node000001_Node000003" class="edge">
<title>Node3&#45;&gt;Node1</title>
<g id="a_edge2_Node000001_Node000003"><a xlink:title=" ">
<path fill="none" stroke="#9a32cd" stroke-dasharray="5,2" d="M286.32,-70C322.7,-70 367.98,-70 405.86,-70"/>
<polygon fill="#9a32cd" stroke="#9a32cd" points="286.31,-66.5 276.31,-70 286.31,-73.5 286.31,-66.5"/>
</a>
</g>
<text text-anchor="start" x="332.5" y="-75.5" font-family="Helvetica,sans-Serif" font-size="10.00" fill="grey">m_time</text>
</g>
<!-- Node4 -->
<g id="Node000004" class="node">
<title>Node4</title>
<g id="a_Node000004"><a xlink:title=" ">
<polygon fill="white" stroke="#666666" points="251.5,-24.5 186.5,-24.5 186.5,-5.5 251.5,-5.5 251.5,-24.5"/>
<text text-anchor="middle" x="219" y="-12.5" font-family="Helvetica,sans-Serif" font-size="10.00">std::string</text>
</a>
</g>
</g>
<!-- Node4&#45;&gt;Node1 -->
<g id="edge3_Node000001_Node000004" class="edge">
<title>Node4&#45;&gt;Node1</title>
<g id="a_edge3_Node000001_Node000004"><a xlink:title=" ">
<path fill="none" stroke="#9a32cd" stroke-dasharray="5,2" d="M261.81,-16.81C296.12,-18.99 345.74,-23.73 388,-34 408.81,-39.06 431.25,-47.47 449.04,-54.89"/>
<polygon fill="#9a32cd" stroke="#9a32cd" points="261.87,-13.31 251.68,-16.21 261.46,-20.29 261.87,-13.31"/>
</a>
</g>
<text text-anchor="start" x="318.5" y="-55" font-family="Helvetica,sans-Serif" font-size="10.00" fill="grey">m_bforce_file</text>
<text text-anchor="start" x="318.5" y="-40" font-family="Helvetica,sans-Serif" font-size="10.00" fill="grey">m_type</text>
</g>
<!-- Node5 -->
<g id="Node000005" class="node">
<title>Node5</title>
<g id="a_Node000005"><a xlink:title=" ">
<polygon fill="white" stroke="#666666" points="104,-30 0,-30 0,0 104,0 104,-30"/>
<text text-anchor="start" x="8" y="-18" font-family="Helvetica,sans-Serif" font-size="10.00">std::basic_string&lt;</text>
<text text-anchor="middle" x="52" y="-7" font-family="Helvetica,sans-Serif" font-size="10.00"> Char &gt;</text>
</a>
</g>
</g>
<!-- Node5&#45;&gt;Node4 -->
<g id="edge4_Node000004_Node000005" class="edge">
<title>Node5&#45;&gt;Node4</title>
<g id="a_edge4_Node000004_Node000005"><a xlink:title=" ">
<path fill="none" stroke="#63b8ff" d="M114.59,-15C139.04,-15 166.11,-15 186.42,-15"/>
<polygon fill="#63b8ff" stroke="#63b8ff" points="114.3,-11.5 104.3,-15 114.3,-18.5 114.3,-11.5"/>
</a>
</g>
</g>
</g>
</svg>
