<?xml version="1.0" encoding="UTF-8" standalone="no"?>
<!DOCTYPE svg PUBLIC "-//W3C//DTD SVG 1.1//EN"
 "http://www.w3.org/Graphics/SVG/1.1/DTD/svg11.dtd">
<!-- Generated by graphviz version 2.43.0 (0)
 -->
<!-- Title: amr_wind::ABLFillInflow Pages: 1 -->
<svg width="2328pt" height="449pt"
 viewBox="0.00 0.00 2328.00 449.00" xmlns="http://www.w3.org/2000/svg" xmlns:xlink="http://www.w3.org/1999/xlink">
<g id="graph0" class="graph" transform="scale(1 1) rotate(0) translate(4 445)">
<title>amr_wind::ABLFillInflow</title>
<!-- Node1 -->
<g id="Node000001" class="node">
<title>Node1</title>
<g id="a_Node000001"><a xlink:title=" ">
<polygon fill="#999999" stroke="#666666" points="2320,-98.5 2187,-98.5 2187,-79.5 2320,-79.5 2320,-98.5"/>
<text text-anchor="middle" x="2253.5" y="-86.5" font-family="Helvetica,sans-Serif" font-size="10.00">amr_wind::ABLFillInflow</text>
</a>
</g>
</g>
<!-- Node2 -->
<g id="Node000002" class="node">
<title>Node2</title>
<g id="a_Node000002"><a xlink:href="classamr__wind_1_1_field_fill_patch_ops.html" target="_top" xlink:title=" ">
<polygon fill="white" stroke="#666666" points="2150,-301 2014,-301 2014,-271 2150,-271 2150,-301"/>
<text text-anchor="start" x="2022" y="-289" font-family="Helvetica,sans-Serif" font-size="10.00">amr_wind::FieldFillPatch</text>
<text text-anchor="middle" x="2082" y="-278" font-family="Helvetica,sans-Serif" font-size="10.00">Ops&lt; FieldBCDirichlet &gt;</text>
</a>
</g>
</g>
<!-- Node2&#45;&gt;Node1 -->
<g id="edge1_Node000001_Node000002" class="edge">
<title>Node2&#45;&gt;Node1</title>
<g id="a_edge1_Node000001_Node000002"><a xlink:title=" ">
<path fill="none" stroke="#63b8ff" d="M2102.65,-263.17C2139.75,-220.04 2218.72,-128.26 2244.31,-98.52"/>
<polygon fill="#63b8ff" stroke="#63b8ff" points="2099.89,-261.01 2096.02,-270.87 2105.19,-265.57 2099.89,-261.01"/>
</a>
</g>
</g>
<!-- Node3 -->
<g id="Node000003" class="node">
<title>Node3</title>
<g id="a_Node000003"><a xlink:href="classamr__wind_1_1_field_fill_patch_ops_base.html" target="_top" xlink:title=" ">
<polygon fill="white" stroke="#666666" points="219,-418 85,-418 85,-388 219,-388 219,-418"/>
<text text-anchor="start" x="93" y="-406" font-family="Helvetica,sans-Serif" font-size="10.00">amr_wind::FieldFillPatch</text>
<text text-anchor="middle" x="152" y="-395" font-family="Helvetica,sans-Serif" font-size="10.00">OpsBase</text>
</a>
</g>
</g>
<!-- Node3&#45;&gt;Node2 -->
<g id="edge2_Node000002_Node000003" class="edge">
<title>Node3&#45;&gt;Node2</title>
<g id="a_edge2_Node000002_Node000003"><a xlink:title=" ">
<path fill="none" stroke="#63b8ff" d="M229.38,-417.15C294.34,-427.96 390.21,-441 474.5,-441 474.5,-441 474.5,-441 1805,-441 1918.48,-441 2028.47,-340.15 2066.76,-301.14"/>
<polygon fill="#63b8ff" stroke="#63b8ff" points="229.67,-413.65 219.23,-415.44 228.51,-420.56 229.67,-413.65"/>
</a>
</g>
</g>
<!-- Node15 -->
<g id="Node000015" class="node">
<title>Node15</title>
<g id="a_Node000015"><a xlink:title=" ">
<polygon fill="white" stroke="#666666" points="560,-375 391,-375 391,-345 560,-345 560,-375"/>
<text text-anchor="start" x="399" y="-363" font-family="Helvetica,sans-Serif" font-size="10.00">std::unique_ptr&lt; amr</text>
<text text-anchor="middle" x="475.5" y="-352" font-family="Helvetica,sans-Serif" font-size="10.00">_wind::FieldFillPatchOpsBase &gt;</text>
</a>
</g>
</g>
<!-- Node3&#45;&gt;Node15 -->
<g id="edge17_Node000015_Node000003" class="edge">
<title>Node3&#45;&gt;Node15</title>
<g id="a_edge17_Node000015_Node000003"><a xlink:title=" ">
<path fill="none" stroke="#9a32cd" stroke-dasharray="5,2" d="M196.19,-384.22C209.08,-379.39 223.41,-374.78 237,-372 287.35,-361.69 344.9,-358.57 390.74,-358.08"/>
<polygon fill="#9a32cd" stroke="#9a32cd" points="194.7,-381.04 186.64,-387.92 197.23,-387.57 194.7,-381.04"/>
</a>
</g>
<text text-anchor="start" x="298" y="-377.5" font-family="Helvetica,sans-Serif" font-size="10.00" fill="grey">ptr</text>
</g>
<!-- Node19 -->
<g id="Node000019" class="node">
<title>Node19</title>
<g id="a_Node000019"><a xlink:href="classamr__wind_1_1_field_fill_patch_ops.html" target="_top" xlink:title=" ">
<polygon fill="white" stroke="#666666" points="1871,-271 1737,-271 1737,-241 1871,-241 1871,-271"/>
<text text-anchor="start" x="1745" y="-259" font-family="Helvetica,sans-Serif" font-size="10.00">amr_wind::FieldFillPatch</text>
<text text-anchor="middle" x="1804" y="-248" font-family="Helvetica,sans-Serif" font-size="10.00">Ops&lt; BCOpCreator &gt;</text>
</a>
</g>
</g>
<!-- Node3&#45;&gt;Node19 -->
<g id="edge25_Node000019_Node000003" class="edge">
<title>Node3&#45;&gt;Node19</title>
<g id="a_edge25_Node000019_Node000003"><a xlink:title=" ">
<path fill="none" stroke="#63b8ff" d="M229.37,-403C294.51,-403 390.66,-403 474.5,-403 474.5,-403 474.5,-403 1379,-403 1467.59,-403 1483.91,-366.88 1570,-346 1635.48,-330.12 1661.42,-353 1719,-318 1730.09,-311.26 1727.24,-303.56 1737,-295 1747.5,-285.78 1760.49,-277.57 1772.16,-271.08"/>
<polygon fill="#63b8ff" stroke="#63b8ff" points="229.19,-399.5 219.19,-403 229.19,-406.5 229.19,-399.5"/>
</a>
</g>
</g>
<!-- Node4 -->
<g id="Node000004" class="node">
<title>Node4</title>
<g id="a_Node000004"><a xlink:href="classamr__wind_1_1_sim_time.html" target="_top" xlink:title=" ">
<polygon fill="white" stroke="#666666" points="1078,-132.5 964,-132.5 964,-113.5 1078,-113.5 1078,-132.5"/>
<text text-anchor="middle" x="1021" y="-120.5" font-family="Helvetica,sans-Serif" font-size="10.00">amr_wind::SimTime</text>
</a>
</g>
</g>
<!-- Node4&#45;&gt;Node2 -->
<g id="edge3_Node000002_Node000004" class="edge">
<title>Node4&#45;&gt;Node2</title>
<g id="a_edge3_Node000002_Node000004"><a xlink:title=" ">
<path fill="none" stroke="#9a32cd" stroke-dasharray="5,2" d="M1088.15,-123C1134.9,-123 1199.04,-123 1255.5,-123 1255.5,-123 1255.5,-123 1805,-123 1920.75,-123 2030.61,-230.61 2067.74,-270.96"/>
<polygon fill="#9a32cd" stroke="#9a32cd" points="1088.14,-119.5 1078.14,-123 1088.14,-126.5 1088.14,-119.5"/>
</a>
</g>
<text text-anchor="start" x="1466" y="-128.5" font-family="Helvetica,sans-Serif" font-size="10.00" fill="grey">m_time</text>
</g>
<!-- Node4&#45;&gt;Node19 -->
<g id="edge26_Node000019_Node000004" class="edge">
<title>Node4&#45;&gt;Node19</title>
<g id="a_edge26_Node000019_Node000004"><a xlink:title=" ">
<path fill="none" stroke="#9a32cd" stroke-dasharray="5,2" d="M1042.32,-138.91C1057.15,-149.61 1078.23,-163.01 1099,-170 1361.51,-258.35 1446.71,-182.25 1719,-233 1730.15,-235.08 1741.97,-237.91 1753.12,-240.88"/>
<polygon fill="#9a32cd" stroke="#9a32cd" points="1044.05,-135.84 1033.94,-132.67 1039.87,-141.45 1044.05,-135.84"/>
</a>
</g>
<text text-anchor="start" x="1359" y="-221.5" font-family="Helvetica,sans-Serif" font-size="10.00" fill="grey">m_time</text>
</g>
<!-- Node21 -->
<g id="Node000021" class="node">
<title>Node21</title>
<g id="a_Node000021"><a xlink:href="classamr__wind_1_1_a_b_l_boundary_plane.html" target="_top" xlink:title=" ">
<polygon fill="white" stroke="#666666" points="1338,-86.5 1175,-86.5 1175,-67.5 1338,-67.5 1338,-86.5"/>
<text text-anchor="middle" x="1256.5" y="-74.5" font-family="Helvetica,sans-Serif" font-size="10.00">amr_wind::ABLBoundaryPlane</text>
</a>
</g>
</g>
<!-- Node4&#45;&gt;Node21 -->
<g id="edge31_Node000021_Node000004" class="edge">
<title>Node4&#45;&gt;Node21</title>
<g id="a_edge31_Node000021_Node000004"><a xlink:title=" ">
<path fill="none" stroke="#9a32cd" stroke-dasharray="5,2" d="M1050.67,-109.17C1064.88,-102.91 1082.51,-96.02 1099,-92 1123.26,-86.08 1150.18,-82.48 1174.74,-80.29"/>
<polygon fill="#9a32cd" stroke="#9a32cd" points="1049.09,-106.04 1041.43,-113.36 1051.98,-112.42 1049.09,-106.04"/>
</a>
</g>
<text text-anchor="start" x="1109" y="-97.5" font-family="Helvetica,sans-Serif" font-size="10.00" fill="grey">m_time</text>
</g>
<!-- Node5 -->
<g id="Node000005" class="node">
<title>Node5</title>
<g id="a_Node000005"><a xlink:href="classamr__wind_1_1_field.html" target="_top" xlink:title=" ">
<polygon fill="white" stroke="#666666" points="1303.5,-293.5 1209.5,-293.5 1209.5,-274.5 1303.5,-274.5 1303.5,-293.5"/>
<text text-anchor="middle" x="1256.5" y="-281.5" font-family="Helvetica,sans-Serif" font-size="10.00">amr_wind::Field</text>
</a>
</g>
</g>
<!-- Node5&#45;&gt;Node2 -->
<g id="edge4_Node000002_Node000005" class="edge">
<title>Node5&#45;&gt;Node2</title>
<g id="a_edge4_Node000002_Node000005"><a xlink:title=" ">
<path fill="none" stroke="#9a32cd" stroke-dasharray="5,2" d="M1281.15,-298.66C1300.48,-309.72 1328.92,-323.99 1356,-330 1375.09,-334.24 1380.44,-330.1 1400,-330 1609.34,-328.89 1662.15,-339.43 1871,-325 1926.88,-321.14 1941.06,-319.9 1996,-309 2007.1,-306.8 2018.88,-303.95 2030.03,-301.01"/>
<polygon fill="#9a32cd" stroke="#9a32cd" points="1282.84,-295.59 1272.45,-293.53 1279.29,-301.62 1282.84,-295.59"/>
</a>
</g>
<text text-anchor="start" x="1626.5" y="-337.5" font-family="Helvetica,sans-Serif" font-size="10.00" fill="grey">m_field</text>
</g>
<!-- Node18 -->
<g id="Node000018" class="node">
<title>Node18</title>
<g id="a_Node000018"><a xlink:href="structamr__wind_1_1_field_b_c_dirichlet.html" target="_top" xlink:title=" ">
<polygon fill="white" stroke="#666666" points="1719,-316.5 1570,-316.5 1570,-297.5 1719,-297.5 1719,-316.5"/>
<text text-anchor="middle" x="1644.5" y="-304.5" font-family="Helvetica,sans-Serif" font-size="10.00">amr_wind::FieldBCDirichlet</text>
</a>
</g>
</g>
<!-- Node5&#45;&gt;Node18 -->
<g id="edge23_Node000018_Node000005" class="edge">
<title>Node5&#45;&gt;Node18</title>
<g id="a_edge23_Node000018_Node000005"><a xlink:title=" ">
<path fill="none" stroke="#9a32cd" stroke-dasharray="5,2" d="M1305.34,-295.82C1321.35,-299.35 1339.36,-302.84 1356,-305 1428.27,-314.39 1511.62,-313.72 1569.9,-311.41"/>
<polygon fill="#9a32cd" stroke="#9a32cd" points="1305.67,-292.31 1295.14,-293.52 1304.12,-299.14 1305.67,-292.31"/>
</a>
</g>
<text text-anchor="start" x="1360" y="-314.5" font-family="Helvetica,sans-Serif" font-size="10.00" fill="grey">m_field</text>
</g>
<!-- Node5&#45;&gt;Node19 -->
<g id="edge27_Node000019_Node000005" class="edge">
<title>Node5&#45;&gt;Node19</title>
<g id="a_edge27_Node000019_Node000005"><a xlink:title=" ">
<path fill="none" stroke="#9a32cd" stroke-dasharray="5,2" d="M1295.68,-271.37C1327.87,-261.42 1375.39,-248.36 1418,-243 1529.31,-229.01 1660.06,-238.93 1736.97,-247.44"/>
<polygon fill="#9a32cd" stroke="#9a32cd" points="1294.28,-268.14 1285.79,-274.48 1296.38,-274.82 1294.28,-268.14"/>
</a>
</g>
<text text-anchor="start" x="1467" y="-248.5" font-family="Helvetica,sans-Serif" font-size="10.00" fill="grey">m_field</text>
</g>
<!-- Node20 -->
<g id="Node000020" class="node">
<title>Node20</title>
<g id="a_Node000020"><a xlink:href="structamr__wind_1_1_b_c_op_creator.html" target="_top" xlink:title=" ">
<polygon fill="white" stroke="#666666" points="1552,-299 1418,-299 1418,-269 1552,-269 1552,-299"/>
<text text-anchor="start" x="1426" y="-287" font-family="Helvetica,sans-Serif" font-size="10.00">amr_wind::BCOpCreator</text>
<text text-anchor="middle" x="1485" y="-276" font-family="Helvetica,sans-Serif" font-size="10.00">&lt; InflowOp, WallOp &gt;</text>
</a>
</g>
</g>
<!-- Node5&#45;&gt;Node20 -->
<g id="edge29_Node000020_Node000005" class="edge">
<title>Node5&#45;&gt;Node20</title>
<g id="a_edge29_Node000020_Node000005"><a xlink:title=" ">
<path fill="none" stroke="#9a32cd" stroke-dasharray="5,2" d="M1313.96,-284C1345.45,-284 1384.84,-284 1417.77,-284"/>
<polygon fill="#9a32cd" stroke="#9a32cd" points="1313.61,-280.5 1303.61,-284 1313.61,-287.5 1313.61,-280.5"/>
</a>
</g>
<text text-anchor="start" x="1360" y="-289.5" font-family="Helvetica,sans-Serif" font-size="10.00" fill="grey">m_field</text>
</g>
<!-- Node6 -->
<g id="Node000006" class="node">
<title>Node6</title>
<g id="a_Node000006"><a xlink:href="classamr__wind_1_1_field_repo.html" target="_top" xlink:title=" ">
<polygon fill="white" stroke="#666666" points="1080.5,-197.5 961.5,-197.5 961.5,-178.5 1080.5,-178.5 1080.5,-197.5"/>
<text text-anchor="middle" x="1021" y="-185.5" font-family="Helvetica,sans-Serif" font-size="10.00">amr_wind::FieldRepo</text>
</a>
</g>
</g>
<!-- Node6&#45;&gt;Node5 -->
<g id="edge5_Node000005_Node000006" class="edge">
<title>Node6&#45;&gt;Node5</title>
<g id="a_edge5_Node000005_Node000006"><a xlink:title=" ">
<path fill="none" stroke="#9a32cd" stroke-dasharray="5,2" d="M1086.12,-199.8C1109.01,-205.14 1134.64,-212.44 1157,-222 1190.25,-236.23 1225.16,-260.87 1243.15,-274.41"/>
<polygon fill="#9a32cd" stroke="#9a32cd" points="1086.69,-196.34 1076.16,-197.56 1085.15,-203.17 1086.69,-196.34"/>
</a>
</g>
<text text-anchor="start" x="1110" y="-227.5" font-family="Helvetica,sans-Serif" font-size="10.00" fill="grey">m_repo</text>
</g>
<!-- Node6&#45;&gt;Node21 -->
<g id="edge32_Node000021_Node000006" class="edge">
<title>Node6&#45;&gt;Node21</title>
<g id="a_edge32_Node000021_Node000006"><a xlink:title=" ">
<path fill="none" stroke="#9a32cd" stroke-dasharray="5,2" d="M1051.59,-173.93C1099.83,-151 1194.16,-106.16 1235.4,-86.55"/>
<polygon fill="#9a32cd" stroke="#9a32cd" points="1049.84,-170.89 1042.31,-178.34 1052.85,-177.21 1049.84,-170.89"/>
</a>
</g>
<text text-anchor="start" x="1110" y="-154.5" font-family="Helvetica,sans-Serif" font-size="10.00" fill="grey">m_repo</text>
</g>
<!-- Node7 -->
<g id="Node000007" class="node">
<title>Node7</title>
<g id="a_Node000007"><a xlink:title=" ">
<polygon fill="white" stroke="#666666" points="843,-203 721,-203 721,-173 843,-173 843,-203"/>
<text text-anchor="start" x="729" y="-191" font-family="Helvetica,sans-Serif" font-size="10.00">std::unordered_map</text>
<text text-anchor="middle" x="782" y="-180" font-family="Helvetica,sans-Serif" font-size="10.00">&lt; std::string, size_t &gt;</text>
</a>
</g>
</g>
<!-- Node7&#45;&gt;Node6 -->
<g id="edge6_Node000006_Node000007" class="edge">
<title>Node7&#45;&gt;Node6</title>
<g id="a_edge6_Node000006_Node000007"><a xlink:title=" ">
<path fill="none" stroke="#9a32cd" stroke-dasharray="5,2" d="M853.53,-188C887.83,-188 928.59,-188 961.18,-188"/>
<polygon fill="#9a32cd" stroke="#9a32cd" points="853.11,-184.5 843.11,-188 853.11,-191.5 853.11,-184.5"/>
</a>
</g>
<text text-anchor="start" x="866" y="-209" font-family="Helvetica,sans-Serif" font-size="10.00" fill="grey">m_fid_map</text>
<text text-anchor="start" x="866" y="-194" font-family="Helvetica,sans-Serif" font-size="10.00" fill="grey">m_int_fid_map</text>
</g>
<!-- Node8 -->
<g id="Node000008" class="node">
<title>Node8</title>
<g id="a_Node000008"><a xlink:title=" ">
<polygon fill="white" stroke="#666666" points="508,-243.5 443,-243.5 443,-224.5 508,-224.5 508,-243.5"/>
<text text-anchor="middle" x="475.5" y="-231.5" font-family="Helvetica,sans-Serif" font-size="10.00">std::string</text>
</a>
</g>
</g>
<!-- Node8&#45;&gt;Node5 -->
<g id="edge12_Node000005_Node000008" class="edge">
<title>Node8&#45;&gt;Node5</title>
<g id="a_edge12_Node000005_Node000008"><a xlink:title=" ">
<path fill="none" stroke="#9a32cd" stroke-dasharray="5,2" d="M518.13,-234.79C616.3,-236.91 869.92,-243.83 1081,-262 1124.66,-265.76 1174.2,-272.21 1209.31,-277.16"/>
<polygon fill="#9a32cd" stroke="#9a32cd" points="518.1,-231.29 508.02,-234.58 517.95,-238.29 518.1,-231.29"/>
</a>
</g>
<text text-anchor="start" x="881" y="-257.5" font-family="Helvetica,sans-Serif" font-size="10.00" fill="grey">m_name</text>
</g>
<!-- Node8&#45;&gt;Node7 -->
<g id="edge7_Node000007_Node000008" class="edge">
<title>Node8&#45;&gt;Node7</title>
<g id="a_edge7_Node000007_Node000008"><a xlink:title=" ">
<path fill="none" stroke="#9a32cd" stroke-dasharray="5,2" d="M518.12,-224.04C536.41,-219.9 558.19,-215.31 578,-212 625.78,-204.02 680.32,-197.72 720.83,-193.59"/>
<polygon fill="#9a32cd" stroke="#9a32cd" points="517.31,-220.63 508.35,-226.28 518.88,-227.45 517.31,-220.63"/>
</a>
</g>
<text text-anchor="start" x="629.5" y="-217.5" font-family="Helvetica,sans-Serif" font-size="10.00" fill="grey">keys</text>
</g>
<!-- Node14 -->
<g id="Node000014" class="node">
<title>Node14</title>
<g id="a_Node000014"><a xlink:href="structamr__wind_1_1_field_info.html" target="_top" xlink:title=" ">
<polygon fill="white" stroke="#666666" points="838.5,-330.5 725.5,-330.5 725.5,-311.5 838.5,-311.5 838.5,-330.5"/>
<text text-anchor="middle" x="782" y="-318.5" font-family="Helvetica,sans-Serif" font-size="10.00">amr_wind::FieldInfo</text>
</a>
</g>
</g>
<!-- Node8&#45;&gt;Node14 -->
<g id="edge15_Node000014_Node000008" class="edge">
<title>Node8&#45;&gt;Node14</title>
<g id="a_edge15_Node000014_Node000008"><a xlink:title=" ">
<path fill="none" stroke="#9a32cd" stroke-dasharray="5,2" d="M495.51,-250.04C514.9,-265.43 546.54,-287.91 578,-299 604.25,-308.25 674.65,-314.43 725.18,-317.82"/>
<polygon fill="#9a32cd" stroke="#9a32cd" points="497.71,-247.32 487.74,-243.74 493.3,-252.76 497.71,-247.32"/>
</a>
</g>
<text text-anchor="start" x="607.5" y="-321.5" font-family="Helvetica,sans-Serif" font-size="10.00" fill="grey">m_basename</text>
</g>
<!-- Node8&#45;&gt;Node21 -->
<g id="edge33_Node000021_Node000008" class="edge">
<title>Node8&#45;&gt;Node21</title>
<g id="a_edge33_Node000021_Node000008"><a xlink:title=" ">
<path fill="none" stroke="#9a32cd" stroke-dasharray="5,2" d="M500.49,-218.76C518.17,-206.82 542.14,-189.08 560,-170 569.86,-159.47 565.72,-150.57 578,-143 779.94,-18.49 1081.79,-48.67 1202.67,-67.5"/>
<polygon fill="#9a32cd" stroke="#9a32cd" points="498.29,-216.02 491.88,-224.45 502.15,-221.85 498.29,-216.02"/>
</a>
</g>
<text text-anchor="start" x="873" y="-107" font-family="Helvetica,sans-Serif" font-size="10.00" fill="grey">m_filename</text>
<text text-anchor="start" x="873" y="-92" font-family="Helvetica,sans-Serif" font-size="10.00" fill="grey">m_out_fmt</text>
<text text-anchor="start" x="873" y="-77" font-family="Helvetica,sans-Serif" font-size="10.00" fill="grey">m_time_file</text>
<text text-anchor="start" x="873" y="-62" font-family="Helvetica,sans-Serif" font-size="10.00" fill="grey">m_title</text>
</g>
<!-- Node9 -->
<g id="Node000009" class="node">
<title>Node9</title>
<g id="a_Node000009"><a xlink:title=" ">
<polygon fill="white" stroke="#666666" points="204,-249 100,-249 100,-219 204,-219 204,-249"/>
<text text-anchor="start" x="108" y="-237" font-family="Helvetica,sans-Serif" font-size="10.00">std::basic_string&lt;</text>
<text text-anchor="middle" x="152" y="-226" font-family="Helvetica,sans-Serif" font-size="10.00"> Char &gt;</text>
</a>
</g>
</g>
<!-- Node9&#45;&gt;Node8 -->
<g id="edge8_Node000008_Node000009" class="edge">
<title>Node9&#45;&gt;Node8</title>
<g id="a_edge8_Node000008_Node000009"><a xlink:title=" ">
<path fill="none" stroke="#63b8ff" d="M214.48,-234C282.65,-234 389.98,-234 442.88,-234"/>
<polygon fill="#63b8ff" stroke="#63b8ff" points="214.3,-230.5 204.3,-234 214.3,-237.5 214.3,-230.5"/>
</a>
</g>
</g>
<!-- Node10 -->
<g id="Node000010" class="node">
<title>Node10</title>
<g id="a_Node000010"><a xlink:title=" ">
<polygon fill="white" stroke="#666666" points="532.5,-161 418.5,-161 418.5,-131 532.5,-131 532.5,-161"/>
<text text-anchor="start" x="426.5" y="-149" font-family="Helvetica,sans-Serif" font-size="10.00">std::unordered_map</text>
<text text-anchor="middle" x="475.5" y="-138" font-family="Helvetica,sans-Serif" font-size="10.00">&lt; K, T &gt;</text>
</a>
</g>
</g>
<!-- Node10&#45;&gt;Node7 -->
<g id="edge9_Node000007_Node000010" class="edge">
<title>Node10&#45;&gt;Node7</title>
<g id="a_edge9_Node000007_Node000010"><a xlink:title=" ">
<path fill="none" stroke="orange" stroke-dasharray="5,2" d="M542.97,-145.19C588.45,-145.84 649.91,-149.06 703,-160 717.23,-162.93 732.38,-167.91 745.5,-172.86"/>
<polygon fill="orange" stroke="orange" points="542.97,-141.69 532.93,-145.09 542.89,-148.69 542.97,-141.69"/>
</a>
</g>
<text text-anchor="start" x="587.5" y="-165.5" font-family="Helvetica,sans-Serif" font-size="10.00" fill="grey">&lt; std::string, size_t &gt;</text>
</g>
<!-- Node23 -->
<g id="Node000023" class="node">
<title>Node23</title>
<g id="a_Node000023"><a xlink:title=" ">
<polygon fill="white" stroke="#666666" points="839,-30 725,-30 725,0 839,0 839,-30"/>
<text text-anchor="start" x="733" y="-18" font-family="Helvetica,sans-Serif" font-size="10.00">std::unordered_map</text>
<text text-anchor="middle" x="782" y="-7" font-family="Helvetica,sans-Serif" font-size="10.00">&lt; int, int &gt;</text>
</a>
</g>
</g>
<!-- Node10&#45;&gt;Node23 -->
<g id="edge36_Node000023_Node000010" class="edge">
<title>Node10&#45;&gt;Node23</title>
<g id="a_edge36_Node000023_Node000010"><a xlink:title=" ">
<path fill="none" stroke="orange" stroke-dasharray="5,2" d="M488.98,-122.05C505.22,-93.67 536.5,-47.65 578,-27 623.51,-4.35 682.05,-3.38 724.57,-6.87"/>
<polygon fill="orange" stroke="orange" points="485.84,-120.49 484.05,-130.93 491.96,-123.88 485.84,-120.49"/>
</a>
</g>
<text text-anchor="start" x="613.5" y="-32.5" font-family="Helvetica,sans-Serif" font-size="10.00" fill="grey">&lt; int, int &gt;</text>
</g>
<!-- Node11 -->
<g id="Node000011" class="node">
<title>Node11</title>
<g id="a_Node000011"><a xlink:title=" ">
<polygon fill="white" stroke="#666666" points="166.5,-200.5 137.5,-200.5 137.5,-181.5 166.5,-181.5 166.5,-200.5"/>
<text text-anchor="middle" x="152" y="-188.5" font-family="Helvetica,sans-Serif" font-size="10.00">K</text>
</a>
</g>
</g>
<!-- Node11&#45;&gt;Node10 -->
<g id="edge10_Node000010_Node000011" class="edge">
<title>Node11&#45;&gt;Node10</title>
<g id="a_edge10_Node000010_Node000011"><a xlink:title=" ">
<path fill="none" stroke="#9a32cd" stroke-dasharray="5,2" d="M176.81,-187.67C227.5,-180.57 347.24,-163.81 418.45,-153.84"/>
<polygon fill="#9a32cd" stroke="#9a32cd" points="176.23,-184.21 166.81,-189.07 177.2,-191.15 176.23,-184.21"/>
</a>
</g>
<text text-anchor="start" x="294" y="-184.5" font-family="Helvetica,sans-Serif" font-size="10.00" fill="grey">keys</text>
</g>
<!-- Node12 -->
<g id="Node000012" class="node">
<title>Node12</title>
<g id="a_Node000012"><a xlink:title=" ">
<polygon fill="white" stroke="#666666" points="29,-286.5 0,-286.5 0,-267.5 29,-267.5 29,-286.5"/>
<text text-anchor="middle" x="14.5" y="-274.5" font-family="Helvetica,sans-Serif" font-size="10.00">T</text>
</a>
</g>
</g>
<!-- Node12&#45;&gt;Node10 -->
<g id="edge11_Node000010_Node000012" class="edge">
<title>Node12&#45;&gt;Node10</title>
<g id="a_edge11_Node000010_Node000012"><a xlink:title=" ">
<path fill="none" stroke="#9a32cd" stroke-dasharray="5,2" d="M20.15,-257.53C28.06,-229.22 47.12,-177.61 85,-155 188.97,-92.95 337.97,-113.28 418.2,-131.11"/>
<polygon fill="#9a32cd" stroke="#9a32cd" points="16.7,-256.89 17.57,-267.45 23.47,-258.66 16.7,-256.89"/>
</a>
</g>
<text text-anchor="start" x="129" y="-160.5" font-family="Helvetica,sans-Serif" font-size="10.00" fill="grey">elements</text>
</g>
<!-- Node16 -->
<g id="Node000016" class="node">
<title>Node16</title>
<g id="a_Node000016"><a xlink:title=" ">
<polygon fill="white" stroke="#666666" points="211,-325.5 93,-325.5 93,-306.5 211,-306.5 211,-325.5"/>
<text text-anchor="middle" x="152" y="-313.5" font-family="Helvetica,sans-Serif" font-size="10.00">std::unique_ptr&lt; T &gt;</text>
</a>
</g>
</g>
<!-- Node12&#45;&gt;Node16 -->
<g id="edge19_Node000016_Node000012" class="edge">
<title>Node12&#45;&gt;Node16</title>
<g id="a_edge19_Node000016_Node000012"><a xlink:title=" ">
<path fill="none" stroke="#9a32cd" stroke-dasharray="5,2" d="M38.07,-291.02C41.01,-292.51 44.03,-293.88 47,-295 61.49,-300.44 77.66,-304.57 92.86,-307.66"/>
<polygon fill="#9a32cd" stroke="#9a32cd" points="39.58,-287.86 29.14,-286.07 36.19,-293.98 39.58,-287.86"/>
</a>
</g>
<text text-anchor="start" x="50" y="-306.5" font-family="Helvetica,sans-Serif" font-size="10.00" fill="grey">ptr</text>
</g>
<!-- Node17 -->
<g id="Node000017" class="node">
<title>Node17</title>
<g id="a_Node000017"><a xlink:title=" ">
<polygon fill="white" stroke="#666666" points="364,-288.5 246,-288.5 246,-269.5 364,-269.5 364,-288.5"/>
<text text-anchor="middle" x="305" y="-276.5" font-family="Helvetica,sans-Serif" font-size="10.00">std::shared_ptr&lt; T &gt;</text>
</a>
</g>
</g>
<!-- Node12&#45;&gt;Node17 -->
<g id="edge21_Node000017_Node000012" class="edge">
<title>Node12&#45;&gt;Node17</title>
<g id="a_edge21_Node000017_Node000012"><a xlink:title=" ">
<path fill="none" stroke="#9a32cd" stroke-dasharray="5,2" d="M39.44,-274.48C41.99,-274.28 44.55,-274.12 47,-274 55.88,-273.58 58.11,-273.91 67,-274 127.91,-274.64 197.6,-276.21 245.57,-277.42"/>
<polygon fill="#9a32cd" stroke="#9a32cd" points="38.92,-271.01 29.28,-275.4 39.55,-277.98 38.92,-271.01"/>
</a>
</g>
<text text-anchor="start" x="50" y="-279.5" font-family="Helvetica,sans-Serif" font-size="10.00" fill="grey">ptr</text>
</g>
<!-- Node13 -->
<g id="Node000013" class="node">
<title>Node13</title>
<g id="a_Node000013"><a xlink:title=" ">
<polygon fill="white" stroke="#666666" points="1081,-301 961,-301 961,-271 1081,-271 1081,-301"/>
<text text-anchor="start" x="969" y="-289" font-family="Helvetica,sans-Serif" font-size="10.00">std::shared_ptr&lt; amr</text>
<text text-anchor="middle" x="1021" y="-278" font-family="Helvetica,sans-Serif" font-size="10.00">_wind::FieldInfo &gt;</text>
</a>
</g>
</g>
<!-- Node13&#45;&gt;Node5 -->
<g id="edge13_Node000005_Node000013" class="edge">
<title>Node13&#45;&gt;Node5</title>
<g id="a_edge13_Node000005_Node000013"><a xlink:title=" ">
<path fill="none" stroke="#9a32cd" stroke-dasharray="5,2" d="M1091.22,-285.41C1129.31,-285.08 1175.53,-284.69 1209.23,-284.4"/>
<polygon fill="#9a32cd" stroke="#9a32cd" points="1091.19,-281.91 1081.22,-285.49 1091.25,-288.91 1091.19,-281.91"/>
</a>
</g>
<text text-anchor="start" x="1111" y="-290.5" font-family="Helvetica,sans-Serif" font-size="10.00" fill="grey">m_info</text>
</g>
<!-- Node14&#45;&gt;Node13 -->
<g id="edge14_Node000013_Node000014" class="edge">
<title>Node14&#45;&gt;Node13</title>
<g id="a_edge14_Node000013_Node000014"><a xlink:title=" ">
<path fill="none" stroke="#9a32cd" stroke-dasharray="5,2" d="M848.71,-311.3C883.77,-306.12 926.59,-299.8 960.64,-294.77"/>
<polygon fill="#9a32cd" stroke="#9a32cd" points="847.95,-307.87 838.57,-312.79 848.97,-314.8 847.95,-307.87"/>
</a>
</g>
<text text-anchor="start" x="895" y="-313.5" font-family="Helvetica,sans-Serif" font-size="10.00" fill="grey">ptr</text>
</g>
<!-- Node15&#45;&gt;Node14 -->
<g id="edge16_Node000014_Node000015" class="edge">
<title>Node15&#45;&gt;Node14</title>
<g id="a_edge16_Node000014_Node000015"><a xlink:title=" ">
<path fill="none" stroke="#9a32cd" stroke-dasharray="5,2" d="M570.43,-354.13C611.32,-350.85 659.69,-345.97 703,-339 716.58,-336.81 731.33,-333.63 744.3,-330.54"/>
<polygon fill="#9a32cd" stroke="#9a32cd" points="569.9,-350.66 560.21,-354.94 570.45,-357.64 569.9,-350.66"/>
</a>
</g>
<text text-anchor="start" x="604.5" y="-358.5" font-family="Helvetica,sans-Serif" font-size="10.00" fill="grey">m_fillpatch_op</text>
</g>
<!-- Node16&#45;&gt;Node15 -->
<g id="edge18_Node000015_Node000016" class="edge">
<title>Node16&#45;&gt;Node15</title>
<g id="a_edge18_Node000015_Node000016"><a xlink:title=" ">
<path fill="none" stroke="orange" stroke-dasharray="5,2" d="M221.25,-312.1C265.02,-311.01 322.83,-312.21 373,-322 397.01,-326.69 422.81,-336.41 442.39,-344.85"/>
<polygon fill="orange" stroke="orange" points="220.9,-308.61 211.01,-312.4 221.11,-315.61 220.9,-308.61"/>
</a>
</g>
<text text-anchor="start" x="240" y="-343" font-family="Helvetica,sans-Serif" font-size="10.00" fill="grey">&lt; amr_wind::FieldFillPatch</text>
<text text-anchor="start" x="240" y="-328" font-family="Helvetica,sans-Serif" font-size="10.00" fill="grey">  OpsBase &gt;</text>
</g>
<!-- Node17&#45;&gt;Node13 -->
<g id="edge20_Node000013_Node000017" class="edge">
<title>Node17&#45;&gt;Node13</title>
<g id="a_edge20_Node000013_Node000017"><a xlink:title=" ">
<path fill="none" stroke="orange" stroke-dasharray="5,2" d="M374.42,-278.68C429.43,-278.44 508.68,-278.13 578,-278 633.56,-277.9 647.45,-277.3 703,-278 793,-279.14 897.35,-282.08 961,-284.07"/>
<polygon fill="orange" stroke="orange" points="374.08,-275.18 364.1,-278.72 374.12,-282.18 374.08,-275.18"/>
</a>
</g>
<text text-anchor="start" x="581.5" y="-283.5" font-family="Helvetica,sans-Serif" font-size="10.00" fill="grey">&lt; amr_wind::FieldInfo &gt;</text>
</g>
<!-- Node18&#45;&gt;Node2 -->
<g id="edge22_Node000002_Node000018" class="edge">
<title>Node18&#45;&gt;Node2</title>
<g id="a_edge22_Node000002_Node000018"><a xlink:title=" ">
<path fill="none" stroke="#9a32cd" stroke-dasharray="5,2" d="M1729.29,-304.65C1800.33,-302.42 1904.89,-298.57 1996,-293 2001.76,-292.65 2007.74,-292.24 2013.74,-291.8"/>
<polygon fill="#9a32cd" stroke="#9a32cd" points="1728.94,-301.16 1719.06,-304.97 1729.16,-308.15 1728.94,-301.16"/>
</a>
</g>
<text text-anchor="start" x="1790" y="-309.5" font-family="Helvetica,sans-Serif" font-size="10.00" fill="grey">m_op</text>
</g>
<!-- Node19&#45;&gt;Node2 -->
<g id="edge24_Node000002_Node000019" class="edge">
<title>Node19&#45;&gt;Node2</title>
<g id="a_edge24_Node000002_Node000019"><a xlink:title=" ">
<path fill="none" stroke="orange" stroke-dasharray="5,2" d="M1881.45,-263.78C1916.39,-267.39 1958.3,-271.81 1996,-276 2001.76,-276.64 2007.74,-277.32 2013.73,-278.01"/>
<polygon fill="orange" stroke="orange" points="1881.62,-260.28 1871.32,-262.73 1880.91,-267.24 1881.62,-260.28"/>
</a>
</g>
<text text-anchor="start" x="1892.5" y="-281.5" font-family="Helvetica,sans-Serif" font-size="10.00" fill="grey">&lt; FieldBCDirichlet &gt;</text>
</g>
<!-- Node20&#45;&gt;Node19 -->
<g id="edge28_Node000019_Node000020" class="edge">
<title>Node20&#45;&gt;Node19</title>
<g id="a_edge28_Node000019_Node000020"><a xlink:title=" ">
<path fill="none" stroke="#9a32cd" stroke-dasharray="5,2" d="M1562.4,-272.84C1564.96,-272.55 1567.5,-272.26 1570,-272 1626.15,-266.07 1690.15,-261.86 1736.85,-259.25"/>
<polygon fill="#9a32cd" stroke="#9a32cd" points="1561.94,-269.37 1552.43,-274.05 1562.78,-276.32 1561.94,-269.37"/>
</a>
</g>
<text text-anchor="start" x="1630.5" y="-277.5" font-family="Helvetica,sans-Serif" font-size="10.00" fill="grey">m_op</text>
</g>
<!-- Node21&#45;&gt;Node1 -->
<g id="edge30_Node000001_Node000021" class="edge">
<title>Node21&#45;&gt;Node1</title>
<g id="a_edge30_Node000001_Node000021"><a xlink:title=" ">
<path fill="none" stroke="#9a32cd" stroke-dasharray="5,2" d="M1348.28,-77C1389.68,-77 1439.32,-77 1484,-77 1484,-77 1484,-77 2083,-77 2117.37,-77 2155.56,-79.49 2186.98,-82.19"/>
<polygon fill="#9a32cd" stroke="#9a32cd" points="1348.22,-73.5 1338.22,-77 1348.22,-80.5 1348.22,-73.5"/>
</a>
</g>
<text text-anchor="start" x="1766" y="-82.5" font-family="Helvetica,sans-Serif" font-size="10.00" fill="grey">m_bndry_plane</text>
</g>
<!-- Node22 -->
<g id="Node000022" class="node">
<title>Node22</title>
<g id="a_Node000022"><a xlink:href="classamr__wind_1_1_inlet_data.html" target="_top" xlink:title=" ">
<polygon fill="white" stroke="#666666" points="1079,-28.5 963,-28.5 963,-9.5 1079,-9.5 1079,-28.5"/>
<text text-anchor="middle" x="1021" y="-16.5" font-family="Helvetica,sans-Serif" font-size="10.00">amr_wind::InletData</text>
</a>
</g>
</g>
<!-- Node22&#45;&gt;Node21 -->
<g id="edge34_Node000021_Node000022" class="edge">
<title>Node22&#45;&gt;Node21</title>
<g id="a_edge34_Node000021_Node000022"><a xlink:title=" ">
<path fill="none" stroke="#9a32cd" stroke-dasharray="5,2" d="M1089.51,-17.6C1111.35,-18.57 1135.48,-21.17 1157,-27 1189.02,-35.67 1222.75,-55.46 1241.25,-67.38"/>
<polygon fill="#9a32cd" stroke="#9a32cd" points="1089.43,-14.09 1079.32,-17.25 1089.2,-21.09 1089.43,-14.09"/>
</a>
</g>
<text text-anchor="start" x="1102" y="-32.5" font-family="Helvetica,sans-Serif" font-size="10.00" fill="grey">m_in_data</text>
</g>
<!-- Node23&#45;&gt;Node22 -->
<g id="edge35_Node000022_Node000023" class="edge">
<title>Node23&#45;&gt;Node22</title>
<g id="a_edge35_Node000022_Node000023"><a xlink:title=" ">
<path fill="none" stroke="#9a32cd" stroke-dasharray="5,2" d="M849.46,-16.12C885.06,-16.72 928.47,-17.46 962.59,-18.03"/>
<polygon fill="#9a32cd" stroke="#9a32cd" points="849.22,-12.62 839.17,-15.95 849.11,-19.62 849.22,-12.62"/>
</a>
</g>
<text text-anchor="start" x="864" y="-23.5" font-family="Helvetica,sans-Serif" font-size="10.00" fill="grey">m_components</text>
</g>
</g>
</svg>
