<?xml version="1.0" encoding="UTF-8" standalone="no"?>
<!DOCTYPE svg PUBLIC "-//W3C//DTD SVG 1.1//EN"
 "http://www.w3.org/Graphics/SVG/1.1/DTD/svg11.dtd">
<!-- Generated by graphviz version 2.43.0 (0)
 -->
<!-- Title: amr_wind::mms::MMS Pages: 1 -->
<svg width="1630pt" height="387pt"
 viewBox="0.00 0.00 1630.00 387.00" xmlns="http://www.w3.org/2000/svg" xmlns:xlink="http://www.w3.org/1999/xlink">
<g id="graph0" class="graph" transform="scale(1 1) rotate(0) translate(4 383)">
<title>amr_wind::mms::MMS</title>
<!-- Node1 -->
<g id="Node000001" class="node">
<title>Node1</title>
<g id="a_Node000001"><a xlink:title=" ">
<polygon fill="#999999" stroke="#666666" points="1622,-262 1497,-262 1497,-243 1622,-243 1622,-262"/>
<text text-anchor="middle" x="1559.5" y="-250" font-family="Helvetica,sans-Serif" font-size="10.00">amr_wind::mms::MMS</text>
</a>
</g>
</g>
<!-- Node2 -->
<g id="Node000002" class="node">
<title>Node2</title>
<g id="a_Node000002"><a xlink:title=" ">
<polygon fill="white" stroke="#666666" points="1357,-379 1234,-379 1234,-338 1357,-338 1357,-379"/>
<text text-anchor="start" x="1242" y="-367" font-family="Helvetica,sans-Serif" font-size="10.00">amr_wind::Factory&lt;</text>
<text text-anchor="start" x="1242" y="-356" font-family="Helvetica,sans-Serif" font-size="10.00"> Physics, CFDSim &amp; &gt;</text>
<text text-anchor="middle" x="1295.5" y="-345" font-family="Helvetica,sans-Serif" font-size="10.00">::Register</text>
</a>
</g>
</g>
<!-- Node2&#45;&gt;Node1 -->
<g id="edge1_Node000001_Node000002" class="edge">
<title>Node2&#45;&gt;Node1</title>
<g id="a_edge1_Node000001_Node000002"><a xlink:title=" ">
<path fill="none" stroke="#63b8ff" d="M1367.27,-354.97C1402.35,-350.96 1444.48,-342.64 1479,-325.5 1510.38,-309.92 1538.34,-278.15 1551.13,-262.15"/>
<polygon fill="#63b8ff" stroke="#63b8ff" points="1366.68,-351.51 1357.1,-356.04 1367.41,-358.48 1366.68,-351.51"/>
</a>
</g>
</g>
<!-- Node3 -->
<g id="Node000003" class="node">
<title>Node3</title>
<g id="a_Node000003"><a xlink:href="classamr__wind_1_1_sim_time.html" target="_top" xlink:title=" ">
<polygon fill="white" stroke="#666666" points="1352.5,-320 1238.5,-320 1238.5,-301 1352.5,-301 1352.5,-320"/>
<text text-anchor="middle" x="1295.5" y="-308" font-family="Helvetica,sans-Serif" font-size="10.00">amr_wind::SimTime</text>
</a>
</g>
</g>
<!-- Node3&#45;&gt;Node1 -->
<g id="edge2_Node000001_Node000003" class="edge">
<title>Node3&#45;&gt;Node1</title>
<g id="a_edge2_Node000001_Node000003"><a xlink:title=" ">
<path fill="none" stroke="#9a32cd" stroke-dasharray="5,2" d="M1362.9,-306.16C1397.89,-302.78 1441.27,-296.84 1479,-286.5 1500.72,-280.55 1524.28,-269.9 1540.07,-262.1"/>
<polygon fill="#9a32cd" stroke="#9a32cd" points="1362.43,-302.69 1352.79,-307.09 1363.07,-309.66 1362.43,-302.69"/>
</a>
</g>
<text text-anchor="start" x="1408" y="-310" font-family="Helvetica,sans-Serif" font-size="10.00" fill="grey">m_time</text>
</g>
<!-- Node4 -->
<g id="Node000004" class="node">
<title>Node4</title>
<g id="a_Node000004"><a xlink:href="classamr__wind_1_1_field_repo.html" target="_top" xlink:title=" ">
<polygon fill="white" stroke="#666666" points="1112.5,-182 993.5,-182 993.5,-163 1112.5,-163 1112.5,-182"/>
<text text-anchor="middle" x="1053" y="-170" font-family="Helvetica,sans-Serif" font-size="10.00">amr_wind::FieldRepo</text>
</a>
</g>
</g>
<!-- Node4&#45;&gt;Node1 -->
<g id="edge3_Node000001_Node000004" class="edge">
<title>Node4&#45;&gt;Node1</title>
<g id="a_edge3_Node000001_Node000004"><a xlink:title=" ">
<path fill="none" stroke="#9a32cd" stroke-dasharray="5,2" d="M1122.88,-177.21C1225.58,-184.7 1413.76,-200.35 1479,-218.5 1500.69,-224.53 1524.26,-235.17 1540.06,-242.94"/>
<polygon fill="#9a32cd" stroke="#9a32cd" points="1122.83,-173.7 1112.61,-176.47 1122.33,-180.68 1122.83,-173.7"/>
</a>
</g>
<text text-anchor="start" x="1277.5" y="-203" font-family="Helvetica,sans-Serif" font-size="10.00" fill="grey">m_repo</text>
</g>
<!-- Node11 -->
<g id="Node000011" class="node">
<title>Node11</title>
<g id="a_Node000011"><a xlink:href="classamr__wind_1_1_field.html" target="_top" xlink:title=" ">
<polygon fill="white" stroke="#666666" points="1342.5,-133 1248.5,-133 1248.5,-114 1342.5,-114 1342.5,-133"/>
<text text-anchor="middle" x="1295.5" y="-121" font-family="Helvetica,sans-Serif" font-size="10.00">amr_wind::Field</text>
</a>
</g>
</g>
<!-- Node4&#45;&gt;Node11 -->
<g id="edge11_Node000011_Node000004" class="edge">
<title>Node4&#45;&gt;Node11</title>
<g id="a_edge11_Node000011_Node000004"><a xlink:title=" ">
<path fill="none" stroke="#9a32cd" stroke-dasharray="5,2" d="M1109.4,-160.95C1116.67,-159.45 1124.01,-157.93 1131,-156.5 1170.57,-148.39 1215.57,-139.32 1248.32,-132.75"/>
<polygon fill="#9a32cd" stroke="#9a32cd" points="1108.67,-157.52 1099.59,-162.98 1110.1,-164.38 1108.67,-157.52"/>
</a>
</g>
<text text-anchor="start" x="1155.5" y="-162" font-family="Helvetica,sans-Serif" font-size="10.00" fill="grey">m_repo</text>
</g>
<!-- Node5 -->
<g id="Node000005" class="node">
<title>Node5</title>
<g id="a_Node000005"><a xlink:title=" ">
<polygon fill="white" stroke="#666666" points="843,-187.5 721,-187.5 721,-157.5 843,-157.5 843,-187.5"/>
<text text-anchor="start" x="729" y="-175.5" font-family="Helvetica,sans-Serif" font-size="10.00">std::unordered_map</text>
<text text-anchor="middle" x="782" y="-164.5" font-family="Helvetica,sans-Serif" font-size="10.00">&lt; std::string, size_t &gt;</text>
</a>
</g>
</g>
<!-- Node5&#45;&gt;Node4 -->
<g id="edge4_Node000004_Node000005" class="edge">
<title>Node5&#45;&gt;Node4</title>
<g id="a_edge4_Node000004_Node000005"><a xlink:title=" ">
<path fill="none" stroke="#9a32cd" stroke-dasharray="5,2" d="M853.25,-172.5C896.72,-172.5 951.9,-172.5 993.08,-172.5"/>
<polygon fill="#9a32cd" stroke="#9a32cd" points="853.03,-169 843.03,-172.5 853.03,-176 853.03,-169"/>
</a>
</g>
<text text-anchor="start" x="882" y="-193.5" font-family="Helvetica,sans-Serif" font-size="10.00" fill="grey">m_fid_map</text>
<text text-anchor="start" x="882" y="-178.5" font-family="Helvetica,sans-Serif" font-size="10.00" fill="grey">m_int_fid_map</text>
</g>
<!-- Node6 -->
<g id="Node000006" class="node">
<title>Node6</title>
<g id="a_Node000006"><a xlink:title=" ">
<polygon fill="white" stroke="#666666" points="508,-149 443,-149 443,-130 508,-130 508,-149"/>
<text text-anchor="middle" x="475.5" y="-137" font-family="Helvetica,sans-Serif" font-size="10.00">std::string</text>
</a>
</g>
</g>
<!-- Node6&#45;&gt;Node1 -->
<g id="edge22_Node000001_Node000006" class="edge">
<title>Node6&#45;&gt;Node1</title>
<g id="a_edge22_Node000001_Node000006"><a xlink:title=" ">
<path fill="none" stroke="#9a32cd" stroke-dasharray="5,2" d="M504.52,-153.89C521.52,-163.33 543.12,-176.66 560,-191.5 569.49,-199.84 566.69,-207.86 578,-213.5 598.62,-223.78 1284.84,-244.54 1496.78,-250.72"/>
<polygon fill="#9a32cd" stroke="#9a32cd" points="506.07,-150.75 495.61,-149.05 502.73,-156.9 506.07,-150.75"/>
</a>
</g>
<text text-anchor="start" x="1011" y="-244" font-family="Helvetica,sans-Serif" font-size="10.00" fill="grey">m_output_fname</text>
</g>
<!-- Node6&#45;&gt;Node5 -->
<g id="edge5_Node000005_Node000006" class="edge">
<title>Node6&#45;&gt;Node5</title>
<g id="a_edge5_Node000005_Node000006"><a xlink:title=" ">
<path fill="none" stroke="#9a32cd" stroke-dasharray="5,2" d="M518.24,-141.04C563.82,-143.09 638.87,-147.55 703,-156.5 708.75,-157.3 714.71,-158.27 720.66,-159.33"/>
<polygon fill="#9a32cd" stroke="#9a32cd" points="518.29,-137.54 508.15,-140.6 517.99,-144.53 518.29,-137.54"/>
</a>
</g>
<text text-anchor="start" x="629.5" y="-162" font-family="Helvetica,sans-Serif" font-size="10.00" fill="grey">keys</text>
</g>
<!-- Node6&#45;&gt;Node11 -->
<g id="edge12_Node000011_Node000006" class="edge">
<title>Node6&#45;&gt;Node11</title>
<g id="a_edge12_Node000011_Node000006"><a xlink:title=" ">
<path fill="none" stroke="#9a32cd" stroke-dasharray="5,2" d="M518.29,-138.68C657.24,-135.96 1103.18,-127.24 1248.35,-124.4"/>
<polygon fill="#9a32cd" stroke="#9a32cd" points="517.99,-135.19 508.07,-138.88 518.13,-142.19 517.99,-135.19"/>
</a>
</g>
<text text-anchor="start" x="897" y="-137" font-family="Helvetica,sans-Serif" font-size="10.00" fill="grey">m_name</text>
</g>
<!-- Node13 -->
<g id="Node000013" class="node">
<title>Node13</title>
<g id="a_Node000013"><a xlink:href="structamr__wind_1_1_field_info.html" target="_top" xlink:title=" ">
<polygon fill="white" stroke="#666666" points="838.5,-70 725.5,-70 725.5,-51 838.5,-51 838.5,-70"/>
<text text-anchor="middle" x="782" y="-58" font-family="Helvetica,sans-Serif" font-size="10.00">amr_wind::FieldInfo</text>
</a>
</g>
</g>
<!-- Node6&#45;&gt;Node13 -->
<g id="edge15_Node000013_Node000006" class="edge">
<title>Node6&#45;&gt;Node13</title>
<g id="a_edge15_Node000013_Node000006"><a xlink:title=" ">
<path fill="none" stroke="#9a32cd" stroke-dasharray="5,2" d="M501.58,-125.11C521.64,-114.24 550.8,-99.81 578,-91.5 604.76,-83.32 675.05,-73.51 725.41,-67.15"/>
<polygon fill="#9a32cd" stroke="#9a32cd" points="499.85,-122.07 492.78,-129.97 503.23,-128.2 499.85,-122.07"/>
</a>
</g>
<text text-anchor="start" x="607.5" y="-97" font-family="Helvetica,sans-Serif" font-size="10.00" fill="grey">m_basename</text>
</g>
<!-- Node7 -->
<g id="Node000007" class="node">
<title>Node7</title>
<g id="a_Node000007"><a xlink:title=" ">
<polygon fill="white" stroke="#666666" points="204,-154.5 100,-154.5 100,-124.5 204,-124.5 204,-154.5"/>
<text text-anchor="start" x="108" y="-142.5" font-family="Helvetica,sans-Serif" font-size="10.00">std::basic_string&lt;</text>
<text text-anchor="middle" x="152" y="-131.5" font-family="Helvetica,sans-Serif" font-size="10.00"> Char &gt;</text>
</a>
</g>
</g>
<!-- Node7&#45;&gt;Node6 -->
<g id="edge6_Node000006_Node000007" class="edge">
<title>Node7&#45;&gt;Node6</title>
<g id="a_edge6_Node000006_Node000007"><a xlink:title=" ">
<path fill="none" stroke="#63b8ff" d="M214.48,-139.5C282.65,-139.5 389.98,-139.5 442.88,-139.5"/>
<polygon fill="#63b8ff" stroke="#63b8ff" points="214.3,-136 204.3,-139.5 214.3,-143 214.3,-136"/>
</a>
</g>
</g>
<!-- Node8 -->
<g id="Node000008" class="node">
<title>Node8</title>
<g id="a_Node000008"><a xlink:title=" ">
<polygon fill="white" stroke="#666666" points="532.5,-230.5 418.5,-230.5 418.5,-200.5 532.5,-200.5 532.5,-230.5"/>
<text text-anchor="start" x="426.5" y="-218.5" font-family="Helvetica,sans-Serif" font-size="10.00">std::unordered_map</text>
<text text-anchor="middle" x="475.5" y="-207.5" font-family="Helvetica,sans-Serif" font-size="10.00">&lt; K, T &gt;</text>
</a>
</g>
</g>
<!-- Node8&#45;&gt;Node5 -->
<g id="edge7_Node000005_Node000008" class="edge">
<title>Node8&#45;&gt;Node5</title>
<g id="a_edge7_Node000005_Node000008"><a xlink:title=" ">
<path fill="none" stroke="orange" stroke-dasharray="5,2" d="M542.69,-206.15C595.76,-198.66 669.59,-188.23 720.95,-180.98"/>
<polygon fill="orange" stroke="orange" points="542.12,-202.7 532.7,-207.56 543.1,-209.63 542.12,-202.7"/>
</a>
</g>
<text text-anchor="start" x="587.5" y="-205" font-family="Helvetica,sans-Serif" font-size="10.00" fill="grey">&lt; std::string, size_t &gt;</text>
</g>
<!-- Node18 -->
<g id="Node000018" class="node">
<title>Node18</title>
<g id="a_Node000018"><a xlink:title=" ">
<polygon fill="white" stroke="#666666" points="975,-291 861,-291 861,-250 975,-250 975,-291"/>
<text text-anchor="start" x="869" y="-279" font-family="Helvetica,sans-Serif" font-size="10.00">std::unordered_map</text>
<text text-anchor="start" x="869" y="-268" font-family="Helvetica,sans-Serif" font-size="10.00">&lt; std::string, amrex</text>
<text text-anchor="middle" x="918" y="-257" font-family="Helvetica,sans-Serif" font-size="10.00">::Real &gt;</text>
</a>
</g>
</g>
<!-- Node8&#45;&gt;Node18 -->
<g id="edge24_Node000018_Node000008" class="edge">
<title>Node8&#45;&gt;Node18</title>
<g id="a_edge24_Node000018_Node000008"><a xlink:title=" ">
<path fill="none" stroke="orange" stroke-dasharray="5,2" d="M538.14,-233.02C551.21,-236.25 564.99,-239.29 578,-241.5 676.71,-258.25 793.32,-265.53 860.85,-268.54"/>
<polygon fill="orange" stroke="orange" points="538.86,-229.59 528.3,-230.53 537.14,-236.38 538.86,-229.59"/>
</a>
</g>
<text text-anchor="start" x="591.5" y="-277.5" font-family="Helvetica,sans-Serif" font-size="10.00" fill="grey">&lt; std::string, amrex</text>
<text text-anchor="start" x="591.5" y="-262.5" font-family="Helvetica,sans-Serif" font-size="10.00" fill="grey">  ::Real &gt;</text>
</g>
<!-- Node9 -->
<g id="Node000009" class="node">
<title>Node9</title>
<g id="a_Node000009"><a xlink:title=" ">
<polygon fill="white" stroke="#666666" points="166.5,-245 137.5,-245 137.5,-226 166.5,-226 166.5,-245"/>
<text text-anchor="middle" x="152" y="-233" font-family="Helvetica,sans-Serif" font-size="10.00">K</text>
</a>
</g>
</g>
<!-- Node9&#45;&gt;Node8 -->
<g id="edge8_Node000008_Node000009" class="edge">
<title>Node9&#45;&gt;Node8</title>
<g id="a_edge8_Node000008_Node000009"><a xlink:title=" ">
<path fill="none" stroke="#9a32cd" stroke-dasharray="5,2" d="M176.81,-234.02C227.5,-230.87 347.24,-223.42 418.45,-218.99"/>
<polygon fill="#9a32cd" stroke="#9a32cd" points="176.58,-230.53 166.81,-234.64 177.01,-237.51 176.58,-230.53"/>
</a>
</g>
<text text-anchor="start" x="294" y="-235" font-family="Helvetica,sans-Serif" font-size="10.00" fill="grey">keys</text>
</g>
<!-- Node10 -->
<g id="Node000010" class="node">
<title>Node10</title>
<g id="a_Node000010"><a xlink:title=" ">
<polygon fill="white" stroke="#666666" points="29,-105 0,-105 0,-86 29,-86 29,-105"/>
<text text-anchor="middle" x="14.5" y="-93" font-family="Helvetica,sans-Serif" font-size="10.00">T</text>
</a>
</g>
</g>
<!-- Node10&#45;&gt;Node8 -->
<g id="edge9_Node000008_Node000010" class="edge">
<title>Node10&#45;&gt;Node8</title>
<g id="a_edge9_Node000008_Node000010"><a xlink:title=" ">
<path fill="none" stroke="#9a32cd" stroke-dasharray="5,2" d="M28.37,-113.47C40.9,-129.45 61.44,-152.02 85,-163.5 142.57,-191.56 325.2,-206.43 418.48,-212.37"/>
<polygon fill="#9a32cd" stroke="#9a32cd" points="31.09,-111.26 22.27,-105.38 25.5,-115.47 31.09,-111.26"/>
</a>
</g>
<text text-anchor="start" x="129" y="-198" font-family="Helvetica,sans-Serif" font-size="10.00" fill="grey">elements</text>
</g>
<!-- Node16 -->
<g id="Node000016" class="node">
<title>Node16</title>
<g id="a_Node000016"><a xlink:title=" ">
<polygon fill="white" stroke="#666666" points="211,-105 93,-105 93,-86 211,-86 211,-105"/>
<text text-anchor="middle" x="152" y="-93" font-family="Helvetica,sans-Serif" font-size="10.00">std::unique_ptr&lt; T &gt;</text>
</a>
</g>
</g>
<!-- Node10&#45;&gt;Node16 -->
<g id="edge19_Node000016_Node000010" class="edge">
<title>Node10&#45;&gt;Node16</title>
<g id="a_edge19_Node000016_Node000010"><a xlink:title=" ">
<path fill="none" stroke="#9a32cd" stroke-dasharray="5,2" d="M39.53,-95.5C54.35,-95.5 74.04,-95.5 92.75,-95.5"/>
<polygon fill="#9a32cd" stroke="#9a32cd" points="39.24,-92 29.24,-95.5 39.24,-99 39.24,-92"/>
</a>
</g>
<text text-anchor="start" x="50" y="-101" font-family="Helvetica,sans-Serif" font-size="10.00" fill="grey">ptr</text>
</g>
<!-- Node17 -->
<g id="Node000017" class="node">
<title>Node17</title>
<g id="a_Node000017"><a xlink:title=" ">
<polygon fill="white" stroke="#666666" points="364,-19 246,-19 246,0 364,0 364,-19"/>
<text text-anchor="middle" x="305" y="-7" font-family="Helvetica,sans-Serif" font-size="10.00">std::shared_ptr&lt; T &gt;</text>
</a>
</g>
</g>
<!-- Node10&#45;&gt;Node17 -->
<g id="edge21_Node000017_Node000010" class="edge">
<title>Node10&#45;&gt;Node17</title>
<g id="a_edge21_Node000017_Node000010"><a xlink:title=" ">
<path fill="none" stroke="#9a32cd" stroke-dasharray="5,2" d="M28.32,-77.54C40.8,-61.62 61.31,-39.27 85,-28.5 135.72,-5.43 199.82,-2.5 245.54,-4.23"/>
<polygon fill="#9a32cd" stroke="#9a32cd" points="25.46,-75.52 22.24,-85.61 31.05,-79.73 25.46,-75.52"/>
</a>
</g>
<text text-anchor="start" x="50" y="-62" font-family="Helvetica,sans-Serif" font-size="10.00" fill="grey">ptr</text>
</g>
<!-- Node11&#45;&gt;Node1 -->
<g id="edge10_Node000001_Node000011" class="edge">
<title>Node11&#45;&gt;Node1</title>
<g id="a_edge10_Node000001_Node000011"><a xlink:title=" ">
<path fill="none" stroke="#9a32cd" stroke-dasharray="5,2" d="M1345.6,-112.24C1384.34,-106.07 1438.43,-103.69 1479,-126.5 1525.45,-152.61 1548.62,-218.29 1555.9,-242.95"/>
<polygon fill="#9a32cd" stroke="#9a32cd" points="1344.86,-108.81 1335.6,-113.97 1346.05,-115.71 1344.86,-108.81"/>
</a>
</g>
<text text-anchor="start" x="1378" y="-162" font-family="Helvetica,sans-Serif" font-size="10.00" fill="grey">m_density</text>
<text text-anchor="start" x="1378" y="-147" font-family="Helvetica,sans-Serif" font-size="10.00" fill="grey">m_mms_vel_source</text>
<text text-anchor="start" x="1378" y="-132" font-family="Helvetica,sans-Serif" font-size="10.00" fill="grey">m_velocity</text>
</g>
<!-- Node12 -->
<g id="Node000012" class="node">
<title>Node12</title>
<g id="a_Node000012"><a xlink:title=" ">
<polygon fill="white" stroke="#666666" points="1113,-75.5 993,-75.5 993,-45.5 1113,-45.5 1113,-75.5"/>
<text text-anchor="start" x="1001" y="-63.5" font-family="Helvetica,sans-Serif" font-size="10.00">std::shared_ptr&lt; amr</text>
<text text-anchor="middle" x="1053" y="-52.5" font-family="Helvetica,sans-Serif" font-size="10.00">_wind::FieldInfo &gt;</text>
</a>
</g>
</g>
<!-- Node12&#45;&gt;Node11 -->
<g id="edge13_Node000011_Node000012" class="edge">
<title>Node12&#45;&gt;Node11</title>
<g id="a_edge13_Node000011_Node000012"><a xlink:title=" ">
<path fill="none" stroke="#9a32cd" stroke-dasharray="5,2" d="M1123.19,-70.64C1152.18,-75.68 1186.04,-82.62 1216,-91.5 1236.32,-97.52 1258.62,-106.89 1274.24,-113.94"/>
<polygon fill="#9a32cd" stroke="#9a32cd" points="1123.6,-67.16 1113.16,-68.93 1122.43,-74.06 1123.6,-67.16"/>
</a>
</g>
<text text-anchor="start" x="1156.5" y="-97" font-family="Helvetica,sans-Serif" font-size="10.00" fill="grey">m_info</text>
</g>
<!-- Node13&#45;&gt;Node12 -->
<g id="edge14_Node000012_Node000013" class="edge">
<title>Node13&#45;&gt;Node12</title>
<g id="a_edge14_Node000012_Node000013"><a xlink:title=" ">
<path fill="none" stroke="#9a32cd" stroke-dasharray="5,2" d="M848.75,-60.5C892.7,-60.5 950.03,-60.5 992.6,-60.5"/>
<polygon fill="#9a32cd" stroke="#9a32cd" points="848.74,-57 838.74,-60.5 848.74,-64 848.74,-57"/>
</a>
</g>
<text text-anchor="start" x="911" y="-66" font-family="Helvetica,sans-Serif" font-size="10.00" fill="grey">ptr</text>
</g>
<!-- Node14 -->
<g id="Node000014" class="node">
<title>Node14</title>
<g id="a_Node000014"><a xlink:title=" ">
<polygon fill="white" stroke="#666666" points="560,-67.5 391,-67.5 391,-37.5 560,-37.5 560,-67.5"/>
<text text-anchor="start" x="399" y="-55.5" font-family="Helvetica,sans-Serif" font-size="10.00">std::unique_ptr&lt; amr</text>
<text text-anchor="middle" x="475.5" y="-44.5" font-family="Helvetica,sans-Serif" font-size="10.00">_wind::FieldFillPatchOpsBase &gt;</text>
</a>
</g>
</g>
<!-- Node14&#45;&gt;Node13 -->
<g id="edge16_Node000013_Node000014" class="edge">
<title>Node14&#45;&gt;Node13</title>
<g id="a_edge16_Node000013_Node000014"><a xlink:title=" ">
<path fill="none" stroke="#9a32cd" stroke-dasharray="5,2" d="M570.4,-49.49C611.18,-48.85 659.48,-49 703,-51.5 710.21,-51.91 717.78,-52.54 725.25,-53.28"/>
<polygon fill="#9a32cd" stroke="#9a32cd" points="570.14,-45.99 560.2,-49.66 570.26,-52.99 570.14,-45.99"/>
</a>
</g>
<text text-anchor="start" x="604.5" y="-57" font-family="Helvetica,sans-Serif" font-size="10.00" fill="grey">m_fillpatch_op</text>
</g>
<!-- Node15 -->
<g id="Node000015" class="node">
<title>Node15</title>
<g id="a_Node000015"><a xlink:href="classamr__wind_1_1_field_fill_patch_ops_base.html" target="_top" xlink:title=" ">
<polygon fill="white" stroke="#666666" points="219,-67.5 85,-67.5 85,-37.5 219,-37.5 219,-67.5"/>
<text text-anchor="start" x="93" y="-55.5" font-family="Helvetica,sans-Serif" font-size="10.00">amr_wind::FieldFillPatch</text>
<text text-anchor="middle" x="152" y="-44.5" font-family="Helvetica,sans-Serif" font-size="10.00">OpsBase</text>
</a>
</g>
</g>
<!-- Node15&#45;&gt;Node14 -->
<g id="edge17_Node000014_Node000015" class="edge">
<title>Node15&#45;&gt;Node14</title>
<g id="a_edge17_Node000014_Node000015"><a xlink:title=" ">
<path fill="none" stroke="#9a32cd" stroke-dasharray="5,2" d="M229.37,-52.5C277.97,-52.5 340.94,-52.5 390.88,-52.5"/>
<polygon fill="#9a32cd" stroke="#9a32cd" points="229.23,-49 219.23,-52.5 229.23,-56 229.23,-49"/>
</a>
</g>
<text text-anchor="start" x="298" y="-58" font-family="Helvetica,sans-Serif" font-size="10.00" fill="grey">ptr</text>
</g>
<!-- Node16&#45;&gt;Node14 -->
<g id="edge18_Node000014_Node000016" class="edge">
<title>Node16&#45;&gt;Node14</title>
<g id="a_edge18_Node000014_Node000016"><a xlink:title=" ">
<path fill="none" stroke="orange" stroke-dasharray="5,2" d="M221.21,-88.86C264.73,-84.34 322.29,-77.87 373,-70.5 379.29,-69.59 385.78,-68.58 392.31,-67.52"/>
<polygon fill="orange" stroke="orange" points="220.62,-85.4 211.03,-89.9 221.33,-92.36 220.62,-85.4"/>
</a>
</g>
<text text-anchor="start" x="240" y="-108.5" font-family="Helvetica,sans-Serif" font-size="10.00" fill="grey">&lt; amr_wind::FieldFillPatch</text>
<text text-anchor="start" x="240" y="-93.5" font-family="Helvetica,sans-Serif" font-size="10.00" fill="grey">  OpsBase &gt;</text>
</g>
<!-- Node17&#45;&gt;Node12 -->
<g id="edge20_Node000012_Node000017" class="edge">
<title>Node17&#45;&gt;Node12</title>
<g id="a_edge20_Node000012_Node000017"><a xlink:title=" ">
<path fill="none" stroke="orange" stroke-dasharray="5,2" d="M374.56,-11.87C453.74,-14.82 587.88,-20.47 703,-28.5 804.97,-35.61 923.41,-47.17 992.78,-54.28"/>
<polygon fill="orange" stroke="orange" points="374.36,-8.36 364.24,-11.49 374.1,-15.36 374.36,-8.36"/>
</a>
</g>
<text text-anchor="start" x="581.5" y="-34" font-family="Helvetica,sans-Serif" font-size="10.00" fill="grey">&lt; amr_wind::FieldInfo &gt;</text>
</g>
<!-- Node18&#45;&gt;Node1 -->
<g id="edge23_Node000001_Node000018" class="edge">
<title>Node18&#45;&gt;Node1</title>
<g id="a_edge23_Node000001_Node000018"><a xlink:title=" ">
<path fill="none" stroke="#9a32cd" stroke-dasharray="5,2" d="M985.33,-268.63C1109.6,-265.14 1375.81,-257.64 1496.61,-254.24"/>
<polygon fill="#9a32cd" stroke="#9a32cd" points="985.09,-265.14 975.19,-268.92 985.29,-272.14 985.09,-265.14"/>
</a>
</g>
<text text-anchor="start" x="1134.5" y="-269" font-family="Helvetica,sans-Serif" font-size="10.00" fill="grey">m_params_map</text>
</g>
</g>
</svg>
