<?xml version="1.0" encoding="UTF-8" standalone="no"?>
<!DOCTYPE svg PUBLIC "-//W3C//DTD SVG 1.1//EN"
 "http://www.w3.org/Graphics/SVG/1.1/DTD/svg11.dtd">
<!-- Generated by graphviz version 2.43.0 (0)
 -->
<!-- Title: amr_wind::ScalarAdvection Pages: 1 -->
<svg width="1534pt" height="304pt"
 viewBox="0.00 0.00 1534.00 303.50" xmlns="http://www.w3.org/2000/svg" xmlns:xlink="http://www.w3.org/1999/xlink">
<g id="graph0" class="graph" transform="scale(1 1) rotate(0) translate(4 299.5)">
<title>amr_wind::ScalarAdvection</title>
<!-- Node1 -->
<g id="Node000001" class="node">
<title>Node1</title>
<g id="a_Node000001"><a xlink:title=" ">
<polygon fill="#999999" stroke="#666666" points="1526,-134.5 1377,-134.5 1377,-115.5 1526,-115.5 1526,-134.5"/>
<text text-anchor="middle" x="1451.5" y="-122.5" font-family="Helvetica,sans-Serif" font-size="10.00">amr_wind::ScalarAdvection</text>
</a>
</g>
</g>
<!-- Node2 -->
<g id="Node000002" class="node">
<title>Node2</title>
<g id="a_Node000002"><a xlink:title=" ">
<polygon fill="white" stroke="#666666" points="1280,-238.5 1157,-238.5 1157,-197.5 1280,-197.5 1280,-238.5"/>
<text text-anchor="start" x="1165" y="-226.5" font-family="Helvetica,sans-Serif" font-size="10.00">amr_wind::Factory&lt;</text>
<text text-anchor="start" x="1165" y="-215.5" font-family="Helvetica,sans-Serif" font-size="10.00"> Physics, CFDSim &amp; &gt;</text>
<text text-anchor="middle" x="1218.5" y="-204.5" font-family="Helvetica,sans-Serif" font-size="10.00">::Register</text>
</a>
</g>
</g>
<!-- Node2&#45;&gt;Node1 -->
<g id="edge1_Node000001_Node000002" class="edge">
<title>Node2&#45;&gt;Node1</title>
<g id="a_edge1_Node000001_Node000002"><a xlink:title=" ">
<path fill="none" stroke="#63b8ff" d="M1290.03,-199.98C1312.44,-193.41 1337.09,-185.28 1359,-176 1387.3,-164.02 1418.11,-145.63 1435.79,-134.52"/>
<polygon fill="#63b8ff" stroke="#63b8ff" points="1288.89,-196.67 1280.24,-202.8 1290.82,-203.4 1288.89,-196.67"/>
</a>
</g>
</g>
<!-- Node3 -->
<g id="Node000003" class="node">
<title>Node3</title>
<g id="a_Node000003"><a xlink:href="classamr__wind_1_1_sim_time.html" target="_top" xlink:title=" ">
<polygon fill="white" stroke="#666666" points="1275.5,-179.5 1161.5,-179.5 1161.5,-160.5 1275.5,-160.5 1275.5,-179.5"/>
<text text-anchor="middle" x="1218.5" y="-167.5" font-family="Helvetica,sans-Serif" font-size="10.00">amr_wind::SimTime</text>
</a>
</g>
</g>
<!-- Node3&#45;&gt;Node1 -->
<g id="edge2_Node000001_Node000003" class="edge">
<title>Node3&#45;&gt;Node1</title>
<g id="a_edge2_Node000001_Node000003"><a xlink:title=" ">
<path fill="none" stroke="#9a32cd" stroke-dasharray="5,2" d="M1278.43,-158.52C1316.56,-151.09 1365.61,-141.54 1401.58,-134.53"/>
<polygon fill="#9a32cd" stroke="#9a32cd" points="1277.64,-155.11 1268.49,-160.46 1278.97,-161.98 1277.64,-155.11"/>
</a>
</g>
<text text-anchor="start" x="1309.5" y="-160.5" font-family="Helvetica,sans-Serif" font-size="10.00" fill="grey">m_time</text>
</g>
<!-- Node4 -->
<g id="Node000004" class="node">
<title>Node4</title>
<g id="a_Node000004"><a xlink:href="classamr__wind_1_1_field_repo.html" target="_top" xlink:title=" ">
<polygon fill="white" stroke="#666666" points="1077.5,-123.5 958.5,-123.5 958.5,-104.5 1077.5,-104.5 1077.5,-123.5"/>
<text text-anchor="middle" x="1018" y="-111.5" font-family="Helvetica,sans-Serif" font-size="10.00">amr_wind::FieldRepo</text>
</a>
</g>
</g>
<!-- Node4&#45;&gt;Node1 -->
<g id="edge3_Node000001_Node000004" class="edge">
<title>Node4&#45;&gt;Node1</title>
<g id="a_edge3_Node000001_Node000004"><a xlink:title=" ">
<path fill="none" stroke="#9a32cd" stroke-dasharray="5,2" d="M1087.97,-115.76C1166.97,-117.77 1295.89,-121.06 1376.82,-123.12"/>
<polygon fill="#9a32cd" stroke="#9a32cd" points="1087.73,-112.25 1077.64,-115.49 1087.55,-119.25 1087.73,-112.25"/>
</a>
</g>
<text text-anchor="start" x="1200.5" y="-126.5" font-family="Helvetica,sans-Serif" font-size="10.00" fill="grey">m_repo</text>
</g>
<!-- Node11 -->
<g id="Node000011" class="node">
<title>Node11</title>
<g id="a_Node000011"><a xlink:href="classamr__wind_1_1_field.html" target="_top" xlink:title=" ">
<polygon fill="white" stroke="#666666" points="1265.5,-80.5 1171.5,-80.5 1171.5,-61.5 1265.5,-61.5 1265.5,-80.5"/>
<text text-anchor="middle" x="1218.5" y="-68.5" font-family="Helvetica,sans-Serif" font-size="10.00">amr_wind::Field</text>
</a>
</g>
</g>
<!-- Node4&#45;&gt;Node11 -->
<g id="edge11_Node000011_Node000004" class="edge">
<title>Node4&#45;&gt;Node11</title>
<g id="a_edge11_Node000011_Node000004"><a xlink:title=" ">
<path fill="none" stroke="#9a32cd" stroke-dasharray="5,2" d="M1063.64,-101.86C1074.22,-99.14 1085.48,-96.36 1096,-94 1120.82,-88.43 1148.7,-83.09 1171.48,-78.96"/>
<polygon fill="#9a32cd" stroke="#9a32cd" points="1062.55,-98.53 1053.76,-104.44 1064.32,-105.3 1062.55,-98.53"/>
</a>
</g>
<text text-anchor="start" x="1099.5" y="-99.5" font-family="Helvetica,sans-Serif" font-size="10.00" fill="grey">m_repo</text>
</g>
<!-- Node5 -->
<g id="Node000005" class="node">
<title>Node5</title>
<g id="a_Node000005"><a xlink:title=" ">
<polygon fill="white" stroke="#666666" points="843,-129 721,-129 721,-99 843,-99 843,-129"/>
<text text-anchor="start" x="729" y="-117" font-family="Helvetica,sans-Serif" font-size="10.00">std::unordered_map</text>
<text text-anchor="middle" x="782" y="-106" font-family="Helvetica,sans-Serif" font-size="10.00">&lt; std::string, size_t &gt;</text>
</a>
</g>
</g>
<!-- Node5&#45;&gt;Node4 -->
<g id="edge4_Node000004_Node000005" class="edge">
<title>Node5&#45;&gt;Node4</title>
<g id="a_edge4_Node000004_Node000005"><a xlink:title=" ">
<path fill="none" stroke="#9a32cd" stroke-dasharray="5,2" d="M853.43,-114C886.86,-114 926.35,-114 958.16,-114"/>
<polygon fill="#9a32cd" stroke="#9a32cd" points="853.26,-110.5 843.26,-114 853.26,-117.5 853.26,-110.5"/>
</a>
</g>
<text text-anchor="start" x="864.5" y="-135" font-family="Helvetica,sans-Serif" font-size="10.00" fill="grey">m_fid_map</text>
<text text-anchor="start" x="864.5" y="-120" font-family="Helvetica,sans-Serif" font-size="10.00" fill="grey">m_int_fid_map</text>
</g>
<!-- Node6 -->
<g id="Node000006" class="node">
<title>Node6</title>
<g id="a_Node000006"><a xlink:title=" ">
<polygon fill="white" stroke="#666666" points="508,-77.5 443,-77.5 443,-58.5 508,-58.5 508,-77.5"/>
<text text-anchor="middle" x="475.5" y="-65.5" font-family="Helvetica,sans-Serif" font-size="10.00">std::string</text>
</a>
</g>
</g>
<!-- Node6&#45;&gt;Node1 -->
<g id="edge22_Node000001_Node000006" class="edge">
<title>Node6&#45;&gt;Node1</title>
<g id="a_edge22_Node000001_Node000006"><a xlink:title=" ">
<path fill="none" stroke="#9a32cd" stroke-dasharray="5,2" d="M511.17,-55.03C567.1,-35.29 681.1,0 781,0 781,0 781,0 1219.5,0 1316.17,0 1411.15,-85.72 1440.94,-115.19"/>
<polygon fill="#9a32cd" stroke="#9a32cd" points="509.97,-51.74 501.74,-58.4 512.33,-58.33 509.97,-51.74"/>
</a>
</g>
<text text-anchor="start" x="976" y="-21" font-family="Helvetica,sans-Serif" font-size="10.00" fill="grey">m_output_fname</text>
<text text-anchor="start" x="976" y="-6" font-family="Helvetica,sans-Serif" font-size="10.00" fill="grey">m_shape</text>
</g>
<!-- Node6&#45;&gt;Node5 -->
<g id="edge5_Node000005_Node000006" class="edge">
<title>Node6&#45;&gt;Node5</title>
<g id="a_edge5_Node000005_Node000006"><a xlink:title=" ">
<path fill="none" stroke="#9a32cd" stroke-dasharray="5,2" d="M518.33,-71.08C563.97,-74.84 639.09,-82.19 703,-94 710.56,-95.4 718.47,-97.12 726.24,-98.96"/>
<polygon fill="#9a32cd" stroke="#9a32cd" points="518.46,-67.58 508.21,-70.26 517.9,-74.55 518.46,-67.58"/>
</a>
</g>
<text text-anchor="start" x="629.5" y="-99.5" font-family="Helvetica,sans-Serif" font-size="10.00" fill="grey">keys</text>
</g>
<!-- Node6&#45;&gt;Node11 -->
<g id="edge12_Node000011_Node000006" class="edge">
<title>Node6&#45;&gt;Node11</title>
<g id="a_edge12_Node000011_Node000006"><a xlink:title=" ">
<path fill="none" stroke="#9a32cd" stroke-dasharray="5,2" d="M518.59,-68.17C647.61,-68.69 1036.9,-70.27 1171.29,-70.81"/>
<polygon fill="#9a32cd" stroke="#9a32cd" points="518.35,-64.67 508.34,-68.13 518.33,-71.67 518.35,-64.67"/>
</a>
</g>
<text text-anchor="start" x="879.5" y="-75.5" font-family="Helvetica,sans-Serif" font-size="10.00" fill="grey">m_name</text>
</g>
<!-- Node13 -->
<g id="Node000013" class="node">
<title>Node13</title>
<g id="a_Node000013"><a xlink:href="structamr__wind_1_1_field_info.html" target="_top" xlink:title=" ">
<polygon fill="white" stroke="#666666" points="838.5,-208.5 725.5,-208.5 725.5,-189.5 838.5,-189.5 838.5,-208.5"/>
<text text-anchor="middle" x="782" y="-196.5" font-family="Helvetica,sans-Serif" font-size="10.00">amr_wind::FieldInfo</text>
</a>
</g>
</g>
<!-- Node6&#45;&gt;Node13 -->
<g id="edge15_Node000013_Node000006" class="edge">
<title>Node6&#45;&gt;Node13</title>
<g id="a_edge15_Node000013_Node000006"><a xlink:title=" ">
<path fill="none" stroke="#9a32cd" stroke-dasharray="5,2" d="M504.22,-81.98C524.25,-91.51 552.21,-103.7 578,-111 632.07,-126.3 652.1,-106.19 703,-130 733.13,-144.1 760.24,-173.57 773.11,-189.04"/>
<polygon fill="#9a32cd" stroke="#9a32cd" points="505.59,-78.75 495.07,-77.54 502.54,-85.05 505.59,-78.75"/>
</a>
</g>
<text text-anchor="start" x="607.5" y="-135.5" font-family="Helvetica,sans-Serif" font-size="10.00" fill="grey">m_basename</text>
</g>
<!-- Node7 -->
<g id="Node000007" class="node">
<title>Node7</title>
<g id="a_Node000007"><a xlink:title=" ">
<polygon fill="white" stroke="#666666" points="204,-83 100,-83 100,-53 204,-53 204,-83"/>
<text text-anchor="start" x="108" y="-71" font-family="Helvetica,sans-Serif" font-size="10.00">std::basic_string&lt;</text>
<text text-anchor="middle" x="152" y="-60" font-family="Helvetica,sans-Serif" font-size="10.00"> Char &gt;</text>
</a>
</g>
</g>
<!-- Node7&#45;&gt;Node6 -->
<g id="edge6_Node000006_Node000007" class="edge">
<title>Node7&#45;&gt;Node6</title>
<g id="a_edge6_Node000006_Node000007"><a xlink:title=" ">
<path fill="none" stroke="#63b8ff" d="M214.48,-68C282.65,-68 389.98,-68 442.88,-68"/>
<polygon fill="#63b8ff" stroke="#63b8ff" points="214.3,-64.5 204.3,-68 214.3,-71.5 214.3,-64.5"/>
</a>
</g>
</g>
<!-- Node8 -->
<g id="Node000008" class="node">
<title>Node8</title>
<g id="a_Node000008"><a xlink:title=" ">
<polygon fill="white" stroke="#666666" points="532.5,-176 418.5,-176 418.5,-146 532.5,-146 532.5,-176"/>
<text text-anchor="start" x="426.5" y="-164" font-family="Helvetica,sans-Serif" font-size="10.00">std::unordered_map</text>
<text text-anchor="middle" x="475.5" y="-153" font-family="Helvetica,sans-Serif" font-size="10.00">&lt; K, T &gt;</text>
</a>
</g>
</g>
<!-- Node8&#45;&gt;Node5 -->
<g id="edge7_Node000005_Node000008" class="edge">
<title>Node8&#45;&gt;Node5</title>
<g id="a_edge7_Node000005_Node000008"><a xlink:title=" ">
<path fill="none" stroke="orange" stroke-dasharray="5,2" d="M542.85,-164.93C588.53,-165.98 650.26,-164.1 703,-151 721.62,-146.37 741.12,-137.12 755.96,-129.03"/>
<polygon fill="orange" stroke="orange" points="542.86,-161.43 532.77,-164.65 542.66,-168.43 542.86,-161.43"/>
</a>
</g>
<text text-anchor="start" x="587.5" y="-171.5" font-family="Helvetica,sans-Serif" font-size="10.00" fill="grey">&lt; std::string, size_t &gt;</text>
</g>
<!-- Node9 -->
<g id="Node000009" class="node">
<title>Node9</title>
<g id="a_Node000009"><a xlink:title=" ">
<polygon fill="white" stroke="#666666" points="166.5,-124.5 137.5,-124.5 137.5,-105.5 166.5,-105.5 166.5,-124.5"/>
<text text-anchor="middle" x="152" y="-112.5" font-family="Helvetica,sans-Serif" font-size="10.00">K</text>
</a>
</g>
</g>
<!-- Node9&#45;&gt;Node8 -->
<g id="edge8_Node000008_Node000009" class="edge">
<title>Node9&#45;&gt;Node8</title>
<g id="a_edge8_Node000008_Node000009"><a xlink:title=" ">
<path fill="none" stroke="#9a32cd" stroke-dasharray="5,2" d="M176.74,-114.85C217.31,-114.99 302.45,-117 373,-130 393.11,-133.71 414.87,-140.03 433.06,-146"/>
<polygon fill="#9a32cd" stroke="#9a32cd" points="176.52,-111.35 166.53,-114.86 176.53,-118.35 176.52,-111.35"/>
</a>
</g>
<text text-anchor="start" x="294" y="-135.5" font-family="Helvetica,sans-Serif" font-size="10.00" fill="grey">keys</text>
</g>
<!-- Node10 -->
<g id="Node000010" class="node">
<title>Node10</title>
<g id="a_Node000010"><a xlink:title=" ">
<polygon fill="white" stroke="#666666" points="29,-215.5 0,-215.5 0,-196.5 29,-196.5 29,-215.5"/>
<text text-anchor="middle" x="14.5" y="-203.5" font-family="Helvetica,sans-Serif" font-size="10.00">T</text>
</a>
</g>
</g>
<!-- Node10&#45;&gt;Node8 -->
<g id="edge9_Node000008_Node000010" class="edge">
<title>Node10&#45;&gt;Node8</title>
<g id="a_edge9_Node000008_Node000010"><a xlink:title=" ">
<path fill="none" stroke="#9a32cd" stroke-dasharray="5,2" d="M37.88,-191.07C51.01,-183.19 68.26,-174.28 85,-170 200.49,-140.45 341.58,-147.32 418.28,-154.47"/>
<polygon fill="#9a32cd" stroke="#9a32cd" points="35.74,-188.28 29.11,-196.55 39.45,-194.22 35.74,-188.28"/>
</a>
</g>
<text text-anchor="start" x="129" y="-175.5" font-family="Helvetica,sans-Serif" font-size="10.00" fill="grey">elements</text>
</g>
<!-- Node16 -->
<g id="Node000016" class="node">
<title>Node16</title>
<g id="a_Node000016"><a xlink:title=" ">
<polygon fill="white" stroke="#666666" points="211,-215.5 93,-215.5 93,-196.5 211,-196.5 211,-215.5"/>
<text text-anchor="middle" x="152" y="-203.5" font-family="Helvetica,sans-Serif" font-size="10.00">std::unique_ptr&lt; T &gt;</text>
</a>
</g>
</g>
<!-- Node10&#45;&gt;Node16 -->
<g id="edge19_Node000016_Node000010" class="edge">
<title>Node10&#45;&gt;Node16</title>
<g id="a_edge19_Node000016_Node000010"><a xlink:title=" ">
<path fill="none" stroke="#9a32cd" stroke-dasharray="5,2" d="M39.53,-206C54.35,-206 74.04,-206 92.75,-206"/>
<polygon fill="#9a32cd" stroke="#9a32cd" points="39.24,-202.5 29.24,-206 39.24,-209.5 39.24,-202.5"/>
</a>
</g>
<text text-anchor="start" x="50" y="-211.5" font-family="Helvetica,sans-Serif" font-size="10.00" fill="grey">ptr</text>
</g>
<!-- Node17 -->
<g id="Node000017" class="node">
<title>Node17</title>
<g id="a_Node000017"><a xlink:title=" ">
<polygon fill="white" stroke="#666666" points="364,-295.5 246,-295.5 246,-276.5 364,-276.5 364,-295.5"/>
<text text-anchor="middle" x="305" y="-283.5" font-family="Helvetica,sans-Serif" font-size="10.00">std::shared_ptr&lt; T &gt;</text>
</a>
</g>
</g>
<!-- Node10&#45;&gt;Node17 -->
<g id="edge21_Node000017_Node000010" class="edge">
<title>Node10&#45;&gt;Node17</title>
<g id="a_edge21_Node000017_Node000010"><a xlink:title=" ">
<path fill="none" stroke="#9a32cd" stroke-dasharray="5,2" d="M28.25,-224.11C40.68,-240.14 61.17,-262.55 85,-273 135.93,-295.33 200,-296.42 245.65,-293.23"/>
<polygon fill="#9a32cd" stroke="#9a32cd" points="30.98,-221.91 22.2,-215.98 25.36,-226.09 30.98,-221.91"/>
</a>
</g>
<text text-anchor="start" x="50" y="-266.5" font-family="Helvetica,sans-Serif" font-size="10.00" fill="grey">ptr</text>
</g>
<!-- Node11&#45;&gt;Node1 -->
<g id="edge10_Node000001_Node000011" class="edge">
<title>Node11&#45;&gt;Node1</title>
<g id="a_edge10_Node000001_Node000011"><a xlink:title=" ">
<path fill="none" stroke="#9a32cd" stroke-dasharray="5,2" d="M1272.45,-60C1298.96,-56.57 1331.24,-55.59 1359,-64 1392.44,-74.12 1424.83,-100.95 1440.58,-115.42"/>
<polygon fill="#9a32cd" stroke="#9a32cd" points="1271.62,-56.58 1262.22,-61.48 1272.62,-63.51 1271.62,-56.58"/>
</a>
</g>
<text text-anchor="start" x="1301.5" y="-99.5" font-family="Helvetica,sans-Serif" font-size="10.00" fill="grey">m_density</text>
<text text-anchor="start" x="1301.5" y="-84.5" font-family="Helvetica,sans-Serif" font-size="10.00" fill="grey">m_scalar</text>
<text text-anchor="start" x="1301.5" y="-69.5" font-family="Helvetica,sans-Serif" font-size="10.00" fill="grey">m_velocity</text>
</g>
<!-- Node12 -->
<g id="Node000012" class="node">
<title>Node12</title>
<g id="a_Node000012"><a xlink:title=" ">
<polygon fill="white" stroke="#666666" points="1078,-214 958,-214 958,-184 1078,-184 1078,-214"/>
<text text-anchor="start" x="966" y="-202" font-family="Helvetica,sans-Serif" font-size="10.00">std::shared_ptr&lt; amr</text>
<text text-anchor="middle" x="1018" y="-191" font-family="Helvetica,sans-Serif" font-size="10.00">_wind::FieldInfo &gt;</text>
</a>
</g>
</g>
<!-- Node12&#45;&gt;Node11 -->
<g id="edge13_Node000011_Node000012" class="edge">
<title>Node12&#45;&gt;Node11</title>
<g id="a_edge13_Node000011_Node000012"><a xlink:title=" ">
<path fill="none" stroke="#9a32cd" stroke-dasharray="5,2" d="M1048.74,-178.02C1085.95,-151.83 1146.13,-109.62 1157,-103 1170.39,-94.84 1186.06,-86.59 1198.1,-80.51"/>
<polygon fill="#9a32cd" stroke="#9a32cd" points="1046.43,-175.37 1040.27,-183.99 1050.46,-181.09 1046.43,-175.37"/>
</a>
</g>
<text text-anchor="start" x="1100.5" y="-149.5" font-family="Helvetica,sans-Serif" font-size="10.00" fill="grey">m_info</text>
</g>
<!-- Node13&#45;&gt;Node12 -->
<g id="edge14_Node000012_Node000013" class="edge">
<title>Node13&#45;&gt;Node12</title>
<g id="a_edge14_Node000012_Node000013"><a xlink:title=" ">
<path fill="none" stroke="#9a32cd" stroke-dasharray="5,2" d="M849.13,-199C883.38,-199 924.85,-199 958,-199"/>
<polygon fill="#9a32cd" stroke="#9a32cd" points="848.75,-195.5 838.75,-199 848.75,-202.5 848.75,-195.5"/>
</a>
</g>
<text text-anchor="start" x="893.5" y="-204.5" font-family="Helvetica,sans-Serif" font-size="10.00" fill="grey">ptr</text>
</g>
<!-- Node14 -->
<g id="Node000014" class="node">
<title>Node14</title>
<g id="a_Node000014"><a xlink:title=" ">
<polygon fill="white" stroke="#666666" points="560,-228 391,-228 391,-198 560,-198 560,-228"/>
<text text-anchor="start" x="399" y="-216" font-family="Helvetica,sans-Serif" font-size="10.00">std::unique_ptr&lt; amr</text>
<text text-anchor="middle" x="475.5" y="-205" font-family="Helvetica,sans-Serif" font-size="10.00">_wind::FieldFillPatchOpsBase &gt;</text>
</a>
</g>
</g>
<!-- Node14&#45;&gt;Node13 -->
<g id="edge16_Node000013_Node000014" class="edge">
<title>Node14&#45;&gt;Node13</title>
<g id="a_edge16_Node000013_Node000014"><a xlink:title=" ">
<path fill="none" stroke="#9a32cd" stroke-dasharray="5,2" d="M570.13,-208.7C620.98,-206.36 682.13,-203.55 725.45,-201.55"/>
<polygon fill="#9a32cd" stroke="#9a32cd" points="569.94,-205.2 560.11,-209.16 570.26,-212.19 569.94,-205.2"/>
</a>
</g>
<text text-anchor="start" x="604.5" y="-214.5" font-family="Helvetica,sans-Serif" font-size="10.00" fill="grey">m_fillpatch_op</text>
</g>
<!-- Node15 -->
<g id="Node000015" class="node">
<title>Node15</title>
<g id="a_Node000015"><a xlink:href="classamr__wind_1_1_field_fill_patch_ops_base.html" target="_top" xlink:title=" ">
<polygon fill="white" stroke="#666666" points="219,-264 85,-264 85,-234 219,-234 219,-264"/>
<text text-anchor="start" x="93" y="-252" font-family="Helvetica,sans-Serif" font-size="10.00">amr_wind::FieldFillPatch</text>
<text text-anchor="middle" x="152" y="-241" font-family="Helvetica,sans-Serif" font-size="10.00">OpsBase</text>
</a>
</g>
</g>
<!-- Node15&#45;&gt;Node14 -->
<g id="edge17_Node000014_Node000015" class="edge">
<title>Node15&#45;&gt;Node14</title>
<g id="a_edge17_Node000014_Node000015"><a xlink:title=" ">
<path fill="none" stroke="#9a32cd" stroke-dasharray="5,2" d="M228.99,-242.11C271.41,-238.08 325.19,-232.69 373,-227 378.83,-226.31 384.84,-225.56 390.89,-224.78"/>
<polygon fill="#9a32cd" stroke="#9a32cd" points="228.64,-238.62 219.01,-243.05 229.3,-245.59 228.64,-238.62"/>
</a>
</g>
<text text-anchor="start" x="298" y="-245.5" font-family="Helvetica,sans-Serif" font-size="10.00" fill="grey">ptr</text>
</g>
<!-- Node16&#45;&gt;Node14 -->
<g id="edge18_Node000014_Node000016" class="edge">
<title>Node16&#45;&gt;Node14</title>
<g id="a_edge18_Node000014_Node000016"><a xlink:title=" ">
<path fill="none" stroke="orange" stroke-dasharray="5,2" d="M221.36,-196.3C226.64,-195.78 231.9,-195.33 237,-195 297.32,-191.07 312.79,-189.7 373,-195 381.2,-195.72 389.73,-196.76 398.21,-197.99"/>
<polygon fill="orange" stroke="orange" points="220.77,-192.84 211.2,-197.38 221.51,-199.8 220.77,-192.84"/>
</a>
</g>
<text text-anchor="start" x="240" y="-216" font-family="Helvetica,sans-Serif" font-size="10.00" fill="grey">&lt; amr_wind::FieldFillPatch</text>
<text text-anchor="start" x="240" y="-201" font-family="Helvetica,sans-Serif" font-size="10.00" fill="grey">  OpsBase &gt;</text>
</g>
<!-- Node17&#45;&gt;Node12 -->
<g id="edge20_Node000012_Node000017" class="edge">
<title>Node17&#45;&gt;Node12</title>
<g id="a_edge20_Node000012_Node000017"><a xlink:title=" ">
<path fill="none" stroke="orange" stroke-dasharray="5,2" d="M374.37,-282.53C491.15,-275.8 736.21,-258.13 940,-220 948.58,-218.39 957.6,-216.31 966.33,-214.07"/>
<polygon fill="orange" stroke="orange" points="373.93,-279.05 364.15,-283.11 374.33,-286.04 373.93,-279.05"/>
</a>
</g>
<text text-anchor="start" x="581.5" y="-272.5" font-family="Helvetica,sans-Serif" font-size="10.00" fill="grey">&lt; amr_wind::FieldInfo &gt;</text>
</g>
</g>
</svg>
