<?xml version="1.0" encoding="UTF-8" standalone="no"?>
<!DOCTYPE svg PUBLIC "-//W3C//DTD SVG 1.1//EN"
 "http://www.w3.org/Graphics/SVG/1.1/DTD/svg11.dtd">
<!-- Generated by graphviz version 2.43.0 (0)
 -->
<!-- Title: amr_wind::ABLBoundaryPlane Pages: 1 -->
<svg width="456pt" height="393pt"
 viewBox="0.00 0.00 456.00 393.00" xmlns="http://www.w3.org/2000/svg" xmlns:xlink="http://www.w3.org/1999/xlink">
<g id="graph0" class="graph" transform="scale(1 1) rotate(0) translate(4 389)">
<title>amr_wind::ABLBoundaryPlane</title>
<!-- Node1 -->
<g id="Node000001" class="node">
<title>Node1</title>
<g id="a_Node000001"><a xlink:title=" ">
<polygon fill="#999999" stroke="#666666" points="253.5,-19 90.5,-19 90.5,0 253.5,0 253.5,-19"/>
<text text-anchor="middle" x="172" y="-7" font-family="Helvetica,sans-Serif" font-size="10.00">amr_wind::ABLBoundaryPlane</text>
</a>
</g>
</g>
<!-- Node2 -->
<g id="Node000002" class="node">
<title>Node2</title>
<g id="a_Node000002"><a xlink:href="classamr__wind_1_1_sim_time.html" target="_top" xlink:title=" ">
<polygon fill="white" stroke="#666666" points="114,-91 0,-91 0,-72 114,-72 114,-91"/>
<text text-anchor="middle" x="57" y="-79" font-family="Helvetica,sans-Serif" font-size="10.00">amr_wind::SimTime</text>
</a>
</g>
</g>
<!-- Node2&#45;&gt;Node1 -->
<g id="edge1_Node000001_Node000002" class="edge">
<title>Node2&#45;&gt;Node1</title>
<g id="a_edge1_Node000001_Node000002"><a xlink:title=" ">
<path fill="none" stroke="#9a32cd" stroke-dasharray="5,2" d="M64.37,-62.66C68.85,-53.8 75.39,-43.6 84,-37 94.76,-28.75 108.08,-23.06 121.07,-19.13"/>
<polygon fill="#9a32cd" stroke="#9a32cd" points="61.15,-61.28 60.18,-71.83 67.51,-64.19 61.15,-61.28"/>
</a>
</g>
<text text-anchor="start" x="87" y="-42.5" font-family="Helvetica,sans-Serif" font-size="10.00" fill="grey">m_time</text>
</g>
<!-- Node3 -->
<g id="Node000003" class="node">
<title>Node3</title>
<g id="a_Node000003"><a xlink:href="classamr__wind_1_1_field_repo.html" target="_top" xlink:title=" ">
<polygon fill="white" stroke="#666666" points="289.5,-91 170.5,-91 170.5,-72 289.5,-72 289.5,-91"/>
<text text-anchor="middle" x="230" y="-79" font-family="Helvetica,sans-Serif" font-size="10.00">amr_wind::FieldRepo</text>
</a>
</g>
</g>
<!-- Node3&#45;&gt;Node1 -->
<g id="edge2_Node000001_Node000003" class="edge">
<title>Node3&#45;&gt;Node1</title>
<g id="a_edge2_Node000001_Node000003"><a xlink:title=" ">
<path fill="none" stroke="#9a32cd" stroke-dasharray="5,2" d="M216.34,-64.01C204.7,-49.96 188.42,-30.32 179.17,-19.15"/>
<polygon fill="#9a32cd" stroke="#9a32cd" points="213.81,-66.45 222.89,-71.92 219.2,-61.98 213.81,-66.45"/>
</a>
</g>
<text text-anchor="start" x="211.5" y="-42.5" font-family="Helvetica,sans-Serif" font-size="10.00" fill="grey">m_repo</text>
</g>
<!-- Node4 -->
<g id="Node000004" class="node">
<title>Node4</title>
<g id="a_Node000004"><a xlink:title=" ">
<polygon fill="white" stroke="#666666" points="292,-219 170,-219 170,-189 292,-189 292,-219"/>
<text text-anchor="start" x="178" y="-207" font-family="Helvetica,sans-Serif" font-size="10.00">std::unordered_map</text>
<text text-anchor="middle" x="231" y="-196" font-family="Helvetica,sans-Serif" font-size="10.00">&lt; std::string, size_t &gt;</text>
</a>
</g>
</g>
<!-- Node4&#45;&gt;Node3 -->
<g id="edge3_Node000003_Node000004" class="edge">
<title>Node4&#45;&gt;Node3</title>
<g id="a_edge3_Node000003_Node000004"><a xlink:title=" ">
<path fill="none" stroke="#9a32cd" stroke-dasharray="5,2" d="M230.8,-178.44C230.57,-151.27 230.22,-108.97 230.07,-91.02"/>
<polygon fill="#9a32cd" stroke="#9a32cd" points="227.3,-178.73 230.88,-188.7 234.3,-178.68 227.3,-178.73"/>
</a>
</g>
<text text-anchor="start" x="234.5" y="-145" font-family="Helvetica,sans-Serif" font-size="10.00" fill="grey">m_fid_map</text>
<text text-anchor="start" x="234.5" y="-130" font-family="Helvetica,sans-Serif" font-size="10.00" fill="grey">m_int_fid_map</text>
</g>
<!-- Node5 -->
<g id="Node000005" class="node">
<title>Node5</title>
<g id="a_Node000005"><a xlink:title=" ">
<polygon fill="white" stroke="#666666" points="192.5,-296.5 127.5,-296.5 127.5,-277.5 192.5,-277.5 192.5,-296.5"/>
<text text-anchor="middle" x="160" y="-284.5" font-family="Helvetica,sans-Serif" font-size="10.00">std::string</text>
</a>
</g>
</g>
<!-- Node5&#45;&gt;Node1 -->
<g id="edge9_Node000001_Node000005" class="edge">
<title>Node5&#45;&gt;Node1</title>
<g id="a_edge9_Node000001_Node000005"><a xlink:title=" ">
<path fill="none" stroke="#9a32cd" stroke-dasharray="5,2" d="M159,-267.06C157.26,-229.67 154.46,-143.78 161,-72 162.73,-52.99 167.28,-31.05 169.96,-19.19"/>
<polygon fill="#9a32cd" stroke="#9a32cd" points="155.52,-267.6 159.51,-277.41 162.51,-267.25 155.52,-267.6"/>
</a>
</g>
<text text-anchor="start" x="162" y="-160" font-family="Helvetica,sans-Serif" font-size="10.00" fill="grey">m_filename</text>
<text text-anchor="start" x="162" y="-145" font-family="Helvetica,sans-Serif" font-size="10.00" fill="grey">m_out_fmt</text>
<text text-anchor="start" x="162" y="-130" font-family="Helvetica,sans-Serif" font-size="10.00" fill="grey">m_time_file</text>
<text text-anchor="start" x="162" y="-115" font-family="Helvetica,sans-Serif" font-size="10.00" fill="grey">m_title</text>
</g>
<!-- Node5&#45;&gt;Node4 -->
<g id="edge4_Node000004_Node000005" class="edge">
<title>Node5&#45;&gt;Node4</title>
<g id="a_edge4_Node000004_Node000005"><a xlink:title=" ">
<path fill="none" stroke="#9a32cd" stroke-dasharray="5,2" d="M164.56,-267.51C167.68,-257.65 172.62,-245.78 180,-237 185.92,-229.96 193.79,-223.98 201.58,-219.16"/>
<polygon fill="#9a32cd" stroke="#9a32cd" points="161.18,-266.6 161.85,-277.17 167.92,-268.49 161.18,-266.6"/>
</a>
</g>
<text text-anchor="start" x="183.5" y="-242.5" font-family="Helvetica,sans-Serif" font-size="10.00" fill="grey">keys</text>
</g>
<!-- Node6 -->
<g id="Node000006" class="node">
<title>Node6</title>
<g id="a_Node000006"><a xlink:title=" ">
<polygon fill="white" stroke="#666666" points="212,-385 108,-385 108,-355 212,-355 212,-385"/>
<text text-anchor="start" x="116" y="-373" font-family="Helvetica,sans-Serif" font-size="10.00">std::basic_string&lt;</text>
<text text-anchor="middle" x="160" y="-362" font-family="Helvetica,sans-Serif" font-size="10.00"> Char &gt;</text>
</a>
</g>
</g>
<!-- Node6&#45;&gt;Node5 -->
<g id="edge5_Node000005_Node000006" class="edge">
<title>Node6&#45;&gt;Node5</title>
<g id="a_edge5_Node000005_Node000006"><a xlink:title=" ">
<path fill="none" stroke="#63b8ff" d="M160,-344.55C160,-328.45 160,-308.32 160,-296.94"/>
<polygon fill="#63b8ff" stroke="#63b8ff" points="156.5,-344.89 160,-354.89 163.5,-344.89 156.5,-344.89"/>
</a>
</g>
</g>
<!-- Node7 -->
<g id="Node000007" class="node">
<title>Node7</title>
<g id="a_Node000007"><a xlink:title=" ">
<polygon fill="white" stroke="#666666" points="371,-302 257,-302 257,-272 371,-272 371,-302"/>
<text text-anchor="start" x="265" y="-290" font-family="Helvetica,sans-Serif" font-size="10.00">std::unordered_map</text>
<text text-anchor="middle" x="314" y="-279" font-family="Helvetica,sans-Serif" font-size="10.00">&lt; K, T &gt;</text>
</a>
</g>
</g>
<!-- Node7&#45;&gt;Node4 -->
<g id="edge6_Node000004_Node000007" class="edge">
<title>Node7&#45;&gt;Node4</title>
<g id="a_edge6_Node000004_Node000007"><a xlink:title=" ">
<path fill="none" stroke="orange" stroke-dasharray="5,2" d="M247.84,-271.33C240.06,-266.97 233.09,-261.32 228,-254 221,-243.92 222.82,-229.68 225.76,-219.14"/>
<polygon fill="orange" stroke="orange" points="246.4,-274.52 256.93,-275.72 249.45,-268.21 246.4,-274.52"/>
</a>
</g>
<text text-anchor="start" x="231" y="-242.5" font-family="Helvetica,sans-Serif" font-size="10.00" fill="grey">&lt; std::string, size_t &gt;</text>
</g>
<!-- Node11 -->
<g id="Node000011" class="node">
<title>Node11</title>
<g id="a_Node000011"><a xlink:title=" ">
<polygon fill="white" stroke="#666666" points="424,-219 310,-219 310,-189 424,-189 424,-219"/>
<text text-anchor="start" x="318" y="-207" font-family="Helvetica,sans-Serif" font-size="10.00">std::unordered_map</text>
<text text-anchor="middle" x="367" y="-196" font-family="Helvetica,sans-Serif" font-size="10.00">&lt; int, int &gt;</text>
</a>
</g>
</g>
<!-- Node7&#45;&gt;Node11 -->
<g id="edge12_Node000011_Node000007" class="edge">
<title>Node7&#45;&gt;Node11</title>
<g id="a_edge12_Node000011_Node000007"><a xlink:title=" ">
<path fill="none" stroke="orange" stroke-dasharray="5,2" d="M335.9,-264.43C338.8,-261.08 341.6,-257.54 344,-254 351.39,-243.11 357.57,-229.48 361.66,-219.36"/>
<polygon fill="orange" stroke="orange" points="333.27,-262.12 329.08,-271.85 338.42,-266.86 333.27,-262.12"/>
</a>
</g>
<text text-anchor="start" x="356.5" y="-242.5" font-family="Helvetica,sans-Serif" font-size="10.00" fill="grey">&lt; int, int &gt;</text>
</g>
<!-- Node8 -->
<g id="Node000008" class="node">
<title>Node8</title>
<g id="a_Node000008"><a xlink:title=" ">
<polygon fill="white" stroke="#666666" points="302.5,-379.5 273.5,-379.5 273.5,-360.5 302.5,-360.5 302.5,-379.5"/>
<text text-anchor="middle" x="288" y="-367.5" font-family="Helvetica,sans-Serif" font-size="10.00">K</text>
</a>
</g>
</g>
<!-- Node8&#45;&gt;Node7 -->
<g id="edge7_Node000007_Node000008" class="edge">
<title>Node8&#45;&gt;Node7</title>
<g id="a_edge7_Node000007_Node000008"><a xlink:title=" ">
<path fill="none" stroke="#9a32cd" stroke-dasharray="5,2" d="M285.64,-350.22C285.15,-340.88 285.59,-329.57 289,-320 291.32,-313.49 295.52,-307.28 299.83,-302.08"/>
<polygon fill="#9a32cd" stroke="#9a32cd" points="282.18,-350.75 286.57,-360.38 289.15,-350.11 282.18,-350.75"/>
</a>
</g>
<text text-anchor="start" x="292.5" y="-325.5" font-family="Helvetica,sans-Serif" font-size="10.00" fill="grey">keys</text>
</g>
<!-- Node9 -->
<g id="Node000009" class="node">
<title>Node9</title>
<g id="a_Node000009"><a xlink:title=" ">
<polygon fill="white" stroke="#666666" points="354.5,-379.5 325.5,-379.5 325.5,-360.5 354.5,-360.5 354.5,-379.5"/>
<text text-anchor="middle" x="340" y="-367.5" font-family="Helvetica,sans-Serif" font-size="10.00">T</text>
</a>
</g>
</g>
<!-- Node9&#45;&gt;Node7 -->
<g id="edge8_Node000007_Node000009" class="edge">
<title>Node9&#45;&gt;Node7</title>
<g id="a_edge8_Node000007_Node000009"><a xlink:title=" ">
<path fill="none" stroke="#9a32cd" stroke-dasharray="5,2" d="M334.15,-350.78C329.41,-336.01 322.83,-315.51 318.5,-302.01"/>
<polygon fill="#9a32cd" stroke="#9a32cd" points="330.83,-351.88 337.22,-360.33 337.49,-349.74 330.83,-351.88"/>
</a>
</g>
<text text-anchor="start" x="333" y="-325.5" font-family="Helvetica,sans-Serif" font-size="10.00" fill="grey">elements</text>
</g>
<!-- Node10 -->
<g id="Node000010" class="node">
<title>Node10</title>
<g id="a_Node000010"><a xlink:href="classamr__wind_1_1_inlet_data.html" target="_top" xlink:title=" ">
<polygon fill="white" stroke="#666666" points="424,-91 308,-91 308,-72 424,-72 424,-91"/>
<text text-anchor="middle" x="366" y="-79" font-family="Helvetica,sans-Serif" font-size="10.00">amr_wind::InletData</text>
</a>
</g>
</g>
<!-- Node10&#45;&gt;Node1 -->
<g id="edge10_Node000001_Node000010" class="edge">
<title>Node10&#45;&gt;Node1</title>
<g id="a_edge10_Node000001_Node000010"><a xlink:title=" ">
<path fill="none" stroke="#9a32cd" stroke-dasharray="5,2" d="M335.74,-68.03C313.53,-59.03 282.57,-46.79 255,-37 236.9,-30.57 216.33,-24 200.2,-19.01"/>
<polygon fill="#9a32cd" stroke="#9a32cd" points="334.7,-71.39 345.28,-71.92 337.34,-64.91 334.7,-71.39"/>
</a>
</g>
<text text-anchor="start" x="301" y="-42.5" font-family="Helvetica,sans-Serif" font-size="10.00" fill="grey">m_in_data</text>
</g>
<!-- Node11&#45;&gt;Node10 -->
<g id="edge11_Node000010_Node000011" class="edge">
<title>Node11&#45;&gt;Node10</title>
<g id="a_edge11_Node000010_Node000011"><a xlink:title=" ">
<path fill="none" stroke="#9a32cd" stroke-dasharray="5,2" d="M366.8,-178.44C366.57,-151.27 366.22,-108.97 366.07,-91.02"/>
<polygon fill="#9a32cd" stroke="#9a32cd" points="363.3,-178.73 366.88,-188.7 370.3,-178.68 363.3,-178.73"/>
</a>
</g>
<text text-anchor="start" x="369" y="-137" font-family="Helvetica,sans-Serif" font-size="10.00" fill="grey">m_components</text>
</g>
</g>
</svg>
