<?xml version="1.0" encoding="UTF-8" standalone="no"?>
<!DOCTYPE svg PUBLIC "-//W3C//DTD SVG 1.1//EN"
 "http://www.w3.org/Graphics/SVG/1.1/DTD/svg11.dtd">
<!-- Generated by graphviz version 2.43.0 (0)
 -->
<!-- Title: amr_wind::SyntheticTurbulence Pages: 1 -->
<svg width="1746pt" height="424pt"
 viewBox="0.00 0.00 1746.00 423.56" xmlns="http://www.w3.org/2000/svg" xmlns:xlink="http://www.w3.org/1999/xlink">
<g id="graph0" class="graph" transform="scale(1 1) rotate(0) translate(4 419.56)">
<title>amr_wind::SyntheticTurbulence</title>
<!-- Node1 -->
<g id="Node000001" class="node">
<title>Node1</title>
<g id="a_Node000001"><a xlink:title=" ">
<polygon fill="#999999" stroke="#666666" points="1738,-250.56 1569,-250.56 1569,-231.56 1738,-231.56 1738,-250.56"/>
<text text-anchor="middle" x="1653.5" y="-238.56" font-family="Helvetica,sans-Serif" font-size="10.00">amr_wind::SyntheticTurbulence</text>
</a>
</g>
</g>
<!-- Node2 -->
<g id="Node000002" class="node">
<title>Node2</title>
<g id="a_Node000002"><a xlink:title=" ">
<polygon fill="white" stroke="#666666" points="1452.5,-415.56 1329.5,-415.56 1329.5,-374.56 1452.5,-374.56 1452.5,-415.56"/>
<text text-anchor="start" x="1337.5" y="-403.56" font-family="Helvetica,sans-Serif" font-size="10.00">amr_wind::Factory&lt;</text>
<text text-anchor="start" x="1337.5" y="-392.56" font-family="Helvetica,sans-Serif" font-size="10.00"> Physics, CFDSim &amp; &gt;</text>
<text text-anchor="middle" x="1391" y="-381.56" font-family="Helvetica,sans-Serif" font-size="10.00">::Register</text>
</a>
</g>
</g>
<!-- Node2&#45;&gt;Node1 -->
<g id="edge1_Node000001_Node000002" class="edge">
<title>Node2&#45;&gt;Node1</title>
<g id="a_edge1_Node000001_Node000002"><a xlink:title=" ">
<path fill="none" stroke="#63b8ff" d="M1462.87,-390.52C1491.8,-386.17 1524.59,-377.84 1551,-362.06 1598.78,-333.5 1634.61,-274.15 1647.39,-250.8"/>
<polygon fill="#63b8ff" stroke="#63b8ff" points="1462.25,-387.07 1452.82,-391.9 1463.2,-394.01 1462.25,-387.07"/>
</a>
</g>
</g>
<!-- Node3 -->
<g id="Node000003" class="node">
<title>Node3</title>
<g id="a_Node000003"><a xlink:href="classamr__wind_1_1_sim_time.html" target="_top" xlink:title=" ">
<polygon fill="white" stroke="#666666" points="1448,-356.56 1334,-356.56 1334,-337.56 1448,-337.56 1448,-356.56"/>
<text text-anchor="middle" x="1391" y="-344.56" font-family="Helvetica,sans-Serif" font-size="10.00">amr_wind::SimTime</text>
</a>
</g>
</g>
<!-- Node3&#45;&gt;Node1 -->
<g id="edge2_Node000001_Node000003" class="edge">
<title>Node3&#45;&gt;Node1</title>
<g id="a_edge2_Node000001_Node000003"><a xlink:title=" ">
<path fill="none" stroke="#9a32cd" stroke-dasharray="5,2" d="M1458.26,-344.87C1487.67,-341.95 1522.09,-335.79 1551,-323.06 1590.81,-305.53 1628,-268.17 1644.1,-250.58"/>
<polygon fill="#9a32cd" stroke="#9a32cd" points="1457.74,-341.4 1448.08,-345.77 1458.35,-348.37 1457.74,-341.4"/>
</a>
</g>
<text text-anchor="start" x="1496.5" y="-346.56" font-family="Helvetica,sans-Serif" font-size="10.00" fill="grey">m_time</text>
</g>
<!-- Node4 -->
<g id="Node000004" class="node">
<title>Node4</title>
<g id="a_Node000004"><a xlink:href="classamr__wind_1_1_field_repo.html" target="_top" xlink:title=" ">
<polygon fill="white" stroke="#666666" points="1227,-99.56 1108,-99.56 1108,-80.56 1227,-80.56 1227,-99.56"/>
<text text-anchor="middle" x="1167.5" y="-87.56" font-family="Helvetica,sans-Serif" font-size="10.00">amr_wind::FieldRepo</text>
</a>
</g>
</g>
<!-- Node4&#45;&gt;Node1 -->
<g id="edge3_Node000001_Node000004" class="edge">
<title>Node4&#45;&gt;Node1</title>
<g id="a_edge3_Node000001_Node000004"><a xlink:title=" ">
<path fill="none" stroke="#9a32cd" stroke-dasharray="5,2" d="M1237.77,-90.9C1317.85,-94.6 1451.41,-109.39 1551,-164.06 1587.06,-183.85 1624.3,-215.53 1641.97,-231.38"/>
<polygon fill="#9a32cd" stroke="#9a32cd" points="1237.45,-87.38 1227.31,-90.46 1237.16,-94.38 1237.45,-87.38"/>
</a>
</g>
<text text-anchor="start" x="1373" y="-132.56" font-family="Helvetica,sans-Serif" font-size="10.00" fill="grey">m_repo</text>
</g>
<!-- Node11 -->
<g id="Node000011" class="node">
<title>Node11</title>
<g id="a_Node000011"><a xlink:href="classamr__wind_1_1_field.html" target="_top" xlink:title=" ">
<polygon fill="white" stroke="#666666" points="1438,-176.56 1344,-176.56 1344,-157.56 1438,-157.56 1438,-176.56"/>
<text text-anchor="middle" x="1391" y="-164.56" font-family="Helvetica,sans-Serif" font-size="10.00">amr_wind::Field</text>
</a>
</g>
</g>
<!-- Node4&#45;&gt;Node11 -->
<g id="edge11_Node000011_Node000004" class="edge">
<title>Node4&#45;&gt;Node11</title>
<g id="a_edge11_Node000011_Node000004"><a xlink:title=" ">
<path fill="none" stroke="#9a32cd" stroke-dasharray="5,2" d="M1207.21,-102.84C1233.9,-111.71 1270.17,-123.91 1302,-135.06 1323.02,-142.42 1346.74,-151.07 1364.26,-157.52"/>
<polygon fill="#9a32cd" stroke="#9a32cd" points="1208.07,-99.43 1197.47,-99.6 1205.86,-106.08 1208.07,-99.43"/>
</a>
</g>
<text text-anchor="start" x="1257" y="-140.56" font-family="Helvetica,sans-Serif" font-size="10.00" fill="grey">m_repo</text>
</g>
<!-- Node5 -->
<g id="Node000005" class="node">
<title>Node5</title>
<g id="a_Node000005"><a xlink:title=" ">
<polygon fill="white" stroke="#666666" points="974.5,-68.06 852.5,-68.06 852.5,-38.06 974.5,-38.06 974.5,-68.06"/>
<text text-anchor="start" x="860.5" y="-56.06" font-family="Helvetica,sans-Serif" font-size="10.00">std::unordered_map</text>
<text text-anchor="middle" x="913.5" y="-45.06" font-family="Helvetica,sans-Serif" font-size="10.00">&lt; std::string, size_t &gt;</text>
</a>
</g>
</g>
<!-- Node5&#45;&gt;Node4 -->
<g id="edge4_Node000004_Node000005" class="edge">
<title>Node5&#45;&gt;Node4</title>
<g id="a_edge4_Node000004_Node000005"><a xlink:title=" ">
<path fill="none" stroke="#9a32cd" stroke-dasharray="5,2" d="M984.74,-45.48C1016.36,-43.89 1053.92,-44.56 1087,-52.06 1111.02,-57.5 1136.27,-71.13 1151.7,-80.49"/>
<polygon fill="#9a32cd" stroke="#9a32cd" points="984.48,-41.99 974.7,-46.06 984.89,-48.97 984.48,-41.99"/>
</a>
</g>
<text text-anchor="start" x="1011.5" y="-73.06" font-family="Helvetica,sans-Serif" font-size="10.00" fill="grey">m_fid_map</text>
<text text-anchor="start" x="1011.5" y="-58.06" font-family="Helvetica,sans-Serif" font-size="10.00" fill="grey">m_int_fid_map</text>
</g>
<!-- Node6 -->
<g id="Node000006" class="node">
<title>Node6</title>
<g id="a_Node000006"><a xlink:title=" ">
<polygon fill="white" stroke="#666666" points="619.5,-219.56 554.5,-219.56 554.5,-200.56 619.5,-200.56 619.5,-219.56"/>
<text text-anchor="middle" x="587" y="-207.56" font-family="Helvetica,sans-Serif" font-size="10.00">std::string</text>
</a>
</g>
</g>
<!-- Node6&#45;&gt;Node1 -->
<g id="edge22_Node000001_Node000006" class="edge">
<title>Node6&#45;&gt;Node1</title>
<g id="a_edge22_Node000001_Node000006"><a xlink:title=" ">
<path fill="none" stroke="#9a32cd" stroke-dasharray="5,2" d="M629.8,-216.62C691.48,-225.72 810.59,-241.06 912.5,-241.06 912.5,-241.06 912.5,-241.06 1392,-241.06 1451.13,-241.06 1517.82,-241.06 1568.91,-241.06"/>
<polygon fill="#9a32cd" stroke="#9a32cd" points="630.09,-213.12 619.69,-215.11 629.06,-220.05 630.09,-213.12"/>
</a>
</g>
<text text-anchor="start" x="1118.5" y="-262.06" font-family="Helvetica,sans-Serif" font-size="10.00" fill="grey">m_mean_wind_type</text>
<text text-anchor="start" x="1118.5" y="-247.06" font-family="Helvetica,sans-Serif" font-size="10.00" fill="grey">m_turb_filename</text>
</g>
<!-- Node6&#45;&gt;Node5 -->
<g id="edge5_Node000005_Node000006" class="edge">
<title>Node6&#45;&gt;Node5</title>
<g id="a_edge5_Node000005_Node000006"><a xlink:title=" ">
<path fill="none" stroke="#9a32cd" stroke-dasharray="5,2" d="M629.41,-198.07C646.36,-191.1 664.63,-180.55 676,-165.06 704.27,-126.53 657.92,-90.39 694,-59.06 716.82,-39.25 795.8,-41.76 852.24,-46.49"/>
<polygon fill="#9a32cd" stroke="#9a32cd" points="627.75,-194.95 619.64,-201.77 630.23,-201.5 627.75,-194.95"/>
</a>
</g>
<text text-anchor="start" x="745.5" y="-64.56" font-family="Helvetica,sans-Serif" font-size="10.00" fill="grey">keys</text>
</g>
<!-- Node6&#45;&gt;Node11 -->
<g id="edge12_Node000011_Node000006" class="edge">
<title>Node6&#45;&gt;Node11</title>
<g id="a_edge12_Node000011_Node000006"><a xlink:title=" ">
<path fill="none" stroke="#9a32cd" stroke-dasharray="5,2" d="M629.8,-210.07C740.03,-209.72 1047.57,-206.38 1302,-181.06 1315.55,-179.71 1330.18,-177.63 1343.55,-175.49"/>
<polygon fill="#9a32cd" stroke="#9a32cd" points="629.75,-206.57 619.76,-210.09 629.77,-213.57 629.75,-206.57"/>
</a>
</g>
<text text-anchor="start" x="1026.5" y="-207.56" font-family="Helvetica,sans-Serif" font-size="10.00" fill="grey">m_name</text>
</g>
<!-- Node13 -->
<g id="Node000013" class="node">
<title>Node13</title>
<g id="a_Node000013"><a xlink:href="structamr__wind_1_1_field_info.html" target="_top" xlink:title=" ">
<polygon fill="white" stroke="#666666" points="970,-157.56 857,-157.56 857,-138.56 970,-138.56 970,-157.56"/>
<text text-anchor="middle" x="913.5" y="-145.56" font-family="Helvetica,sans-Serif" font-size="10.00">amr_wind::FieldInfo</text>
</a>
</g>
</g>
<!-- Node6&#45;&gt;Node13 -->
<g id="edge15_Node000013_Node000006" class="edge">
<title>Node6&#45;&gt;Node13</title>
<g id="a_edge15_Node000013_Node000006"><a xlink:title=" ">
<path fill="none" stroke="#9a32cd" stroke-dasharray="5,2" d="M626.19,-197.45C646.21,-191.21 671.23,-183.98 694,-179.06 748.86,-167.21 812.49,-158.77 856.88,-153.72"/>
<polygon fill="#9a32cd" stroke="#9a32cd" points="624.99,-194.16 616.51,-200.51 627.1,-200.83 624.99,-194.16"/>
</a>
</g>
<text text-anchor="start" x="723.5" y="-184.56" font-family="Helvetica,sans-Serif" font-size="10.00" fill="grey">m_basename</text>
</g>
<!-- Node7 -->
<g id="Node000007" class="node">
<title>Node7</title>
<g id="a_Node000007"><a xlink:title=" ">
<polygon fill="white" stroke="#666666" points="311,-240.06 207,-240.06 207,-210.06 311,-210.06 311,-240.06"/>
<text text-anchor="start" x="215" y="-228.06" font-family="Helvetica,sans-Serif" font-size="10.00">std::basic_string&lt;</text>
<text text-anchor="middle" x="259" y="-217.06" font-family="Helvetica,sans-Serif" font-size="10.00"> Char &gt;</text>
</a>
</g>
</g>
<!-- Node7&#45;&gt;Node6 -->
<g id="edge6_Node000006_Node000007" class="edge">
<title>Node7&#45;&gt;Node6</title>
<g id="a_edge6_Node000006_Node000007"><a xlink:title=" ">
<path fill="none" stroke="#63b8ff" d="M321.62,-222.22C390.84,-219.04 500.51,-213.99 554.22,-211.52"/>
<polygon fill="#63b8ff" stroke="#63b8ff" points="321.12,-218.74 311.3,-222.7 321.45,-225.73 321.12,-218.74"/>
</a>
</g>
</g>
<!-- Node8 -->
<g id="Node000008" class="node">
<title>Node8</title>
<g id="a_Node000008"><a xlink:title=" ">
<polygon fill="white" stroke="#666666" points="644,-33.06 530,-33.06 530,-3.06 644,-3.06 644,-33.06"/>
<text text-anchor="start" x="538" y="-21.06" font-family="Helvetica,sans-Serif" font-size="10.00">std::unordered_map</text>
<text text-anchor="middle" x="587" y="-10.06" font-family="Helvetica,sans-Serif" font-size="10.00">&lt; K, T &gt;</text>
</a>
</g>
</g>
<!-- Node8&#45;&gt;Node5 -->
<g id="edge7_Node000005_Node000008" class="edge">
<title>Node8&#45;&gt;Node5</title>
<g id="a_edge7_Node000005_Node000008"><a xlink:title=" ">
<path fill="none" stroke="orange" stroke-dasharray="5,2" d="M654.39,-10.42C701.08,-6.95 764.66,-6.11 819,-19.06 827.7,-21.13 828.73,-24.64 837,-28.06 845.42,-31.54 854.52,-34.88 863.39,-37.94"/>
<polygon fill="orange" stroke="orange" points="654.08,-6.93 644.39,-11.22 654.64,-13.91 654.08,-6.93"/>
</a>
</g>
<text text-anchor="start" x="703.5" y="-24.56" font-family="Helvetica,sans-Serif" font-size="10.00" fill="grey">&lt; std::string, size_t &gt;</text>
</g>
<!-- Node9 -->
<g id="Node000009" class="node">
<title>Node9</title>
<g id="a_Node000009"><a xlink:title=" ">
<polygon fill="white" stroke="#666666" points="273.5,-66.56 244.5,-66.56 244.5,-47.56 273.5,-47.56 273.5,-66.56"/>
<text text-anchor="middle" x="259" y="-54.56" font-family="Helvetica,sans-Serif" font-size="10.00">K</text>
</a>
</g>
</g>
<!-- Node9&#45;&gt;Node8 -->
<g id="edge8_Node000008_Node000009" class="edge">
<title>Node9&#45;&gt;Node8</title>
<g id="a_edge8_Node000008_Node000009"><a xlink:title=" ">
<path fill="none" stroke="#9a32cd" stroke-dasharray="5,2" d="M283.69,-54.22C334.99,-48.09 457.59,-33.42 529.92,-24.77"/>
<polygon fill="#9a32cd" stroke="#9a32cd" points="283.11,-50.77 273.59,-55.43 283.94,-57.72 283.11,-50.77"/>
</a>
</g>
<text text-anchor="start" x="401" y="-52.56" font-family="Helvetica,sans-Serif" font-size="10.00" fill="grey">keys</text>
</g>
<!-- Node10 -->
<g id="Node000010" class="node">
<title>Node10</title>
<g id="a_Node000010"><a xlink:title=" ">
<polygon fill="white" stroke="#666666" points="75.5,-104.56 46.5,-104.56 46.5,-85.56 75.5,-85.56 75.5,-104.56"/>
<text text-anchor="middle" x="61" y="-92.56" font-family="Helvetica,sans-Serif" font-size="10.00">T</text>
</a>
</g>
</g>
<!-- Node10&#45;&gt;Node8 -->
<g id="edge9_Node000008_Node000010" class="edge">
<title>Node10&#45;&gt;Node8</title>
<g id="a_edge9_Node000008_Node000010"><a xlink:title=" ">
<path fill="none" stroke="#9a32cd" stroke-dasharray="5,2" d="M82.06,-79.24C106.43,-61.12 149.56,-32.46 192,-21.06 308.76,10.32 452.11,-0.2 529.67,-9.72"/>
<polygon fill="#9a32cd" stroke="#9a32cd" points="79.81,-76.56 73.97,-85.39 84.05,-82.13 79.81,-76.56"/>
</a>
</g>
<text text-anchor="start" x="236" y="-26.56" font-family="Helvetica,sans-Serif" font-size="10.00" fill="grey">elements</text>
</g>
<!-- Node16 -->
<g id="Node000016" class="node">
<title>Node16</title>
<g id="a_Node000016"><a xlink:title=" ">
<polygon fill="white" stroke="#666666" points="318,-190.56 200,-190.56 200,-171.56 318,-171.56 318,-190.56"/>
<text text-anchor="middle" x="259" y="-178.56" font-family="Helvetica,sans-Serif" font-size="10.00">std::unique_ptr&lt; T &gt;</text>
</a>
</g>
</g>
<!-- Node10&#45;&gt;Node16 -->
<g id="edge19_Node000016_Node000010" class="edge">
<title>Node10&#45;&gt;Node16</title>
<g id="a_edge19_Node000016_Node000010"><a xlink:title=" ">
<path fill="none" stroke="#9a32cd" stroke-dasharray="5,2" d="M84.47,-108.36C109.89,-123 152.87,-146.52 192,-162.06 200.87,-165.58 210.63,-168.76 219.88,-171.46"/>
<polygon fill="#9a32cd" stroke="#9a32cd" points="86.03,-105.22 75.62,-103.22 82.51,-111.27 86.03,-105.22"/>
</a>
</g>
<text text-anchor="start" x="150" y="-160.56" font-family="Helvetica,sans-Serif" font-size="10.00" fill="grey">ptr</text>
</g>
<!-- Node17 -->
<g id="Node000017" class="node">
<title>Node17</title>
<g id="a_Node000017"><a xlink:title=" ">
<polygon fill="white" stroke="#666666" points="471,-105.56 353,-105.56 353,-86.56 471,-86.56 471,-105.56"/>
<text text-anchor="middle" x="412" y="-93.56" font-family="Helvetica,sans-Serif" font-size="10.00">std::shared_ptr&lt; T &gt;</text>
</a>
</g>
</g>
<!-- Node10&#45;&gt;Node17 -->
<g id="edge21_Node000017_Node000010" class="edge">
<title>Node10&#45;&gt;Node17</title>
<g id="a_edge21_Node000017_Node000010"><a xlink:title=" ">
<path fill="none" stroke="#9a32cd" stroke-dasharray="5,2" d="M85.73,-95.13C140.1,-95.28 274.99,-95.67 352.92,-95.89"/>
<polygon fill="#9a32cd" stroke="#9a32cd" points="85.69,-91.63 75.68,-95.1 85.67,-98.63 85.69,-91.63"/>
</a>
</g>
<text text-anchor="start" x="150" y="-101.56" font-family="Helvetica,sans-Serif" font-size="10.00" fill="grey">ptr</text>
</g>
<!-- Node11&#45;&gt;Node1 -->
<g id="edge10_Node000001_Node000011" class="edge">
<title>Node11&#45;&gt;Node1</title>
<g id="a_edge10_Node000001_Node000011"><a xlink:title=" ">
<path fill="none" stroke="#9a32cd" stroke-dasharray="5,2" d="M1448.49,-165.46C1479.44,-166.11 1518.08,-169.46 1551,-180.06 1586.42,-191.46 1622.49,-217.23 1640.59,-231.35"/>
<polygon fill="#9a32cd" stroke="#9a32cd" points="1448.36,-161.95 1438.31,-165.33 1448.27,-168.95 1448.36,-161.95"/>
</a>
</g>
<text text-anchor="start" x="1483.5" y="-215.56" font-family="Helvetica,sans-Serif" font-size="10.00" fill="grey">m_density</text>
<text text-anchor="start" x="1483.5" y="-200.56" font-family="Helvetica,sans-Serif" font-size="10.00" fill="grey">m_turb_force</text>
<text text-anchor="start" x="1483.5" y="-185.56" font-family="Helvetica,sans-Serif" font-size="10.00" fill="grey">m_velocity</text>
</g>
<!-- Node12 -->
<g id="Node000012" class="node">
<title>Node12</title>
<g id="a_Node000012"><a xlink:title=" ">
<polygon fill="white" stroke="#666666" points="1227.5,-163.06 1107.5,-163.06 1107.5,-133.06 1227.5,-133.06 1227.5,-163.06"/>
<text text-anchor="start" x="1115.5" y="-151.06" font-family="Helvetica,sans-Serif" font-size="10.00">std::shared_ptr&lt; amr</text>
<text text-anchor="middle" x="1167.5" y="-140.06" font-family="Helvetica,sans-Serif" font-size="10.00">_wind::FieldInfo &gt;</text>
</a>
</g>
</g>
<!-- Node12&#45;&gt;Node11 -->
<g id="edge13_Node000011_Node000012" class="edge">
<title>Node12&#45;&gt;Node11</title>
<g id="a_edge13_Node000011_Node000012"><a xlink:title=" ">
<path fill="none" stroke="#9a32cd" stroke-dasharray="5,2" d="M1237.59,-153.98C1272.13,-156.95 1312.99,-160.45 1343.71,-163.09"/>
<polygon fill="#9a32cd" stroke="#9a32cd" points="1237.83,-150.49 1227.57,-153.12 1237.23,-157.47 1237.83,-150.49"/>
</a>
</g>
<text text-anchor="start" x="1258" y="-165.56" font-family="Helvetica,sans-Serif" font-size="10.00" fill="grey">m_info</text>
</g>
<!-- Node13&#45;&gt;Node12 -->
<g id="edge14_Node000012_Node000013" class="edge">
<title>Node13&#45;&gt;Node12</title>
<g id="a_edge14_Node000012_Node000013"><a xlink:title=" ">
<path fill="none" stroke="#9a32cd" stroke-dasharray="5,2" d="M980.13,-148.06C1019.41,-148.06 1068.95,-148.06 1107.07,-148.06"/>
<polygon fill="#9a32cd" stroke="#9a32cd" points="980.11,-144.56 970.11,-148.06 980.11,-151.56 980.11,-144.56"/>
</a>
</g>
<text text-anchor="start" x="1040.5" y="-153.56" font-family="Helvetica,sans-Serif" font-size="10.00" fill="grey">ptr</text>
</g>
<!-- Node14 -->
<g id="Node000014" class="node">
<title>Node14</title>
<g id="a_Node000014"><a xlink:title=" ">
<polygon fill="white" stroke="#666666" points="671.5,-156.06 502.5,-156.06 502.5,-126.06 671.5,-126.06 671.5,-156.06"/>
<text text-anchor="start" x="510.5" y="-144.06" font-family="Helvetica,sans-Serif" font-size="10.00">std::unique_ptr&lt; amr</text>
<text text-anchor="middle" x="587" y="-133.06" font-family="Helvetica,sans-Serif" font-size="10.00">_wind::FieldFillPatchOpsBase &gt;</text>
</a>
</g>
</g>
<!-- Node14&#45;&gt;Node13 -->
<g id="edge16_Node000013_Node000014" class="edge">
<title>Node14&#45;&gt;Node13</title>
<g id="a_edge16_Node000013_Node000014"><a xlink:title=" ">
<path fill="none" stroke="#9a32cd" stroke-dasharray="5,2" d="M681.92,-137.84C723.89,-137.02 773.94,-136.89 819,-139.06 831.22,-139.64 844.3,-140.66 856.69,-141.8"/>
<polygon fill="#9a32cd" stroke="#9a32cd" points="681.64,-134.34 671.71,-138.05 681.79,-141.34 681.64,-134.34"/>
</a>
</g>
<text text-anchor="start" x="720.5" y="-144.56" font-family="Helvetica,sans-Serif" font-size="10.00" fill="grey">m_fillpatch_op</text>
</g>
<!-- Node15 -->
<g id="Node000015" class="node">
<title>Node15</title>
<g id="a_Node000015"><a xlink:href="classamr__wind_1_1_field_fill_patch_ops_base.html" target="_top" xlink:title=" ">
<polygon fill="white" stroke="#666666" points="326,-153.06 192,-153.06 192,-123.06 326,-123.06 326,-153.06"/>
<text text-anchor="start" x="200" y="-141.06" font-family="Helvetica,sans-Serif" font-size="10.00">amr_wind::FieldFillPatch</text>
<text text-anchor="middle" x="259" y="-130.06" font-family="Helvetica,sans-Serif" font-size="10.00">OpsBase</text>
</a>
</g>
</g>
<!-- Node15&#45;&gt;Node14 -->
<g id="edge17_Node000014_Node000015" class="edge">
<title>Node15&#45;&gt;Node14</title>
<g id="a_edge17_Node000014_Node000015"><a xlink:title=" ">
<path fill="none" stroke="#9a32cd" stroke-dasharray="5,2" d="M336.65,-138.14C378.93,-138.25 432.37,-138.5 480,-139.06 487.27,-139.14 494.82,-139.25 502.39,-139.37"/>
<polygon fill="#9a32cd" stroke="#9a32cd" points="336.44,-134.64 326.43,-138.11 336.42,-141.64 336.44,-134.64"/>
</a>
</g>
<text text-anchor="start" x="405" y="-144.56" font-family="Helvetica,sans-Serif" font-size="10.00" fill="grey">ptr</text>
</g>
<!-- Node16&#45;&gt;Node14 -->
<g id="edge18_Node000014_Node000016" class="edge">
<title>Node16&#45;&gt;Node14</title>
<g id="a_edge18_Node000014_Node000016"><a xlink:title=" ">
<path fill="none" stroke="orange" stroke-dasharray="5,2" d="M328.58,-173.75C372.02,-169.01 429.34,-162.52 480,-156.06 487.28,-155.13 494.84,-154.13 502.42,-153.1"/>
<polygon fill="orange" stroke="orange" points="327.98,-170.3 318.42,-174.86 328.74,-177.26 327.98,-170.3"/>
</a>
</g>
<text text-anchor="start" x="347" y="-193.06" font-family="Helvetica,sans-Serif" font-size="10.00" fill="grey">&lt; amr_wind::FieldFillPatch</text>
<text text-anchor="start" x="347" y="-178.06" font-family="Helvetica,sans-Serif" font-size="10.00" fill="grey">  OpsBase &gt;</text>
</g>
<!-- Node21 -->
<g id="Node000021" class="node">
<title>Node21</title>
<g id="a_Node000021"><a xlink:title=" ">
<polygon fill="white" stroke="#666666" points="676,-324.06 498,-324.06 498,-294.06 676,-294.06 676,-324.06"/>
<text text-anchor="start" x="506" y="-312.06" font-family="Helvetica,sans-Serif" font-size="10.00">std::unique_ptr&lt; amr</text>
<text text-anchor="middle" x="587" y="-301.06" font-family="Helvetica,sans-Serif" font-size="10.00">_wind::synth_turb::MeanProfile &gt;</text>
</a>
</g>
</g>
<!-- Node16&#45;&gt;Node21 -->
<g id="edge29_Node000021_Node000016" class="edge">
<title>Node16&#45;&gt;Node21</title>
<g id="a_edge29_Node000021_Node000016"><a xlink:title=" ">
<path fill="none" stroke="orange" stroke-dasharray="5,2" d="M303.53,-193.58C311.06,-195.93 318.79,-198.48 326,-201.06 348.17,-209 484.35,-266.21 550.29,-293.99"/>
<polygon fill="orange" stroke="orange" points="304.37,-190.18 293.79,-190.59 302.32,-196.87 304.37,-190.18"/>
</a>
</g>
<text text-anchor="start" x="353" y="-283.06" font-family="Helvetica,sans-Serif" font-size="10.00" fill="grey">&lt; amr_wind::synth_turb</text>
<text text-anchor="start" x="353" y="-268.06" font-family="Helvetica,sans-Serif" font-size="10.00" fill="grey">  ::MeanProfile &gt;</text>
</g>
<!-- Node17&#45;&gt;Node12 -->
<g id="edge20_Node000012_Node000017" class="edge">
<title>Node17&#45;&gt;Node12</title>
<g id="a_edge20_Node000012_Node000017"><a xlink:title=" ">
<path fill="none" stroke="orange" stroke-dasharray="5,2" d="M481.36,-98.57C589.48,-102.86 806.53,-112.75 990,-129.06 1029.14,-132.54 1073.07,-137.26 1107.32,-141.13"/>
<polygon fill="orange" stroke="orange" points="481.37,-95.07 471.24,-98.17 481.09,-102.06 481.37,-95.07"/>
</a>
</g>
<text text-anchor="start" x="697.5" y="-121.56" font-family="Helvetica,sans-Serif" font-size="10.00" fill="grey">&lt; amr_wind::FieldInfo &gt;</text>
</g>
<!-- Node18 -->
<g id="Node000018" class="node">
<title>Node18</title>
<g id="a_Node000018"><a xlink:href="structamr__wind_1_1_synth_turb_data.html" target="_top" xlink:title=" ">
<polygon fill="white" stroke="#666666" points="1462,-50.56 1320,-50.56 1320,-31.56 1462,-31.56 1462,-50.56"/>
<text text-anchor="middle" x="1391" y="-38.56" font-family="Helvetica,sans-Serif" font-size="10.00">amr_wind::SynthTurbData</text>
</a>
</g>
</g>
<!-- Node18&#45;&gt;Node1 -->
<g id="edge23_Node000001_Node000018" class="edge">
<title>Node18&#45;&gt;Node1</title>
<g id="a_edge23_Node000001_Node000018"><a xlink:title=" ">
<path fill="none" stroke="#9a32cd" stroke-dasharray="5,2" d="M1472.33,-35.87C1499.22,-37.69 1528.14,-43.84 1551,-59.06 1615.45,-101.97 1643.07,-200.32 1650.4,-231.43"/>
<polygon fill="#9a32cd" stroke="#9a32cd" points="1472.3,-32.37 1462.14,-35.38 1471.96,-39.36 1472.3,-32.37"/>
</a>
</g>
<text text-anchor="start" x="1486.5" y="-64.56" font-family="Helvetica,sans-Serif" font-size="10.00" fill="grey">m_turb_grid</text>
</g>
<!-- Node19 -->
<g id="Node000019" class="node">
<title>Node19</title>
<g id="a_Node000019"><a xlink:href="structamr__wind_1_1vs_1_1_vector_t.html" target="_top" xlink:title=" ">
<polygon fill="white" stroke="#666666" points="1230,-36.06 1105,-36.06 1105,-6.06 1230,-6.06 1230,-36.06"/>
<text text-anchor="start" x="1113" y="-24.06" font-family="Helvetica,sans-Serif" font-size="10.00">amr_wind::vs::VectorT</text>
<text text-anchor="middle" x="1167.5" y="-13.06" font-family="Helvetica,sans-Serif" font-size="10.00">&lt; int &gt;</text>
</a>
</g>
</g>
<!-- Node19&#45;&gt;Node18 -->
<g id="edge24_Node000018_Node000019" class="edge">
<title>Node19&#45;&gt;Node18</title>
<g id="a_edge24_Node000018_Node000019"><a xlink:title=" ">
<path fill="none" stroke="#9a32cd" stroke-dasharray="5,2" d="M1240.16,-27.53C1265.64,-29.83 1294.28,-32.42 1319.65,-34.71"/>
<polygon fill="#9a32cd" stroke="#9a32cd" points="1240.47,-24.04 1230.2,-26.63 1239.84,-31.01 1240.47,-24.04"/>
</a>
</g>
<text text-anchor="start" x="1251" y="-38.56" font-family="Helvetica,sans-Serif" font-size="10.00" fill="grey">box_dims</text>
</g>
<!-- Node20 -->
<g id="Node000020" class="node">
<title>Node20</title>
<g id="a_Node000020"><a xlink:href="structamr__wind_1_1vs_1_1_vector_t.html" target="_top" xlink:title=" ">
<polygon fill="white" stroke="#666666" points="990,-19.56 837,-19.56 837,-0.56 990,-0.56 990,-19.56"/>
<text text-anchor="middle" x="913.5" y="-7.56" font-family="Helvetica,sans-Serif" font-size="10.00">amr_wind::vs::VectorT&lt; T &gt;</text>
</a>
</g>
</g>
<!-- Node20&#45;&gt;Node19 -->
<g id="edge25_Node000019_Node000020" class="edge">
<title>Node20&#45;&gt;Node19</title>
<g id="a_edge25_Node000019_Node000020"><a xlink:title=" ">
<path fill="none" stroke="orange" stroke-dasharray="5,2" d="M1000.19,-9.34C1027.91,-9.57 1058.78,-10.3 1087,-12.06 1092.82,-12.42 1098.87,-12.91 1104.92,-13.46"/>
<polygon fill="orange" stroke="orange" points="1000.15,-5.84 990.13,-9.28 1000.11,-12.84 1000.15,-5.84"/>
</a>
</g>
<text text-anchor="start" x="1029.5" y="-17.56" font-family="Helvetica,sans-Serif" font-size="10.00" fill="grey">&lt; int &gt;</text>
</g>
<!-- Node21&#45;&gt;Node1 -->
<g id="edge26_Node000001_Node000021" class="edge">
<title>Node21&#45;&gt;Node1</title>
<g id="a_edge26_Node000001_Node000021"><a xlink:title=" ">
<path fill="none" stroke="#9a32cd" stroke-dasharray="5,2" d="M686.28,-309.06C750.63,-309.06 836.56,-309.06 912.5,-309.06 912.5,-309.06 912.5,-309.06 1392,-309.06 1483.38,-309.06 1587.11,-269.4 1631.04,-250.66"/>
<polygon fill="#9a32cd" stroke="#9a32cd" points="686.15,-305.56 676.15,-309.06 686.15,-312.56 686.15,-305.56"/>
</a>
</g>
<text text-anchor="start" x="1130.5" y="-314.56" font-family="Helvetica,sans-Serif" font-size="10.00" fill="grey">m_wind_profile</text>
</g>
<!-- Node22 -->
<g id="Node000022" class="node">
<title>Node22</title>
<g id="a_Node000022"><a xlink:href="classamr__wind_1_1synth__turb_1_1_mean_profile.html" target="_top" xlink:title=" ">
<polygon fill="white" stroke="#666666" points="320,-328.06 198,-328.06 198,-298.06 320,-298.06 320,-328.06"/>
<text text-anchor="start" x="206" y="-316.06" font-family="Helvetica,sans-Serif" font-size="10.00">amr_wind::synth_turb</text>
<text text-anchor="middle" x="259" y="-305.06" font-family="Helvetica,sans-Serif" font-size="10.00">::MeanProfile</text>
</a>
</g>
</g>
<!-- Node22&#45;&gt;Node21 -->
<g id="edge27_Node000021_Node000022" class="edge">
<title>Node22&#45;&gt;Node21</title>
<g id="a_edge27_Node000021_Node000022"><a xlink:title=" ">
<path fill="none" stroke="#9a32cd" stroke-dasharray="5,2" d="M330.38,-312.19C379.47,-311.59 445.32,-310.78 497.89,-310.14"/>
<polygon fill="#9a32cd" stroke="#9a32cd" points="330.13,-308.7 320.17,-312.32 330.22,-315.7 330.13,-308.7"/>
</a>
</g>
<text text-anchor="start" x="405" y="-316.56" font-family="Helvetica,sans-Serif" font-size="10.00" fill="grey">ptr</text>
</g>
<!-- Node23 -->
<g id="Node000023" class="node">
<title>Node23</title>
<g id="a_Node000023"><a xlink:href="structamr__wind_1_1synth__turb_1_1_mean_vel_op.html" target="_top" xlink:title=" ">
<polygon fill="white" stroke="#666666" points="122,-328.06 0,-328.06 0,-298.06 122,-298.06 122,-328.06"/>
<text text-anchor="start" x="8" y="-316.06" font-family="Helvetica,sans-Serif" font-size="10.00">amr_wind::synth_turb</text>
<text text-anchor="middle" x="61" y="-305.06" font-family="Helvetica,sans-Serif" font-size="10.00">::MeanVelOp</text>
</a>
</g>
</g>
<!-- Node23&#45;&gt;Node22 -->
<g id="edge28_Node000022_Node000023" class="edge">
<title>Node23&#45;&gt;Node22</title>
<g id="a_edge28_Node000022_Node000023"><a xlink:title=" ">
<path fill="none" stroke="#9a32cd" stroke-dasharray="5,2" d="M132.2,-313.06C153.72,-313.06 177.2,-313.06 197.98,-313.06"/>
<polygon fill="#9a32cd" stroke="#9a32cd" points="132.14,-309.56 122.14,-313.06 132.14,-316.56 132.14,-309.56"/>
</a>
</g>
<text text-anchor="start" x="143" y="-318.56" font-family="Helvetica,sans-Serif" font-size="10.00" fill="grey">m_op</text>
</g>
</g>
</svg>
