<?xml version="1.0" encoding="UTF-8" standalone="no"?>
<!DOCTYPE svg PUBLIC "-//W3C//DTD SVG 1.1//EN"
 "http://www.w3.org/Graphics/SVG/1.1/DTD/svg11.dtd">
<!-- Generated by graphviz version 2.43.0 (0)
 -->
<!-- Title: amr_wind::burggraf::BurggrafFlow Pages: 1 -->
<svg width="1497pt" height="289pt"
 viewBox="0.00 0.00 1497.00 288.50" xmlns="http://www.w3.org/2000/svg" xmlns:xlink="http://www.w3.org/1999/xlink">
<g id="graph0" class="graph" transform="scale(1 1) rotate(0) translate(4 284.5)">
<title>amr_wind::burggraf::BurggrafFlow</title>
<!-- Node1 -->
<g id="Node000001" class="node">
<title>Node1</title>
<g id="a_Node000001"><a xlink:title=" ">
<polygon fill="#999999" stroke="#666666" points="1489,-125 1377,-125 1377,-95 1489,-95 1489,-125"/>
<text text-anchor="start" x="1385" y="-113" font-family="Helvetica,sans-Serif" font-size="10.00">amr_wind::burggraf</text>
<text text-anchor="middle" x="1433" y="-102" font-family="Helvetica,sans-Serif" font-size="10.00">::BurggrafFlow</text>
</a>
</g>
</g>
<!-- Node2 -->
<g id="Node000002" class="node">
<title>Node2</title>
<g id="a_Node000002"><a xlink:title=" ">
<polygon fill="white" stroke="#666666" points="1280,-223.5 1157,-223.5 1157,-182.5 1280,-182.5 1280,-223.5"/>
<text text-anchor="start" x="1165" y="-211.5" font-family="Helvetica,sans-Serif" font-size="10.00">amr_wind::Factory&lt;</text>
<text text-anchor="start" x="1165" y="-200.5" font-family="Helvetica,sans-Serif" font-size="10.00"> Physics, CFDSim &amp; &gt;</text>
<text text-anchor="middle" x="1218.5" y="-189.5" font-family="Helvetica,sans-Serif" font-size="10.00">::Register</text>
</a>
</g>
</g>
<!-- Node2&#45;&gt;Node1 -->
<g id="edge1_Node000001_Node000002" class="edge">
<title>Node2&#45;&gt;Node1</title>
<g id="a_edge1_Node000001_Node000002"><a xlink:title=" ">
<path fill="none" stroke="#63b8ff" d="M1290.18,-184.98C1312.7,-178.12 1337.37,-169.4 1359,-159 1378.4,-149.67 1398.57,-135.75 1412.78,-125.13"/>
<polygon fill="#63b8ff" stroke="#63b8ff" points="1288.93,-181.7 1280.34,-187.91 1290.92,-188.41 1288.93,-181.7"/>
</a>
</g>
</g>
<!-- Node3 -->
<g id="Node000003" class="node">
<title>Node3</title>
<g id="a_Node000003"><a xlink:href="classamr__wind_1_1_sim_time.html" target="_top" xlink:title=" ">
<polygon fill="white" stroke="#666666" points="1275.5,-164.5 1161.5,-164.5 1161.5,-145.5 1275.5,-145.5 1275.5,-164.5"/>
<text text-anchor="middle" x="1218.5" y="-152.5" font-family="Helvetica,sans-Serif" font-size="10.00">amr_wind::SimTime</text>
</a>
</g>
</g>
<!-- Node3&#45;&gt;Node1 -->
<g id="edge2_Node000001_Node000003" class="edge">
<title>Node3&#45;&gt;Node1</title>
<g id="a_edge2_Node000001_Node000003"><a xlink:title=" ">
<path fill="none" stroke="#9a32cd" stroke-dasharray="5,2" d="M1274.48,-143.36C1305.95,-136.69 1345.3,-128.36 1376.8,-121.69"/>
<polygon fill="#9a32cd" stroke="#9a32cd" points="1273.62,-139.96 1264.57,-145.46 1275.07,-146.81 1273.62,-139.96"/>
</a>
</g>
<text text-anchor="start" x="1309.5" y="-143.5" font-family="Helvetica,sans-Serif" font-size="10.00" fill="grey">m_time</text>
</g>
<!-- Node4 -->
<g id="Node000004" class="node">
<title>Node4</title>
<g id="a_Node000004"><a xlink:href="classamr__wind_1_1_field_repo.html" target="_top" xlink:title=" ">
<polygon fill="white" stroke="#666666" points="1077.5,-108.5 958.5,-108.5 958.5,-89.5 1077.5,-89.5 1077.5,-108.5"/>
<text text-anchor="middle" x="1018" y="-96.5" font-family="Helvetica,sans-Serif" font-size="10.00">amr_wind::FieldRepo</text>
</a>
</g>
</g>
<!-- Node4&#45;&gt;Node1 -->
<g id="edge3_Node000001_Node000004" class="edge">
<title>Node4&#45;&gt;Node1</title>
<g id="a_edge3_Node000001_Node000004"><a xlink:title=" ">
<path fill="none" stroke="#9a32cd" stroke-dasharray="5,2" d="M1087.85,-100.83C1168.96,-102.99 1302.09,-106.54 1376.77,-108.53"/>
<polygon fill="#9a32cd" stroke="#9a32cd" points="1087.82,-97.33 1077.73,-100.56 1087.64,-104.33 1087.82,-97.33"/>
</a>
</g>
<text text-anchor="start" x="1200.5" y="-111.5" font-family="Helvetica,sans-Serif" font-size="10.00" fill="grey">m_repo</text>
</g>
<!-- Node11 -->
<g id="Node000011" class="node">
<title>Node11</title>
<g id="a_Node000011"><a xlink:href="classamr__wind_1_1_field.html" target="_top" xlink:title=" ">
<polygon fill="white" stroke="#666666" points="1265.5,-65.5 1171.5,-65.5 1171.5,-46.5 1265.5,-46.5 1265.5,-65.5"/>
<text text-anchor="middle" x="1218.5" y="-53.5" font-family="Helvetica,sans-Serif" font-size="10.00">amr_wind::Field</text>
</a>
</g>
</g>
<!-- Node4&#45;&gt;Node11 -->
<g id="edge11_Node000011_Node000004" class="edge">
<title>Node4&#45;&gt;Node11</title>
<g id="a_edge11_Node000011_Node000004"><a xlink:title=" ">
<path fill="none" stroke="#9a32cd" stroke-dasharray="5,2" d="M1063.64,-86.86C1074.22,-84.14 1085.48,-81.36 1096,-79 1120.82,-73.43 1148.7,-68.09 1171.48,-63.96"/>
<polygon fill="#9a32cd" stroke="#9a32cd" points="1062.55,-83.53 1053.76,-89.44 1064.32,-90.3 1062.55,-83.53"/>
</a>
</g>
<text text-anchor="start" x="1099.5" y="-84.5" font-family="Helvetica,sans-Serif" font-size="10.00" fill="grey">m_repo</text>
</g>
<!-- Node5 -->
<g id="Node000005" class="node">
<title>Node5</title>
<g id="a_Node000005"><a xlink:title=" ">
<polygon fill="white" stroke="#666666" points="843,-114 721,-114 721,-84 843,-84 843,-114"/>
<text text-anchor="start" x="729" y="-102" font-family="Helvetica,sans-Serif" font-size="10.00">std::unordered_map</text>
<text text-anchor="middle" x="782" y="-91" font-family="Helvetica,sans-Serif" font-size="10.00">&lt; std::string, size_t &gt;</text>
</a>
</g>
</g>
<!-- Node5&#45;&gt;Node4 -->
<g id="edge4_Node000004_Node000005" class="edge">
<title>Node5&#45;&gt;Node4</title>
<g id="a_edge4_Node000004_Node000005"><a xlink:title=" ">
<path fill="none" stroke="#9a32cd" stroke-dasharray="5,2" d="M853.43,-99C886.86,-99 926.35,-99 958.16,-99"/>
<polygon fill="#9a32cd" stroke="#9a32cd" points="853.26,-95.5 843.26,-99 853.26,-102.5 853.26,-95.5"/>
</a>
</g>
<text text-anchor="start" x="864.5" y="-120" font-family="Helvetica,sans-Serif" font-size="10.00" fill="grey">m_fid_map</text>
<text text-anchor="start" x="864.5" y="-105" font-family="Helvetica,sans-Serif" font-size="10.00" fill="grey">m_int_fid_map</text>
</g>
<!-- Node6 -->
<g id="Node000006" class="node">
<title>Node6</title>
<g id="a_Node000006"><a xlink:title=" ">
<polygon fill="white" stroke="#666666" points="508,-62.5 443,-62.5 443,-43.5 508,-43.5 508,-62.5"/>
<text text-anchor="middle" x="475.5" y="-50.5" font-family="Helvetica,sans-Serif" font-size="10.00">std::string</text>
</a>
</g>
</g>
<!-- Node6&#45;&gt;Node1 -->
<g id="edge22_Node000001_Node000006" class="edge">
<title>Node6&#45;&gt;Node1</title>
<g id="a_edge22_Node000001_Node000006"><a xlink:title=" ">
<path fill="none" stroke="#9a32cd" stroke-dasharray="5,2" d="M518.11,-41.07C576.38,-25.44 685.83,0 781,0 781,0 781,0 1219.5,0 1283.76,0 1303.31,-5.95 1359,-38 1384.46,-52.65 1407.42,-78.33 1420.54,-94.73"/>
<polygon fill="#9a32cd" stroke="#9a32cd" points="516.92,-37.77 508.19,-43.77 518.75,-44.52 516.92,-37.77"/>
</a>
</g>
<text text-anchor="start" x="976" y="-5.5" font-family="Helvetica,sans-Serif" font-size="10.00" fill="grey">m_output_fname</text>
</g>
<!-- Node6&#45;&gt;Node5 -->
<g id="edge5_Node000005_Node000006" class="edge">
<title>Node6&#45;&gt;Node5</title>
<g id="a_edge5_Node000005_Node000006"><a xlink:title=" ">
<path fill="none" stroke="#9a32cd" stroke-dasharray="5,2" d="M518.33,-56.08C563.97,-59.84 639.09,-67.19 703,-79 710.56,-80.4 718.47,-82.12 726.24,-83.96"/>
<polygon fill="#9a32cd" stroke="#9a32cd" points="518.46,-52.58 508.21,-55.26 517.9,-59.55 518.46,-52.58"/>
</a>
</g>
<text text-anchor="start" x="629.5" y="-84.5" font-family="Helvetica,sans-Serif" font-size="10.00" fill="grey">keys</text>
</g>
<!-- Node6&#45;&gt;Node11 -->
<g id="edge12_Node000011_Node000006" class="edge">
<title>Node6&#45;&gt;Node11</title>
<g id="a_edge12_Node000011_Node000006"><a xlink:title=" ">
<path fill="none" stroke="#9a32cd" stroke-dasharray="5,2" d="M518.59,-53.17C647.61,-53.69 1036.9,-55.27 1171.29,-55.81"/>
<polygon fill="#9a32cd" stroke="#9a32cd" points="518.35,-49.67 508.34,-53.13 518.33,-56.67 518.35,-49.67"/>
</a>
</g>
<text text-anchor="start" x="879.5" y="-60.5" font-family="Helvetica,sans-Serif" font-size="10.00" fill="grey">m_name</text>
</g>
<!-- Node13 -->
<g id="Node000013" class="node">
<title>Node13</title>
<g id="a_Node000013"><a xlink:href="structamr__wind_1_1_field_info.html" target="_top" xlink:title=" ">
<polygon fill="white" stroke="#666666" points="838.5,-193.5 725.5,-193.5 725.5,-174.5 838.5,-174.5 838.5,-193.5"/>
<text text-anchor="middle" x="782" y="-181.5" font-family="Helvetica,sans-Serif" font-size="10.00">amr_wind::FieldInfo</text>
</a>
</g>
</g>
<!-- Node6&#45;&gt;Node13 -->
<g id="edge15_Node000013_Node000006" class="edge">
<title>Node6&#45;&gt;Node13</title>
<g id="a_edge15_Node000013_Node000006"><a xlink:title=" ">
<path fill="none" stroke="#9a32cd" stroke-dasharray="5,2" d="M504.22,-66.98C524.25,-76.51 552.21,-88.7 578,-96 632.07,-111.3 652.1,-91.19 703,-115 733.13,-129.1 760.24,-158.57 773.11,-174.04"/>
<polygon fill="#9a32cd" stroke="#9a32cd" points="505.59,-63.75 495.07,-62.54 502.54,-70.05 505.59,-63.75"/>
</a>
</g>
<text text-anchor="start" x="607.5" y="-120.5" font-family="Helvetica,sans-Serif" font-size="10.00" fill="grey">m_basename</text>
</g>
<!-- Node7 -->
<g id="Node000007" class="node">
<title>Node7</title>
<g id="a_Node000007"><a xlink:title=" ">
<polygon fill="white" stroke="#666666" points="204,-68 100,-68 100,-38 204,-38 204,-68"/>
<text text-anchor="start" x="108" y="-56" font-family="Helvetica,sans-Serif" font-size="10.00">std::basic_string&lt;</text>
<text text-anchor="middle" x="152" y="-45" font-family="Helvetica,sans-Serif" font-size="10.00"> Char &gt;</text>
</a>
</g>
</g>
<!-- Node7&#45;&gt;Node6 -->
<g id="edge6_Node000006_Node000007" class="edge">
<title>Node7&#45;&gt;Node6</title>
<g id="a_edge6_Node000006_Node000007"><a xlink:title=" ">
<path fill="none" stroke="#63b8ff" d="M214.48,-53C282.65,-53 389.98,-53 442.88,-53"/>
<polygon fill="#63b8ff" stroke="#63b8ff" points="214.3,-49.5 204.3,-53 214.3,-56.5 214.3,-49.5"/>
</a>
</g>
</g>
<!-- Node8 -->
<g id="Node000008" class="node">
<title>Node8</title>
<g id="a_Node000008"><a xlink:title=" ">
<polygon fill="white" stroke="#666666" points="532.5,-161 418.5,-161 418.5,-131 532.5,-131 532.5,-161"/>
<text text-anchor="start" x="426.5" y="-149" font-family="Helvetica,sans-Serif" font-size="10.00">std::unordered_map</text>
<text text-anchor="middle" x="475.5" y="-138" font-family="Helvetica,sans-Serif" font-size="10.00">&lt; K, T &gt;</text>
</a>
</g>
</g>
<!-- Node8&#45;&gt;Node5 -->
<g id="edge7_Node000005_Node000008" class="edge">
<title>Node8&#45;&gt;Node5</title>
<g id="a_edge7_Node000005_Node000008"><a xlink:title=" ">
<path fill="none" stroke="orange" stroke-dasharray="5,2" d="M542.85,-149.93C588.53,-150.98 650.26,-149.1 703,-136 721.62,-131.37 741.12,-122.12 755.96,-114.03"/>
<polygon fill="orange" stroke="orange" points="542.86,-146.43 532.77,-149.65 542.66,-153.43 542.86,-146.43"/>
</a>
</g>
<text text-anchor="start" x="587.5" y="-156.5" font-family="Helvetica,sans-Serif" font-size="10.00" fill="grey">&lt; std::string, size_t &gt;</text>
</g>
<!-- Node9 -->
<g id="Node000009" class="node">
<title>Node9</title>
<g id="a_Node000009"><a xlink:title=" ">
<polygon fill="white" stroke="#666666" points="166.5,-109.5 137.5,-109.5 137.5,-90.5 166.5,-90.5 166.5,-109.5"/>
<text text-anchor="middle" x="152" y="-97.5" font-family="Helvetica,sans-Serif" font-size="10.00">K</text>
</a>
</g>
</g>
<!-- Node9&#45;&gt;Node8 -->
<g id="edge8_Node000008_Node000009" class="edge">
<title>Node9&#45;&gt;Node8</title>
<g id="a_edge8_Node000008_Node000009"><a xlink:title=" ">
<path fill="none" stroke="#9a32cd" stroke-dasharray="5,2" d="M176.74,-99.85C217.31,-99.99 302.45,-102 373,-115 393.11,-118.71 414.87,-125.03 433.06,-131"/>
<polygon fill="#9a32cd" stroke="#9a32cd" points="176.52,-96.35 166.53,-99.86 176.53,-103.35 176.52,-96.35"/>
</a>
</g>
<text text-anchor="start" x="294" y="-120.5" font-family="Helvetica,sans-Serif" font-size="10.00" fill="grey">keys</text>
</g>
<!-- Node10 -->
<g id="Node000010" class="node">
<title>Node10</title>
<g id="a_Node000010"><a xlink:title=" ">
<polygon fill="white" stroke="#666666" points="29,-200.5 0,-200.5 0,-181.5 29,-181.5 29,-200.5"/>
<text text-anchor="middle" x="14.5" y="-188.5" font-family="Helvetica,sans-Serif" font-size="10.00">T</text>
</a>
</g>
</g>
<!-- Node10&#45;&gt;Node8 -->
<g id="edge9_Node000008_Node000010" class="edge">
<title>Node10&#45;&gt;Node8</title>
<g id="a_edge9_Node000008_Node000010"><a xlink:title=" ">
<path fill="none" stroke="#9a32cd" stroke-dasharray="5,2" d="M37.88,-176.07C51.01,-168.19 68.26,-159.28 85,-155 200.49,-125.45 341.58,-132.32 418.28,-139.47"/>
<polygon fill="#9a32cd" stroke="#9a32cd" points="35.74,-173.28 29.11,-181.55 39.45,-179.22 35.74,-173.28"/>
</a>
</g>
<text text-anchor="start" x="129" y="-160.5" font-family="Helvetica,sans-Serif" font-size="10.00" fill="grey">elements</text>
</g>
<!-- Node16 -->
<g id="Node000016" class="node">
<title>Node16</title>
<g id="a_Node000016"><a xlink:title=" ">
<polygon fill="white" stroke="#666666" points="211,-200.5 93,-200.5 93,-181.5 211,-181.5 211,-200.5"/>
<text text-anchor="middle" x="152" y="-188.5" font-family="Helvetica,sans-Serif" font-size="10.00">std::unique_ptr&lt; T &gt;</text>
</a>
</g>
</g>
<!-- Node10&#45;&gt;Node16 -->
<g id="edge19_Node000016_Node000010" class="edge">
<title>Node10&#45;&gt;Node16</title>
<g id="a_edge19_Node000016_Node000010"><a xlink:title=" ">
<path fill="none" stroke="#9a32cd" stroke-dasharray="5,2" d="M39.53,-191C54.35,-191 74.04,-191 92.75,-191"/>
<polygon fill="#9a32cd" stroke="#9a32cd" points="39.24,-187.5 29.24,-191 39.24,-194.5 39.24,-187.5"/>
</a>
</g>
<text text-anchor="start" x="50" y="-196.5" font-family="Helvetica,sans-Serif" font-size="10.00" fill="grey">ptr</text>
</g>
<!-- Node17 -->
<g id="Node000017" class="node">
<title>Node17</title>
<g id="a_Node000017"><a xlink:title=" ">
<polygon fill="white" stroke="#666666" points="364,-280.5 246,-280.5 246,-261.5 364,-261.5 364,-280.5"/>
<text text-anchor="middle" x="305" y="-268.5" font-family="Helvetica,sans-Serif" font-size="10.00">std::shared_ptr&lt; T &gt;</text>
</a>
</g>
</g>
<!-- Node10&#45;&gt;Node17 -->
<g id="edge21_Node000017_Node000010" class="edge">
<title>Node10&#45;&gt;Node17</title>
<g id="a_edge21_Node000017_Node000010"><a xlink:title=" ">
<path fill="none" stroke="#9a32cd" stroke-dasharray="5,2" d="M28.25,-209.11C40.68,-225.14 61.17,-247.55 85,-258 135.93,-280.33 200,-281.42 245.65,-278.23"/>
<polygon fill="#9a32cd" stroke="#9a32cd" points="30.98,-206.91 22.2,-200.98 25.36,-211.09 30.98,-206.91"/>
</a>
</g>
<text text-anchor="start" x="50" y="-251.5" font-family="Helvetica,sans-Serif" font-size="10.00" fill="grey">ptr</text>
</g>
<!-- Node11&#45;&gt;Node1 -->
<g id="edge10_Node000001_Node000011" class="edge">
<title>Node11&#45;&gt;Node1</title>
<g id="a_edge10_Node000001_Node000011"><a xlink:title=" ">
<path fill="none" stroke="#9a32cd" stroke-dasharray="5,2" d="M1266.34,-44.73C1294.08,-40.21 1329.46,-38.28 1359,-49 1384,-58.07 1406.43,-79.86 1419.63,-94.78"/>
<polygon fill="#9a32cd" stroke="#9a32cd" points="1265.72,-41.28 1256.5,-46.49 1266.96,-48.17 1265.72,-41.28"/>
</a>
</g>
<text text-anchor="start" x="1301.5" y="-84.5" font-family="Helvetica,sans-Serif" font-size="10.00" fill="grey">m_density</text>
<text text-anchor="start" x="1301.5" y="-69.5" font-family="Helvetica,sans-Serif" font-size="10.00" fill="grey">m_source</text>
<text text-anchor="start" x="1301.5" y="-54.5" font-family="Helvetica,sans-Serif" font-size="10.00" fill="grey">m_velocity</text>
</g>
<!-- Node12 -->
<g id="Node000012" class="node">
<title>Node12</title>
<g id="a_Node000012"><a xlink:title=" ">
<polygon fill="white" stroke="#666666" points="1078,-199 958,-199 958,-169 1078,-169 1078,-199"/>
<text text-anchor="start" x="966" y="-187" font-family="Helvetica,sans-Serif" font-size="10.00">std::shared_ptr&lt; amr</text>
<text text-anchor="middle" x="1018" y="-176" font-family="Helvetica,sans-Serif" font-size="10.00">_wind::FieldInfo &gt;</text>
</a>
</g>
</g>
<!-- Node12&#45;&gt;Node11 -->
<g id="edge13_Node000011_Node000012" class="edge">
<title>Node12&#45;&gt;Node11</title>
<g id="a_edge13_Node000011_Node000012"><a xlink:title=" ">
<path fill="none" stroke="#9a32cd" stroke-dasharray="5,2" d="M1048.74,-163.02C1085.95,-136.83 1146.13,-94.62 1157,-88 1170.39,-79.84 1186.06,-71.59 1198.1,-65.51"/>
<polygon fill="#9a32cd" stroke="#9a32cd" points="1046.43,-160.37 1040.27,-168.99 1050.46,-166.09 1046.43,-160.37"/>
</a>
</g>
<text text-anchor="start" x="1100.5" y="-134.5" font-family="Helvetica,sans-Serif" font-size="10.00" fill="grey">m_info</text>
</g>
<!-- Node13&#45;&gt;Node12 -->
<g id="edge14_Node000012_Node000013" class="edge">
<title>Node13&#45;&gt;Node12</title>
<g id="a_edge14_Node000012_Node000013"><a xlink:title=" ">
<path fill="none" stroke="#9a32cd" stroke-dasharray="5,2" d="M849.13,-184C883.38,-184 924.85,-184 958,-184"/>
<polygon fill="#9a32cd" stroke="#9a32cd" points="848.75,-180.5 838.75,-184 848.75,-187.5 848.75,-180.5"/>
</a>
</g>
<text text-anchor="start" x="893.5" y="-189.5" font-family="Helvetica,sans-Serif" font-size="10.00" fill="grey">ptr</text>
</g>
<!-- Node14 -->
<g id="Node000014" class="node">
<title>Node14</title>
<g id="a_Node000014"><a xlink:title=" ">
<polygon fill="white" stroke="#666666" points="560,-213 391,-213 391,-183 560,-183 560,-213"/>
<text text-anchor="start" x="399" y="-201" font-family="Helvetica,sans-Serif" font-size="10.00">std::unique_ptr&lt; amr</text>
<text text-anchor="middle" x="475.5" y="-190" font-family="Helvetica,sans-Serif" font-size="10.00">_wind::FieldFillPatchOpsBase &gt;</text>
</a>
</g>
</g>
<!-- Node14&#45;&gt;Node13 -->
<g id="edge16_Node000013_Node000014" class="edge">
<title>Node14&#45;&gt;Node13</title>
<g id="a_edge16_Node000013_Node000014"><a xlink:title=" ">
<path fill="none" stroke="#9a32cd" stroke-dasharray="5,2" d="M570.13,-193.7C620.98,-191.36 682.13,-188.55 725.45,-186.55"/>
<polygon fill="#9a32cd" stroke="#9a32cd" points="569.94,-190.2 560.11,-194.16 570.26,-197.19 569.94,-190.2"/>
</a>
</g>
<text text-anchor="start" x="604.5" y="-199.5" font-family="Helvetica,sans-Serif" font-size="10.00" fill="grey">m_fillpatch_op</text>
</g>
<!-- Node15 -->
<g id="Node000015" class="node">
<title>Node15</title>
<g id="a_Node000015"><a xlink:href="classamr__wind_1_1_field_fill_patch_ops_base.html" target="_top" xlink:title=" ">
<polygon fill="white" stroke="#666666" points="219,-249 85,-249 85,-219 219,-219 219,-249"/>
<text text-anchor="start" x="93" y="-237" font-family="Helvetica,sans-Serif" font-size="10.00">amr_wind::FieldFillPatch</text>
<text text-anchor="middle" x="152" y="-226" font-family="Helvetica,sans-Serif" font-size="10.00">OpsBase</text>
</a>
</g>
</g>
<!-- Node15&#45;&gt;Node14 -->
<g id="edge17_Node000014_Node000015" class="edge">
<title>Node15&#45;&gt;Node14</title>
<g id="a_edge17_Node000014_Node000015"><a xlink:title=" ">
<path fill="none" stroke="#9a32cd" stroke-dasharray="5,2" d="M228.99,-227.11C271.41,-223.08 325.19,-217.69 373,-212 378.83,-211.31 384.84,-210.56 390.89,-209.78"/>
<polygon fill="#9a32cd" stroke="#9a32cd" points="228.64,-223.62 219.01,-228.05 229.3,-230.59 228.64,-223.62"/>
</a>
</g>
<text text-anchor="start" x="298" y="-230.5" font-family="Helvetica,sans-Serif" font-size="10.00" fill="grey">ptr</text>
</g>
<!-- Node16&#45;&gt;Node14 -->
<g id="edge18_Node000014_Node000016" class="edge">
<title>Node16&#45;&gt;Node14</title>
<g id="a_edge18_Node000014_Node000016"><a xlink:title=" ">
<path fill="none" stroke="orange" stroke-dasharray="5,2" d="M221.36,-181.3C226.64,-180.78 231.9,-180.33 237,-180 297.32,-176.07 312.79,-174.7 373,-180 381.2,-180.72 389.73,-181.76 398.21,-182.99"/>
<polygon fill="orange" stroke="orange" points="220.77,-177.84 211.2,-182.38 221.51,-184.8 220.77,-177.84"/>
</a>
</g>
<text text-anchor="start" x="240" y="-201" font-family="Helvetica,sans-Serif" font-size="10.00" fill="grey">&lt; amr_wind::FieldFillPatch</text>
<text text-anchor="start" x="240" y="-186" font-family="Helvetica,sans-Serif" font-size="10.00" fill="grey">  OpsBase &gt;</text>
</g>
<!-- Node17&#45;&gt;Node12 -->
<g id="edge20_Node000012_Node000017" class="edge">
<title>Node17&#45;&gt;Node12</title>
<g id="a_edge20_Node000012_Node000017"><a xlink:title=" ">
<path fill="none" stroke="orange" stroke-dasharray="5,2" d="M374.37,-267.53C491.15,-260.8 736.21,-243.13 940,-205 948.58,-203.39 957.6,-201.31 966.33,-199.07"/>
<polygon fill="orange" stroke="orange" points="373.93,-264.05 364.15,-268.11 374.33,-271.04 373.93,-264.05"/>
</a>
</g>
<text text-anchor="start" x="581.5" y="-257.5" font-family="Helvetica,sans-Serif" font-size="10.00" fill="grey">&lt; amr_wind::FieldInfo &gt;</text>
</g>
</g>
</svg>
