<?xml version="1.0" encoding="UTF-8" standalone="no"?>
<!DOCTYPE svg PUBLIC "-//W3C//DTD SVG 1.1//EN"
 "http://www.w3.org/Graphics/SVG/1.1/DTD/svg11.dtd">
<!-- Generated by graphviz version 2.43.0 (0)
 -->
<!-- Title: amr_wind::OceanWavesBoundary Pages: 1 -->
<!--zoomable 276 -->

<svg id="main" version="1.1" xmlns="http://www.w3.org/2000/svg" xmlns:xlink="http://www.w3.org/1999/xlink" xml:space="preserve" onload="init(evt)">

<style type="text/css"><![CDATA[
.node, .edge {opacity: 0.7;}
.node.selected, .edge.selected {opacity: 1;}
.edge:hover path { stroke: red; }
.edge:hover polygon { stroke: red; fill: red; }
]]></style>

<defs>
  <circle id="rim" cx="0" cy="0" r="7"/>
  <circle id="rim2" cx="0" cy="0" r="3.5"/>
  <g id="zoomPlus">
    <use xlink:href="#rim" fill="#404040"><set attributeName="fill" to="#808080" begin="zoomplus.mouseover" end="zoomplus.mouseout"/></use>
    <path d="M-4,0h8M0,-4v8" fill="none" stroke="white" stroke-width="1.5" pointer-events="none"/>
  </g>
  <g id="zoomMin">
    <use xlink:href="#rim" fill="#404040"><set attributeName="fill" to="#808080" begin="zoomminus.mouseover" end="zoomminus.mouseout"/></use>
    <path d="M-4,0h8" fill="none" stroke="white" stroke-width="1.5" pointer-events="none"/>
  </g>
  <g id="arrowUp" transform="translate(30 24)">
    <use xlink:href="#rim"/>
    <path pointer-events="none" fill="none" stroke="white" stroke-width="1.5" d="M0,-3.0v7 M-2.5,-0.5L0,-3.0L2.5,-0.5"/>
  </g>
  <g id="arrowRight" transform="rotate(90) translate(36 -43)">
    <use xlink:href="#rim"/>
    <path pointer-events="none" fill="none" stroke="white" stroke-width="1.5" d="M0,-3.0v7 M-2.5,-0.5L0,-3.0L2.5,-0.5"/>
  </g>
  <g id="arrowDown" transform="rotate(180) translate(-30 -48)">
    <use xlink:href="#rim"/>
    <path pointer-events="none" fill="none" stroke="white" stroke-width="1.5" d="M0,-3.0v7 M-2.5,-0.5L0,-3.0L2.5,-0.5"/>
  </g>
  <g id="arrowLeft" transform="rotate(270) translate(-36 17)">
    <use xlink:href="#rim"/>
    <path pointer-events="none" fill="none" stroke="white" stroke-width="1.5" d="M0,-3.0v7 M-2.5,-0.5L0,-3.0L2.5,-0.5"/>
  </g>
  <g id="resetDef">
    <use xlink:href="#rim2" fill="#404040"><set attributeName="fill" to="#808080" begin="reset.mouseover" end="reset.mouseout"/></use>
  </g>
</defs>
<script type="application/ecmascript">
var viewWidth = 1600;
var viewHeight = 276;
var sectionId = 'dynsection-0';
</script>
<script type="application/ecmascript" xlink:href="svg.min.js"/>
<svg id="graph" class="graph">
<g id="viewport">
<title>amr_wind::OceanWavesBoundary</title>
<!-- Node1 -->
<g id="Node000001" class="node">
<title>Node1</title>
<g id="a_Node000001"><a xlink:title=" ">
<polygon fill="#999999" stroke="#666666" points="1592,-193 1412,-193 1412,-174 1592,-174 1592,-193"/>
<text text-anchor="middle" x="1502" y="-181" font-family="Helvetica,sans-Serif" font-size="10.00">amr_wind::OceanWavesBoundary</text>
</a>
</g>
</g>
<!-- Node2 -->
<g id="Node000002" class="node">
<title>Node2</title>
<g id="a_Node000002"><a xlink:href="classamr__wind_1_1_sim_time.html" target="_top" xlink:title=" ">
<polygon fill="white" stroke="#666666" points="1271,-254 1157,-254 1157,-235 1271,-235 1271,-254"/>
<text text-anchor="middle" x="1214" y="-242" font-family="Helvetica,sans-Serif" font-size="10.00">amr_wind::SimTime</text>
</a>
</g>
</g>
<!-- Node2&#45;&gt;Node1 -->
<g id="edge1_Node000001_Node000002" class="edge">
<title>Node2&#45;&gt;Node1</title>
<g id="a_edge1_Node000001_Node000002"><a xlink:title=" ">
<path fill="none" stroke="#9a32cd" stroke-dasharray="5,2" d="M1281.47,-239.37C1315.45,-235.89 1357.27,-230.28 1394,-221.5 1423.91,-214.35 1457.1,-201.81 1478.47,-193.09"/>
<polygon fill="#9a32cd" stroke="#9a32cd" points="1280.8,-235.92 1271.19,-240.38 1281.48,-242.88 1280.8,-235.92"/>
</a>
</g>
<text text-anchor="start" x="1322.5" y="-243" font-family="Helvetica,sans-Serif" font-size="10.00" fill="grey">m_time</text>
</g>
<!-- Node3 -->
<g id="Node000003" class="node">
<title>Node3</title>
<g id="a_Node000003"><a xlink:href="classamr__wind_1_1_field_repo.html" target="_top" xlink:title=" ">
<polygon fill="white" stroke="#666666" points="1077.5,-172 958.5,-172 958.5,-153 1077.5,-153 1077.5,-172"/>
<text text-anchor="middle" x="1018" y="-160" font-family="Helvetica,sans-Serif" font-size="10.00">amr_wind::FieldRepo</text>
</a>
</g>
</g>
<!-- Node3&#45;&gt;Node1 -->
<g id="edge2_Node000001_Node000003" class="edge">
<title>Node3&#45;&gt;Node1</title>
<g id="a_edge2_Node000001_Node000003"><a xlink:title=" ">
<path fill="none" stroke="#9a32cd" stroke-dasharray="5,2" d="M1087.74,-165.08C1138.41,-167.01 1209,-169.79 1271,-172.5 1317.53,-174.54 1369.34,-177 1411.99,-179.07"/>
<polygon fill="#9a32cd" stroke="#9a32cd" points="1087.69,-161.57 1077.56,-164.69 1087.42,-168.57 1087.69,-161.57"/>
</a>
</g>
<text text-anchor="start" x="1196" y="-178" font-family="Helvetica,sans-Serif" font-size="10.00" fill="grey">m_repo</text>
</g>
<!-- Node10 -->
<g id="Node000010" class="node">
<title>Node10</title>
<g id="a_Node000010"><a xlink:href="classamr__wind_1_1_field.html" target="_top" xlink:title=" ">
<polygon fill="white" stroke="#666666" points="1261,-116 1167,-116 1167,-97 1261,-97 1261,-116"/>
<text text-anchor="middle" x="1214" y="-104" font-family="Helvetica,sans-Serif" font-size="10.00">amr_wind::Field</text>
</a>
</g>
</g>
<!-- Node3&#45;&gt;Node10 -->
<g id="edge10_Node000010_Node000003" class="edge">
<title>Node3&#45;&gt;Node10</title>
<g id="a_edge10_Node000010_Node000003"><a xlink:title=" ">
<path fill="none" stroke="#9a32cd" stroke-dasharray="5,2" d="M1049.08,-148.99C1063.13,-143.04 1080.21,-136.33 1096,-131.5 1119.04,-124.46 1145.23,-118.66 1166.97,-114.43"/>
<polygon fill="#9a32cd" stroke="#9a32cd" points="1047.69,-145.78 1039.89,-152.95 1050.46,-152.2 1047.69,-145.78"/>
</a>
</g>
<text text-anchor="start" x="1099.5" y="-137" font-family="Helvetica,sans-Serif" font-size="10.00" fill="grey">m_repo</text>
</g>
<!-- Node17 -->
<g id="Node000017" class="node">
<title>Node17</title>
<g id="a_Node000017"><a xlink:href="classamr__wind_1_1_int_field.html" target="_top" xlink:title=" ">
<polygon fill="white" stroke="#666666" points="1267.5,-217 1160.5,-217 1160.5,-198 1267.5,-198 1267.5,-217"/>
<text text-anchor="middle" x="1214" y="-205" font-family="Helvetica,sans-Serif" font-size="10.00">amr_wind::IntField</text>
</a>
</g>
</g>
<!-- Node3&#45;&gt;Node17 -->
<g id="edge22_Node000017_Node000003" class="edge">
<title>Node3&#45;&gt;Node17</title>
<g id="a_edge22_Node000017_Node000003"><a xlink:title=" ">
<path fill="none" stroke="#9a32cd" stroke-dasharray="5,2" d="M1070.14,-174.36C1101.91,-181.73 1142.22,-191.08 1171.92,-197.97"/>
<polygon fill="#9a32cd" stroke="#9a32cd" points="1070.67,-170.89 1060.14,-172.04 1069.09,-177.71 1070.67,-170.89"/>
</a>
</g>
<text text-anchor="start" x="1099.5" y="-194" font-family="Helvetica,sans-Serif" font-size="10.00" fill="grey">m_repo</text>
</g>
<!-- Node4 -->
<g id="Node000004" class="node">
<title>Node4</title>
<g id="a_Node000004"><a xlink:title=" ">
<polygon fill="white" stroke="#666666" points="843,-177.5 721,-177.5 721,-147.5 843,-147.5 843,-177.5"/>
<text text-anchor="start" x="729" y="-165.5" font-family="Helvetica,sans-Serif" font-size="10.00">std::unordered_map</text>
<text text-anchor="middle" x="782" y="-154.5" font-family="Helvetica,sans-Serif" font-size="10.00">&lt; std::string, size_t &gt;</text>
</a>
</g>
</g>
<!-- Node4&#45;&gt;Node3 -->
<g id="edge3_Node000003_Node000004" class="edge">
<title>Node4&#45;&gt;Node3</title>
<g id="a_edge3_Node000003_Node000004"><a xlink:title=" ">
<path fill="none" stroke="#9a32cd" stroke-dasharray="5,2" d="M853.43,-162.5C886.86,-162.5 926.35,-162.5 958.16,-162.5"/>
<polygon fill="#9a32cd" stroke="#9a32cd" points="853.26,-159 843.26,-162.5 853.26,-166 853.26,-159"/>
</a>
</g>
<text text-anchor="start" x="864.5" y="-183.5" font-family="Helvetica,sans-Serif" font-size="10.00" fill="grey">m_fid_map</text>
<text text-anchor="start" x="864.5" y="-168.5" font-family="Helvetica,sans-Serif" font-size="10.00" fill="grey">m_int_fid_map</text>
</g>
<!-- Node5 -->
<g id="Node000005" class="node">
<title>Node5</title>
<g id="a_Node000005"><a xlink:title=" ">
<polygon fill="white" stroke="#666666" points="508,-162 443,-162 443,-143 508,-143 508,-162"/>
<text text-anchor="middle" x="475.5" y="-150" font-family="Helvetica,sans-Serif" font-size="10.00">std::string</text>
</a>
</g>
</g>
<!-- Node5&#45;&gt;Node4 -->
<g id="edge4_Node000004_Node000005" class="edge">
<title>Node5&#45;&gt;Node4</title>
<g id="a_edge4_Node000004_Node000005"><a xlink:title=" ">
<path fill="none" stroke="#9a32cd" stroke-dasharray="5,2" d="M518.51,-153.88C570.98,-155.6 661.1,-158.56 720.87,-160.53"/>
<polygon fill="#9a32cd" stroke="#9a32cd" points="518.33,-150.37 508.23,-153.54 518.1,-157.37 518.33,-150.37"/>
</a>
</g>
<text text-anchor="start" x="629.5" y="-165" font-family="Helvetica,sans-Serif" font-size="10.00" fill="grey">keys</text>
</g>
<!-- Node5&#45;&gt;Node10 -->
<g id="edge11_Node000010_Node000005" class="edge">
<title>Node5&#45;&gt;Node10</title>
<g id="a_edge11_Node000010_Node000005"><a xlink:title=" ">
<path fill="none" stroke="#9a32cd" stroke-dasharray="5,2" d="M518.32,-149.89C646.39,-141.89 1032.55,-117.77 1166.58,-109.4"/>
<polygon fill="#9a32cd" stroke="#9a32cd" points="517.91,-146.41 508.15,-150.52 518.35,-153.39 517.91,-146.41"/>
</a>
</g>
<text text-anchor="start" x="879.5" y="-133" font-family="Helvetica,sans-Serif" font-size="10.00" fill="grey">m_name</text>
</g>
<!-- Node12 -->
<g id="Node000012" class="node">
<title>Node12</title>
<g id="a_Node000012"><a xlink:href="structamr__wind_1_1_field_info.html" target="_top" xlink:title=" ">
<polygon fill="white" stroke="#666666" points="838.5,-63 725.5,-63 725.5,-44 838.5,-44 838.5,-63"/>
<text text-anchor="middle" x="782" y="-51" font-family="Helvetica,sans-Serif" font-size="10.00">amr_wind::FieldInfo</text>
</a>
</g>
</g>
<!-- Node5&#45;&gt;Node12 -->
<g id="edge14_Node000012_Node000005" class="edge">
<title>Node5&#45;&gt;Node12</title>
<g id="a_edge14_Node000012_Node000005"><a xlink:title=" ">
<path fill="none" stroke="#9a32cd" stroke-dasharray="5,2" d="M496.67,-136.73C516.32,-122.19 547.6,-101.14 578,-89.5 584.92,-86.85 667.73,-72.58 725.42,-62.82"/>
<polygon fill="#9a32cd" stroke="#9a32cd" points="494.37,-134.08 488.5,-142.9 498.59,-139.67 494.37,-134.08"/>
</a>
</g>
<text text-anchor="start" x="607.5" y="-95" font-family="Helvetica,sans-Serif" font-size="10.00" fill="grey">m_basename</text>
</g>
<!-- Node5&#45;&gt;Node17 -->
<g id="edge23_Node000017_Node000005" class="edge">
<title>Node5&#45;&gt;Node17</title>
<g id="a_edge23_Node000017_Node000005"><a xlink:title=" ">
<path fill="none" stroke="#9a32cd" stroke-dasharray="5,2" d="M514.72,-165.05C533.57,-170.72 556.76,-176.93 578,-180.5 805.4,-218.68 865.48,-204.11 1096,-209.5 1117.02,-209.99 1140.17,-209.76 1160.29,-209.31"/>
<polygon fill="#9a32cd" stroke="#9a32cd" points="515.61,-161.66 505.02,-162.06 513.55,-168.35 515.61,-161.66"/>
</a>
</g>
<text text-anchor="start" x="879.5" y="-213" font-family="Helvetica,sans-Serif" font-size="10.00" fill="grey">m_name</text>
</g>
<!-- Node6 -->
<g id="Node000006" class="node">
<title>Node6</title>
<g id="a_Node000006"><a xlink:title=" ">
<polygon fill="white" stroke="#666666" points="204,-167.5 100,-167.5 100,-137.5 204,-137.5 204,-167.5"/>
<text text-anchor="start" x="108" y="-155.5" font-family="Helvetica,sans-Serif" font-size="10.00">std::basic_string&lt;</text>
<text text-anchor="middle" x="152" y="-144.5" font-family="Helvetica,sans-Serif" font-size="10.00"> Char &gt;</text>
</a>
</g>
</g>
<!-- Node6&#45;&gt;Node5 -->
<g id="edge5_Node000005_Node000006" class="edge">
<title>Node6&#45;&gt;Node5</title>
<g id="a_edge5_Node000005_Node000006"><a xlink:title=" ">
<path fill="none" stroke="#63b8ff" d="M214.48,-152.5C282.65,-152.5 389.98,-152.5 442.88,-152.5"/>
<polygon fill="#63b8ff" stroke="#63b8ff" points="214.3,-149 204.3,-152.5 214.3,-156 214.3,-149"/>
</a>
</g>
</g>
<!-- Node7 -->
<g id="Node000007" class="node">
<title>Node7</title>
<g id="a_Node000007"><a xlink:title=" ">
<polygon fill="white" stroke="#666666" points="532.5,-265.5 418.5,-265.5 418.5,-235.5 532.5,-235.5 532.5,-265.5"/>
<text text-anchor="start" x="426.5" y="-253.5" font-family="Helvetica,sans-Serif" font-size="10.00">std::unordered_map</text>
<text text-anchor="middle" x="475.5" y="-242.5" font-family="Helvetica,sans-Serif" font-size="10.00">&lt; K, T &gt;</text>
</a>
</g>
</g>
<!-- Node7&#45;&gt;Node4 -->
<g id="edge6_Node000004_Node000007" class="edge">
<title>Node7&#45;&gt;Node4</title>
<g id="a_edge6_Node000004_Node000007"><a xlink:title=" ">
<path fill="none" stroke="orange" stroke-dasharray="5,2" d="M538.31,-232.64C594.39,-216.43 676.15,-192.8 728.96,-177.54"/>
<polygon fill="orange" stroke="orange" points="537.13,-229.33 528.5,-235.47 539.08,-236.06 537.13,-229.33"/>
</a>
</g>
<text text-anchor="start" x="587.5" y="-225" font-family="Helvetica,sans-Serif" font-size="10.00" fill="grey">&lt; std::string, size_t &gt;</text>
</g>
<!-- Node8 -->
<g id="Node000008" class="node">
<title>Node8</title>
<g id="a_Node000008"><a xlink:title=" ">
<polygon fill="white" stroke="#666666" points="166.5,-260 137.5,-260 137.5,-241 166.5,-241 166.5,-260"/>
<text text-anchor="middle" x="152" y="-248" font-family="Helvetica,sans-Serif" font-size="10.00">K</text>
</a>
</g>
</g>
<!-- Node8&#45;&gt;Node7 -->
<g id="edge7_Node000007_Node000008" class="edge">
<title>Node8&#45;&gt;Node7</title>
<g id="a_edge7_Node000007_Node000008"><a xlink:title=" ">
<path fill="none" stroke="#9a32cd" stroke-dasharray="5,2" d="M177.13,-250.5C228,-250.5 347.39,-250.5 418.45,-250.5"/>
<polygon fill="#9a32cd" stroke="#9a32cd" points="176.81,-247 166.81,-250.5 176.81,-254 176.81,-247"/>
</a>
</g>
<text text-anchor="start" x="294" y="-256" font-family="Helvetica,sans-Serif" font-size="10.00" fill="grey">keys</text>
</g>
<!-- Node9 -->
<g id="Node000009" class="node">
<title>Node9</title>
<g id="a_Node000009"><a xlink:title=" ">
<polygon fill="white" stroke="#666666" points="29,-59 0,-59 0,-40 29,-40 29,-59"/>
<text text-anchor="middle" x="14.5" y="-47" font-family="Helvetica,sans-Serif" font-size="10.00">T</text>
</a>
</g>
</g>
<!-- Node9&#45;&gt;Node7 -->
<g id="edge8_Node000007_Node000009" class="edge">
<title>Node9&#45;&gt;Node7</title>
<g id="a_edge8_Node000007_Node000009"><a xlink:title=" ">
<path fill="none" stroke="#9a32cd" stroke-dasharray="5,2" d="M20.43,-68.93C28.71,-97.35 48.22,-149.74 85,-176.5 111.68,-195.91 316.92,-227.76 418.25,-242.52"/>
<polygon fill="#9a32cd" stroke="#9a32cd" points="23.73,-67.73 17.71,-59 16.98,-69.57 23.73,-67.73"/>
</a>
</g>
<text text-anchor="start" x="129" y="-214" font-family="Helvetica,sans-Serif" font-size="10.00" fill="grey">elements</text>
</g>
<!-- Node15 -->
<g id="Node000015" class="node">
<title>Node15</title>
<g id="a_Node000015"><a xlink:title=" ">
<polygon fill="white" stroke="#666666" points="211,-59 93,-59 93,-40 211,-40 211,-59"/>
<text text-anchor="middle" x="152" y="-47" font-family="Helvetica,sans-Serif" font-size="10.00">std::unique_ptr&lt; T &gt;</text>
</a>
</g>
</g>
<!-- Node9&#45;&gt;Node15 -->
<g id="edge18_Node000015_Node000009" class="edge">
<title>Node9&#45;&gt;Node15</title>
<g id="a_edge18_Node000015_Node000009"><a xlink:title=" ">
<path fill="none" stroke="#9a32cd" stroke-dasharray="5,2" d="M39.53,-49.5C54.35,-49.5 74.04,-49.5 92.75,-49.5"/>
<polygon fill="#9a32cd" stroke="#9a32cd" points="39.24,-46 29.24,-49.5 39.24,-53 39.24,-46"/>
</a>
</g>
<text text-anchor="start" x="50" y="-55" font-family="Helvetica,sans-Serif" font-size="10.00" fill="grey">ptr</text>
</g>
<!-- Node16 -->
<g id="Node000016" class="node">
<title>Node16</title>
<g id="a_Node000016"><a xlink:title=" ">
<polygon fill="white" stroke="#666666" points="364,-19 246,-19 246,0 364,0 364,-19"/>
<text text-anchor="middle" x="305" y="-7" font-family="Helvetica,sans-Serif" font-size="10.00">std::shared_ptr&lt; T &gt;</text>
</a>
</g>
</g>
<!-- Node9&#45;&gt;Node16 -->
<g id="edge20_Node000016_Node000009" class="edge">
<title>Node9&#45;&gt;Node16</title>
<g id="a_edge20_Node000016_Node000009"><a xlink:title=" ">
<path fill="none" stroke="#9a32cd" stroke-dasharray="5,2" d="M35.27,-34.14C39,-31.9 42.99,-29.88 47,-28.5 112.48,-6.01 192.71,-3.76 245.92,-5.51"/>
<polygon fill="#9a32cd" stroke="#9a32cd" points="33,-31.45 26.7,-39.97 36.94,-37.24 33,-31.45"/>
</a>
</g>
<text text-anchor="start" x="50" y="-34" font-family="Helvetica,sans-Serif" font-size="10.00" fill="grey">ptr</text>
</g>
<!-- Node10&#45;&gt;Node1 -->
<g id="edge9_Node000001_Node000010" class="edge">
<title>Node10&#45;&gt;Node1</title>
<g id="a_edge9_Node000001_Node000010"><a xlink:title=" ">
<path fill="none" stroke="#9a32cd" stroke-dasharray="5,2" d="M1271.3,-102.54C1307.22,-101.73 1354.31,-103.89 1394,-116.5 1432.85,-128.84 1471.73,-158.62 1490.09,-173.98"/>
<polygon fill="#9a32cd" stroke="#9a32cd" points="1270.89,-99.05 1261,-102.86 1271.11,-106.05 1270.89,-99.05"/>
</a>
</g>
<text text-anchor="start" x="1304.5" y="-137.5" font-family="Helvetica,sans-Serif" font-size="10.00" fill="grey">m_ow_velocity</text>
<text text-anchor="start" x="1304.5" y="-122.5" font-family="Helvetica,sans-Serif" font-size="10.00" fill="grey">m_ow_vof</text>
</g>
<!-- Node11 -->
<g id="Node000011" class="node">
<title>Node11</title>
<g id="a_Node000011"><a xlink:title=" ">
<polygon fill="white" stroke="#666666" points="1078,-68.5 958,-68.5 958,-38.5 1078,-38.5 1078,-68.5"/>
<text text-anchor="start" x="966" y="-56.5" font-family="Helvetica,sans-Serif" font-size="10.00">std::shared_ptr&lt; amr</text>
<text text-anchor="middle" x="1018" y="-45.5" font-family="Helvetica,sans-Serif" font-size="10.00">_wind::FieldInfo &gt;</text>
</a>
</g>
</g>
<!-- Node11&#45;&gt;Node10 -->
<g id="edge12_Node000010_Node000011" class="edge">
<title>Node11&#45;&gt;Node10</title>
<g id="a_edge12_Node000010_Node000011"><a xlink:title=" ">
<path fill="none" stroke="#9a32cd" stroke-dasharray="5,2" d="M1088.52,-56.43C1105.31,-58.39 1123.01,-61.52 1139,-66.5 1161.45,-73.49 1184.93,-87.51 1199.27,-96.95"/>
<polygon fill="#9a32cd" stroke="#9a32cd" points="1088.52,-52.91 1078.22,-55.35 1087.8,-59.87 1088.52,-52.91"/>
</a>
</g>
<text text-anchor="start" x="1100.5" y="-72" font-family="Helvetica,sans-Serif" font-size="10.00" fill="grey">m_info</text>
</g>
<!-- Node12&#45;&gt;Node11 -->
<g id="edge13_Node000011_Node000012" class="edge">
<title>Node12&#45;&gt;Node11</title>
<g id="a_edge13_Node000011_Node000012"><a xlink:title=" ">
<path fill="none" stroke="#9a32cd" stroke-dasharray="5,2" d="M849.13,-53.5C883.38,-53.5 924.85,-53.5 958,-53.5"/>
<polygon fill="#9a32cd" stroke="#9a32cd" points="848.75,-50 838.75,-53.5 848.75,-57 848.75,-50"/>
</a>
</g>
<text text-anchor="start" x="893.5" y="-59" font-family="Helvetica,sans-Serif" font-size="10.00" fill="grey">ptr</text>
</g>
<!-- Node13 -->
<g id="Node000013" class="node">
<title>Node13</title>
<g id="a_Node000013"><a xlink:title=" ">
<polygon fill="white" stroke="#666666" points="560,-66.5 391,-66.5 391,-36.5 560,-36.5 560,-66.5"/>
<text text-anchor="start" x="399" y="-54.5" font-family="Helvetica,sans-Serif" font-size="10.00">std::unique_ptr&lt; amr</text>
<text text-anchor="middle" x="475.5" y="-43.5" font-family="Helvetica,sans-Serif" font-size="10.00">_wind::FieldFillPatchOpsBase &gt;</text>
</a>
</g>
</g>
<!-- Node13&#45;&gt;Node12 -->
<g id="edge15_Node000012_Node000013" class="edge">
<title>Node13&#45;&gt;Node12</title>
<g id="a_edge15_Node000012_Node000013"><a xlink:title=" ">
<path fill="none" stroke="#9a32cd" stroke-dasharray="5,2" d="M570.34,-49.22C611.11,-48.61 659.42,-48.38 703,-49.5 710.18,-49.68 717.74,-49.96 725.2,-50.29"/>
<polygon fill="#9a32cd" stroke="#9a32cd" points="570.09,-45.73 560.15,-49.39 570.2,-52.73 570.09,-45.73"/>
</a>
</g>
<text text-anchor="start" x="604.5" y="-55" font-family="Helvetica,sans-Serif" font-size="10.00" fill="grey">m_fillpatch_op</text>
</g>
<!-- Node14 -->
<g id="Node000014" class="node">
<title>Node14</title>
<g id="a_Node000014"><a xlink:href="classamr__wind_1_1_field_fill_patch_ops_base.html" target="_top" xlink:title=" ">
<polygon fill="white" stroke="#666666" points="219,-119.5 85,-119.5 85,-89.5 219,-89.5 219,-119.5"/>
<text text-anchor="start" x="93" y="-107.5" font-family="Helvetica,sans-Serif" font-size="10.00">amr_wind::FieldFillPatch</text>
<text text-anchor="middle" x="152" y="-96.5" font-family="Helvetica,sans-Serif" font-size="10.00">OpsBase</text>
</a>
</g>
</g>
<!-- Node14&#45;&gt;Node13 -->
<g id="edge16_Node000013_Node000014" class="edge">
<title>Node14&#45;&gt;Node13</title>
<g id="a_edge16_Node000013_Node000014"><a xlink:title=" ">
<path fill="none" stroke="#9a32cd" stroke-dasharray="5,2" d="M229.46,-100.56C272.02,-97.45 325.79,-91.97 373,-82.5 392.69,-78.55 414.01,-72.34 432.01,-66.52"/>
<polygon fill="#9a32cd" stroke="#9a32cd" points="229.18,-97.07 219.45,-101.27 229.67,-104.06 229.18,-97.07"/>
</a>
</g>
<text text-anchor="start" x="298" y="-106" font-family="Helvetica,sans-Serif" font-size="10.00" fill="grey">ptr</text>
</g>
<!-- Node15&#45;&gt;Node13 -->
<g id="edge17_Node000013_Node000015" class="edge">
<title>Node15&#45;&gt;Node13</title>
<g id="a_edge17_Node000013_Node000015"><a xlink:title=" ">
<path fill="none" stroke="orange" stroke-dasharray="5,2" d="M221.53,-49.72C264.94,-49.88 322.26,-50.13 373,-50.5 378.82,-50.54 384.82,-50.59 390.86,-50.64"/>
<polygon fill="orange" stroke="orange" points="221.38,-46.22 211.36,-49.68 221.35,-53.22 221.38,-46.22"/>
</a>
</g>
<text text-anchor="start" x="240" y="-71.5" font-family="Helvetica,sans-Serif" font-size="10.00" fill="grey">&lt; amr_wind::FieldFillPatch</text>
<text text-anchor="start" x="240" y="-56.5" font-family="Helvetica,sans-Serif" font-size="10.00" fill="grey">  OpsBase &gt;</text>
</g>
<!-- Node16&#45;&gt;Node11 -->
<g id="edge19_Node000011_Node000016" class="edge">
<title>Node16&#45;&gt;Node11</title>
<g id="a_edge19_Node000011_Node000016"><a xlink:title=" ">
<path fill="none" stroke="orange" stroke-dasharray="5,2" d="M374.25,-11.32C476.33,-14.34 674.78,-21.41 843,-34.5 881.32,-37.48 924.26,-42.16 957.89,-46.12"/>
<polygon fill="orange" stroke="orange" points="374.18,-7.81 364.08,-11.02 373.98,-14.81 374.18,-7.81"/>
</a>
</g>
<text text-anchor="start" x="581.5" y="-31" font-family="Helvetica,sans-Serif" font-size="10.00" fill="grey">&lt; amr_wind::FieldInfo &gt;</text>
</g>
<!-- Node17&#45;&gt;Node1 -->
<g id="edge21_Node000001_Node000017" class="edge">
<title>Node17&#45;&gt;Node1</title>
<g id="a_edge21_Node000001_Node000017"><a xlink:title=" ">
<path fill="none" stroke="#9a32cd" stroke-dasharray="5,2" d="M1277.78,-202.23C1317.14,-198.93 1368.48,-194.62 1411.99,-190.97"/>
<polygon fill="#9a32cd" stroke="#9a32cd" points="1277.46,-198.75 1267.79,-203.07 1278.05,-205.72 1277.46,-198.75"/>
</a>
</g>
<text text-anchor="start" x="1292.5" y="-206" font-family="Helvetica,sans-Serif" font-size="10.00" fill="grey">m_terrain_blank_ptr</text>
</g>
</g>
</svg>

<g id="navigator" transform="translate(0 0)" fill="#404254">
  <rect fill="#f2f5e9" fill-opacity="0.5" stroke="#606060" stroke-width=".5" x="0" y="0" width="60" height="60"/>
  <use id="zoomplus" xlink:href="#zoomPlus" x="17" y="9" onmousedown="handleZoom(evt,'in')"/>
  <use id="zoomminus" xlink:href="#zoomMin" x="42" y="9" onmousedown="handleZoom(evt,'out')"/>
  <use id="reset" xlink:href="#resetDef" x="30" y="36" onmousedown="handleReset()"/>
   <use id="arrowup" xlink:href="#arrowUp" x="0" y="0" onmousedown="handlePan(0,-1)"/>
  <use id="arrowright" xlink:href="#arrowRight" x="0" y="0" onmousedown="handlePan(1,0)"/>
  <use id="arrowdown" xlink:href="#arrowDown" x="0" y="0" onmousedown="handlePan(0,1)"/>
  <use id="arrowleft" xlink:href="#arrowLeft" x="0" y="0" onmousedown="handlePan(-1,0)"/>
</g>
<svg viewBox="0 0 15 15" width="100%" height="30px" preserveAspectRatio="xMaxYMin meet">
 <g id="arrow_out" transform="scale(0.3 0.3)">
  <a xlink:href="classamr__wind_1_1_ocean_waves_boundary__coll__graph_org.svg" target="_base">
   <rect id="button" ry="5" rx="5" y="6" x="6" height="38" width="38"
        fill="#f2f5e9" fill-opacity="0.5" stroke="#606060" stroke-width="1.0"/>
   <path id="arrow"
     d="M 11.500037,31.436501 C 11.940474,20.09759 22.043105,11.32322 32.158766,21.979434 L 37.068811,17.246167 C 37.068811,17.246167 37.088388,32 37.088388,32 L 22.160133,31.978069 C 22.160133,31.978069 26.997745,27.140456 26.997745,27.140456 C 18.528582,18.264221 13.291696,25.230495 11.500037,31.436501 z"
     style="fill:#404040;"/>
  </a>
 </g>
</svg>

<style type='text/css'>
<![CDATA[
[data-mouse-over-selected='false'] { opacity: 0.7; }
[data-mouse-over-selected='true']  { opacity: 1.0; }
]]>
</style>
<script type="application/ecmascript"><![CDATA[
document.addEventListener('DOMContentLoaded', (event) => {
  highlightEdges();
  highlightAdjacentNodes();
});
]]></script>
</svg>
