<?xml version="1.0" encoding="UTF-8" standalone="no"?>
<!DOCTYPE svg PUBLIC "-//W3C//DTD SVG 1.1//EN"
 "http://www.w3.org/Graphics/SVG/1.1/DTD/svg11.dtd">
<!-- Generated by graphviz version 2.43.0 (0)
 -->
<!-- Title: amr_wind::ABLMesoscaleForcing Pages: 1 -->
<svg width="261pt" height="181pt"
 viewBox="0.00 0.00 261.00 181.00" xmlns="http://www.w3.org/2000/svg" xmlns:xlink="http://www.w3.org/1999/xlink">

<svg id="main" version="1.1" xmlns="http://www.w3.org/2000/svg" xmlns:xlink="http://www.w3.org/1999/xlink" xml:space="preserve">

<style type="text/css"><![CDATA[
.node, .edge {opacity: 0.7;}
.node.selected, .edge.selected {opacity: 1;}
.edge:hover path { stroke: red; }
.edge:hover polygon { stroke: red; fill: red; }
]]></style>
<script type="application/ecmascript" xlink:href="svg.min.js"/>
<svg id="graph" class="graph">
<g id="graph0" class="graph" transform="scale(1 1) rotate(0) translate(4 177)">
<title>amr_wind::ABLMesoscaleForcing</title>
<!-- Node1 -->
<g id="Node000001" class="node">
<title>Node1</title>
<g id="a_Node000001"><a xlink:title=" ">
<polygon fill="#999999" stroke="#666666" points="178,-19 2,-19 2,0 178,0 178,-19"/>
<text text-anchor="middle" x="90" y="-7" font-family="Helvetica,sans-Serif" font-size="10.00">amr_wind::ABLMesoscaleForcing</text>
</a>
</g>
</g>
<!-- Node2 -->
<g id="Node000002" class="node">
<title>Node2</title>
<g id="a_Node000002"><a xlink:href="classamr__wind_1_1_sim_time.html" target="_top" xlink:title=" ">
<polygon fill="white" stroke="#666666" points="114,-106 0,-106 0,-87 114,-87 114,-106"/>
<text text-anchor="middle" x="57" y="-94" font-family="Helvetica,sans-Serif" font-size="10.00">amr_wind::SimTime</text>
</a>
</g>
</g>
<!-- Node2&#45;&gt;Node1 -->
<g id="edge1_Node000001_Node000002" class="edge">
<title>Node2&#45;&gt;Node1</title>
<g id="a_edge1_Node000001_Node000002"><a xlink:title=" ">
<path fill="none" stroke="#9a32cd" stroke-dasharray="5,2" d="M63.26,-76.88C67.25,-65.31 72.66,-50.19 78,-37 80.43,-31.01 83.43,-24.38 85.82,-19.26"/>
<polygon fill="#9a32cd" stroke="#9a32cd" points="59.82,-76.1 59.91,-86.7 66.45,-78.36 59.82,-76.1"/>
</a>
</g>
<text text-anchor="start" x="81" y="-50" font-family="Helvetica,sans-Serif" font-size="10.00" fill="grey">m_time</text>
</g>
<!-- Node3 -->
<g id="Node000003" class="node">
<title>Node3</title>
<g id="a_Node000003"><a xlink:title=" ">
<polygon fill="white" stroke="#666666" points="197.5,-106 132.5,-106 132.5,-87 197.5,-87 197.5,-106"/>
<text text-anchor="middle" x="165" y="-94" font-family="Helvetica,sans-Serif" font-size="10.00">std::string</text>
</a>
</g>
</g>
<!-- Node3&#45;&gt;Node1 -->
<g id="edge2_Node000001_Node000003" class="edge">
<title>Node3&#45;&gt;Node1</title>
<g id="a_edge2_Node000001_Node000003"><a xlink:title=" ">
<path fill="none" stroke="#9a32cd" stroke-dasharray="5,2" d="M153.78,-77.96C145.65,-65.86 134.01,-49.73 122,-37 115.86,-30.5 108.16,-24.07 101.85,-19.18"/>
<polygon fill="#9a32cd" stroke="#9a32cd" points="151.07,-80.22 159.49,-86.66 156.92,-76.38 151.07,-80.22"/>
</a>
</g>
<text text-anchor="start" x="149.5" y="-58" font-family="Helvetica,sans-Serif" font-size="10.00" fill="grey">m_forcing_scheme</text>
<text text-anchor="start" x="149.5" y="-43" font-family="Helvetica,sans-Serif" font-size="10.00" fill="grey">m_forcing_transition</text>
</g>
<!-- Node4 -->
<g id="Node000004" class="node">
<title>Node4</title>
<g id="a_Node000004"><a xlink:title=" ">
<polygon fill="white" stroke="#666666" points="217,-173 113,-173 113,-143 217,-143 217,-173"/>
<text text-anchor="start" x="121" y="-161" font-family="Helvetica,sans-Serif" font-size="10.00">std::basic_string&lt;</text>
<text text-anchor="middle" x="165" y="-150" font-family="Helvetica,sans-Serif" font-size="10.00"> Char &gt;</text>
</a>
</g>
</g>
<!-- Node4&#45;&gt;Node3 -->
<g id="edge3_Node000003_Node000004" class="edge">
<title>Node4&#45;&gt;Node3</title>
<g id="a_edge3_Node000003_Node000004"><a xlink:title=" ">
<path fill="none" stroke="#63b8ff" d="M165,-132.79C165,-123.36 165,-113.15 165,-106.16"/>
<polygon fill="#63b8ff" stroke="#63b8ff" points="161.5,-132.9 165,-142.9 168.5,-132.9 161.5,-132.9"/>
</a>
</g>
</g>
</g>
</svg>
</svg>

<style type='text/css'>
<![CDATA[
[data-mouse-over-selected='false'] { opacity: 0.7; }
[data-mouse-over-selected='true']  { opacity: 1.0; }
]]>
</style>
<script type="application/ecmascript"><![CDATA[
document.addEventListener('DOMContentLoaded', (event) => {
  highlightEdges();
  highlightAdjacentNodes();
});
]]></script>
</svg>
