<?xml version="1.0" encoding="UTF-8" standalone="no"?>
<!DOCTYPE svg PUBLIC "-//W3C//DTD SVG 1.1//EN"
 "http://www.w3.org/Graphics/SVG/1.1/DTD/svg11.dtd">
<!-- Generated by graphviz version 2.43.0 (0)
 -->
<!-- Title: amr_wind::SecondMomentAveraging Pages: 1 -->
<svg width="206pt" height="280pt"
 viewBox="0.00 0.00 205.50 280.00" xmlns="http://www.w3.org/2000/svg" xmlns:xlink="http://www.w3.org/1999/xlink">
<g id="graph0" class="graph" transform="scale(1 1) rotate(0) translate(4 276)">
<title>amr_wind::SecondMomentAveraging</title>
<!-- Node1 -->
<g id="Node000001" class="node">
<title>Node1</title>
<g id="a_Node000001"><a xlink:title=" ">
<polygon fill="#999999" stroke="#666666" points="195,-19 0,-19 0,0 195,0 195,-19"/>
<text text-anchor="middle" x="97.5" y="-7" font-family="Helvetica,sans-Serif" font-size="10.00">amr_wind::SecondMomentAveraging</text>
</a>
</g>
</g>
<!-- Node2 -->
<g id="Node000002" class="node">
<title>Node2</title>
<g id="a_Node000002"><a xlink:href="classamr__wind_1_1_f_plane_averaging.html" target="_top" xlink:title=" ">
<polygon fill="white" stroke="#666666" points="173.5,-117 21.5,-117 21.5,-87 173.5,-87 173.5,-117"/>
<text text-anchor="start" x="29.5" y="-105" font-family="Helvetica,sans-Serif" font-size="10.00">amr_wind::FPlaneAveraging</text>
<text text-anchor="middle" x="97.5" y="-94" font-family="Helvetica,sans-Serif" font-size="10.00">&lt; Field &gt;</text>
</a>
</g>
</g>
<!-- Node2&#45;&gt;Node1 -->
<g id="edge1_Node000001_Node000002" class="edge">
<title>Node2&#45;&gt;Node1</title>
<g id="a_edge1_Node000001_Node000002"><a xlink:title=" ">
<path fill="none" stroke="#9a32cd" stroke-dasharray="5,2" d="M97.5,-76.78C97.5,-57.7 97.5,-32.21 97.5,-19.1"/>
<polygon fill="#9a32cd" stroke="#9a32cd" points="94,-76.86 97.5,-86.86 101,-76.86 94,-76.86"/>
</a>
</g>
<text text-anchor="start" x="100.5" y="-58" font-family="Helvetica,sans-Serif" font-size="10.00" fill="grey">m_plane_average1</text>
<text text-anchor="start" x="100.5" y="-43" font-family="Helvetica,sans-Serif" font-size="10.00" fill="grey">m_plane_average2</text>
</g>
<!-- Node3 -->
<g id="Node000003" class="node">
<title>Node3</title>
<g id="a_Node000003"><a xlink:href="classamr__wind_1_1_f_plane_averaging.html" target="_top" xlink:title=" ">
<polygon fill="white" stroke="#666666" points="173.5,-200 21.5,-200 21.5,-170 173.5,-170 173.5,-200"/>
<text text-anchor="start" x="29.5" y="-188" font-family="Helvetica,sans-Serif" font-size="10.00">amr_wind::FPlaneAveraging</text>
<text text-anchor="middle" x="97.5" y="-177" font-family="Helvetica,sans-Serif" font-size="10.00">&lt; FType &gt;</text>
</a>
</g>
</g>
<!-- Node3&#45;&gt;Node2 -->
<g id="edge2_Node000002_Node000003" class="edge">
<title>Node3&#45;&gt;Node2</title>
<g id="a_edge2_Node000002_Node000003"><a xlink:title=" ">
<path fill="none" stroke="orange" stroke-dasharray="5,2" d="M97.5,-159.59C97.5,-145.75 97.5,-128.91 97.5,-117.22"/>
<polygon fill="orange" stroke="orange" points="94,-159.89 97.5,-169.89 101,-159.89 94,-159.89"/>
</a>
</g>
<text text-anchor="start" x="100.5" y="-140.5" font-family="Helvetica,sans-Serif" font-size="10.00" fill="grey">&lt; Field &gt;</text>
</g>
<!-- Node4 -->
<g id="Node000004" class="node">
<title>Node4</title>
<g id="a_Node000004"><a xlink:href="classamr__wind_1_1_sim_time.html" target="_top" xlink:title=" ">
<polygon fill="white" stroke="#666666" points="154.5,-272 40.5,-272 40.5,-253 154.5,-253 154.5,-272"/>
<text text-anchor="middle" x="97.5" y="-260" font-family="Helvetica,sans-Serif" font-size="10.00">amr_wind::SimTime</text>
</a>
</g>
</g>
<!-- Node4&#45;&gt;Node3 -->
<g id="edge3_Node000003_Node000004" class="edge">
<title>Node4&#45;&gt;Node3</title>
<g id="a_edge3_Node000003_Node000004"><a xlink:title=" ">
<path fill="none" stroke="#9a32cd" stroke-dasharray="5,2" d="M97.5,-242.57C97.5,-229.43 97.5,-212.18 97.5,-200.21"/>
<polygon fill="#9a32cd" stroke="#9a32cd" points="94,-242.84 97.5,-252.84 101,-242.84 94,-242.84"/>
</a>
</g>
<text text-anchor="start" x="100.5" y="-223.5" font-family="Helvetica,sans-Serif" font-size="10.00" fill="grey">m_time</text>
</g>
</g>
</svg>
