<?xml version="1.0" encoding="UTF-8" standalone="no"?>
<!DOCTYPE svg PUBLIC "-//W3C//DTD SVG 1.1//EN"
 "http://www.w3.org/Graphics/SVG/1.1/DTD/svg11.dtd">
<!-- Generated by graphviz version 2.43.0 (0)
 -->
<!-- Title: amr_wind::pde::icns::GeostrophicForcing Pages: 1 -->
<svg width="1502pt" height="268pt"
 viewBox="0.00 0.00 1502.00 268.00" xmlns="http://www.w3.org/2000/svg" xmlns:xlink="http://www.w3.org/1999/xlink">
<g id="graph0" class="graph" transform="scale(1 1) rotate(0) translate(4 264)">
<title>amr_wind::pde::icns::GeostrophicForcing</title>
<!-- Node1 -->
<g id="Node000001" class="node">
<title>Node1</title>
<g id="a_Node000001"><a xlink:title=" ">
<polygon fill="#999999" stroke="#666666" points="1494,-150 1378,-150 1378,-120 1494,-120 1494,-150"/>
<text text-anchor="start" x="1386" y="-138" font-family="Helvetica,sans-Serif" font-size="10.00">amr_wind::pde::icns</text>
<text text-anchor="middle" x="1436" y="-127" font-family="Helvetica,sans-Serif" font-size="10.00">::GeostrophicForcing</text>
</a>
</g>
</g>
<!-- Node2 -->
<g id="Node000002" class="node">
<title>Node2</title>
<g id="a_Node000002"><a xlink:title=" ">
<polygon fill="white" stroke="#666666" points="1298,-223.5 1157,-223.5 1157,-182.5 1298,-182.5 1298,-223.5"/>
<text text-anchor="start" x="1165" y="-211.5" font-family="Helvetica,sans-Serif" font-size="10.00">amr_wind::Factory&lt;</text>
<text text-anchor="start" x="1165" y="-200.5" font-family="Helvetica,sans-Serif" font-size="10.00"> MomentumSource, const</text>
<text text-anchor="middle" x="1227.5" y="-189.5" font-family="Helvetica,sans-Serif" font-size="10.00"> CFDSim &amp; &gt;::Register</text>
</a>
</g>
</g>
<!-- Node2&#45;&gt;Node1 -->
<g id="edge1_Node000001_Node000002" class="edge">
<title>Node2&#45;&gt;Node1</title>
<g id="a_edge1_Node000001_Node000002"><a xlink:title=" ">
<path fill="none" stroke="#63b8ff" d="M1308.32,-183.02C1325.5,-178.2 1343.46,-172.76 1360,-167 1374.04,-162.11 1389.18,-155.85 1402.15,-150.16"/>
<polygon fill="#63b8ff" stroke="#63b8ff" points="1307.02,-179.75 1298.31,-185.78 1308.88,-186.5 1307.02,-179.75"/>
</a>
</g>
</g>
<!-- Node3 -->
<g id="Node000003" class="node">
<title>Node3</title>
<g id="a_Node000003"><a xlink:href="classamr__wind_1_1_sim_time.html" target="_top" xlink:title=" ">
<polygon fill="white" stroke="#666666" points="1284.5,-164.5 1170.5,-164.5 1170.5,-145.5 1284.5,-145.5 1284.5,-164.5"/>
<text text-anchor="middle" x="1227.5" y="-152.5" font-family="Helvetica,sans-Serif" font-size="10.00">amr_wind::SimTime</text>
</a>
</g>
</g>
<!-- Node3&#45;&gt;Node1 -->
<g id="edge2_Node000001_Node000003" class="edge">
<title>Node3&#45;&gt;Node1</title>
<g id="a_edge2_Node000001_Node000003"><a xlink:title=" ">
<path fill="none" stroke="#9a32cd" stroke-dasharray="5,2" d="M1294.7,-148.59C1321.45,-146 1352.02,-143.04 1377.78,-140.54"/>
<polygon fill="#9a32cd" stroke="#9a32cd" points="1294.27,-145.11 1284.65,-149.56 1294.95,-152.08 1294.27,-145.11"/>
</a>
</g>
<text text-anchor="start" x="1319" y="-151.5" font-family="Helvetica,sans-Serif" font-size="10.00" fill="grey">m_time</text>
</g>
<!-- Node4 -->
<g id="Node000004" class="node">
<title>Node4</title>
<g id="a_Node000004"><a xlink:title=" ">
<polygon fill="white" stroke="#666666" points="508,-120.5 443,-120.5 443,-101.5 508,-101.5 508,-120.5"/>
<text text-anchor="middle" x="475.5" y="-108.5" font-family="Helvetica,sans-Serif" font-size="10.00">std::string</text>
</a>
</g>
</g>
<!-- Node4&#45;&gt;Node1 -->
<g id="edge3_Node000001_Node000004" class="edge">
<title>Node4&#45;&gt;Node1</title>
<g id="a_edge3_Node000001_Node000004"><a xlink:title=" ">
<path fill="none" stroke="#9a32cd" stroke-dasharray="5,2" d="M512.52,-98.16C568.97,-79.22 682.07,-46 781,-46 781,-46 781,-46 1228.5,-46 1302.28,-46 1379.68,-94.51 1415.13,-119.9"/>
<polygon fill="#9a32cd" stroke="#9a32cd" points="511.32,-94.87 502.98,-101.41 513.57,-101.5 511.32,-94.87"/>
</a>
</g>
<text text-anchor="start" x="977" y="-51.5" font-family="Helvetica,sans-Serif" font-size="10.00" fill="grey">m_vel_timetable</text>
</g>
<!-- Node6 -->
<g id="Node000006" class="node">
<title>Node6</title>
<g id="a_Node000006"><a xlink:href="classamr__wind_1_1_field.html" target="_top" xlink:title=" ">
<polygon fill="white" stroke="#666666" points="1274.5,-126.5 1180.5,-126.5 1180.5,-107.5 1274.5,-107.5 1274.5,-126.5"/>
<text text-anchor="middle" x="1227.5" y="-114.5" font-family="Helvetica,sans-Serif" font-size="10.00">amr_wind::Field</text>
</a>
</g>
</g>
<!-- Node4&#45;&gt;Node6 -->
<g id="edge12_Node000006_Node000004" class="edge">
<title>Node4&#45;&gt;Node6</title>
<g id="a_edge12_Node000006_Node000004"><a xlink:title=" ">
<path fill="none" stroke="#9a32cd" stroke-dasharray="5,2" d="M518.09,-115C536.44,-116.58 558.27,-118.2 578,-119 808.04,-128.27 865.78,-119.78 1096,-120 1115.11,-120.02 1119.89,-120.33 1139,-120 1152.37,-119.77 1166.89,-119.34 1180.19,-118.88"/>
<polygon fill="#9a32cd" stroke="#9a32cd" points="518.28,-111.51 508.01,-114.11 517.66,-118.48 518.28,-111.51"/>
</a>
</g>
<text text-anchor="start" x="879.5" y="-127.5" font-family="Helvetica,sans-Serif" font-size="10.00" fill="grey">m_name</text>
</g>
<!-- Node8 -->
<g id="Node000008" class="node">
<title>Node8</title>
<g id="a_Node000008"><a xlink:title=" ">
<polygon fill="white" stroke="#666666" points="843,-104 721,-104 721,-74 843,-74 843,-104"/>
<text text-anchor="start" x="729" y="-92" font-family="Helvetica,sans-Serif" font-size="10.00">std::unordered_map</text>
<text text-anchor="middle" x="782" y="-81" font-family="Helvetica,sans-Serif" font-size="10.00">&lt; std::string, size_t &gt;</text>
</a>
</g>
</g>
<!-- Node4&#45;&gt;Node8 -->
<g id="edge8_Node000008_Node000004" class="edge">
<title>Node4&#45;&gt;Node8</title>
<g id="a_edge8_Node000008_Node000004"><a xlink:title=" ">
<path fill="none" stroke="#9a32cd" stroke-dasharray="5,2" d="M518.11,-107.08C536.46,-105.41 558.3,-103.5 578,-102 625.89,-98.34 680.19,-94.9 720.57,-92.48"/>
<polygon fill="#9a32cd" stroke="#9a32cd" points="517.67,-103.6 508.03,-108 518.31,-110.58 517.67,-103.6"/>
</a>
</g>
<text text-anchor="start" x="629.5" y="-107.5" font-family="Helvetica,sans-Serif" font-size="10.00" fill="grey">keys</text>
</g>
<!-- Node13 -->
<g id="Node000013" class="node">
<title>Node13</title>
<g id="a_Node000013"><a xlink:href="structamr__wind_1_1_field_info.html" target="_top" xlink:title=" ">
<polygon fill="white" stroke="#666666" points="838.5,-200.5 725.5,-200.5 725.5,-181.5 838.5,-181.5 838.5,-200.5"/>
<text text-anchor="middle" x="782" y="-188.5" font-family="Helvetica,sans-Serif" font-size="10.00">amr_wind::FieldInfo</text>
</a>
</g>
</g>
<!-- Node4&#45;&gt;Node13 -->
<g id="edge15_Node000013_Node000004" class="edge">
<title>Node4&#45;&gt;Node13</title>
<g id="a_edge15_Node000013_Node000004"><a xlink:title=" ">
<path fill="none" stroke="#9a32cd" stroke-dasharray="5,2" d="M513,-123.79C532.21,-130.28 556.24,-138.04 578,-144 632.91,-159.04 647.56,-159.04 703,-172 715.89,-175.01 729.96,-178.41 742.55,-181.48"/>
<polygon fill="#9a32cd" stroke="#9a32cd" points="514.03,-120.44 503.43,-120.52 511.77,-127.06 514.03,-120.44"/>
</a>
</g>
<text text-anchor="start" x="607.5" y="-177.5" font-family="Helvetica,sans-Serif" font-size="10.00" fill="grey">m_basename</text>
</g>
<!-- Node5 -->
<g id="Node000005" class="node">
<title>Node5</title>
<g id="a_Node000005"><a xlink:title=" ">
<polygon fill="white" stroke="#666666" points="204,-126 100,-126 100,-96 204,-96 204,-126"/>
<text text-anchor="start" x="108" y="-114" font-family="Helvetica,sans-Serif" font-size="10.00">std::basic_string&lt;</text>
<text text-anchor="middle" x="152" y="-103" font-family="Helvetica,sans-Serif" font-size="10.00"> Char &gt;</text>
</a>
</g>
</g>
<!-- Node5&#45;&gt;Node4 -->
<g id="edge4_Node000004_Node000005" class="edge">
<title>Node5&#45;&gt;Node4</title>
<g id="a_edge4_Node000004_Node000005"><a xlink:title=" ">
<path fill="none" stroke="#63b8ff" d="M214.48,-111C282.65,-111 389.98,-111 442.88,-111"/>
<polygon fill="#63b8ff" stroke="#63b8ff" points="214.3,-107.5 204.3,-111 214.3,-114.5 214.3,-107.5"/>
</a>
</g>
</g>
<!-- Node6&#45;&gt;Node1 -->
<g id="edge5_Node000001_Node000006" class="edge">
<title>Node6&#45;&gt;Node1</title>
<g id="a_edge5_Node000001_Node000006"><a xlink:title=" ">
<path fill="none" stroke="#9a32cd" stroke-dasharray="5,2" d="M1284.71,-113.33C1308.08,-112.65 1335.43,-112.94 1360,-116 1367.33,-116.91 1374.97,-118.31 1382.46,-119.94"/>
<polygon fill="#9a32cd" stroke="#9a32cd" points="1284.49,-109.84 1274.62,-113.7 1284.74,-116.83 1284.49,-109.84"/>
</a>
</g>
<text text-anchor="start" x="1323" y="-121.5" font-family="Helvetica,sans-Serif" font-size="10.00" fill="grey">m_vof</text>
</g>
<!-- Node7 -->
<g id="Node000007" class="node">
<title>Node7</title>
<g id="a_Node000007"><a xlink:href="classamr__wind_1_1_field_repo.html" target="_top" xlink:title=" ">
<polygon fill="white" stroke="#666666" points="1077.5,-102.5 958.5,-102.5 958.5,-83.5 1077.5,-83.5 1077.5,-102.5"/>
<text text-anchor="middle" x="1018" y="-90.5" font-family="Helvetica,sans-Serif" font-size="10.00">amr_wind::FieldRepo</text>
</a>
</g>
</g>
<!-- Node7&#45;&gt;Node6 -->
<g id="edge6_Node000006_Node000007" class="edge">
<title>Node7&#45;&gt;Node6</title>
<g id="a_edge6_Node000006_Node000007"><a xlink:title=" ">
<path fill="none" stroke="#9a32cd" stroke-dasharray="5,2" d="M1087.94,-97.85C1104.68,-99.27 1122.5,-101 1139,-103 1152.44,-104.63 1166.98,-106.8 1180.27,-108.94"/>
<polygon fill="#9a32cd" stroke="#9a32cd" points="1087.94,-94.34 1077.68,-97 1087.36,-101.31 1087.94,-94.34"/>
</a>
</g>
<text text-anchor="start" x="1099.5" y="-108.5" font-family="Helvetica,sans-Serif" font-size="10.00" fill="grey">m_repo</text>
</g>
<!-- Node8&#45;&gt;Node7 -->
<g id="edge7_Node000007_Node000008" class="edge">
<title>Node8&#45;&gt;Node7</title>
<g id="a_edge7_Node000007_Node000008"><a xlink:title=" ">
<path fill="none" stroke="#9a32cd" stroke-dasharray="5,2" d="M853.39,-80.5C855.96,-80.31 858.5,-80.14 861,-80 896.05,-77.98 905.01,-77.07 940,-80 949.05,-80.76 958.64,-82.01 967.86,-83.45"/>
<polygon fill="#9a32cd" stroke="#9a32cd" points="853.08,-77.02 843.41,-81.34 853.66,-83.99 853.08,-77.02"/>
</a>
</g>
<text text-anchor="start" x="864.5" y="-101" font-family="Helvetica,sans-Serif" font-size="10.00" fill="grey">m_fid_map</text>
<text text-anchor="start" x="864.5" y="-86" font-family="Helvetica,sans-Serif" font-size="10.00" fill="grey">m_int_fid_map</text>
</g>
<!-- Node9 -->
<g id="Node000009" class="node">
<title>Node9</title>
<g id="a_Node000009"><a xlink:title=" ">
<polygon fill="white" stroke="#666666" points="532.5,-30 418.5,-30 418.5,0 532.5,0 532.5,-30"/>
<text text-anchor="start" x="426.5" y="-18" font-family="Helvetica,sans-Serif" font-size="10.00">std::unordered_map</text>
<text text-anchor="middle" x="475.5" y="-7" font-family="Helvetica,sans-Serif" font-size="10.00">&lt; K, T &gt;</text>
</a>
</g>
</g>
<!-- Node9&#45;&gt;Node8 -->
<g id="edge9_Node000008_Node000009" class="edge">
<title>Node9&#45;&gt;Node8</title>
<g id="a_edge9_Node000008_Node000009"><a xlink:title=" ">
<path fill="none" stroke="orange" stroke-dasharray="5,2" d="M542.69,-31.09C595.76,-43.98 669.59,-61.92 720.95,-74.41"/>
<polygon fill="orange" stroke="orange" points="543.25,-27.62 532.7,-28.66 541.6,-34.42 543.25,-27.62"/>
</a>
</g>
<text text-anchor="start" x="587.5" y="-75.5" font-family="Helvetica,sans-Serif" font-size="10.00" fill="grey">&lt; std::string, size_t &gt;</text>
</g>
<!-- Node10 -->
<g id="Node000010" class="node">
<title>Node10</title>
<g id="a_Node000010"><a xlink:title=" ">
<polygon fill="white" stroke="#666666" points="166.5,-24.5 137.5,-24.5 137.5,-5.5 166.5,-5.5 166.5,-24.5"/>
<text text-anchor="middle" x="152" y="-12.5" font-family="Helvetica,sans-Serif" font-size="10.00">K</text>
</a>
</g>
</g>
<!-- Node10&#45;&gt;Node9 -->
<g id="edge10_Node000009_Node000010" class="edge">
<title>Node10&#45;&gt;Node9</title>
<g id="a_edge10_Node000009_Node000010"><a xlink:title=" ">
<path fill="none" stroke="#9a32cd" stroke-dasharray="5,2" d="M177.13,-15C228,-15 347.39,-15 418.45,-15"/>
<polygon fill="#9a32cd" stroke="#9a32cd" points="176.81,-11.5 166.81,-15 176.81,-18.5 176.81,-11.5"/>
</a>
</g>
<text text-anchor="start" x="294" y="-20.5" font-family="Helvetica,sans-Serif" font-size="10.00" fill="grey">keys</text>
</g>
<!-- Node11 -->
<g id="Node000011" class="node">
<title>Node11</title>
<g id="a_Node000011"><a xlink:title=" ">
<polygon fill="white" stroke="#666666" points="29,-211.5 0,-211.5 0,-192.5 29,-192.5 29,-211.5"/>
<text text-anchor="middle" x="14.5" y="-199.5" font-family="Helvetica,sans-Serif" font-size="10.00">T</text>
</a>
</g>
</g>
<!-- Node11&#45;&gt;Node9 -->
<g id="edge11_Node000009_Node000011" class="edge">
<title>Node11&#45;&gt;Node9</title>
<g id="a_edge11_Node000009_Node000011"><a xlink:title=" ">
<path fill="none" stroke="#9a32cd" stroke-dasharray="5,2" d="M19.74,-182.3C27.27,-152.55 46,-96.78 85,-70 138.12,-33.51 309.39,-46.32 373,-36 387.74,-33.61 403.6,-30.56 418.29,-27.53"/>
<polygon fill="#9a32cd" stroke="#9a32cd" points="16.27,-181.78 17.39,-192.32 23.08,-183.39 16.27,-181.78"/>
</a>
</g>
<text text-anchor="start" x="129" y="-75.5" font-family="Helvetica,sans-Serif" font-size="10.00" fill="grey">elements</text>
</g>
<!-- Node16 -->
<g id="Node000016" class="node">
<title>Node16</title>
<g id="a_Node000016"><a xlink:title=" ">
<polygon fill="white" stroke="#666666" points="211,-211.5 93,-211.5 93,-192.5 211,-192.5 211,-211.5"/>
<text text-anchor="middle" x="152" y="-199.5" font-family="Helvetica,sans-Serif" font-size="10.00">std::unique_ptr&lt; T &gt;</text>
</a>
</g>
</g>
<!-- Node11&#45;&gt;Node16 -->
<g id="edge19_Node000016_Node000011" class="edge">
<title>Node11&#45;&gt;Node16</title>
<g id="a_edge19_Node000016_Node000011"><a xlink:title=" ">
<path fill="none" stroke="#9a32cd" stroke-dasharray="5,2" d="M39.53,-202C54.35,-202 74.04,-202 92.75,-202"/>
<polygon fill="#9a32cd" stroke="#9a32cd" points="39.24,-198.5 29.24,-202 39.24,-205.5 39.24,-198.5"/>
</a>
</g>
<text text-anchor="start" x="50" y="-207.5" font-family="Helvetica,sans-Serif" font-size="10.00" fill="grey">ptr</text>
</g>
<!-- Node17 -->
<g id="Node000017" class="node">
<title>Node17</title>
<g id="a_Node000017"><a xlink:title=" ">
<polygon fill="white" stroke="#666666" points="364,-255.5 246,-255.5 246,-236.5 364,-236.5 364,-255.5"/>
<text text-anchor="middle" x="305" y="-243.5" font-family="Helvetica,sans-Serif" font-size="10.00">std::shared_ptr&lt; T &gt;</text>
</a>
</g>
</g>
<!-- Node11&#45;&gt;Node17 -->
<g id="edge21_Node000017_Node000011" class="edge">
<title>Node11&#45;&gt;Node17</title>
<g id="a_edge21_Node000017_Node000011"><a xlink:title=" ">
<path fill="none" stroke="#9a32cd" stroke-dasharray="5,2" d="M36.24,-217.06C39.7,-219.01 43.35,-220.75 47,-222 112.62,-244.43 192.82,-248.51 245.99,-248.23"/>
<polygon fill="#9a32cd" stroke="#9a32cd" points="37.99,-214.03 27.67,-211.64 34.25,-219.94 37.99,-214.03"/>
</a>
</g>
<text text-anchor="start" x="50" y="-232.5" font-family="Helvetica,sans-Serif" font-size="10.00" fill="grey">ptr</text>
</g>
<!-- Node12 -->
<g id="Node000012" class="node">
<title>Node12</title>
<g id="a_Node000012"><a xlink:title=" ">
<polygon fill="white" stroke="#666666" points="1078,-206 958,-206 958,-176 1078,-176 1078,-206"/>
<text text-anchor="start" x="966" y="-194" font-family="Helvetica,sans-Serif" font-size="10.00">std::shared_ptr&lt; amr</text>
<text text-anchor="middle" x="1018" y="-183" font-family="Helvetica,sans-Serif" font-size="10.00">_wind::FieldInfo &gt;</text>
</a>
</g>
</g>
<!-- Node12&#45;&gt;Node6 -->
<g id="edge13_Node000006_Node000012" class="edge">
<title>Node12&#45;&gt;Node6</title>
<g id="a_edge13_Node000006_Node000012"><a xlink:title=" ">
<path fill="none" stroke="#9a32cd" stroke-dasharray="5,2" d="M1077.63,-172.68C1097.47,-165.78 1119.53,-157.32 1139,-148 1147.46,-143.95 1148.42,-140.77 1157,-137 1166.31,-132.91 1176.69,-129.4 1186.52,-126.52"/>
<polygon fill="#9a32cd" stroke="#9a32cd" points="1076.42,-169.39 1068.09,-175.94 1078.68,-176.02 1076.42,-169.39"/>
</a>
</g>
<text text-anchor="start" x="1100.5" y="-170.5" font-family="Helvetica,sans-Serif" font-size="10.00" fill="grey">m_info</text>
</g>
<!-- Node13&#45;&gt;Node12 -->
<g id="edge14_Node000012_Node000013" class="edge">
<title>Node13&#45;&gt;Node12</title>
<g id="a_edge14_Node000012_Node000013"><a xlink:title=" ">
<path fill="none" stroke="#9a32cd" stroke-dasharray="5,2" d="M849.13,-191C883.38,-191 924.85,-191 958,-191"/>
<polygon fill="#9a32cd" stroke="#9a32cd" points="848.75,-187.5 838.75,-191 848.75,-194.5 848.75,-187.5"/>
</a>
</g>
<text text-anchor="start" x="893.5" y="-196.5" font-family="Helvetica,sans-Serif" font-size="10.00" fill="grey">ptr</text>
</g>
<!-- Node14 -->
<g id="Node000014" class="node">
<title>Node14</title>
<g id="a_Node000014"><a xlink:title=" ">
<polygon fill="white" stroke="#666666" points="560,-214 391,-214 391,-184 560,-184 560,-214"/>
<text text-anchor="start" x="399" y="-202" font-family="Helvetica,sans-Serif" font-size="10.00">std::unique_ptr&lt; amr</text>
<text text-anchor="middle" x="475.5" y="-191" font-family="Helvetica,sans-Serif" font-size="10.00">_wind::FieldFillPatchOpsBase &gt;</text>
</a>
</g>
</g>
<!-- Node14&#45;&gt;Node13 -->
<g id="edge16_Node000013_Node000014" class="edge">
<title>Node14&#45;&gt;Node13</title>
<g id="a_edge16_Node000013_Node000014"><a xlink:title=" ">
<path fill="none" stroke="#9a32cd" stroke-dasharray="5,2" d="M570.13,-196.54C620.98,-195.2 682.13,-193.6 725.45,-192.46"/>
<polygon fill="#9a32cd" stroke="#9a32cd" points="570.01,-193.04 560.11,-196.8 570.2,-200.04 570.01,-193.04"/>
</a>
</g>
<text text-anchor="start" x="604.5" y="-201.5" font-family="Helvetica,sans-Serif" font-size="10.00" fill="grey">m_fillpatch_op</text>
</g>
<!-- Node15 -->
<g id="Node000015" class="node">
<title>Node15</title>
<g id="a_Node000015"><a xlink:href="classamr__wind_1_1_field_fill_patch_ops_base.html" target="_top" xlink:title=" ">
<polygon fill="white" stroke="#666666" points="219,-174 85,-174 85,-144 219,-144 219,-174"/>
<text text-anchor="start" x="93" y="-162" font-family="Helvetica,sans-Serif" font-size="10.00">amr_wind::FieldFillPatch</text>
<text text-anchor="middle" x="152" y="-151" font-family="Helvetica,sans-Serif" font-size="10.00">OpsBase</text>
</a>
</g>
</g>
<!-- Node15&#45;&gt;Node14 -->
<g id="edge17_Node000014_Node000015" class="edge">
<title>Node15&#45;&gt;Node14</title>
<g id="a_edge17_Node000014_Node000015"><a xlink:title=" ">
<path fill="none" stroke="#9a32cd" stroke-dasharray="5,2" d="M229.3,-160.35C271.81,-161.97 325.58,-165.49 373,-173 389.62,-175.63 407.48,-179.76 423.52,-183.95"/>
<polygon fill="#9a32cd" stroke="#9a32cd" points="229.42,-156.85 219.3,-159.99 229.17,-163.84 229.42,-156.85"/>
</a>
</g>
<text text-anchor="start" x="298" y="-178.5" font-family="Helvetica,sans-Serif" font-size="10.00" fill="grey">ptr</text>
</g>
<!-- Node16&#45;&gt;Node14 -->
<g id="edge18_Node000014_Node000016" class="edge">
<title>Node16&#45;&gt;Node14</title>
<g id="a_edge18_Node000014_Node000016"><a xlink:title=" ">
<path fill="none" stroke="orange" stroke-dasharray="5,2" d="M221.41,-196.71C226.68,-196.42 231.92,-196.18 237,-196 288.1,-194.18 345.42,-194.82 390.94,-195.98"/>
<polygon fill="orange" stroke="orange" points="221.04,-193.22 211.26,-197.3 221.45,-200.21 221.04,-193.22"/>
</a>
</g>
<text text-anchor="start" x="240" y="-217" font-family="Helvetica,sans-Serif" font-size="10.00" fill="grey">&lt; amr_wind::FieldFillPatch</text>
<text text-anchor="start" x="240" y="-202" font-family="Helvetica,sans-Serif" font-size="10.00" fill="grey">  OpsBase &gt;</text>
</g>
<!-- Node17&#45;&gt;Node12 -->
<g id="edge20_Node000012_Node000017" class="edge">
<title>Node17&#45;&gt;Node12</title>
<g id="a_edge20_Node000012_Node000017"><a xlink:title=" ">
<path fill="none" stroke="orange" stroke-dasharray="5,2" d="M374.35,-247.07C491.11,-247.85 736.13,-244.88 940,-212 949.17,-210.52 958.81,-208.38 968.05,-206.02"/>
<polygon fill="orange" stroke="orange" points="374.16,-243.57 364.13,-246.99 374.1,-250.57 374.16,-243.57"/>
</a>
</g>
<text text-anchor="start" x="581.5" y="-248.5" font-family="Helvetica,sans-Serif" font-size="10.00" fill="grey">&lt; amr_wind::FieldInfo &gt;</text>
</g>
</g>
</svg>
