<?xml version="1.0" encoding="UTF-8" standalone="no"?>
<!DOCTYPE svg PUBLIC "-//W3C//DTD SVG 1.1//EN"
 "http://www.w3.org/Graphics/SVG/1.1/DTD/svg11.dtd">
<!-- Generated by graphviz version 2.43.0 (0)
 -->
<!-- Title: amr_wind::OceanWavesFillInflow Pages: 1 -->
<svg width="2383pt" height="492pt"
 viewBox="0.00 0.00 2383.00 492.00" xmlns="http://www.w3.org/2000/svg" xmlns:xlink="http://www.w3.org/1999/xlink">
<g id="graph0" class="graph" transform="scale(1 1) rotate(0) translate(4 488)">
<title>amr_wind::OceanWavesFillInflow</title>
<!-- Node1 -->
<g id="Node000001" class="node">
<title>Node1</title>
<g id="a_Node000001"><a xlink:title=" ">
<polygon fill="#999999" stroke="#666666" points="2375,-284 2227,-284 2227,-254 2375,-254 2375,-284"/>
<text text-anchor="start" x="2235" y="-272" font-family="Helvetica,sans-Serif" font-size="10.00">amr_wind::OceanWavesFill</text>
<text text-anchor="middle" x="2301" y="-261" font-family="Helvetica,sans-Serif" font-size="10.00">Inflow</text>
</a>
</g>
</g>
<!-- Node2 -->
<g id="Node000002" class="node">
<title>Node2</title>
<g id="a_Node000002"><a xlink:href="classamr__wind_1_1_field_fill_patch_ops.html" target="_top" xlink:title=" ">
<polygon fill="white" stroke="#666666" points="2190,-222 2054,-222 2054,-192 2190,-192 2190,-222"/>
<text text-anchor="start" x="2062" y="-210" font-family="Helvetica,sans-Serif" font-size="10.00">amr_wind::FieldFillPatch</text>
<text text-anchor="middle" x="2122" y="-199" font-family="Helvetica,sans-Serif" font-size="10.00">Ops&lt; FieldBCDirichlet &gt;</text>
</a>
</g>
</g>
<!-- Node2&#45;&gt;Node1 -->
<g id="edge1_Node000001_Node000002" class="edge">
<title>Node2&#45;&gt;Node1</title>
<g id="a_edge1_Node000001_Node000002"><a xlink:title=" ">
<path fill="none" stroke="#63b8ff" d="M2175.53,-225.4C2201.48,-234.49 2232.4,-245.32 2256.93,-253.91"/>
<polygon fill="#63b8ff" stroke="#63b8ff" points="2176.44,-222.01 2165.85,-222.01 2174.13,-228.62 2176.44,-222.01"/>
</a>
</g>
</g>
<!-- Node3 -->
<g id="Node000003" class="node">
<title>Node3</title>
<g id="a_Node000003"><a xlink:href="classamr__wind_1_1_field_fill_patch_ops_base.html" target="_top" xlink:title=" ">
<polygon fill="white" stroke="#666666" points="219,-53 85,-53 85,-23 219,-23 219,-53"/>
<text text-anchor="start" x="93" y="-41" font-family="Helvetica,sans-Serif" font-size="10.00">amr_wind::FieldFillPatch</text>
<text text-anchor="middle" x="152" y="-30" font-family="Helvetica,sans-Serif" font-size="10.00">OpsBase</text>
</a>
</g>
</g>
<!-- Node3&#45;&gt;Node2 -->
<g id="edge2_Node000002_Node000003" class="edge">
<title>Node3&#45;&gt;Node2</title>
<g id="a_edge2_Node000002_Node000003"><a xlink:title=" ">
<path fill="none" stroke="#63b8ff" d="M229.38,-23.85C294.34,-13.04 390.21,0 474.5,0 474.5,0 474.5,0 1845,0 1972.88,0 2079.43,-143.97 2111.28,-191.78"/>
<polygon fill="#63b8ff" stroke="#63b8ff" points="228.51,-20.44 219.23,-25.56 229.67,-27.35 228.51,-20.44"/>
</a>
</g>
</g>
<!-- Node15 -->
<g id="Node000015" class="node">
<title>Node15</title>
<g id="a_Node000015"><a xlink:title=" ">
<polygon fill="white" stroke="#666666" points="560,-224 391,-224 391,-194 560,-194 560,-224"/>
<text text-anchor="start" x="399" y="-212" font-family="Helvetica,sans-Serif" font-size="10.00">std::unique_ptr&lt; amr</text>
<text text-anchor="middle" x="475.5" y="-201" font-family="Helvetica,sans-Serif" font-size="10.00">_wind::FieldFillPatchOpsBase &gt;</text>
</a>
</g>
</g>
<!-- Node3&#45;&gt;Node15 -->
<g id="edge17_Node000015_Node000003" class="edge">
<title>Node3&#45;&gt;Node15</title>
<g id="a_edge17_Node000015_Node000003"><a xlink:title=" ">
<path fill="none" stroke="#9a32cd" stroke-dasharray="5,2" d="M206.08,-56.48C251.76,-73.36 318.69,-100.44 373,-132 404.75,-150.45 438,-177.35 457.46,-193.98"/>
<polygon fill="#9a32cd" stroke="#9a32cd" points="207.26,-53.19 196.67,-53.04 204.86,-59.76 207.26,-53.19"/>
</a>
</g>
<text text-anchor="start" x="298" y="-137.5" font-family="Helvetica,sans-Serif" font-size="10.00" fill="grey">ptr</text>
</g>
<!-- Node19 -->
<g id="Node000019" class="node">
<title>Node19</title>
<g id="a_Node000019"><a xlink:href="classamr__wind_1_1_field_fill_patch_ops.html" target="_top" xlink:title=" ">
<polygon fill="white" stroke="#666666" points="1911,-185 1777,-185 1777,-155 1911,-155 1911,-185"/>
<text text-anchor="start" x="1785" y="-173" font-family="Helvetica,sans-Serif" font-size="10.00">amr_wind::FieldFillPatch</text>
<text text-anchor="middle" x="1844" y="-162" font-family="Helvetica,sans-Serif" font-size="10.00">Ops&lt; BCOpCreator &gt;</text>
</a>
</g>
</g>
<!-- Node3&#45;&gt;Node19 -->
<g id="edge25_Node000019_Node000003" class="edge">
<title>Node3&#45;&gt;Node19</title>
<g id="a_edge25_Node000019_Node000003"><a xlink:title=" ">
<path fill="none" stroke="#63b8ff" d="M229.37,-38C294.51,-38 390.66,-38 474.5,-38 474.5,-38 474.5,-38 1342.5,-38 1463.7,-38 1491,-68.03 1610,-91 1676.16,-103.77 1696.07,-94.9 1759,-119 1782.26,-127.91 1806.31,-143.24 1822.69,-154.78"/>
<polygon fill="#63b8ff" stroke="#63b8ff" points="229.19,-34.5 219.19,-38 229.19,-41.5 229.19,-34.5"/>
</a>
</g>
</g>
<!-- Node4 -->
<g id="Node000004" class="node">
<title>Node4</title>
<g id="a_Node000004"><a xlink:href="classamr__wind_1_1_sim_time.html" target="_top" xlink:title=" ">
<polygon fill="white" stroke="#666666" points="1271,-321.5 1157,-321.5 1157,-302.5 1271,-302.5 1271,-321.5"/>
<text text-anchor="middle" x="1214" y="-309.5" font-family="Helvetica,sans-Serif" font-size="10.00">amr_wind::SimTime</text>
</a>
</g>
</g>
<!-- Node4&#45;&gt;Node2 -->
<g id="edge3_Node000002_Node000004" class="edge">
<title>Node4&#45;&gt;Node2</title>
<g id="a_edge3_Node000002_Node000004"><a xlink:title=" ">
<path fill="none" stroke="#9a32cd" stroke-dasharray="5,2" d="M1281.19,-315.37C1405.67,-320.38 1682.68,-325.21 1911,-284 1977.3,-272.03 2050.19,-240.92 2090.29,-222.11"/>
<polygon fill="#9a32cd" stroke="#9a32cd" points="1281.19,-311.87 1271.05,-314.95 1280.9,-318.86 1281.19,-311.87"/>
</a>
</g>
<text text-anchor="start" x="1665.5" y="-319.5" font-family="Helvetica,sans-Serif" font-size="10.00" fill="grey">m_time</text>
</g>
<!-- Node4&#45;&gt;Node19 -->
<g id="edge26_Node000019_Node000004" class="edge">
<title>Node4&#45;&gt;Node19</title>
<g id="a_edge26_Node000019_Node000004"><a xlink:title=" ">
<path fill="none" stroke="#9a32cd" stroke-dasharray="5,2" d="M1269.3,-300.26C1304.8,-292.57 1352.17,-282.26 1394,-273 1556.34,-237.08 1597.23,-229.39 1759,-191 1766.9,-189.13 1775.2,-187.11 1783.39,-185.09"/>
<polygon fill="#9a32cd" stroke="#9a32cd" points="1268.19,-296.92 1259.15,-302.46 1269.67,-303.77 1268.19,-296.92"/>
</a>
</g>
<text text-anchor="start" x="1483" y="-273.5" font-family="Helvetica,sans-Serif" font-size="10.00" fill="grey">m_time</text>
</g>
<!-- Node21 -->
<g id="Node000021" class="node">
<title>Node21</title>
<g id="a_Node000021"><a xlink:href="classamr__wind_1_1_ocean_waves_boundary.html" target="_top" xlink:title=" ">
<polygon fill="white" stroke="#666666" points="1592,-359.5 1412,-359.5 1412,-340.5 1592,-340.5 1592,-359.5"/>
<text text-anchor="middle" x="1502" y="-347.5" font-family="Helvetica,sans-Serif" font-size="10.00">amr_wind::OceanWavesBoundary</text>
</a>
</g>
</g>
<!-- Node4&#45;&gt;Node21 -->
<g id="edge31_Node000021_Node000004" class="edge">
<title>Node4&#45;&gt;Node21</title>
<g id="a_edge31_Node000021_Node000004"><a xlink:title=" ">
<path fill="none" stroke="#9a32cd" stroke-dasharray="5,2" d="M1281.28,-321.92C1283.89,-322.29 1286.47,-322.65 1289,-323 1333.29,-329.11 1382.86,-335.45 1422.92,-340.45"/>
<polygon fill="#9a32cd" stroke="#9a32cd" points="1281.54,-318.42 1271.14,-320.47 1280.55,-325.35 1281.54,-318.42"/>
</a>
</g>
<text text-anchor="start" x="1322.5" y="-341.5" font-family="Helvetica,sans-Serif" font-size="10.00" fill="grey">m_time</text>
</g>
<!-- Node5 -->
<g id="Node000005" class="node">
<title>Node5</title>
<g id="a_Node000005"><a xlink:href="classamr__wind_1_1_field.html" target="_top" xlink:title=" ">
<polygon fill="white" stroke="#666666" points="1261,-209.5 1167,-209.5 1167,-190.5 1261,-190.5 1261,-209.5"/>
<text text-anchor="middle" x="1214" y="-197.5" font-family="Helvetica,sans-Serif" font-size="10.00">amr_wind::Field</text>
</a>
</g>
</g>
<!-- Node5&#45;&gt;Node2 -->
<g id="edge4_Node000002_Node000005" class="edge">
<title>Node5&#45;&gt;Node2</title>
<g id="a_edge4_Node000002_Node000005"><a xlink:title=" ">
<path fill="none" stroke="#9a32cd" stroke-dasharray="5,2" d="M1224.66,-181.58C1236.71,-160.66 1259.37,-127.31 1289,-111 1337.29,-84.41 1356.99,-98.56 1412,-95 1491.83,-89.83 1512.01,-93.56 1592,-95 1666.26,-96.33 1685.58,-89.77 1759,-101 1885.19,-120.31 1914.18,-138.84 2036,-177 2050.49,-181.54 2066.2,-186.94 2080.13,-191.91"/>
<polygon fill="#9a32cd" stroke="#9a32cd" points="1221.53,-180.02 1219.76,-190.47 1227.65,-183.41 1221.53,-180.02"/>
</a>
</g>
<text text-anchor="start" x="1666.5" y="-106.5" font-family="Helvetica,sans-Serif" font-size="10.00" fill="grey">m_field</text>
</g>
<!-- Node18 -->
<g id="Node000018" class="node">
<title>Node18</title>
<g id="a_Node000018"><a xlink:href="structamr__wind_1_1_field_b_c_dirichlet.html" target="_top" xlink:title=" ">
<polygon fill="white" stroke="#666666" points="1759,-288.5 1610,-288.5 1610,-269.5 1759,-269.5 1759,-288.5"/>
<text text-anchor="middle" x="1684.5" y="-276.5" font-family="Helvetica,sans-Serif" font-size="10.00">amr_wind::FieldBCDirichlet</text>
</a>
</g>
</g>
<!-- Node5&#45;&gt;Node18 -->
<g id="edge23_Node000018_Node000005" class="edge">
<title>Node5&#45;&gt;Node18</title>
<g id="a_edge23_Node000018_Node000005"><a xlink:title=" ">
<path fill="none" stroke="#9a32cd" stroke-dasharray="5,2" d="M1271.14,-201.38C1345.62,-204.34 1480.66,-213.66 1592,-243 1617.26,-249.66 1645.01,-261.21 1663.25,-269.44"/>
<polygon fill="#9a32cd" stroke="#9a32cd" points="1271.17,-197.88 1261.05,-201 1270.91,-204.87 1271.17,-197.88"/>
</a>
</g>
<text text-anchor="start" x="1323.5" y="-214.5" font-family="Helvetica,sans-Serif" font-size="10.00" fill="grey">m_field</text>
</g>
<!-- Node5&#45;&gt;Node19 -->
<g id="edge27_Node000019_Node000005" class="edge">
<title>Node5&#45;&gt;Node19</title>
<g id="a_edge27_Node000019_Node000005"><a xlink:title=" ">
<path fill="none" stroke="#9a32cd" stroke-dasharray="5,2" d="M1271.27,-197.31C1387.39,-191.76 1653,-179.08 1776.98,-173.15"/>
<polygon fill="#9a32cd" stroke="#9a32cd" points="1271,-193.82 1261.18,-197.79 1271.33,-200.81 1271,-193.82"/>
</a>
</g>
<text text-anchor="start" x="1484" y="-195.5" font-family="Helvetica,sans-Serif" font-size="10.00" fill="grey">m_field</text>
</g>
<!-- Node20 -->
<g id="Node000020" class="node">
<title>Node20</title>
<g id="a_Node000020"><a xlink:href="structamr__wind_1_1_b_c_op_creator.html" target="_top" xlink:title=" ">
<polygon fill="white" stroke="#666666" points="1569,-134 1435,-134 1435,-104 1569,-104 1569,-134"/>
<text text-anchor="start" x="1443" y="-122" font-family="Helvetica,sans-Serif" font-size="10.00">amr_wind::BCOpCreator</text>
<text text-anchor="middle" x="1502" y="-111" font-family="Helvetica,sans-Serif" font-size="10.00">&lt; InflowOp, WallOp &gt;</text>
</a>
</g>
</g>
<!-- Node5&#45;&gt;Node20 -->
<g id="edge29_Node000020_Node000005" class="edge">
<title>Node5&#45;&gt;Node20</title>
<g id="a_edge29_Node000020_Node000005"><a xlink:title=" ">
<path fill="none" stroke="#9a32cd" stroke-dasharray="5,2" d="M1229.51,-182.3C1243.12,-167.09 1264.94,-146.07 1289,-136 1335.15,-116.68 1391.84,-113.05 1434.98,-113.91"/>
<polygon fill="#9a32cd" stroke="#9a32cd" points="1226.71,-180.18 1222.83,-190.04 1232.01,-184.76 1226.71,-180.18"/>
</a>
</g>
<text text-anchor="start" x="1323.5" y="-141.5" font-family="Helvetica,sans-Serif" font-size="10.00" fill="grey">m_field</text>
</g>
<!-- Node5&#45;&gt;Node21 -->
<g id="edge33_Node000021_Node000005" class="edge">
<title>Node5&#45;&gt;Node21</title>
<g id="a_edge33_Node000021_Node000005"><a xlink:title=" ">
<path fill="none" stroke="#9a32cd" stroke-dasharray="5,2" d="M1245.37,-213.86C1281.27,-230.45 1342.65,-259.46 1394,-287 1427.25,-304.83 1465.04,-327.72 1485.63,-340.42"/>
<polygon fill="#9a32cd" stroke="#9a32cd" points="1246.49,-210.52 1235.94,-209.52 1243.56,-216.88 1246.49,-210.52"/>
</a>
</g>
<text text-anchor="start" x="1304.5" y="-308" font-family="Helvetica,sans-Serif" font-size="10.00" fill="grey">m_ow_velocity</text>
<text text-anchor="start" x="1304.5" y="-293" font-family="Helvetica,sans-Serif" font-size="10.00" fill="grey">m_ow_vof</text>
</g>
<!-- Node6 -->
<g id="Node000006" class="node">
<title>Node6</title>
<g id="a_Node000006"><a xlink:href="classamr__wind_1_1_field_repo.html" target="_top" xlink:title=" ">
<polygon fill="white" stroke="#666666" points="1077.5,-381.5 958.5,-381.5 958.5,-362.5 1077.5,-362.5 1077.5,-381.5"/>
<text text-anchor="middle" x="1018" y="-369.5" font-family="Helvetica,sans-Serif" font-size="10.00">amr_wind::FieldRepo</text>
</a>
</g>
</g>
<!-- Node6&#45;&gt;Node5 -->
<g id="edge5_Node000005_Node000006" class="edge">
<title>Node6&#45;&gt;Node5</title>
<g id="a_edge5_Node000005_Node000006"><a xlink:title=" ">
<path fill="none" stroke="#9a32cd" stroke-dasharray="5,2" d="M1046.11,-357.48C1071.63,-343.07 1110.14,-319.38 1139,-293 1168.24,-266.27 1195.25,-227.32 1206.92,-209.52"/>
<polygon fill="#9a32cd" stroke="#9a32cd" points="1044.38,-354.44 1037.34,-362.35 1047.78,-360.55 1044.38,-354.44"/>
</a>
</g>
<text text-anchor="start" x="1099.5" y="-329.5" font-family="Helvetica,sans-Serif" font-size="10.00" fill="grey">m_repo</text>
</g>
<!-- Node6&#45;&gt;Node21 -->
<g id="edge32_Node000021_Node000006" class="edge">
<title>Node6&#45;&gt;Node21</title>
<g id="a_edge32_Node000021_Node000006"><a xlink:title=" ">
<path fill="none" stroke="#9a32cd" stroke-dasharray="5,2" d="M1088.09,-369.76C1163.35,-367.2 1287.27,-362.62 1394,-357 1399.86,-356.69 1405.89,-356.35 1411.97,-356"/>
<polygon fill="#9a32cd" stroke="#9a32cd" points="1087.68,-366.27 1077.8,-370.11 1087.92,-373.27 1087.68,-366.27"/>
</a>
</g>
<text text-anchor="start" x="1196" y="-372.5" font-family="Helvetica,sans-Serif" font-size="10.00" fill="grey">m_repo</text>
</g>
<!-- Node22 -->
<g id="Node000022" class="node">
<title>Node22</title>
<g id="a_Node000022"><a xlink:href="classamr__wind_1_1_int_field.html" target="_top" xlink:title=" ">
<polygon fill="white" stroke="#666666" points="1267.5,-428.5 1160.5,-428.5 1160.5,-409.5 1267.5,-409.5 1267.5,-428.5"/>
<text text-anchor="middle" x="1214" y="-416.5" font-family="Helvetica,sans-Serif" font-size="10.00">amr_wind::IntField</text>
</a>
</g>
</g>
<!-- Node6&#45;&gt;Node22 -->
<g id="edge35_Node000022_Node000006" class="edge">
<title>Node6&#45;&gt;Node22</title>
<g id="a_edge35_Node000022_Node000006"><a xlink:title=" ">
<path fill="none" stroke="#9a32cd" stroke-dasharray="5,2" d="M1068.05,-383.88C1100.69,-391.79 1142.99,-402.04 1173.47,-409.42"/>
<polygon fill="#9a32cd" stroke="#9a32cd" points="1068.8,-380.46 1058.26,-381.51 1067.15,-387.27 1068.8,-380.46"/>
</a>
</g>
<text text-anchor="start" x="1099.5" y="-404.5" font-family="Helvetica,sans-Serif" font-size="10.00" fill="grey">m_repo</text>
</g>
<!-- Node7 -->
<g id="Node000007" class="node">
<title>Node7</title>
<g id="a_Node000007"><a xlink:title=" ">
<polygon fill="white" stroke="#666666" points="843,-376 721,-376 721,-346 843,-346 843,-376"/>
<text text-anchor="start" x="729" y="-364" font-family="Helvetica,sans-Serif" font-size="10.00">std::unordered_map</text>
<text text-anchor="middle" x="782" y="-353" font-family="Helvetica,sans-Serif" font-size="10.00">&lt; std::string, size_t &gt;</text>
</a>
</g>
</g>
<!-- Node7&#45;&gt;Node6 -->
<g id="edge6_Node000006_Node000007" class="edge">
<title>Node7&#45;&gt;Node6</title>
<g id="a_edge6_Node000006_Node000007"><a xlink:title=" ">
<path fill="none" stroke="#9a32cd" stroke-dasharray="5,2" d="M853.43,-364.31C886.86,-365.88 926.35,-367.74 958.16,-369.23"/>
<polygon fill="#9a32cd" stroke="#9a32cd" points="853.41,-360.81 843.26,-363.83 853.09,-367.8 853.41,-360.81"/>
</a>
</g>
<text text-anchor="start" x="864.5" y="-389" font-family="Helvetica,sans-Serif" font-size="10.00" fill="grey">m_fid_map</text>
<text text-anchor="start" x="864.5" y="-374" font-family="Helvetica,sans-Serif" font-size="10.00" fill="grey">m_int_fid_map</text>
</g>
<!-- Node8 -->
<g id="Node000008" class="node">
<title>Node8</title>
<g id="a_Node000008"><a xlink:title=" ">
<polygon fill="white" stroke="#666666" points="508,-288.5 443,-288.5 443,-269.5 508,-269.5 508,-288.5"/>
<text text-anchor="middle" x="475.5" y="-276.5" font-family="Helvetica,sans-Serif" font-size="10.00">std::string</text>
</a>
</g>
</g>
<!-- Node8&#45;&gt;Node5 -->
<g id="edge12_Node000005_Node000008" class="edge">
<title>Node8&#45;&gt;Node5</title>
<g id="a_edge12_Node000005_Node000008"><a xlink:title=" ">
<path fill="none" stroke="#9a32cd" stroke-dasharray="5,2" d="M518.11,-276.91C563.57,-274.52 638.52,-270.24 703,-265 897.12,-249.21 947.69,-257.5 1139,-221 1153.95,-218.15 1170.26,-213.67 1183.76,-209.58"/>
<polygon fill="#9a32cd" stroke="#9a32cd" points="517.84,-273.42 508.04,-277.44 518.21,-280.41 517.84,-273.42"/>
</a>
</g>
<text text-anchor="start" x="879.5" y="-259.5" font-family="Helvetica,sans-Serif" font-size="10.00" fill="grey">m_name</text>
</g>
<!-- Node8&#45;&gt;Node7 -->
<g id="edge7_Node000007_Node000008" class="edge">
<title>Node8&#45;&gt;Node7</title>
<g id="a_edge7_Node000007_Node000008"><a xlink:title=" ">
<path fill="none" stroke="#9a32cd" stroke-dasharray="5,2" d="M518.09,-290.2C571.76,-304.65 665.35,-329.86 725.17,-345.97"/>
<polygon fill="#9a32cd" stroke="#9a32cd" points="518.79,-286.76 508.23,-287.54 516.97,-293.52 518.79,-286.76"/>
</a>
</g>
<text text-anchor="start" x="629.5" y="-344.5" font-family="Helvetica,sans-Serif" font-size="10.00" fill="grey">keys</text>
</g>
<!-- Node14 -->
<g id="Node000014" class="node">
<title>Node14</title>
<g id="a_Node000014"><a xlink:href="structamr__wind_1_1_field_info.html" target="_top" xlink:title=" ">
<polygon fill="white" stroke="#666666" points="838.5,-216.5 725.5,-216.5 725.5,-197.5 838.5,-197.5 838.5,-216.5"/>
<text text-anchor="middle" x="782" y="-204.5" font-family="Helvetica,sans-Serif" font-size="10.00">amr_wind::FieldInfo</text>
</a>
</g>
</g>
<!-- Node8&#45;&gt;Node14 -->
<g id="edge15_Node000014_Node000008" class="edge">
<title>Node8&#45;&gt;Node14</title>
<g id="a_edge15_Node000014_Node000008"><a xlink:title=" ">
<path fill="none" stroke="#9a32cd" stroke-dasharray="5,2" d="M514.45,-266.28C533.4,-260.22 556.76,-253.18 578,-248 632.88,-234.62 647.69,-236.46 703,-225 715.52,-222.4 729.11,-219.35 741.39,-216.5"/>
<polygon fill="#9a32cd" stroke="#9a32cd" points="513.13,-263.03 504.7,-269.44 515.29,-269.69 513.13,-263.03"/>
</a>
</g>
<text text-anchor="start" x="607.5" y="-253.5" font-family="Helvetica,sans-Serif" font-size="10.00" fill="grey">m_basename</text>
</g>
<!-- Node8&#45;&gt;Node22 -->
<g id="edge36_Node000022_Node000008" class="edge">
<title>Node8&#45;&gt;Node22</title>
<g id="a_edge36_Node000022_Node000008"><a xlink:title=" ">
<path fill="none" stroke="#9a32cd" stroke-dasharray="5,2" d="M505.4,-293.42C523.19,-303.54 545.31,-318.53 560,-337 573.41,-353.86 560.64,-369.24 578,-382 766.18,-520.34 1076.85,-455.35 1179.17,-428.58"/>
<polygon fill="#9a32cd" stroke="#9a32cd" points="507.02,-290.31 496.56,-288.58 503.66,-296.45 507.02,-290.31"/>
</a>
</g>
<text text-anchor="start" x="879.5" y="-472.5" font-family="Helvetica,sans-Serif" font-size="10.00" fill="grey">m_name</text>
</g>
<!-- Node9 -->
<g id="Node000009" class="node">
<title>Node9</title>
<g id="a_Node000009"><a xlink:title=" ">
<polygon fill="white" stroke="#666666" points="204,-283 100,-283 100,-253 204,-253 204,-283"/>
<text text-anchor="start" x="108" y="-271" font-family="Helvetica,sans-Serif" font-size="10.00">std::basic_string&lt;</text>
<text text-anchor="middle" x="152" y="-260" font-family="Helvetica,sans-Serif" font-size="10.00"> Char &gt;</text>
</a>
</g>
</g>
<!-- Node9&#45;&gt;Node8 -->
<g id="edge8_Node000008_Node000009" class="edge">
<title>Node9&#45;&gt;Node8</title>
<g id="a_edge8_Node000008_Node000009"><a xlink:title=" ">
<path fill="none" stroke="#63b8ff" d="M214.48,-270.1C282.65,-272.44 389.98,-276.11 442.88,-277.92"/>
<polygon fill="#63b8ff" stroke="#63b8ff" points="214.41,-266.6 204.3,-269.76 214.17,-273.6 214.41,-266.6"/>
</a>
</g>
</g>
<!-- Node10 -->
<g id="Node000010" class="node">
<title>Node10</title>
<g id="a_Node000010"><a xlink:title=" ">
<polygon fill="white" stroke="#666666" points="532.5,-376 418.5,-376 418.5,-346 532.5,-346 532.5,-376"/>
<text text-anchor="start" x="426.5" y="-364" font-family="Helvetica,sans-Serif" font-size="10.00">std::unordered_map</text>
<text text-anchor="middle" x="475.5" y="-353" font-family="Helvetica,sans-Serif" font-size="10.00">&lt; K, T &gt;</text>
</a>
</g>
</g>
<!-- Node10&#45;&gt;Node7 -->
<g id="edge9_Node000007_Node000010" class="edge">
<title>Node10&#45;&gt;Node7</title>
<g id="a_edge9_Node000007_Node000010"><a xlink:title=" ">
<path fill="none" stroke="orange" stroke-dasharray="5,2" d="M543.03,-361C596.06,-361 669.69,-361 720.95,-361"/>
<polygon fill="orange" stroke="orange" points="542.7,-357.5 532.7,-361 542.7,-364.5 542.7,-357.5"/>
</a>
</g>
<text text-anchor="start" x="587.5" y="-366.5" font-family="Helvetica,sans-Serif" font-size="10.00" fill="grey">&lt; std::string, size_t &gt;</text>
</g>
<!-- Node11 -->
<g id="Node000011" class="node">
<title>Node11</title>
<g id="a_Node000011"><a xlink:title=" ">
<polygon fill="white" stroke="#666666" points="166.5,-373.5 137.5,-373.5 137.5,-354.5 166.5,-354.5 166.5,-373.5"/>
<text text-anchor="middle" x="152" y="-361.5" font-family="Helvetica,sans-Serif" font-size="10.00">K</text>
</a>
</g>
</g>
<!-- Node11&#45;&gt;Node10 -->
<g id="edge10_Node000010_Node000011" class="edge">
<title>Node11&#45;&gt;Node10</title>
<g id="a_edge10_Node000010_Node000011"><a xlink:title=" ">
<path fill="none" stroke="#9a32cd" stroke-dasharray="5,2" d="M177.13,-363.77C228,-363.3 347.39,-362.19 418.45,-361.52"/>
<polygon fill="#9a32cd" stroke="#9a32cd" points="176.78,-360.28 166.81,-363.87 176.85,-367.28 176.78,-360.28"/>
</a>
</g>
<text text-anchor="start" x="294" y="-368.5" font-family="Helvetica,sans-Serif" font-size="10.00" fill="grey">keys</text>
</g>
<!-- Node12 -->
<g id="Node000012" class="node">
<title>Node12</title>
<g id="a_Node000012"><a xlink:title=" ">
<polygon fill="white" stroke="#666666" points="29,-218.5 0,-218.5 0,-199.5 29,-199.5 29,-218.5"/>
<text text-anchor="middle" x="14.5" y="-206.5" font-family="Helvetica,sans-Serif" font-size="10.00">T</text>
</a>
</g>
</g>
<!-- Node12&#45;&gt;Node10 -->
<g id="edge11_Node000010_Node000012" class="edge">
<title>Node12&#45;&gt;Node10</title>
<g id="a_edge11_Node000010_Node000012"><a xlink:title=" ">
<path fill="none" stroke="#9a32cd" stroke-dasharray="5,2" d="M25.59,-227.38C37.24,-246.75 58.28,-276.54 85,-292 113.46,-308.46 317.29,-338.91 418.2,-353.2"/>
<polygon fill="#9a32cd" stroke="#9a32cd" points="28.53,-225.49 20.5,-218.58 22.47,-228.99 28.53,-225.49"/>
</a>
</g>
<text text-anchor="start" x="129" y="-326.5" font-family="Helvetica,sans-Serif" font-size="10.00" fill="grey">elements</text>
</g>
<!-- Node16 -->
<g id="Node000016" class="node">
<title>Node16</title>
<g id="a_Node000016"><a xlink:title=" ">
<polygon fill="white" stroke="#666666" points="211,-218.5 93,-218.5 93,-199.5 211,-199.5 211,-218.5"/>
<text text-anchor="middle" x="152" y="-206.5" font-family="Helvetica,sans-Serif" font-size="10.00">std::unique_ptr&lt; T &gt;</text>
</a>
</g>
</g>
<!-- Node12&#45;&gt;Node16 -->
<g id="edge19_Node000016_Node000012" class="edge">
<title>Node12&#45;&gt;Node16</title>
<g id="a_edge19_Node000016_Node000012"><a xlink:title=" ">
<path fill="none" stroke="#9a32cd" stroke-dasharray="5,2" d="M39.53,-209C54.35,-209 74.04,-209 92.75,-209"/>
<polygon fill="#9a32cd" stroke="#9a32cd" points="39.24,-205.5 29.24,-209 39.24,-212.5 39.24,-205.5"/>
</a>
</g>
<text text-anchor="start" x="50" y="-214.5" font-family="Helvetica,sans-Serif" font-size="10.00" fill="grey">ptr</text>
</g>
<!-- Node17 -->
<g id="Node000017" class="node">
<title>Node17</title>
<g id="a_Node000017"><a xlink:title=" ">
<polygon fill="white" stroke="#666666" points="364,-176.5 246,-176.5 246,-157.5 364,-157.5 364,-176.5"/>
<text text-anchor="middle" x="305" y="-164.5" font-family="Helvetica,sans-Serif" font-size="10.00">std::shared_ptr&lt; T &gt;</text>
</a>
</g>
</g>
<!-- Node12&#45;&gt;Node17 -->
<g id="edge21_Node000017_Node000012" class="edge">
<title>Node12&#45;&gt;Node17</title>
<g id="a_edge21_Node000017_Node000012"><a xlink:title=" ">
<path fill="none" stroke="#9a32cd" stroke-dasharray="5,2" d="M35.28,-193.67C39.01,-191.42 42.99,-189.39 47,-188 112.43,-165.24 192.67,-162.32 245.9,-163.58"/>
<polygon fill="#9a32cd" stroke="#9a32cd" points="33.01,-190.98 26.71,-199.49 36.95,-196.77 33.01,-190.98"/>
</a>
</g>
<text text-anchor="start" x="50" y="-193.5" font-family="Helvetica,sans-Serif" font-size="10.00" fill="grey">ptr</text>
</g>
<!-- Node13 -->
<g id="Node000013" class="node">
<title>Node13</title>
<g id="a_Node000013"><a xlink:title=" ">
<polygon fill="white" stroke="#666666" points="1078,-215 958,-215 958,-185 1078,-185 1078,-215"/>
<text text-anchor="start" x="966" y="-203" font-family="Helvetica,sans-Serif" font-size="10.00">std::shared_ptr&lt; amr</text>
<text text-anchor="middle" x="1018" y="-192" font-family="Helvetica,sans-Serif" font-size="10.00">_wind::FieldInfo &gt;</text>
</a>
</g>
</g>
<!-- Node13&#45;&gt;Node5 -->
<g id="edge13_Node000005_Node000013" class="edge">
<title>Node13&#45;&gt;Node5</title>
<g id="a_edge13_Node000005_Node000013"><a xlink:title=" ">
<path fill="none" stroke="#9a32cd" stroke-dasharray="5,2" d="M1088.44,-200C1114.44,-200 1143.31,-200 1166.71,-200"/>
<polygon fill="#9a32cd" stroke="#9a32cd" points="1088.26,-196.5 1078.26,-200 1088.26,-203.5 1088.26,-196.5"/>
</a>
</g>
<text text-anchor="start" x="1100.5" y="-205.5" font-family="Helvetica,sans-Serif" font-size="10.00" fill="grey">m_info</text>
</g>
<!-- Node14&#45;&gt;Node13 -->
<g id="edge14_Node000013_Node000014" class="edge">
<title>Node14&#45;&gt;Node13</title>
<g id="a_edge14_Node000013_Node000014"><a xlink:title=" ">
<path fill="none" stroke="#9a32cd" stroke-dasharray="5,2" d="M849.13,-205.02C883.38,-204 924.85,-202.76 958,-201.77"/>
<polygon fill="#9a32cd" stroke="#9a32cd" points="848.64,-201.53 838.75,-205.33 848.85,-208.53 848.64,-201.53"/>
</a>
</g>
<text text-anchor="start" x="893.5" y="-209.5" font-family="Helvetica,sans-Serif" font-size="10.00" fill="grey">ptr</text>
</g>
<!-- Node15&#45;&gt;Node14 -->
<g id="edge16_Node000014_Node000015" class="edge">
<title>Node15&#45;&gt;Node14</title>
<g id="a_edge16_Node000014_Node000015"><a xlink:title=" ">
<path fill="none" stroke="#9a32cd" stroke-dasharray="5,2" d="M570.27,-208.06C572.88,-208.04 575.46,-208.02 578,-208 627.87,-207.63 684.63,-207.36 725.43,-207.2"/>
<polygon fill="#9a32cd" stroke="#9a32cd" points="570.11,-204.56 560.14,-208.14 570.17,-211.56 570.11,-204.56"/>
</a>
</g>
<text text-anchor="start" x="604.5" y="-213.5" font-family="Helvetica,sans-Serif" font-size="10.00" fill="grey">m_fillpatch_op</text>
</g>
<!-- Node16&#45;&gt;Node15 -->
<g id="edge18_Node000015_Node000016" class="edge">
<title>Node16&#45;&gt;Node15</title>
<g id="a_edge18_Node000015_Node000016"><a xlink:title=" ">
<path fill="none" stroke="orange" stroke-dasharray="5,2" d="M221.5,-209C270.96,-209 338.04,-209 390.7,-209"/>
<polygon fill="orange" stroke="orange" points="221.22,-205.5 211.22,-209 221.22,-212.5 221.22,-205.5"/>
</a>
</g>
<text text-anchor="start" x="240" y="-230" font-family="Helvetica,sans-Serif" font-size="10.00" fill="grey">&lt; amr_wind::FieldFillPatch</text>
<text text-anchor="start" x="240" y="-215" font-family="Helvetica,sans-Serif" font-size="10.00" fill="grey">  OpsBase &gt;</text>
</g>
<!-- Node17&#45;&gt;Node13 -->
<g id="edge20_Node000013_Node000017" class="edge">
<title>Node17&#45;&gt;Node13</title>
<g id="a_edge20_Node000013_Node000017"><a xlink:title=" ">
<path fill="none" stroke="orange" stroke-dasharray="5,2" d="M374.19,-169.31C476.19,-172.87 674.54,-180.23 843,-189 881.24,-190.99 924.17,-193.7 957.83,-195.93"/>
<polygon fill="orange" stroke="orange" points="374.14,-165.81 364.03,-168.96 373.9,-172.8 374.14,-165.81"/>
</a>
</g>
<text text-anchor="start" x="581.5" y="-187.5" font-family="Helvetica,sans-Serif" font-size="10.00" fill="grey">&lt; amr_wind::FieldInfo &gt;</text>
</g>
<!-- Node18&#45;&gt;Node2 -->
<g id="edge22_Node000002_Node000018" class="edge">
<title>Node18&#45;&gt;Node2</title>
<g id="a_edge22_Node000002_Node000018"><a xlink:title=" ">
<path fill="none" stroke="#9a32cd" stroke-dasharray="5,2" d="M1753.29,-267.79C1835.27,-254.24 1972.37,-231.57 2053.99,-218.08"/>
<polygon fill="#9a32cd" stroke="#9a32cd" points="1752.63,-264.35 1743.33,-269.44 1753.77,-271.26 1752.63,-264.35"/>
</a>
</g>
<text text-anchor="start" x="1830" y="-268.5" font-family="Helvetica,sans-Serif" font-size="10.00" fill="grey">m_op</text>
</g>
<!-- Node19&#45;&gt;Node2 -->
<g id="edge24_Node000002_Node000019" class="edge">
<title>Node19&#45;&gt;Node2</title>
<g id="a_edge24_Node000002_Node000019"><a xlink:title=" ">
<path fill="none" stroke="orange" stroke-dasharray="5,2" d="M1921.2,-180.22C1962.82,-185.8 2013.9,-192.64 2053.99,-198.02"/>
<polygon fill="orange" stroke="orange" points="1921.49,-176.72 1911.11,-178.86 1920.56,-183.66 1921.49,-176.72"/>
</a>
</g>
<text text-anchor="start" x="1932.5" y="-200.5" font-family="Helvetica,sans-Serif" font-size="10.00" fill="grey">&lt; FieldBCDirichlet &gt;</text>
</g>
<!-- Node20&#45;&gt;Node19 -->
<g id="edge28_Node000019_Node000020" class="edge">
<title>Node20&#45;&gt;Node19</title>
<g id="a_edge28_Node000019_Node000020"><a xlink:title=" ">
<path fill="none" stroke="#9a32cd" stroke-dasharray="5,2" d="M1579.25,-119.48C1630.58,-121.14 1699.5,-125.96 1759,-139 1775.85,-142.69 1793.89,-149.01 1808.9,-154.99"/>
<polygon fill="#9a32cd" stroke="#9a32cd" points="1579.33,-115.99 1569.23,-119.19 1579.12,-122.98 1579.33,-115.99"/>
</a>
</g>
<text text-anchor="start" x="1670.5" y="-144.5" font-family="Helvetica,sans-Serif" font-size="10.00" fill="grey">m_op</text>
</g>
<!-- Node21&#45;&gt;Node1 -->
<g id="edge30_Node000001_Node000021" class="edge">
<title>Node21&#45;&gt;Node1</title>
<g id="a_edge30_Node000001_Node000021"><a xlink:title=" ">
<path fill="none" stroke="#9a32cd" stroke-dasharray="5,2" d="M1602.22,-350.49C1709.58,-349.86 1885.61,-345.48 2036,-326 2108.43,-316.62 2190.44,-297.55 2243.57,-284.06"/>
<polygon fill="#9a32cd" stroke="#9a32cd" points="1602.03,-346.99 1592.04,-350.54 1602.06,-353.99 1602.03,-346.99"/>
</a>
</g>
<text text-anchor="start" x="1951.5" y="-342.5" font-family="Helvetica,sans-Serif" font-size="10.00" fill="grey">m_ow_bndry</text>
</g>
<!-- Node22&#45;&gt;Node21 -->
<g id="edge34_Node000021_Node000022" class="edge">
<title>Node22&#45;&gt;Node21</title>
<g id="a_edge34_Node000021_Node000022"><a xlink:title=" ">
<path fill="none" stroke="#9a32cd" stroke-dasharray="5,2" d="M1277.68,-412.48C1312.34,-408.06 1355.96,-401.14 1394,-391 1424.76,-382.8 1458.86,-368.83 1480.12,-359.51"/>
<polygon fill="#9a32cd" stroke="#9a32cd" points="1277.19,-409.01 1267.69,-413.72 1278.05,-415.96 1277.19,-409.01"/>
</a>
</g>
<text text-anchor="start" x="1292.5" y="-415.5" font-family="Helvetica,sans-Serif" font-size="10.00" fill="grey">m_terrain_blank_ptr</text>
</g>
</g>
</svg>
