<?xml version="1.0" encoding="UTF-8" standalone="no"?>
<!DOCTYPE svg PUBLIC "-//W3C//DTD SVG 1.1//EN"
 "http://www.w3.org/Graphics/SVG/1.1/DTD/svg11.dtd">
<!-- Generated by graphviz version 2.43.0 (0)
 -->
<!-- Title: amr_wind::pde::temperature::ABLMesoForcingTemp Pages: 1 -->
<svg width="774pt" height="113pt"
 viewBox="0.00 0.00 774.00 113.00" xmlns="http://www.w3.org/2000/svg" xmlns:xlink="http://www.w3.org/1999/xlink">
<g id="graph0" class="graph" transform="scale(1 1) rotate(0) translate(4 109)">
<title>amr_wind::pde::temperature::ABLMesoForcingTemp</title>
<!-- Node1 -->
<g id="Node000001" class="node">
<title>Node1</title>
<g id="a_Node000001"><a xlink:title=" ">
<polygon fill="#999999" stroke="#666666" points="766,-47.5 611,-47.5 611,-17.5 766,-17.5 766,-47.5"/>
<text text-anchor="start" x="619" y="-35.5" font-family="Helvetica,sans-Serif" font-size="10.00">amr_wind::pde::temperature</text>
<text text-anchor="middle" x="688.5" y="-24.5" font-family="Helvetica,sans-Serif" font-size="10.00">::ABLMesoForcingTemp</text>
</a>
</g>
</g>
<!-- Node2 -->
<g id="Node000002" class="node">
<title>Node2</title>
<g id="a_Node000002"><a xlink:href="classamr__wind_1_1_a_b_l_mesoscale_forcing.html" target="_top" xlink:title=" ">
<polygon fill="white" stroke="#666666" points="574,-78 398,-78 398,-59 574,-59 574,-78"/>
<text text-anchor="middle" x="486" y="-66" font-family="Helvetica,sans-Serif" font-size="10.00">amr_wind::ABLMesoscaleForcing</text>
</a>
</g>
</g>
<!-- Node2&#45;&gt;Node1 -->
<g id="edge1_Node000001_Node000002" class="edge">
<title>Node2&#45;&gt;Node1</title>
<g id="a_edge1_Node000001_Node000002"><a xlink:title=" ">
<path fill="none" stroke="#63b8ff" d="M549.84,-57.22C569.18,-53.75 590.68,-49.88 610.84,-46.26"/>
<polygon fill="#63b8ff" stroke="#63b8ff" points="549.17,-53.78 539.94,-58.99 550.4,-60.67 549.17,-53.78"/>
</a>
</g>
</g>
<!-- Node3 -->
<g id="Node000003" class="node">
<title>Node3</title>
<g id="a_Node000003"><a xlink:href="classamr__wind_1_1_sim_time.html" target="_top" xlink:title=" ">
<polygon fill="white" stroke="#666666" points="255,-105 141,-105 141,-86 255,-86 255,-105"/>
<text text-anchor="middle" x="198" y="-93" font-family="Helvetica,sans-Serif" font-size="10.00">amr_wind::SimTime</text>
</a>
</g>
</g>
<!-- Node3&#45;&gt;Node2 -->
<g id="edge2_Node000002_Node000003" class="edge">
<title>Node3&#45;&gt;Node2</title>
<g id="a_edge2_Node000002_Node000003"><a xlink:title=" ">
<path fill="none" stroke="#9a32cd" stroke-dasharray="5,2" d="M265.21,-89.25C304.7,-85.52 355.3,-80.74 397.99,-76.71"/>
<polygon fill="#9a32cd" stroke="#9a32cd" points="264.79,-85.77 255.16,-90.2 265.45,-92.74 264.79,-85.77"/>
</a>
</g>
<text text-anchor="start" x="307.5" y="-93" font-family="Helvetica,sans-Serif" font-size="10.00" fill="grey">m_time</text>
</g>
<!-- Node4 -->
<g id="Node000004" class="node">
<title>Node4</title>
<g id="a_Node000004"><a xlink:title=" ">
<polygon fill="white" stroke="#666666" points="230.5,-50 165.5,-50 165.5,-31 230.5,-31 230.5,-50"/>
<text text-anchor="middle" x="198" y="-38" font-family="Helvetica,sans-Serif" font-size="10.00">std::string</text>
</a>
</g>
</g>
<!-- Node4&#45;&gt;Node2 -->
<g id="edge3_Node000002_Node000004" class="edge">
<title>Node4&#45;&gt;Node2</title>
<g id="a_edge3_Node000002_Node000004"><a xlink:title=" ">
<path fill="none" stroke="#9a32cd" stroke-dasharray="5,2" d="M241.24,-36.18C278.27,-33.53 333.33,-32.33 380,-42.5 388.55,-44.36 389.67,-47.82 398,-50.5 408.13,-53.76 419.12,-56.57 429.77,-58.93"/>
<polygon fill="#9a32cd" stroke="#9a32cd" points="240.52,-32.73 230.83,-37 241.07,-39.71 240.52,-32.73"/>
</a>
</g>
<text text-anchor="start" x="276.5" y="-63.5" font-family="Helvetica,sans-Serif" font-size="10.00" fill="grey">m_forcing_scheme</text>
<text text-anchor="start" x="276.5" y="-48.5" font-family="Helvetica,sans-Serif" font-size="10.00" fill="grey">m_forcing_transition</text>
</g>
<!-- Node5 -->
<g id="Node000005" class="node">
<title>Node5</title>
<g id="a_Node000005"><a xlink:title=" ">
<polygon fill="white" stroke="#666666" points="104,-55.5 0,-55.5 0,-25.5 104,-25.5 104,-55.5"/>
<text text-anchor="start" x="8" y="-43.5" font-family="Helvetica,sans-Serif" font-size="10.00">std::basic_string&lt;</text>
<text text-anchor="middle" x="52" y="-32.5" font-family="Helvetica,sans-Serif" font-size="10.00"> Char &gt;</text>
</a>
</g>
</g>
<!-- Node5&#45;&gt;Node4 -->
<g id="edge4_Node000004_Node000005" class="edge">
<title>Node5&#45;&gt;Node4</title>
<g id="a_edge4_Node000004_Node000005"><a xlink:title=" ">
<path fill="none" stroke="#63b8ff" d="M114.37,-40.5C131.9,-40.5 150.29,-40.5 165.26,-40.5"/>
<polygon fill="#63b8ff" stroke="#63b8ff" points="114.17,-37 104.17,-40.5 114.17,-44 114.17,-37"/>
</a>
</g>
</g>
<!-- Node6 -->
<g id="Node000006" class="node">
<title>Node6</title>
<g id="a_Node000006"><a xlink:title=" ">
<polygon fill="white" stroke="#666666" points="564,-41 408,-41 408,0 564,0 564,-41"/>
<text text-anchor="start" x="416" y="-29" font-family="Helvetica,sans-Serif" font-size="10.00">amr_wind::Factory&lt;</text>
<text text-anchor="start" x="416" y="-18" font-family="Helvetica,sans-Serif" font-size="10.00"> TemperatureSource,</text>
<text text-anchor="middle" x="486" y="-7" font-family="Helvetica,sans-Serif" font-size="10.00"> const CFDSim &amp; &gt;::Register</text>
</a>
</g>
</g>
<!-- Node6&#45;&gt;Node1 -->
<g id="edge5_Node000001_Node000006" class="edge">
<title>Node6&#45;&gt;Node1</title>
<g id="a_edge5_Node000001_Node000006"><a xlink:title=" ">
<path fill="none" stroke="#63b8ff" d="M574.39,-25.73C586.57,-26.46 599.01,-27.2 610.97,-27.92"/>
<polygon fill="#63b8ff" stroke="#63b8ff" points="574.42,-22.23 564.23,-25.12 574,-29.21 574.42,-22.23"/>
</a>
</g>
</g>
</g>
</svg>
