<?xml version="1.0" encoding="UTF-8" standalone="no"?>
<!DOCTYPE svg PUBLIC "-//W3C//DTD SVG 1.1//EN"
 "http://www.w3.org/Graphics/SVG/1.1/DTD/svg11.dtd">
<!-- Generated by graphviz version 2.43.0 (0)
 -->
<!-- Title: amr_wind::FieldFillPatchOps&lt; BCOpCreator &gt; Pages: 1 -->
<svg width="1686pt" height="278pt"
 viewBox="0.00 0.00 1686.00 278.00" xmlns="http://www.w3.org/2000/svg" xmlns:xlink="http://www.w3.org/1999/xlink">
<g id="graph0" class="graph" transform="scale(1 1) rotate(0) translate(4 274)">
<title>amr_wind::FieldFillPatchOps&lt; BCOpCreator &gt;</title>
<!-- Node1 -->
<g id="Node000001" class="node">
<title>Node1</title>
<g id="a_Node000001"><a xlink:title=" ">
<polygon fill="#999999" stroke="#666666" points="1678,-166.5 1544,-166.5 1544,-136.5 1678,-136.5 1678,-166.5"/>
<text text-anchor="start" x="1552" y="-154.5" font-family="Helvetica,sans-Serif" font-size="10.00">amr_wind::FieldFillPatch</text>
<text text-anchor="middle" x="1611" y="-143.5" font-family="Helvetica,sans-Serif" font-size="10.00">Ops&lt; BCOpCreator &gt;</text>
</a>
</g>
</g>
<!-- Node2 -->
<g id="Node000002" class="node">
<title>Node2</title>
<g id="a_Node000002"><a xlink:href="classamr__wind_1_1_field_fill_patch_ops_base.html" target="_top" xlink:title=" ">
<polygon fill="white" stroke="#666666" points="219,-215.5 85,-215.5 85,-185.5 219,-185.5 219,-215.5"/>
<text text-anchor="start" x="93" y="-203.5" font-family="Helvetica,sans-Serif" font-size="10.00">amr_wind::FieldFillPatch</text>
<text text-anchor="middle" x="152" y="-192.5" font-family="Helvetica,sans-Serif" font-size="10.00">OpsBase</text>
</a>
</g>
</g>
<!-- Node2&#45;&gt;Node1 -->
<g id="edge1_Node000001_Node000002" class="edge">
<title>Node2&#45;&gt;Node1</title>
<g id="a_edge1_Node000001_Node000002"><a xlink:title=" ">
<path fill="none" stroke="#63b8ff" d="M229.4,-210.74C231.96,-211.01 234.5,-211.26 237,-211.5 342.27,-221.48 368.76,-225.5 474.5,-225.5 474.5,-225.5 474.5,-225.5 1398,-225.5 1468.75,-225.5 1545.75,-188.3 1584.56,-166.65"/>
<polygon fill="#63b8ff" stroke="#63b8ff" points="229.76,-207.26 219.44,-209.64 228.99,-214.22 229.76,-207.26"/>
</a>
</g>
</g>
<!-- Node14 -->
<g id="Node000014" class="node">
<title>Node14</title>
<g id="a_Node000014"><a xlink:title=" ">
<polygon fill="white" stroke="#666666" points="560,-197.5 391,-197.5 391,-167.5 560,-167.5 560,-197.5"/>
<text text-anchor="start" x="399" y="-185.5" font-family="Helvetica,sans-Serif" font-size="10.00">std::unique_ptr&lt; amr</text>
<text text-anchor="middle" x="475.5" y="-174.5" font-family="Helvetica,sans-Serif" font-size="10.00">_wind::FieldFillPatchOpsBase &gt;</text>
</a>
</g>
</g>
<!-- Node2&#45;&gt;Node14 -->
<g id="edge16_Node000014_Node000002" class="edge">
<title>Node2&#45;&gt;Node14</title>
<g id="a_edge16_Node000014_Node000002"><a xlink:title=" ">
<path fill="none" stroke="#9a32cd" stroke-dasharray="5,2" d="M229.23,-194.99C231.85,-194.82 234.45,-194.66 237,-194.5 288.1,-191.38 345.42,-188.47 390.94,-186.3"/>
<polygon fill="#9a32cd" stroke="#9a32cd" points="228.77,-191.51 219.02,-195.65 229.23,-198.49 228.77,-191.51"/>
</a>
</g>
<text text-anchor="start" x="298" y="-200" font-family="Helvetica,sans-Serif" font-size="10.00" fill="grey">ptr</text>
</g>
<!-- Node3 -->
<g id="Node000003" class="node">
<title>Node3</title>
<g id="a_Node000003"><a xlink:href="classamr__wind_1_1_sim_time.html" target="_top" xlink:title=" ">
<polygon fill="white" stroke="#666666" points="1454,-90 1340,-90 1340,-71 1454,-71 1454,-90"/>
<text text-anchor="middle" x="1397" y="-78" font-family="Helvetica,sans-Serif" font-size="10.00">amr_wind::SimTime</text>
</a>
</g>
</g>
<!-- Node3&#45;&gt;Node1 -->
<g id="edge2_Node000001_Node000003" class="edge">
<title>Node3&#45;&gt;Node1</title>
<g id="a_edge2_Node000001_Node000003"><a xlink:title=" ">
<path fill="none" stroke="#9a32cd" stroke-dasharray="5,2" d="M1464.24,-82.31C1484.53,-84.43 1506.6,-88.37 1526,-95.5 1551.33,-104.81 1576.59,-123.19 1592.69,-136.35"/>
<polygon fill="#9a32cd" stroke="#9a32cd" points="1464.41,-78.81 1454.14,-81.38 1463.78,-85.78 1464.41,-78.81"/>
</a>
</g>
<text text-anchor="start" x="1485" y="-101" font-family="Helvetica,sans-Serif" font-size="10.00" fill="grey">m_time</text>
</g>
<!-- Node4 -->
<g id="Node000004" class="node">
<title>Node4</title>
<g id="a_Node000004"><a xlink:href="classamr__wind_1_1_field.html" target="_top" xlink:title=" ">
<polygon fill="white" stroke="#666666" points="1251,-136 1157,-136 1157,-117 1251,-117 1251,-136"/>
<text text-anchor="middle" x="1204" y="-124" font-family="Helvetica,sans-Serif" font-size="10.00">amr_wind::Field</text>
</a>
</g>
</g>
<!-- Node4&#45;&gt;Node1 -->
<g id="edge3_Node000001_Node000004" class="edge">
<title>Node4&#45;&gt;Node1</title>
<g id="a_edge3_Node000001_Node000004"><a xlink:title=" ">
<path fill="none" stroke="#9a32cd" stroke-dasharray="5,2" d="M1261.49,-127.25C1314.01,-128.24 1394.37,-130.48 1464,-135.5 1490.2,-137.39 1518.95,-140.35 1543.96,-143.21"/>
<polygon fill="#9a32cd" stroke="#9a32cd" points="1261.43,-123.75 1251.37,-127.07 1261.31,-130.75 1261.43,-123.75"/>
</a>
</g>
<text text-anchor="start" x="1379" y="-141" font-family="Helvetica,sans-Serif" font-size="10.00" fill="grey">m_field</text>
</g>
<!-- Node17 -->
<g id="Node000017" class="node">
<title>Node17</title>
<g id="a_Node000017"><a xlink:href="structamr__wind_1_1_b_c_op_creator.html" target="_top" xlink:title=" ">
<polygon fill="white" stroke="#666666" points="1464,-191.5 1330,-191.5 1330,-161.5 1464,-161.5 1464,-191.5"/>
<text text-anchor="start" x="1338" y="-179.5" font-family="Helvetica,sans-Serif" font-size="10.00">amr_wind::BCOpCreator</text>
<text text-anchor="middle" x="1397" y="-168.5" font-family="Helvetica,sans-Serif" font-size="10.00">&lt; InflowOp, WallOp &gt;</text>
</a>
</g>
</g>
<!-- Node4&#45;&gt;Node17 -->
<g id="edge22_Node000017_Node000004" class="edge">
<title>Node4&#45;&gt;Node17</title>
<g id="a_edge22_Node000017_Node000004"><a xlink:title=" ">
<path fill="none" stroke="#9a32cd" stroke-dasharray="5,2" d="M1251.07,-138.56C1277.3,-145.43 1310.41,-154.09 1338.35,-161.41"/>
<polygon fill="#9a32cd" stroke="#9a32cd" points="1251.94,-135.17 1241.38,-136.02 1250.16,-141.94 1251.94,-135.17"/>
</a>
</g>
<text text-anchor="start" x="1272.5" y="-160" font-family="Helvetica,sans-Serif" font-size="10.00" fill="grey">m_field</text>
</g>
<!-- Node5 -->
<g id="Node000005" class="node">
<title>Node5</title>
<g id="a_Node000005"><a xlink:href="classamr__wind_1_1_field_repo.html" target="_top" xlink:title=" ">
<polygon fill="white" stroke="#666666" points="1077.5,-79 958.5,-79 958.5,-60 1077.5,-60 1077.5,-79"/>
<text text-anchor="middle" x="1018" y="-67" font-family="Helvetica,sans-Serif" font-size="10.00">amr_wind::FieldRepo</text>
</a>
</g>
</g>
<!-- Node5&#45;&gt;Node4 -->
<g id="edge4_Node000004_Node000005" class="edge">
<title>Node5&#45;&gt;Node4</title>
<g id="a_edge4_Node000004_Node000005"><a xlink:title=" ">
<path fill="none" stroke="#9a32cd" stroke-dasharray="5,2" d="M1087.61,-72.64C1104.76,-74.89 1122.86,-78.56 1139,-84.5 1159.21,-91.93 1179.47,-106.78 1191.62,-116.68"/>
<polygon fill="#9a32cd" stroke="#9a32cd" points="1087.98,-69.16 1077.64,-71.47 1087.17,-76.11 1087.98,-69.16"/>
</a>
</g>
<text text-anchor="start" x="1099.5" y="-90" font-family="Helvetica,sans-Serif" font-size="10.00" fill="grey">m_repo</text>
</g>
<!-- Node6 -->
<g id="Node000006" class="node">
<title>Node6</title>
<g id="a_Node000006"><a xlink:title=" ">
<polygon fill="white" stroke="#666666" points="843,-75.5 721,-75.5 721,-45.5 843,-45.5 843,-75.5"/>
<text text-anchor="start" x="729" y="-63.5" font-family="Helvetica,sans-Serif" font-size="10.00">std::unordered_map</text>
<text text-anchor="middle" x="782" y="-52.5" font-family="Helvetica,sans-Serif" font-size="10.00">&lt; std::string, size_t &gt;</text>
</a>
</g>
</g>
<!-- Node6&#45;&gt;Node5 -->
<g id="edge5_Node000005_Node000006" class="edge">
<title>Node6&#45;&gt;Node5</title>
<g id="a_edge5_Node000005_Node000006"><a xlink:title=" ">
<path fill="none" stroke="#9a32cd" stroke-dasharray="5,2" d="M853.24,-59.49C880.36,-59.48 911.64,-59.94 940,-61.5 945.9,-61.82 952.05,-62.27 958.19,-62.8"/>
<polygon fill="#9a32cd" stroke="#9a32cd" points="853.05,-55.99 843.06,-59.52 853.07,-62.99 853.05,-55.99"/>
</a>
</g>
<text text-anchor="start" x="864.5" y="-82.5" font-family="Helvetica,sans-Serif" font-size="10.00" fill="grey">m_fid_map</text>
<text text-anchor="start" x="864.5" y="-67.5" font-family="Helvetica,sans-Serif" font-size="10.00" fill="grey">m_int_fid_map</text>
</g>
<!-- Node7 -->
<g id="Node000007" class="node">
<title>Node7</title>
<g id="a_Node000007"><a xlink:title=" ">
<polygon fill="white" stroke="#666666" points="508,-120 443,-120 443,-101 508,-101 508,-120"/>
<text text-anchor="middle" x="475.5" y="-108" font-family="Helvetica,sans-Serif" font-size="10.00">std::string</text>
</a>
</g>
</g>
<!-- Node7&#45;&gt;Node4 -->
<g id="edge11_Node000004_Node000007" class="edge">
<title>Node7&#45;&gt;Node4</title>
<g id="a_edge11_Node000004_Node000007"><a xlink:title=" ">
<path fill="none" stroke="#9a32cd" stroke-dasharray="5,2" d="M518.26,-111.42C644.97,-114.21 1024.44,-122.57 1156.82,-125.48"/>
<polygon fill="#9a32cd" stroke="#9a32cd" points="518.26,-107.92 508.18,-111.2 518.1,-114.92 518.26,-107.92"/>
</a>
</g>
<text text-anchor="start" x="879.5" y="-127" font-family="Helvetica,sans-Serif" font-size="10.00" fill="grey">m_name</text>
</g>
<!-- Node7&#45;&gt;Node6 -->
<g id="edge6_Node000006_Node000007" class="edge">
<title>Node7&#45;&gt;Node6</title>
<g id="a_edge6_Node000006_Node000007"><a xlink:title=" ">
<path fill="none" stroke="#9a32cd" stroke-dasharray="5,2" d="M518.01,-98.53C536.28,-93.61 558.08,-88.21 578,-84.5 625.62,-75.63 680.17,-69.39 720.73,-65.51"/>
<polygon fill="#9a32cd" stroke="#9a32cd" points="516.98,-95.19 508.26,-101.21 518.83,-101.94 516.98,-95.19"/>
</a>
</g>
<text text-anchor="start" x="629.5" y="-90" font-family="Helvetica,sans-Serif" font-size="10.00" fill="grey">keys</text>
</g>
<!-- Node13 -->
<g id="Node000013" class="node">
<title>Node13</title>
<g id="a_Node000013"><a xlink:href="structamr__wind_1_1_field_info.html" target="_top" xlink:title=" ">
<polygon fill="white" stroke="#666666" points="838.5,-185 725.5,-185 725.5,-166 838.5,-166 838.5,-185"/>
<text text-anchor="middle" x="782" y="-173" font-family="Helvetica,sans-Serif" font-size="10.00">amr_wind::FieldInfo</text>
</a>
</g>
</g>
<!-- Node7&#45;&gt;Node13 -->
<g id="edge14_Node000013_Node000007" class="edge">
<title>Node7&#45;&gt;Node13</title>
<g id="a_edge14_Node000013_Node000007"><a xlink:title=" ">
<path fill="none" stroke="#9a32cd" stroke-dasharray="5,2" d="M518.17,-118.46C563.69,-127.28 638.69,-142.14 703,-156.5 716.06,-159.42 730.29,-162.82 742.98,-165.93"/>
<polygon fill="#9a32cd" stroke="#9a32cd" points="518.58,-114.98 508.09,-116.52 517.25,-121.85 518.58,-114.98"/>
</a>
</g>
<text text-anchor="start" x="607.5" y="-162" font-family="Helvetica,sans-Serif" font-size="10.00" fill="grey">m_basename</text>
</g>
<!-- Node8 -->
<g id="Node000008" class="node">
<title>Node8</title>
<g id="a_Node000008"><a xlink:title=" ">
<polygon fill="white" stroke="#666666" points="204,-120.5 100,-120.5 100,-90.5 204,-90.5 204,-120.5"/>
<text text-anchor="start" x="108" y="-108.5" font-family="Helvetica,sans-Serif" font-size="10.00">std::basic_string&lt;</text>
<text text-anchor="middle" x="152" y="-97.5" font-family="Helvetica,sans-Serif" font-size="10.00"> Char &gt;</text>
</a>
</g>
</g>
<!-- Node8&#45;&gt;Node7 -->
<g id="edge7_Node000007_Node000008" class="edge">
<title>Node8&#45;&gt;Node7</title>
<g id="a_edge7_Node000007_Node000008"><a xlink:title=" ">
<path fill="none" stroke="#63b8ff" d="M214.48,-106.46C282.65,-107.52 389.98,-109.19 442.88,-110.01"/>
<polygon fill="#63b8ff" stroke="#63b8ff" points="214.35,-102.95 204.3,-106.3 214.24,-109.95 214.35,-102.95"/>
</a>
</g>
</g>
<!-- Node9 -->
<g id="Node000009" class="node">
<title>Node9</title>
<g id="a_Node000009"><a xlink:title=" ">
<polygon fill="white" stroke="#666666" points="532.5,-58.5 418.5,-58.5 418.5,-28.5 532.5,-28.5 532.5,-58.5"/>
<text text-anchor="start" x="426.5" y="-46.5" font-family="Helvetica,sans-Serif" font-size="10.00">std::unordered_map</text>
<text text-anchor="middle" x="475.5" y="-35.5" font-family="Helvetica,sans-Serif" font-size="10.00">&lt; K, T &gt;</text>
</a>
</g>
</g>
<!-- Node9&#45;&gt;Node6 -->
<g id="edge8_Node000006_Node000009" class="edge">
<title>Node9&#45;&gt;Node6</title>
<g id="a_edge8_Node000006_Node000009"><a xlink:title=" ">
<path fill="none" stroke="orange" stroke-dasharray="5,2" d="M542.79,-40.35C588.04,-39.05 649.3,-38.93 703,-44.5 708.77,-45.1 714.75,-45.93 720.72,-46.91"/>
<polygon fill="orange" stroke="orange" points="542.4,-36.86 532.51,-40.68 542.62,-43.86 542.4,-36.86"/>
</a>
</g>
<text text-anchor="start" x="587.5" y="-50" font-family="Helvetica,sans-Serif" font-size="10.00" fill="grey">&lt; std::string, size_t &gt;</text>
</g>
<!-- Node10 -->
<g id="Node000010" class="node">
<title>Node10</title>
<g id="a_Node000010"><a xlink:title=" ">
<polygon fill="white" stroke="#666666" points="166.5,-19 137.5,-19 137.5,0 166.5,0 166.5,-19"/>
<text text-anchor="middle" x="152" y="-7" font-family="Helvetica,sans-Serif" font-size="10.00">K</text>
</a>
</g>
</g>
<!-- Node10&#45;&gt;Node9 -->
<g id="edge9_Node000009_Node000010" class="edge">
<title>Node10&#45;&gt;Node9</title>
<g id="a_edge9_Node000009_Node000010"><a xlink:title=" ">
<path fill="none" stroke="#9a32cd" stroke-dasharray="5,2" d="M176.9,-10.21C217.4,-11.63 302.01,-15.47 373,-24.5 387.76,-26.38 403.62,-29.04 418.31,-31.77"/>
<polygon fill="#9a32cd" stroke="#9a32cd" points="176.81,-6.71 166.7,-9.88 176.58,-13.71 176.81,-6.71"/>
</a>
</g>
<text text-anchor="start" x="294" y="-30" font-family="Helvetica,sans-Serif" font-size="10.00" fill="grey">keys</text>
</g>
<!-- Node11 -->
<g id="Node000011" class="node">
<title>Node11</title>
<g id="a_Node000011"><a xlink:title=" ">
<polygon fill="white" stroke="#666666" points="29,-158 0,-158 0,-139 29,-139 29,-158"/>
<text text-anchor="middle" x="14.5" y="-146" font-family="Helvetica,sans-Serif" font-size="10.00">T</text>
</a>
</g>
</g>
<!-- Node11&#45;&gt;Node9 -->
<g id="edge10_Node000009_Node000011" class="edge">
<title>Node11&#45;&gt;Node9</title>
<g id="a_edge10_Node000009_Node000011"><a xlink:title=" ">
<path fill="none" stroke="#9a32cd" stroke-dasharray="5,2" d="M24.85,-129.84C36.08,-109.71 56.96,-78.63 85,-64.5 113.95,-49.91 317.54,-45.4 418.3,-44.05"/>
<polygon fill="#9a32cd" stroke="#9a32cd" points="21.73,-128.26 20.13,-138.73 27.91,-131.54 21.73,-128.26"/>
</a>
</g>
<text text-anchor="start" x="129" y="-70" font-family="Helvetica,sans-Serif" font-size="10.00" fill="grey">elements</text>
</g>
<!-- Node15 -->
<g id="Node000015" class="node">
<title>Node15</title>
<g id="a_Node000015"><a xlink:title=" ">
<polygon fill="white" stroke="#666666" points="211,-158 93,-158 93,-139 211,-139 211,-158"/>
<text text-anchor="middle" x="152" y="-146" font-family="Helvetica,sans-Serif" font-size="10.00">std::unique_ptr&lt; T &gt;</text>
</a>
</g>
</g>
<!-- Node11&#45;&gt;Node15 -->
<g id="edge18_Node000015_Node000011" class="edge">
<title>Node11&#45;&gt;Node15</title>
<g id="a_edge18_Node000015_Node000011"><a xlink:title=" ">
<path fill="none" stroke="#9a32cd" stroke-dasharray="5,2" d="M39.53,-148.5C54.35,-148.5 74.04,-148.5 92.75,-148.5"/>
<polygon fill="#9a32cd" stroke="#9a32cd" points="39.24,-145 29.24,-148.5 39.24,-152 39.24,-145"/>
</a>
</g>
<text text-anchor="start" x="50" y="-154" font-family="Helvetica,sans-Serif" font-size="10.00" fill="grey">ptr</text>
</g>
<!-- Node16 -->
<g id="Node000016" class="node">
<title>Node16</title>
<g id="a_Node000016"><a xlink:title=" ">
<polygon fill="white" stroke="#666666" points="364,-270 246,-270 246,-251 364,-251 364,-270"/>
<text text-anchor="middle" x="305" y="-258" font-family="Helvetica,sans-Serif" font-size="10.00">std::shared_ptr&lt; T &gt;</text>
</a>
</g>
</g>
<!-- Node11&#45;&gt;Node16 -->
<g id="edge20_Node000016_Node000011" class="edge">
<title>Node11&#45;&gt;Node16</title>
<g id="a_edge20_Node000016_Node000011"><a xlink:title=" ">
<path fill="none" stroke="#9a32cd" stroke-dasharray="5,2" d="M26.66,-166.48C38.74,-184.28 59.7,-210.79 85,-224.5 134.8,-251.48 199.62,-259.35 245.79,-261.15"/>
<polygon fill="#9a32cd" stroke="#9a32cd" points="29.58,-164.55 21.18,-158.08 23.72,-168.37 29.58,-164.55"/>
</a>
</g>
<text text-anchor="start" x="50" y="-217" font-family="Helvetica,sans-Serif" font-size="10.00" fill="grey">ptr</text>
</g>
<!-- Node12 -->
<g id="Node000012" class="node">
<title>Node12</title>
<g id="a_Node000012"><a xlink:title=" ">
<polygon fill="white" stroke="#666666" points="1078,-190.5 958,-190.5 958,-160.5 1078,-160.5 1078,-190.5"/>
<text text-anchor="start" x="966" y="-178.5" font-family="Helvetica,sans-Serif" font-size="10.00">std::shared_ptr&lt; amr</text>
<text text-anchor="middle" x="1018" y="-167.5" font-family="Helvetica,sans-Serif" font-size="10.00">_wind::FieldInfo &gt;</text>
</a>
</g>
</g>
<!-- Node12&#45;&gt;Node4 -->
<g id="edge12_Node000004_Node000012" class="edge">
<title>Node12&#45;&gt;Node4</title>
<g id="a_edge12_Node000004_Node000012"><a xlink:title=" ">
<path fill="none" stroke="#9a32cd" stroke-dasharray="5,2" d="M1085.46,-157.8C1113.07,-150.45 1144.02,-142.21 1167.22,-136.03"/>
<polygon fill="#9a32cd" stroke="#9a32cd" points="1084.22,-154.51 1075.46,-160.47 1086.02,-161.27 1084.22,-154.51"/>
</a>
</g>
<text text-anchor="start" x="1100.5" y="-160" font-family="Helvetica,sans-Serif" font-size="10.00" fill="grey">m_info</text>
</g>
<!-- Node13&#45;&gt;Node12 -->
<g id="edge13_Node000012_Node000013" class="edge">
<title>Node13&#45;&gt;Node12</title>
<g id="a_edge13_Node000012_Node000013"><a xlink:title=" ">
<path fill="none" stroke="#9a32cd" stroke-dasharray="5,2" d="M849.13,-175.5C883.38,-175.5 924.85,-175.5 958,-175.5"/>
<polygon fill="#9a32cd" stroke="#9a32cd" points="848.75,-172 838.75,-175.5 848.75,-179 848.75,-172"/>
</a>
</g>
<text text-anchor="start" x="893.5" y="-181" font-family="Helvetica,sans-Serif" font-size="10.00" fill="grey">ptr</text>
</g>
<!-- Node14&#45;&gt;Node13 -->
<g id="edge15_Node000013_Node000014" class="edge">
<title>Node14&#45;&gt;Node13</title>
<g id="a_edge15_Node000013_Node000014"><a xlink:title=" ">
<path fill="none" stroke="#9a32cd" stroke-dasharray="5,2" d="M570.13,-180.35C620.98,-179.18 682.13,-177.77 725.45,-176.78"/>
<polygon fill="#9a32cd" stroke="#9a32cd" points="570.03,-176.85 560.11,-180.58 570.19,-183.85 570.03,-176.85"/>
</a>
</g>
<text text-anchor="start" x="604.5" y="-186" font-family="Helvetica,sans-Serif" font-size="10.00" fill="grey">m_fillpatch_op</text>
</g>
<!-- Node15&#45;&gt;Node14 -->
<g id="edge17_Node000014_Node000015" class="edge">
<title>Node15&#45;&gt;Node14</title>
<g id="a_edge17_Node000014_Node000015"><a xlink:title=" ">
<path fill="none" stroke="orange" stroke-dasharray="5,2" d="M221.49,-144.49C265.12,-143.15 322.69,-143.64 373,-151.5 393.75,-154.74 416.15,-161.25 434.61,-167.46"/>
<polygon fill="orange" stroke="orange" points="221.15,-141 211.28,-144.84 221.39,-147.99 221.15,-141"/>
</a>
</g>
<text text-anchor="start" x="240" y="-172.5" font-family="Helvetica,sans-Serif" font-size="10.00" fill="grey">&lt; amr_wind::FieldFillPatch</text>
<text text-anchor="start" x="240" y="-157.5" font-family="Helvetica,sans-Serif" font-size="10.00" fill="grey">  OpsBase &gt;</text>
</g>
<!-- Node16&#45;&gt;Node12 -->
<g id="edge19_Node000012_Node000016" class="edge">
<title>Node16&#45;&gt;Node12</title>
<g id="a_edge19_Node000012_Node000016"><a xlink:title=" ">
<path fill="none" stroke="orange" stroke-dasharray="5,2" d="M374.39,-259.51C453.68,-257.75 588.18,-252.9 703,-239.5 809.33,-227.09 835.59,-220.16 940,-196.5 947.84,-194.72 956.08,-192.67 964.13,-190.57"/>
<polygon fill="orange" stroke="orange" points="373.98,-256.02 364.05,-259.73 374.12,-263.02 373.98,-256.02"/>
</a>
</g>
<text text-anchor="start" x="581.5" y="-256" font-family="Helvetica,sans-Serif" font-size="10.00" fill="grey">&lt; amr_wind::FieldInfo &gt;</text>
</g>
<!-- Node17&#45;&gt;Node1 -->
<g id="edge21_Node000001_Node000017" class="edge">
<title>Node17&#45;&gt;Node1</title>
<g id="a_edge21_Node000001_Node000017"><a xlink:title=" ">
<path fill="none" stroke="#9a32cd" stroke-dasharray="5,2" d="M1474.19,-167.52C1497,-164.83 1521.82,-161.9 1543.93,-159.29"/>
<polygon fill="#9a32cd" stroke="#9a32cd" points="1473.73,-164.05 1464.21,-168.69 1474.55,-171 1473.73,-164.05"/>
</a>
</g>
<text text-anchor="start" x="1490" y="-172" font-family="Helvetica,sans-Serif" font-size="10.00" fill="grey">m_op</text>
</g>
</g>
</svg>
