<?xml version="1.0" encoding="UTF-8" standalone="no"?>
<!DOCTYPE svg PUBLIC "-//W3C//DTD SVG 1.1//EN"
 "http://www.w3.org/Graphics/SVG/1.1/DTD/svg11.dtd">
<!-- Generated by graphviz version 2.43.0 (0)
 -->
<!-- Title: amr_wind::pde::BCOp&lt; ICNS &gt; Pages: 1 -->
<svg width="1706pt" height="326pt"
 viewBox="0.00 0.00 1706.00 326.00" xmlns="http://www.w3.org/2000/svg" xmlns:xlink="http://www.w3.org/1999/xlink">
<g id="graph0" class="graph" transform="scale(1 1) rotate(0) translate(4 322)">
<title>amr_wind::pde::BCOp&lt; ICNS &gt;</title>
<!-- Node1 -->
<g id="Node000001" class="node">
<title>Node1</title>
<g id="a_Node000001"><a xlink:title=" ">
<polygon fill="#999999" stroke="#666666" points="1698,-73 1576,-73 1576,-43 1698,-43 1698,-73"/>
<text text-anchor="start" x="1584" y="-61" font-family="Helvetica,sans-Serif" font-size="10.00">amr_wind::pde::BCOp</text>
<text text-anchor="middle" x="1637" y="-50" font-family="Helvetica,sans-Serif" font-size="10.00">&lt; ICNS &gt;</text>
</a>
</g>
</g>
<!-- Node2 -->
<g id="Node000002" class="node">
<title>Node2</title>
<g id="a_Node000002"><a xlink:href="structamr__wind_1_1pde_1_1_p_d_e_fields.html" target="_top" xlink:title=" ">
<polygon fill="white" stroke="#666666" points="1488,-107.5 1345,-107.5 1345,-88.5 1488,-88.5 1488,-107.5"/>
<text text-anchor="middle" x="1416.5" y="-95.5" font-family="Helvetica,sans-Serif" font-size="10.00">amr_wind::pde::PDEFields</text>
</a>
</g>
</g>
<!-- Node2&#45;&gt;Node1 -->
<g id="edge1_Node000001_Node000002" class="edge">
<title>Node2&#45;&gt;Node1</title>
<g id="a_edge1_Node000001_Node000002"><a xlink:title=" ">
<path fill="none" stroke="#9a32cd" stroke-dasharray="5,2" d="M1494.81,-86.91C1515.4,-83.68 1537.59,-79.95 1558,-76 1563.73,-74.89 1569.68,-73.66 1575.62,-72.38"/>
<polygon fill="#9a32cd" stroke="#9a32cd" points="1494.19,-83.46 1484.85,-88.45 1495.27,-90.38 1494.19,-83.46"/>
</a>
</g>
<text text-anchor="start" x="1511" y="-89.5" font-family="Helvetica,sans-Serif" font-size="10.00" fill="grey">m_fields</text>
</g>
<!-- Node3 -->
<g id="Node000003" class="node">
<title>Node3</title>
<g id="a_Node000003"><a xlink:href="classamr__wind_1_1_field_repo.html" target="_top" xlink:title=" ">
<polygon fill="white" stroke="#666666" points="1077.5,-92.5 958.5,-92.5 958.5,-73.5 1077.5,-73.5 1077.5,-92.5"/>
<text text-anchor="middle" x="1018" y="-80.5" font-family="Helvetica,sans-Serif" font-size="10.00">amr_wind::FieldRepo</text>
</a>
</g>
</g>
<!-- Node3&#45;&gt;Node2 -->
<g id="edge2_Node000002_Node000003" class="edge">
<title>Node3&#45;&gt;Node2</title>
<g id="a_edge2_Node000002_Node000003"><a xlink:title=" ">
<path fill="none" stroke="#9a32cd" stroke-dasharray="5,2" d="M1087.81,-85.6C1159.73,-88.32 1272.03,-92.57 1344.69,-95.32"/>
<polygon fill="#9a32cd" stroke="#9a32cd" points="1087.63,-82.09 1077.5,-85.21 1087.37,-89.09 1087.63,-82.09"/>
</a>
</g>
<text text-anchor="start" x="1193" y="-96.5" font-family="Helvetica,sans-Serif" font-size="10.00" fill="grey">repo</text>
</g>
<!-- Node10 -->
<g id="Node000010" class="node">
<title>Node10</title>
<g id="a_Node000010"><a xlink:href="classamr__wind_1_1_field.html" target="_top" xlink:title=" ">
<polygon fill="white" stroke="#666666" points="1251,-142.5 1157,-142.5 1157,-123.5 1251,-123.5 1251,-142.5"/>
<text text-anchor="middle" x="1204" y="-130.5" font-family="Helvetica,sans-Serif" font-size="10.00">amr_wind::Field</text>
</a>
</g>
</g>
<!-- Node3&#45;&gt;Node10 -->
<g id="edge10_Node000010_Node000003" class="edge">
<title>Node3&#45;&gt;Node10</title>
<g id="a_edge10_Node000010_Node000003"><a xlink:title=" ">
<path fill="none" stroke="#9a32cd" stroke-dasharray="5,2" d="M1071.99,-94.84C1092.95,-99.78 1117.21,-105.8 1139,-112 1151.04,-115.42 1164.19,-119.65 1175.43,-123.42"/>
<polygon fill="#9a32cd" stroke="#9a32cd" points="1072.51,-91.37 1061.98,-92.51 1070.93,-98.19 1072.51,-91.37"/>
</a>
</g>
<text text-anchor="start" x="1099.5" y="-117.5" font-family="Helvetica,sans-Serif" font-size="10.00" fill="grey">m_repo</text>
</g>
<!-- Node4 -->
<g id="Node000004" class="node">
<title>Node4</title>
<g id="a_Node000004"><a xlink:title=" ">
<polygon fill="white" stroke="#666666" points="843,-98 721,-98 721,-68 843,-68 843,-98"/>
<text text-anchor="start" x="729" y="-86" font-family="Helvetica,sans-Serif" font-size="10.00">std::unordered_map</text>
<text text-anchor="middle" x="782" y="-75" font-family="Helvetica,sans-Serif" font-size="10.00">&lt; std::string, size_t &gt;</text>
</a>
</g>
</g>
<!-- Node4&#45;&gt;Node3 -->
<g id="edge3_Node000003_Node000004" class="edge">
<title>Node4&#45;&gt;Node3</title>
<g id="a_edge3_Node000003_Node000004"><a xlink:title=" ">
<path fill="none" stroke="#9a32cd" stroke-dasharray="5,2" d="M853.43,-83C886.86,-83 926.35,-83 958.16,-83"/>
<polygon fill="#9a32cd" stroke="#9a32cd" points="853.26,-79.5 843.26,-83 853.26,-86.5 853.26,-79.5"/>
</a>
</g>
<text text-anchor="start" x="864.5" y="-104" font-family="Helvetica,sans-Serif" font-size="10.00" fill="grey">m_fid_map</text>
<text text-anchor="start" x="864.5" y="-89" font-family="Helvetica,sans-Serif" font-size="10.00" fill="grey">m_int_fid_map</text>
</g>
<!-- Node5 -->
<g id="Node000005" class="node">
<title>Node5</title>
<g id="a_Node000005"><a xlink:title=" ">
<polygon fill="white" stroke="#666666" points="508,-159.5 443,-159.5 443,-140.5 508,-140.5 508,-159.5"/>
<text text-anchor="middle" x="475.5" y="-147.5" font-family="Helvetica,sans-Serif" font-size="10.00">std::string</text>
</a>
</g>
</g>
<!-- Node5&#45;&gt;Node4 -->
<g id="edge4_Node000004_Node000005" class="edge">
<title>Node5&#45;&gt;Node4</title>
<g id="a_edge4_Node000004_Node000005"><a xlink:title=" ">
<path fill="none" stroke="#9a32cd" stroke-dasharray="5,2" d="M507.28,-136.49C527.12,-128.28 553.67,-118.21 578,-112 625.26,-99.93 680.07,-92.47 720.82,-88.15"/>
<polygon fill="#9a32cd" stroke="#9a32cd" points="505.7,-133.35 497.84,-140.46 508.42,-139.8 505.7,-133.35"/>
</a>
</g>
<text text-anchor="start" x="629.5" y="-117.5" font-family="Helvetica,sans-Serif" font-size="10.00" fill="grey">keys</text>
</g>
<!-- Node5&#45;&gt;Node10 -->
<g id="edge11_Node000010_Node000005" class="edge">
<title>Node5&#45;&gt;Node10</title>
<g id="a_edge11_Node000010_Node000005"><a xlink:title=" ">
<path fill="none" stroke="#9a32cd" stroke-dasharray="5,2" d="M518.26,-149.02C644.97,-146.06 1024.44,-137.18 1156.82,-134.08"/>
<polygon fill="#9a32cd" stroke="#9a32cd" points="518.1,-145.53 508.18,-149.26 518.26,-152.52 518.1,-145.53"/>
</a>
</g>
<text text-anchor="start" x="879.5" y="-145.5" font-family="Helvetica,sans-Serif" font-size="10.00" fill="grey">m_name</text>
</g>
<!-- Node12 -->
<g id="Node000012" class="node">
<title>Node12</title>
<g id="a_Node000012"><a xlink:href="structamr__wind_1_1_field_info.html" target="_top" xlink:title=" ">
<polygon fill="white" stroke="#666666" points="838.5,-263.5 725.5,-263.5 725.5,-244.5 838.5,-244.5 838.5,-263.5"/>
<text text-anchor="middle" x="782" y="-251.5" font-family="Helvetica,sans-Serif" font-size="10.00">amr_wind::FieldInfo</text>
</a>
</g>
</g>
<!-- Node5&#45;&gt;Node12 -->
<g id="edge14_Node000012_Node000005" class="edge">
<title>Node5&#45;&gt;Node12</title>
<g id="a_edge14_Node000012_Node000005"><a xlink:title=" ">
<path fill="none" stroke="#9a32cd" stroke-dasharray="5,2" d="M518.44,-151.76C574.74,-154.67 671.34,-161.75 703,-177 735.57,-192.69 762.76,-227.5 774.62,-244.41"/>
<polygon fill="#9a32cd" stroke="#9a32cd" points="518.58,-148.26 508.42,-151.26 518.24,-155.25 518.58,-148.26"/>
</a>
</g>
<text text-anchor="start" x="607.5" y="-182.5" font-family="Helvetica,sans-Serif" font-size="10.00" fill="grey">m_basename</text>
</g>
<!-- Node6 -->
<g id="Node000006" class="node">
<title>Node6</title>
<g id="a_Node000006"><a xlink:title=" ">
<polygon fill="white" stroke="#666666" points="204,-169 100,-169 100,-139 204,-139 204,-169"/>
<text text-anchor="start" x="108" y="-157" font-family="Helvetica,sans-Serif" font-size="10.00">std::basic_string&lt;</text>
<text text-anchor="middle" x="152" y="-146" font-family="Helvetica,sans-Serif" font-size="10.00"> Char &gt;</text>
</a>
</g>
</g>
<!-- Node6&#45;&gt;Node5 -->
<g id="edge5_Node000005_Node000006" class="edge">
<title>Node6&#45;&gt;Node5</title>
<g id="a_edge5_Node000005_Node000006"><a xlink:title=" ">
<path fill="none" stroke="#63b8ff" d="M214.48,-153.24C282.65,-152.39 389.98,-151.05 442.88,-150.39"/>
<polygon fill="#63b8ff" stroke="#63b8ff" points="214.25,-149.74 204.3,-153.36 214.34,-156.74 214.25,-149.74"/>
</a>
</g>
</g>
<!-- Node7 -->
<g id="Node000007" class="node">
<title>Node7</title>
<g id="a_Node000007"><a xlink:title=" ">
<polygon fill="white" stroke="#666666" points="532.5,-86 418.5,-86 418.5,-56 532.5,-56 532.5,-86"/>
<text text-anchor="start" x="426.5" y="-74" font-family="Helvetica,sans-Serif" font-size="10.00">std::unordered_map</text>
<text text-anchor="middle" x="475.5" y="-63" font-family="Helvetica,sans-Serif" font-size="10.00">&lt; K, T &gt;</text>
</a>
</g>
</g>
<!-- Node7&#45;&gt;Node4 -->
<g id="edge6_Node000004_Node000007" class="edge">
<title>Node7&#45;&gt;Node4</title>
<g id="a_edge6_Node000004_Node000007"><a xlink:title=" ">
<path fill="none" stroke="orange" stroke-dasharray="5,2" d="M543.15,-68.92C588.32,-68.1 649.33,-68.12 703,-72 708.73,-72.41 714.68,-72.99 720.62,-73.66"/>
<polygon fill="orange" stroke="orange" points="542.82,-65.43 532.9,-69.13 542.96,-72.43 542.82,-65.43"/>
</a>
</g>
<text text-anchor="start" x="587.5" y="-77.5" font-family="Helvetica,sans-Serif" font-size="10.00" fill="grey">&lt; std::string, size_t &gt;</text>
</g>
<!-- Node8 -->
<g id="Node000008" class="node">
<title>Node8</title>
<g id="a_Node000008"><a xlink:title=" ">
<polygon fill="white" stroke="#666666" points="166.5,-67.5 137.5,-67.5 137.5,-48.5 166.5,-48.5 166.5,-67.5"/>
<text text-anchor="middle" x="152" y="-55.5" font-family="Helvetica,sans-Serif" font-size="10.00">K</text>
</a>
</g>
</g>
<!-- Node8&#45;&gt;Node7 -->
<g id="edge7_Node000007_Node000008" class="edge">
<title>Node8&#45;&gt;Node7</title>
<g id="a_edge7_Node000007_Node000008"><a xlink:title=" ">
<path fill="none" stroke="#9a32cd" stroke-dasharray="5,2" d="M176.81,-58.96C227.5,-61.01 347.24,-65.85 418.45,-68.73"/>
<polygon fill="#9a32cd" stroke="#9a32cd" points="176.95,-55.47 166.81,-58.56 176.66,-62.46 176.95,-55.47"/>
</a>
</g>
<text text-anchor="start" x="294" y="-71.5" font-family="Helvetica,sans-Serif" font-size="10.00" fill="grey">keys</text>
</g>
<!-- Node9 -->
<g id="Node000009" class="node">
<title>Node9</title>
<g id="a_Node000009"><a xlink:title=" ">
<polygon fill="white" stroke="#666666" points="29,-217.5 0,-217.5 0,-198.5 29,-198.5 29,-217.5"/>
<text text-anchor="middle" x="14.5" y="-205.5" font-family="Helvetica,sans-Serif" font-size="10.00">T</text>
</a>
</g>
</g>
<!-- Node9&#45;&gt;Node7 -->
<g id="edge8_Node000007_Node000009" class="edge">
<title>Node9&#45;&gt;Node7</title>
<g id="a_edge8_Node000007_Node000009"><a xlink:title=" ">
<path fill="none" stroke="#9a32cd" stroke-dasharray="5,2" d="M23.37,-189.16C33.83,-166.74 54.61,-130.18 85,-113 140.94,-81.37 309.23,-94.9 373,-87 387.78,-85.17 403.72,-82.83 418.49,-80.51"/>
<polygon fill="#9a32cd" stroke="#9a32cd" points="20.15,-187.79 19.29,-198.35 26.55,-190.63 20.15,-187.79"/>
</a>
</g>
<text text-anchor="start" x="129" y="-118.5" font-family="Helvetica,sans-Serif" font-size="10.00" fill="grey">elements</text>
</g>
<!-- Node15 -->
<g id="Node000015" class="node">
<title>Node15</title>
<g id="a_Node000015"><a xlink:title=" ">
<polygon fill="white" stroke="#666666" points="211,-257.5 93,-257.5 93,-238.5 211,-238.5 211,-257.5"/>
<text text-anchor="middle" x="152" y="-245.5" font-family="Helvetica,sans-Serif" font-size="10.00">std::unique_ptr&lt; T &gt;</text>
</a>
</g>
</g>
<!-- Node9&#45;&gt;Node15 -->
<g id="edge18_Node000015_Node000009" class="edge">
<title>Node9&#45;&gt;Node15</title>
<g id="a_edge18_Node000015_Node000009"><a xlink:title=" ">
<path fill="none" stroke="#9a32cd" stroke-dasharray="5,2" d="M38.08,-222C41.02,-223.49 44.03,-224.87 47,-226 61.49,-231.52 77.67,-235.78 92.86,-239.02"/>
<polygon fill="#9a32cd" stroke="#9a32cd" points="39.59,-218.83 29.15,-217.04 36.19,-224.95 39.59,-218.83"/>
</a>
</g>
<text text-anchor="start" x="50" y="-237.5" font-family="Helvetica,sans-Serif" font-size="10.00" fill="grey">ptr</text>
</g>
<!-- Node16 -->
<g id="Node000016" class="node">
<title>Node16</title>
<g id="a_Node000016"><a xlink:title=" ">
<polygon fill="white" stroke="#666666" points="364,-221.5 246,-221.5 246,-202.5 364,-202.5 364,-221.5"/>
<text text-anchor="middle" x="305" y="-209.5" font-family="Helvetica,sans-Serif" font-size="10.00">std::shared_ptr&lt; T &gt;</text>
</a>
</g>
</g>
<!-- Node9&#45;&gt;Node16 -->
<g id="edge20_Node000016_Node000009" class="edge">
<title>Node9&#45;&gt;Node16</title>
<g id="a_edge20_Node000016_Node000009"><a xlink:title=" ">
<path fill="none" stroke="#9a32cd" stroke-dasharray="5,2" d="M39.44,-205.48C41.99,-205.28 44.55,-205.12 47,-205 55.88,-204.58 58.11,-204.87 67,-205 127.92,-205.9 197.61,-208.1 245.57,-209.79"/>
<polygon fill="#9a32cd" stroke="#9a32cd" points="38.92,-202.01 29.28,-206.4 39.55,-208.98 38.92,-202.01"/>
</a>
</g>
<text text-anchor="start" x="50" y="-210.5" font-family="Helvetica,sans-Serif" font-size="10.00" fill="grey">ptr</text>
</g>
<!-- Node10&#45;&gt;Node2 -->
<g id="edge9_Node000002_Node000010" class="edge">
<title>Node10&#45;&gt;Node2</title>
<g id="a_edge9_Node000002_Node000010"><a xlink:title=" ">
<path fill="none" stroke="#9a32cd" stroke-dasharray="5,2" d="M1261.09,-123.67C1291.08,-118.69 1327.95,-112.56 1358.14,-107.54"/>
<polygon fill="#9a32cd" stroke="#9a32cd" points="1260.49,-120.23 1251.2,-125.32 1261.63,-127.13 1260.49,-120.23"/>
</a>
</g>
<text text-anchor="start" x="1272" y="-186.5" font-family="Helvetica,sans-Serif" font-size="10.00" fill="grey">conv_term</text>
<text text-anchor="start" x="1272" y="-171.5" font-family="Helvetica,sans-Serif" font-size="10.00" fill="grey">diff_term</text>
<text text-anchor="start" x="1272" y="-156.5" font-family="Helvetica,sans-Serif" font-size="10.00" fill="grey">field</text>
<text text-anchor="start" x="1272" y="-141.5" font-family="Helvetica,sans-Serif" font-size="10.00" fill="grey">mueff</text>
<text text-anchor="start" x="1272" y="-126.5" font-family="Helvetica,sans-Serif" font-size="10.00" fill="grey">src_term</text>
</g>
<!-- Node11 -->
<g id="Node000011" class="node">
<title>Node11</title>
<g id="a_Node000011"><a xlink:title=" ">
<polygon fill="white" stroke="#666666" points="1078,-231 958,-231 958,-201 1078,-201 1078,-231"/>
<text text-anchor="start" x="966" y="-219" font-family="Helvetica,sans-Serif" font-size="10.00">std::shared_ptr&lt; amr</text>
<text text-anchor="middle" x="1018" y="-208" font-family="Helvetica,sans-Serif" font-size="10.00">_wind::FieldInfo &gt;</text>
</a>
</g>
</g>
<!-- Node11&#45;&gt;Node10 -->
<g id="edge12_Node000010_Node000011" class="edge">
<title>Node11&#45;&gt;Node10</title>
<g id="a_edge12_Node000010_Node000011"><a xlink:title=" ">
<path fill="none" stroke="#9a32cd" stroke-dasharray="5,2" d="M1061.52,-196.82C1099.12,-179.86 1152.42,-155.81 1181.7,-142.61"/>
<polygon fill="#9a32cd" stroke="#9a32cd" points="1060,-193.67 1052.32,-200.97 1062.88,-200.05 1060,-193.67"/>
</a>
</g>
<text text-anchor="start" x="1100.5" y="-184.5" font-family="Helvetica,sans-Serif" font-size="10.00" fill="grey">m_info</text>
</g>
<!-- Node12&#45;&gt;Node11 -->
<g id="edge13_Node000011_Node000012" class="edge">
<title>Node12&#45;&gt;Node11</title>
<g id="a_edge13_Node000011_Node000012"><a xlink:title=" ">
<path fill="none" stroke="#9a32cd" stroke-dasharray="5,2" d="M848.77,-244.37C876.9,-240.14 910.09,-235 940,-230 945.76,-229.04 951.76,-228 957.76,-226.95"/>
<polygon fill="#9a32cd" stroke="#9a32cd" points="848.02,-240.94 838.65,-245.88 849.05,-247.86 848.02,-240.94"/>
</a>
</g>
<text text-anchor="start" x="893.5" y="-247.5" font-family="Helvetica,sans-Serif" font-size="10.00" fill="grey">ptr</text>
</g>
<!-- Node13 -->
<g id="Node000013" class="node">
<title>Node13</title>
<g id="a_Node000013"><a xlink:title=" ">
<polygon fill="white" stroke="#666666" points="560,-274 391,-274 391,-244 560,-244 560,-274"/>
<text text-anchor="start" x="399" y="-262" font-family="Helvetica,sans-Serif" font-size="10.00">std::unique_ptr&lt; amr</text>
<text text-anchor="middle" x="475.5" y="-251" font-family="Helvetica,sans-Serif" font-size="10.00">_wind::FieldFillPatchOpsBase &gt;</text>
</a>
</g>
</g>
<!-- Node13&#45;&gt;Node12 -->
<g id="edge15_Node000012_Node000013" class="edge">
<title>Node13&#45;&gt;Node12</title>
<g id="a_edge15_Node000012_Node000013"><a xlink:title=" ">
<path fill="none" stroke="#9a32cd" stroke-dasharray="5,2" d="M570.13,-257.46C620.98,-256.63 682.13,-255.62 725.45,-254.91"/>
<polygon fill="#9a32cd" stroke="#9a32cd" points="570.05,-253.96 560.11,-257.63 570.16,-260.96 570.05,-253.96"/>
</a>
</g>
<text text-anchor="start" x="604.5" y="-262.5" font-family="Helvetica,sans-Serif" font-size="10.00" fill="grey">m_fillpatch_op</text>
</g>
<!-- Node14 -->
<g id="Node000014" class="node">
<title>Node14</title>
<g id="a_Node000014"><a xlink:href="classamr__wind_1_1_field_fill_patch_ops_base.html" target="_top" xlink:title=" ">
<polygon fill="white" stroke="#666666" points="219,-318 85,-318 85,-288 219,-288 219,-318"/>
<text text-anchor="start" x="93" y="-306" font-family="Helvetica,sans-Serif" font-size="10.00">amr_wind::FieldFillPatch</text>
<text text-anchor="middle" x="152" y="-295" font-family="Helvetica,sans-Serif" font-size="10.00">OpsBase</text>
</a>
</g>
</g>
<!-- Node14&#45;&gt;Node13 -->
<g id="edge16_Node000013_Node000014" class="edge">
<title>Node14&#45;&gt;Node13</title>
<g id="a_edge16_Node000013_Node000014"><a xlink:title=" ">
<path fill="none" stroke="#9a32cd" stroke-dasharray="5,2" d="M229.18,-297.53C271.66,-293.94 325.44,-288.51 373,-281 385.2,-279.07 398.14,-276.6 410.55,-274.02"/>
<polygon fill="#9a32cd" stroke="#9a32cd" points="228.87,-294.04 219.19,-298.36 229.45,-301.02 228.87,-294.04"/>
</a>
</g>
<text text-anchor="start" x="298" y="-301.5" font-family="Helvetica,sans-Serif" font-size="10.00" fill="grey">ptr</text>
</g>
<!-- Node15&#45;&gt;Node13 -->
<g id="edge17_Node000013_Node000015" class="edge">
<title>Node15&#45;&gt;Node13</title>
<g id="a_edge17_Node000013_Node000015"><a xlink:title=" ">
<path fill="none" stroke="orange" stroke-dasharray="5,2" d="M221.57,-246.66C265,-246.22 322.33,-246.39 373,-249 378.84,-249.3 384.85,-249.69 390.91,-250.14"/>
<polygon fill="orange" stroke="orange" points="221.36,-243.16 211.4,-246.78 221.44,-250.16 221.36,-243.16"/>
</a>
</g>
<text text-anchor="start" x="240" y="-270" font-family="Helvetica,sans-Serif" font-size="10.00" fill="grey">&lt; amr_wind::FieldFillPatch</text>
<text text-anchor="start" x="240" y="-255" font-family="Helvetica,sans-Serif" font-size="10.00" fill="grey">  OpsBase &gt;</text>
</g>
<!-- Node16&#45;&gt;Node11 -->
<g id="edge19_Node000011_Node000016" class="edge">
<title>Node16&#45;&gt;Node11</title>
<g id="a_edge19_Node000011_Node000016"><a xlink:title=" ">
<path fill="none" stroke="orange" stroke-dasharray="5,2" d="M374.28,-212.38C513.23,-213.17 826.79,-214.93 957.76,-215.67"/>
<polygon fill="orange" stroke="orange" points="374.2,-208.88 364.18,-212.33 374.16,-215.88 374.2,-208.88"/>
</a>
</g>
<text text-anchor="start" x="581.5" y="-219.5" font-family="Helvetica,sans-Serif" font-size="10.00" fill="grey">&lt; amr_wind::FieldInfo &gt;</text>
</g>
<!-- Node17 -->
<g id="Node000017" class="node">
<title>Node17</title>
<g id="a_Node000017"><a xlink:href="classamr__wind_1_1_sim_time.html" target="_top" xlink:title=" ">
<polygon fill="white" stroke="#666666" points="1473.5,-67.5 1359.5,-67.5 1359.5,-48.5 1473.5,-48.5 1473.5,-67.5"/>
<text text-anchor="middle" x="1416.5" y="-55.5" font-family="Helvetica,sans-Serif" font-size="10.00">amr_wind::SimTime</text>
</a>
</g>
</g>
<!-- Node17&#45;&gt;Node1 -->
<g id="edge21_Node000001_Node000017" class="edge">
<title>Node17&#45;&gt;Node1</title>
<g id="a_edge21_Node000001_Node000017"><a xlink:title=" ">
<path fill="none" stroke="#9a32cd" stroke-dasharray="5,2" d="M1483.89,-58C1513.12,-58 1547.21,-58 1575.71,-58"/>
<polygon fill="#9a32cd" stroke="#9a32cd" points="1483.77,-54.5 1473.77,-58 1483.77,-61.5 1483.77,-54.5"/>
</a>
</g>
<text text-anchor="start" x="1513" y="-63.5" font-family="Helvetica,sans-Serif" font-size="10.00" fill="grey">m_time</text>
</g>
<!-- Node18 -->
<g id="Node000018" class="node">
<title>Node18</title>
<g id="a_Node000018"><a xlink:href="structamr__wind_1_1pde_1_1_b_c_op.html" target="_top" xlink:title=" ">
<polygon fill="white" stroke="#666666" points="1477.5,-30 1355.5,-30 1355.5,0 1477.5,0 1477.5,-30"/>
<text text-anchor="start" x="1363.5" y="-18" font-family="Helvetica,sans-Serif" font-size="10.00">amr_wind::pde::BCOp</text>
<text text-anchor="middle" x="1416.5" y="-7" font-family="Helvetica,sans-Serif" font-size="10.00">&lt; PDE, typename &gt;</text>
</a>
</g>
</g>
<!-- Node18&#45;&gt;Node1 -->
<g id="edge22_Node000001_Node000018" class="edge">
<title>Node18&#45;&gt;Node1</title>
<g id="a_edge22_Node000001_Node000018"><a xlink:title=" ">
<path fill="none" stroke="orange" stroke-dasharray="5,2" d="M1487.74,-24.48C1510.28,-27.93 1535.28,-32.18 1558,-37 1566.23,-38.75 1574.89,-40.83 1583.32,-42.99"/>
<polygon fill="orange" stroke="orange" points="1487.99,-20.98 1477.58,-22.95 1486.95,-27.9 1487.99,-20.98"/>
</a>
</g>
<text text-anchor="start" x="1509" y="-42.5" font-family="Helvetica,sans-Serif" font-size="10.00" fill="grey">&lt; ICNS &gt;</text>
</g>
</g>
</svg>
