<?xml version="1.0" encoding="UTF-8" standalone="no"?>
<!DOCTYPE svg PUBLIC "-//W3C//DTD SVG 1.1//EN"
 "http://www.w3.org/Graphics/SVG/1.1/DTD/svg11.dtd">
<!-- Generated by graphviz version 2.43.0 (0)
 -->
<!-- Title: amr_wind::pde::BCOp&lt; PDE, std::enable_if_t&lt; std::is_base_of_v&lt; ScalarTransport, PDE &gt; &gt; &gt; Pages: 1 -->
<!--zoomable 368 -->

<svg id="main" version="1.1" xmlns="http://www.w3.org/2000/svg" xmlns:xlink="http://www.w3.org/1999/xlink" xml:space="preserve" onload="init(evt)">

<style type="text/css"><![CDATA[
.node, .edge {opacity: 0.7;}
.node.selected, .edge.selected {opacity: 1;}
.edge:hover path { stroke: red; }
.edge:hover polygon { stroke: red; fill: red; }
]]></style>

<defs>
  <circle id="rim" cx="0" cy="0" r="7"/>
  <circle id="rim2" cx="0" cy="0" r="3.5"/>
  <g id="zoomPlus">
    <use xlink:href="#rim" fill="#404040"><set attributeName="fill" to="#808080" begin="zoomplus.mouseover" end="zoomplus.mouseout"/></use>
    <path d="M-4,0h8M0,-4v8" fill="none" stroke="white" stroke-width="1.5" pointer-events="none"/>
  </g>
  <g id="zoomMin">
    <use xlink:href="#rim" fill="#404040"><set attributeName="fill" to="#808080" begin="zoomminus.mouseover" end="zoomminus.mouseout"/></use>
    <path d="M-4,0h8" fill="none" stroke="white" stroke-width="1.5" pointer-events="none"/>
  </g>
  <g id="arrowUp" transform="translate(30 24)">
    <use xlink:href="#rim"/>
    <path pointer-events="none" fill="none" stroke="white" stroke-width="1.5" d="M0,-3.0v7 M-2.5,-0.5L0,-3.0L2.5,-0.5"/>
  </g>
  <g id="arrowRight" transform="rotate(90) translate(36 -43)">
    <use xlink:href="#rim"/>
    <path pointer-events="none" fill="none" stroke="white" stroke-width="1.5" d="M0,-3.0v7 M-2.5,-0.5L0,-3.0L2.5,-0.5"/>
  </g>
  <g id="arrowDown" transform="rotate(180) translate(-30 -48)">
    <use xlink:href="#rim"/>
    <path pointer-events="none" fill="none" stroke="white" stroke-width="1.5" d="M0,-3.0v7 M-2.5,-0.5L0,-3.0L2.5,-0.5"/>
  </g>
  <g id="arrowLeft" transform="rotate(270) translate(-36 17)">
    <use xlink:href="#rim"/>
    <path pointer-events="none" fill="none" stroke="white" stroke-width="1.5" d="M0,-3.0v7 M-2.5,-0.5L0,-3.0L2.5,-0.5"/>
  </g>
  <g id="resetDef">
    <use xlink:href="#rim2" fill="#404040"><set attributeName="fill" to="#808080" begin="reset.mouseover" end="reset.mouseout"/></use>
  </g>
</defs>
<script type="application/ecmascript">
var viewWidth = 1822;
var viewHeight = 368;
var sectionId = 'dynsection-1';
</script>
<script type="application/ecmascript" xlink:href="svg.min.js"/>
<svg id="graph" class="graph">
<g id="viewport">
<title>amr_wind::pde::BCOp&lt; PDE, std::enable_if_t&lt; std::is_base_of_v&lt; ScalarTransport, PDE &gt; &gt; &gt;</title>
<!-- Node1 -->
<g id="Node000001" class="node">
<title>Node1</title>
<g id="a_Node000001"><a xlink:title=" ">
<polygon fill="#999999" stroke="#666666" points="1814,-126 1652,-126 1652,-74 1814,-74 1814,-126"/>
<text text-anchor="start" x="1660" y="-114" font-family="Helvetica,sans-Serif" font-size="10.00">amr_wind::pde::BCOp</text>
<text text-anchor="start" x="1660" y="-103" font-family="Helvetica,sans-Serif" font-size="10.00">&lt; PDE, std::enable_if</text>
<text text-anchor="start" x="1660" y="-92" font-family="Helvetica,sans-Serif" font-size="10.00">_t&lt; std::is_base_of_v</text>
<text text-anchor="middle" x="1733" y="-81" font-family="Helvetica,sans-Serif" font-size="10.00">&lt; ScalarTransport, PDE &gt; &gt; &gt;</text>
</a>
</g>
</g>
<!-- Node2 -->
<g id="Node000002" class="node">
<title>Node2</title>
<g id="a_Node000002"><a xlink:href="structamr__wind_1_1pde_1_1_p_d_e_fields.html" target="_top" xlink:title=" ">
<polygon fill="white" stroke="#666666" points="1488,-149.5 1345,-149.5 1345,-130.5 1488,-130.5 1488,-149.5"/>
<text text-anchor="middle" x="1416.5" y="-137.5" font-family="Helvetica,sans-Serif" font-size="10.00">amr_wind::pde::PDEFields</text>
</a>
</g>
</g>
<!-- Node2&#45;&gt;Node1 -->
<g id="edge1_Node000001_Node000002" class="edge">
<title>Node2&#45;&gt;Node1</title>
<g id="a_edge1_Node000001_Node000002"><a xlink:title=" ">
<path fill="none" stroke="#9a32cd" stroke-dasharray="5,2" d="M1498.51,-133.32C1539.26,-129.57 1589.35,-124.36 1634,-118 1639.82,-117.17 1645.83,-116.24 1651.86,-115.26"/>
<polygon fill="#9a32cd" stroke="#9a32cd" points="1498.01,-129.86 1488.37,-134.25 1498.64,-136.83 1498.01,-129.86"/>
</a>
</g>
<text text-anchor="start" x="1549" y="-137.5" font-family="Helvetica,sans-Serif" font-size="10.00" fill="grey">m_fields</text>
</g>
<!-- Node3 -->
<g id="Node000003" class="node">
<title>Node3</title>
<g id="a_Node000003"><a xlink:href="classamr__wind_1_1_field_repo.html" target="_top" xlink:title=" ">
<polygon fill="white" stroke="#666666" points="1077.5,-134.5 958.5,-134.5 958.5,-115.5 1077.5,-115.5 1077.5,-134.5"/>
<text text-anchor="middle" x="1018" y="-122.5" font-family="Helvetica,sans-Serif" font-size="10.00">amr_wind::FieldRepo</text>
</a>
</g>
</g>
<!-- Node3&#45;&gt;Node2 -->
<g id="edge2_Node000002_Node000003" class="edge">
<title>Node3&#45;&gt;Node2</title>
<g id="a_edge2_Node000002_Node000003"><a xlink:title=" ">
<path fill="none" stroke="#9a32cd" stroke-dasharray="5,2" d="M1087.81,-127.6C1159.73,-130.32 1272.03,-134.57 1344.69,-137.32"/>
<polygon fill="#9a32cd" stroke="#9a32cd" points="1087.63,-124.09 1077.5,-127.21 1087.37,-131.09 1087.63,-124.09"/>
</a>
</g>
<text text-anchor="start" x="1193" y="-138.5" font-family="Helvetica,sans-Serif" font-size="10.00" fill="grey">repo</text>
</g>
<!-- Node10 -->
<g id="Node000010" class="node">
<title>Node10</title>
<g id="a_Node000010"><a xlink:href="classamr__wind_1_1_field.html" target="_top" xlink:title=" ">
<polygon fill="white" stroke="#666666" points="1251,-184.5 1157,-184.5 1157,-165.5 1251,-165.5 1251,-184.5"/>
<text text-anchor="middle" x="1204" y="-172.5" font-family="Helvetica,sans-Serif" font-size="10.00">amr_wind::Field</text>
</a>
</g>
</g>
<!-- Node3&#45;&gt;Node10 -->
<g id="edge10_Node000010_Node000003" class="edge">
<title>Node3&#45;&gt;Node10</title>
<g id="a_edge10_Node000010_Node000003"><a xlink:title=" ">
<path fill="none" stroke="#9a32cd" stroke-dasharray="5,2" d="M1071.99,-136.84C1092.95,-141.78 1117.21,-147.8 1139,-154 1151.04,-157.42 1164.19,-161.65 1175.43,-165.42"/>
<polygon fill="#9a32cd" stroke="#9a32cd" points="1072.51,-133.37 1061.98,-134.51 1070.93,-140.19 1072.51,-133.37"/>
</a>
</g>
<text text-anchor="start" x="1099.5" y="-159.5" font-family="Helvetica,sans-Serif" font-size="10.00" fill="grey">m_repo</text>
</g>
<!-- Node4 -->
<g id="Node000004" class="node">
<title>Node4</title>
<g id="a_Node000004"><a xlink:title=" ">
<polygon fill="white" stroke="#666666" points="843,-140 721,-140 721,-110 843,-110 843,-140"/>
<text text-anchor="start" x="729" y="-128" font-family="Helvetica,sans-Serif" font-size="10.00">std::unordered_map</text>
<text text-anchor="middle" x="782" y="-117" font-family="Helvetica,sans-Serif" font-size="10.00">&lt; std::string, size_t &gt;</text>
</a>
</g>
</g>
<!-- Node4&#45;&gt;Node3 -->
<g id="edge3_Node000003_Node000004" class="edge">
<title>Node4&#45;&gt;Node3</title>
<g id="a_edge3_Node000003_Node000004"><a xlink:title=" ">
<path fill="none" stroke="#9a32cd" stroke-dasharray="5,2" d="M853.43,-125C886.86,-125 926.35,-125 958.16,-125"/>
<polygon fill="#9a32cd" stroke="#9a32cd" points="853.26,-121.5 843.26,-125 853.26,-128.5 853.26,-121.5"/>
</a>
</g>
<text text-anchor="start" x="864.5" y="-146" font-family="Helvetica,sans-Serif" font-size="10.00" fill="grey">m_fid_map</text>
<text text-anchor="start" x="864.5" y="-131" font-family="Helvetica,sans-Serif" font-size="10.00" fill="grey">m_int_fid_map</text>
</g>
<!-- Node5 -->
<g id="Node000005" class="node">
<title>Node5</title>
<g id="a_Node000005"><a xlink:title=" ">
<polygon fill="white" stroke="#666666" points="508,-201.5 443,-201.5 443,-182.5 508,-182.5 508,-201.5"/>
<text text-anchor="middle" x="475.5" y="-189.5" font-family="Helvetica,sans-Serif" font-size="10.00">std::string</text>
</a>
</g>
</g>
<!-- Node5&#45;&gt;Node4 -->
<g id="edge4_Node000004_Node000005" class="edge">
<title>Node5&#45;&gt;Node4</title>
<g id="a_edge4_Node000004_Node000005"><a xlink:title=" ">
<path fill="none" stroke="#9a32cd" stroke-dasharray="5,2" d="M507.28,-178.49C527.12,-170.28 553.67,-160.21 578,-154 625.26,-141.93 680.07,-134.47 720.82,-130.15"/>
<polygon fill="#9a32cd" stroke="#9a32cd" points="505.7,-175.35 497.84,-182.46 508.42,-181.8 505.7,-175.35"/>
</a>
</g>
<text text-anchor="start" x="629.5" y="-159.5" font-family="Helvetica,sans-Serif" font-size="10.00" fill="grey">keys</text>
</g>
<!-- Node5&#45;&gt;Node10 -->
<g id="edge11_Node000010_Node000005" class="edge">
<title>Node5&#45;&gt;Node10</title>
<g id="a_edge11_Node000010_Node000005"><a xlink:title=" ">
<path fill="none" stroke="#9a32cd" stroke-dasharray="5,2" d="M518.26,-191.02C644.97,-188.06 1024.44,-179.18 1156.82,-176.08"/>
<polygon fill="#9a32cd" stroke="#9a32cd" points="518.1,-187.53 508.18,-191.26 518.26,-194.52 518.1,-187.53"/>
</a>
</g>
<text text-anchor="start" x="879.5" y="-187.5" font-family="Helvetica,sans-Serif" font-size="10.00" fill="grey">m_name</text>
</g>
<!-- Node12 -->
<g id="Node000012" class="node">
<title>Node12</title>
<g id="a_Node000012"><a xlink:href="structamr__wind_1_1_field_info.html" target="_top" xlink:title=" ">
<polygon fill="white" stroke="#666666" points="838.5,-305.5 725.5,-305.5 725.5,-286.5 838.5,-286.5 838.5,-305.5"/>
<text text-anchor="middle" x="782" y="-293.5" font-family="Helvetica,sans-Serif" font-size="10.00">amr_wind::FieldInfo</text>
</a>
</g>
</g>
<!-- Node5&#45;&gt;Node12 -->
<g id="edge14_Node000012_Node000005" class="edge">
<title>Node5&#45;&gt;Node12</title>
<g id="a_edge14_Node000012_Node000005"><a xlink:title=" ">
<path fill="none" stroke="#9a32cd" stroke-dasharray="5,2" d="M518.44,-193.76C574.74,-196.67 671.34,-203.75 703,-219 735.57,-234.69 762.76,-269.5 774.62,-286.41"/>
<polygon fill="#9a32cd" stroke="#9a32cd" points="518.58,-190.26 508.42,-193.26 518.24,-197.25 518.58,-190.26"/>
</a>
</g>
<text text-anchor="start" x="607.5" y="-224.5" font-family="Helvetica,sans-Serif" font-size="10.00" fill="grey">m_basename</text>
</g>
<!-- Node6 -->
<g id="Node000006" class="node">
<title>Node6</title>
<g id="a_Node000006"><a xlink:title=" ">
<polygon fill="white" stroke="#666666" points="204,-211 100,-211 100,-181 204,-181 204,-211"/>
<text text-anchor="start" x="108" y="-199" font-family="Helvetica,sans-Serif" font-size="10.00">std::basic_string&lt;</text>
<text text-anchor="middle" x="152" y="-188" font-family="Helvetica,sans-Serif" font-size="10.00"> Char &gt;</text>
</a>
</g>
</g>
<!-- Node6&#45;&gt;Node5 -->
<g id="edge5_Node000005_Node000006" class="edge">
<title>Node6&#45;&gt;Node5</title>
<g id="a_edge5_Node000005_Node000006"><a xlink:title=" ">
<path fill="none" stroke="#63b8ff" d="M214.48,-195.24C282.65,-194.39 389.98,-193.05 442.88,-192.39"/>
<polygon fill="#63b8ff" stroke="#63b8ff" points="214.25,-191.74 204.3,-195.36 214.34,-198.74 214.25,-191.74"/>
</a>
</g>
</g>
<!-- Node7 -->
<g id="Node000007" class="node">
<title>Node7</title>
<g id="a_Node000007"><a xlink:title=" ">
<polygon fill="white" stroke="#666666" points="532.5,-128 418.5,-128 418.5,-98 532.5,-98 532.5,-128"/>
<text text-anchor="start" x="426.5" y="-116" font-family="Helvetica,sans-Serif" font-size="10.00">std::unordered_map</text>
<text text-anchor="middle" x="475.5" y="-105" font-family="Helvetica,sans-Serif" font-size="10.00">&lt; K, T &gt;</text>
</a>
</g>
</g>
<!-- Node7&#45;&gt;Node4 -->
<g id="edge6_Node000004_Node000007" class="edge">
<title>Node7&#45;&gt;Node4</title>
<g id="a_edge6_Node000004_Node000007"><a xlink:title=" ">
<path fill="none" stroke="orange" stroke-dasharray="5,2" d="M543.15,-110.92C588.32,-110.1 649.33,-110.12 703,-114 708.73,-114.41 714.68,-114.99 720.62,-115.66"/>
<polygon fill="orange" stroke="orange" points="542.82,-107.43 532.9,-111.13 542.96,-114.43 542.82,-107.43"/>
</a>
</g>
<text text-anchor="start" x="587.5" y="-119.5" font-family="Helvetica,sans-Serif" font-size="10.00" fill="grey">&lt; std::string, size_t &gt;</text>
</g>
<!-- Node8 -->
<g id="Node000008" class="node">
<title>Node8</title>
<g id="a_Node000008"><a xlink:title=" ">
<polygon fill="white" stroke="#666666" points="166.5,-109.5 137.5,-109.5 137.5,-90.5 166.5,-90.5 166.5,-109.5"/>
<text text-anchor="middle" x="152" y="-97.5" font-family="Helvetica,sans-Serif" font-size="10.00">K</text>
</a>
</g>
</g>
<!-- Node8&#45;&gt;Node7 -->
<g id="edge7_Node000007_Node000008" class="edge">
<title>Node8&#45;&gt;Node7</title>
<g id="a_edge7_Node000007_Node000008"><a xlink:title=" ">
<path fill="none" stroke="#9a32cd" stroke-dasharray="5,2" d="M176.81,-100.96C227.5,-103.01 347.24,-107.85 418.45,-110.73"/>
<polygon fill="#9a32cd" stroke="#9a32cd" points="176.95,-97.47 166.81,-100.56 176.66,-104.46 176.95,-97.47"/>
</a>
</g>
<text text-anchor="start" x="294" y="-113.5" font-family="Helvetica,sans-Serif" font-size="10.00" fill="grey">keys</text>
</g>
<!-- Node9 -->
<g id="Node000009" class="node">
<title>Node9</title>
<g id="a_Node000009"><a xlink:title=" ">
<polygon fill="white" stroke="#666666" points="29,-259.5 0,-259.5 0,-240.5 29,-240.5 29,-259.5"/>
<text text-anchor="middle" x="14.5" y="-247.5" font-family="Helvetica,sans-Serif" font-size="10.00">T</text>
</a>
</g>
</g>
<!-- Node9&#45;&gt;Node7 -->
<g id="edge8_Node000007_Node000009" class="edge">
<title>Node9&#45;&gt;Node7</title>
<g id="a_edge8_Node000007_Node000009"><a xlink:title=" ">
<path fill="none" stroke="#9a32cd" stroke-dasharray="5,2" d="M23.37,-231.16C33.83,-208.74 54.61,-172.18 85,-155 140.94,-123.37 309.23,-136.9 373,-129 387.78,-127.17 403.72,-124.83 418.49,-122.51"/>
<polygon fill="#9a32cd" stroke="#9a32cd" points="20.15,-229.79 19.29,-240.35 26.55,-232.63 20.15,-229.79"/>
</a>
</g>
<text text-anchor="start" x="129" y="-160.5" font-family="Helvetica,sans-Serif" font-size="10.00" fill="grey">elements</text>
</g>
<!-- Node15 -->
<g id="Node000015" class="node">
<title>Node15</title>
<g id="a_Node000015"><a xlink:title=" ">
<polygon fill="white" stroke="#666666" points="211,-299.5 93,-299.5 93,-280.5 211,-280.5 211,-299.5"/>
<text text-anchor="middle" x="152" y="-287.5" font-family="Helvetica,sans-Serif" font-size="10.00">std::unique_ptr&lt; T &gt;</text>
</a>
</g>
</g>
<!-- Node9&#45;&gt;Node15 -->
<g id="edge18_Node000015_Node000009" class="edge">
<title>Node9&#45;&gt;Node15</title>
<g id="a_edge18_Node000015_Node000009"><a xlink:title=" ">
<path fill="none" stroke="#9a32cd" stroke-dasharray="5,2" d="M38.08,-264C41.02,-265.49 44.03,-266.87 47,-268 61.49,-273.52 77.67,-277.78 92.86,-281.02"/>
<polygon fill="#9a32cd" stroke="#9a32cd" points="39.59,-260.83 29.15,-259.04 36.19,-266.95 39.59,-260.83"/>
</a>
</g>
<text text-anchor="start" x="50" y="-279.5" font-family="Helvetica,sans-Serif" font-size="10.00" fill="grey">ptr</text>
</g>
<!-- Node16 -->
<g id="Node000016" class="node">
<title>Node16</title>
<g id="a_Node000016"><a xlink:title=" ">
<polygon fill="white" stroke="#666666" points="364,-263.5 246,-263.5 246,-244.5 364,-244.5 364,-263.5"/>
<text text-anchor="middle" x="305" y="-251.5" font-family="Helvetica,sans-Serif" font-size="10.00">std::shared_ptr&lt; T &gt;</text>
</a>
</g>
</g>
<!-- Node9&#45;&gt;Node16 -->
<g id="edge20_Node000016_Node000009" class="edge">
<title>Node9&#45;&gt;Node16</title>
<g id="a_edge20_Node000016_Node000009"><a xlink:title=" ">
<path fill="none" stroke="#9a32cd" stroke-dasharray="5,2" d="M39.44,-247.48C41.99,-247.28 44.55,-247.12 47,-247 55.88,-246.58 58.11,-246.87 67,-247 127.92,-247.9 197.61,-250.1 245.57,-251.79"/>
<polygon fill="#9a32cd" stroke="#9a32cd" points="38.92,-244.01 29.28,-248.4 39.55,-250.98 38.92,-244.01"/>
</a>
</g>
<text text-anchor="start" x="50" y="-252.5" font-family="Helvetica,sans-Serif" font-size="10.00" fill="grey">ptr</text>
</g>
<!-- Node10&#45;&gt;Node2 -->
<g id="edge9_Node000002_Node000010" class="edge">
<title>Node10&#45;&gt;Node2</title>
<g id="a_edge9_Node000002_Node000010"><a xlink:title=" ">
<path fill="none" stroke="#9a32cd" stroke-dasharray="5,2" d="M1261.09,-165.67C1291.08,-160.69 1327.95,-154.56 1358.14,-149.54"/>
<polygon fill="#9a32cd" stroke="#9a32cd" points="1260.49,-162.23 1251.2,-167.32 1261.63,-169.13 1260.49,-162.23"/>
</a>
</g>
<text text-anchor="start" x="1272" y="-228.5" font-family="Helvetica,sans-Serif" font-size="10.00" fill="grey">conv_term</text>
<text text-anchor="start" x="1272" y="-213.5" font-family="Helvetica,sans-Serif" font-size="10.00" fill="grey">diff_term</text>
<text text-anchor="start" x="1272" y="-198.5" font-family="Helvetica,sans-Serif" font-size="10.00" fill="grey">field</text>
<text text-anchor="start" x="1272" y="-183.5" font-family="Helvetica,sans-Serif" font-size="10.00" fill="grey">mueff</text>
<text text-anchor="start" x="1272" y="-168.5" font-family="Helvetica,sans-Serif" font-size="10.00" fill="grey">src_term</text>
</g>
<!-- Node11 -->
<g id="Node000011" class="node">
<title>Node11</title>
<g id="a_Node000011"><a xlink:title=" ">
<polygon fill="white" stroke="#666666" points="1078,-273 958,-273 958,-243 1078,-243 1078,-273"/>
<text text-anchor="start" x="966" y="-261" font-family="Helvetica,sans-Serif" font-size="10.00">std::shared_ptr&lt; amr</text>
<text text-anchor="middle" x="1018" y="-250" font-family="Helvetica,sans-Serif" font-size="10.00">_wind::FieldInfo &gt;</text>
</a>
</g>
</g>
<!-- Node11&#45;&gt;Node10 -->
<g id="edge12_Node000010_Node000011" class="edge">
<title>Node11&#45;&gt;Node10</title>
<g id="a_edge12_Node000010_Node000011"><a xlink:title=" ">
<path fill="none" stroke="#9a32cd" stroke-dasharray="5,2" d="M1061.52,-238.82C1099.12,-221.86 1152.42,-197.81 1181.7,-184.61"/>
<polygon fill="#9a32cd" stroke="#9a32cd" points="1060,-235.67 1052.32,-242.97 1062.88,-242.05 1060,-235.67"/>
</a>
</g>
<text text-anchor="start" x="1100.5" y="-226.5" font-family="Helvetica,sans-Serif" font-size="10.00" fill="grey">m_info</text>
</g>
<!-- Node12&#45;&gt;Node11 -->
<g id="edge13_Node000011_Node000012" class="edge">
<title>Node12&#45;&gt;Node11</title>
<g id="a_edge13_Node000011_Node000012"><a xlink:title=" ">
<path fill="none" stroke="#9a32cd" stroke-dasharray="5,2" d="M848.77,-286.37C876.9,-282.14 910.09,-277 940,-272 945.76,-271.04 951.76,-270 957.76,-268.95"/>
<polygon fill="#9a32cd" stroke="#9a32cd" points="848.02,-282.94 838.65,-287.88 849.05,-289.86 848.02,-282.94"/>
</a>
</g>
<text text-anchor="start" x="893.5" y="-289.5" font-family="Helvetica,sans-Serif" font-size="10.00" fill="grey">ptr</text>
</g>
<!-- Node13 -->
<g id="Node000013" class="node">
<title>Node13</title>
<g id="a_Node000013"><a xlink:title=" ">
<polygon fill="white" stroke="#666666" points="560,-316 391,-316 391,-286 560,-286 560,-316"/>
<text text-anchor="start" x="399" y="-304" font-family="Helvetica,sans-Serif" font-size="10.00">std::unique_ptr&lt; amr</text>
<text text-anchor="middle" x="475.5" y="-293" font-family="Helvetica,sans-Serif" font-size="10.00">_wind::FieldFillPatchOpsBase &gt;</text>
</a>
</g>
</g>
<!-- Node13&#45;&gt;Node12 -->
<g id="edge15_Node000012_Node000013" class="edge">
<title>Node13&#45;&gt;Node12</title>
<g id="a_edge15_Node000012_Node000013"><a xlink:title=" ">
<path fill="none" stroke="#9a32cd" stroke-dasharray="5,2" d="M570.13,-299.46C620.98,-298.63 682.13,-297.62 725.45,-296.91"/>
<polygon fill="#9a32cd" stroke="#9a32cd" points="570.05,-295.96 560.11,-299.63 570.16,-302.96 570.05,-295.96"/>
</a>
</g>
<text text-anchor="start" x="604.5" y="-304.5" font-family="Helvetica,sans-Serif" font-size="10.00" fill="grey">m_fillpatch_op</text>
</g>
<!-- Node14 -->
<g id="Node000014" class="node">
<title>Node14</title>
<g id="a_Node000014"><a xlink:href="classamr__wind_1_1_field_fill_patch_ops_base.html" target="_top" xlink:title=" ">
<polygon fill="white" stroke="#666666" points="219,-360 85,-360 85,-330 219,-330 219,-360"/>
<text text-anchor="start" x="93" y="-348" font-family="Helvetica,sans-Serif" font-size="10.00">amr_wind::FieldFillPatch</text>
<text text-anchor="middle" x="152" y="-337" font-family="Helvetica,sans-Serif" font-size="10.00">OpsBase</text>
</a>
</g>
</g>
<!-- Node14&#45;&gt;Node13 -->
<g id="edge16_Node000013_Node000014" class="edge">
<title>Node14&#45;&gt;Node13</title>
<g id="a_edge16_Node000013_Node000014"><a xlink:title=" ">
<path fill="none" stroke="#9a32cd" stroke-dasharray="5,2" d="M229.18,-339.53C271.66,-335.94 325.44,-330.51 373,-323 385.2,-321.07 398.14,-318.6 410.55,-316.02"/>
<polygon fill="#9a32cd" stroke="#9a32cd" points="228.87,-336.04 219.19,-340.36 229.45,-343.02 228.87,-336.04"/>
</a>
</g>
<text text-anchor="start" x="298" y="-343.5" font-family="Helvetica,sans-Serif" font-size="10.00" fill="grey">ptr</text>
</g>
<!-- Node15&#45;&gt;Node13 -->
<g id="edge17_Node000013_Node000015" class="edge">
<title>Node15&#45;&gt;Node13</title>
<g id="a_edge17_Node000013_Node000015"><a xlink:title=" ">
<path fill="none" stroke="orange" stroke-dasharray="5,2" d="M221.57,-288.66C265,-288.22 322.33,-288.39 373,-291 378.84,-291.3 384.85,-291.69 390.91,-292.14"/>
<polygon fill="orange" stroke="orange" points="221.36,-285.16 211.4,-288.78 221.44,-292.16 221.36,-285.16"/>
</a>
</g>
<text text-anchor="start" x="240" y="-312" font-family="Helvetica,sans-Serif" font-size="10.00" fill="grey">&lt; amr_wind::FieldFillPatch</text>
<text text-anchor="start" x="240" y="-297" font-family="Helvetica,sans-Serif" font-size="10.00" fill="grey">  OpsBase &gt;</text>
</g>
<!-- Node16&#45;&gt;Node11 -->
<g id="edge19_Node000011_Node000016" class="edge">
<title>Node16&#45;&gt;Node11</title>
<g id="a_edge19_Node000011_Node000016"><a xlink:title=" ">
<path fill="none" stroke="orange" stroke-dasharray="5,2" d="M374.28,-254.38C513.23,-255.17 826.79,-256.93 957.76,-257.67"/>
<polygon fill="orange" stroke="orange" points="374.2,-250.88 364.18,-254.33 374.16,-257.88 374.2,-250.88"/>
</a>
</g>
<text text-anchor="start" x="581.5" y="-261.5" font-family="Helvetica,sans-Serif" font-size="10.00" fill="grey">&lt; amr_wind::FieldInfo &gt;</text>
</g>
<!-- Node17 -->
<g id="Node000017" class="node">
<title>Node17</title>
<g id="a_Node000017"><a xlink:href="classamr__wind_1_1_sim_time.html" target="_top" xlink:title=" ">
<polygon fill="white" stroke="#666666" points="1473.5,-109.5 1359.5,-109.5 1359.5,-90.5 1473.5,-90.5 1473.5,-109.5"/>
<text text-anchor="middle" x="1416.5" y="-97.5" font-family="Helvetica,sans-Serif" font-size="10.00">amr_wind::SimTime</text>
</a>
</g>
</g>
<!-- Node17&#45;&gt;Node1 -->
<g id="edge21_Node000001_Node000017" class="edge">
<title>Node17&#45;&gt;Node1</title>
<g id="a_edge21_Node000001_Node000017"><a xlink:title=" ">
<path fill="none" stroke="#9a32cd" stroke-dasharray="5,2" d="M1483.89,-100C1532.88,-100 1599.76,-100 1651.74,-100"/>
<polygon fill="#9a32cd" stroke="#9a32cd" points="1483.73,-96.5 1473.73,-100 1483.73,-103.5 1483.73,-96.5"/>
</a>
</g>
<text text-anchor="start" x="1551" y="-105.5" font-family="Helvetica,sans-Serif" font-size="10.00" fill="grey">m_time</text>
</g>
<!-- Node18 -->
<g id="Node000018" class="node">
<title>Node18</title>
<g id="a_Node000018"><a xlink:href="structamr__wind_1_1pde_1_1_b_c_op.html" target="_top" xlink:title=" ">
<polygon fill="white" stroke="#666666" points="1477.5,-30 1355.5,-30 1355.5,0 1477.5,0 1477.5,-30"/>
<text text-anchor="start" x="1363.5" y="-18" font-family="Helvetica,sans-Serif" font-size="10.00">amr_wind::pde::BCOp</text>
<text text-anchor="middle" x="1416.5" y="-7" font-family="Helvetica,sans-Serif" font-size="10.00">&lt; PDE, typename &gt;</text>
</a>
</g>
</g>
<!-- Node18&#45;&gt;Node1 -->
<g id="edge22_Node000001_Node000018" class="edge">
<title>Node18&#45;&gt;Node1</title>
<g id="a_edge22_Node000001_Node000018"><a xlink:title=" ">
<path fill="none" stroke="orange" stroke-dasharray="5,2" d="M1487.7,-12.36C1531.02,-12.86 1587.07,-17.39 1634,-34 1658.95,-42.83 1683.63,-59.52 1701.99,-73.9"/>
<polygon fill="orange" stroke="orange" points="1487.56,-8.86 1477.54,-12.32 1487.53,-15.86 1487.56,-8.86"/>
</a>
</g>
<text text-anchor="start" x="1509" y="-85" font-family="Helvetica,sans-Serif" font-size="10.00" fill="grey">&lt; PDE, std::enable</text>
<text text-anchor="start" x="1509" y="-70" font-family="Helvetica,sans-Serif" font-size="10.00" fill="grey">  _if_t&lt; std::is_base</text>
<text text-anchor="start" x="1509" y="-55" font-family="Helvetica,sans-Serif" font-size="10.00" fill="grey">  _of_v&lt; ScalarTransport,</text>
<text text-anchor="start" x="1509" y="-40" font-family="Helvetica,sans-Serif" font-size="10.00" fill="grey">   PDE &gt; &gt; &gt;</text>
</g>
</g>
</svg>

<g id="navigator" transform="translate(0 0)" fill="#404254">
  <rect fill="#f2f5e9" fill-opacity="0.5" stroke="#606060" stroke-width=".5" x="0" y="0" width="60" height="60"/>
  <use id="zoomplus" xlink:href="#zoomPlus" x="17" y="9" onmousedown="handleZoom(evt,'in')"/>
  <use id="zoomminus" xlink:href="#zoomMin" x="42" y="9" onmousedown="handleZoom(evt,'out')"/>
  <use id="reset" xlink:href="#resetDef" x="30" y="36" onmousedown="handleReset()"/>
   <use id="arrowup" xlink:href="#arrowUp" x="0" y="0" onmousedown="handlePan(0,-1)"/>
  <use id="arrowright" xlink:href="#arrowRight" x="0" y="0" onmousedown="handlePan(1,0)"/>
  <use id="arrowdown" xlink:href="#arrowDown" x="0" y="0" onmousedown="handlePan(0,1)"/>
  <use id="arrowleft" xlink:href="#arrowLeft" x="0" y="0" onmousedown="handlePan(-1,0)"/>
</g>
<svg viewBox="0 0 15 15" width="100%" height="30px" preserveAspectRatio="xMaxYMin meet">
 <g id="arrow_out" transform="scale(0.3 0.3)">
  <a xlink:href="structamr__wind_1_1pde_1_1_b_c_op_3_01_p_d_e_00_01std_1_1enable__if__t_3_01std_1_1is__base__of__29bde953fd0fd4cc25d99398858204b2_org.svg" target="_base">
   <rect id="button" ry="5" rx="5" y="6" x="6" height="38" width="38"
        fill="#f2f5e9" fill-opacity="0.5" stroke="#606060" stroke-width="1.0"/>
   <path id="arrow"
     d="M 11.500037,31.436501 C 11.940474,20.09759 22.043105,11.32322 32.158766,21.979434 L 37.068811,17.246167 C 37.068811,17.246167 37.088388,32 37.088388,32 L 22.160133,31.978069 C 22.160133,31.978069 26.997745,27.140456 26.997745,27.140456 C 18.528582,18.264221 13.291696,25.230495 11.500037,31.436501 z"
     style="fill:#404040;"/>
  </a>
 </g>
</svg>

<style type='text/css'>
<![CDATA[
[data-mouse-over-selected='false'] { opacity: 0.7; }
[data-mouse-over-selected='true']  { opacity: 1.0; }
]]>
</style>
<script type="application/ecmascript"><![CDATA[
document.addEventListener('DOMContentLoaded', (event) => {
  highlightEdges();
  highlightAdjacentNodes();
});
]]></script>
</svg>
