<?xml version="1.0" encoding="UTF-8" standalone="no"?>
<!DOCTYPE svg PUBLIC "-//W3C//DTD SVG 1.1//EN"
 "http://www.w3.org/Graphics/SVG/1.1/DTD/svg11.dtd">
<!-- Generated by graphviz version 2.43.0 (0)
 -->
<!-- Title: amr_wind::pde::AdvectionOp&lt; VOF, fvm::Godunov &gt; Pages: 1 -->
<svg width="1834pt" height="275pt"
 viewBox="0.00 0.00 1834.00 275.00" xmlns="http://www.w3.org/2000/svg" xmlns:xlink="http://www.w3.org/1999/xlink">
<g id="graph0" class="graph" transform="scale(1 1) rotate(0) translate(4 271)">
<title>amr_wind::pde::AdvectionOp&lt; VOF, fvm::Godunov &gt;</title>
<!-- Node1 -->
<g id="Node000001" class="node">
<title>Node1</title>
<g id="a_Node000001"><a xlink:title=" ">
<polygon fill="#999999" stroke="#666666" points="1826,-144 1678,-144 1678,-114 1826,-114 1826,-144"/>
<text text-anchor="start" x="1686" y="-132" font-family="Helvetica,sans-Serif" font-size="10.00">amr_wind::pde::Advection</text>
<text text-anchor="middle" x="1752" y="-121" font-family="Helvetica,sans-Serif" font-size="10.00">Op&lt; VOF, fvm::Godunov &gt;</text>
</a>
</g>
</g>
<!-- Node2 -->
<g id="Node000002" class="node">
<title>Node2</title>
<g id="a_Node000002"><a xlink:href="classamr__wind_1_1_sim_time.html" target="_top" xlink:title=" ">
<polygon fill="white" stroke="#666666" points="1488.5,-231.5 1374.5,-231.5 1374.5,-212.5 1488.5,-212.5 1488.5,-231.5"/>
<text text-anchor="middle" x="1431.5" y="-219.5" font-family="Helvetica,sans-Serif" font-size="10.00">amr_wind::SimTime</text>
</a>
</g>
</g>
<!-- Node2&#45;&gt;Node1 -->
<g id="edge1_Node000001_Node000002" class="edge">
<title>Node2&#45;&gt;Node1</title>
<g id="a_edge1_Node000001_Node000002"><a xlink:title=" ">
<path fill="none" stroke="#9a32cd" stroke-dasharray="5,2" d="M1481.58,-209.99C1527.87,-198.39 1599.04,-179.86 1660,-161 1676.64,-155.85 1694.78,-149.61 1710.45,-144"/>
<polygon fill="#9a32cd" stroke="#9a32cd" points="1480.66,-206.61 1471.81,-212.43 1482.36,-213.4 1480.66,-206.61"/>
</a>
</g>
<text text-anchor="start" x="1579" y="-200.5" font-family="Helvetica,sans-Serif" font-size="10.00" fill="grey">m_time</text>
</g>
<!-- Node3 -->
<g id="Node000003" class="node">
<title>Node3</title>
<g id="a_Node000003"><a xlink:href="structamr__wind_1_1pde_1_1_p_d_e_fields.html" target="_top" xlink:title=" ">
<polygon fill="white" stroke="#666666" points="1503,-87.5 1360,-87.5 1360,-68.5 1503,-68.5 1503,-87.5"/>
<text text-anchor="middle" x="1431.5" y="-75.5" font-family="Helvetica,sans-Serif" font-size="10.00">amr_wind::pde::PDEFields</text>
</a>
</g>
</g>
<!-- Node3&#45;&gt;Node1 -->
<g id="edge2_Node000001_Node000003" class="edge">
<title>Node3&#45;&gt;Node1</title>
<g id="a_edge2_Node000001_Node000003"><a xlink:title=" ">
<path fill="none" stroke="#9a32cd" stroke-dasharray="5,2" d="M1502.16,-89.16C1554.13,-97.48 1624.97,-108.82 1677.77,-117.27"/>
<polygon fill="#9a32cd" stroke="#9a32cd" points="1502.46,-85.66 1492.03,-87.53 1501.35,-92.57 1502.46,-85.66"/>
</a>
</g>
<text text-anchor="start" x="1585" y="-119.5" font-family="Helvetica,sans-Serif" font-size="10.00" fill="grey">fields</text>
</g>
<!-- Node4 -->
<g id="Node000004" class="node">
<title>Node4</title>
<g id="a_Node000004"><a xlink:href="classamr__wind_1_1_field_repo.html" target="_top" xlink:title=" ">
<polygon fill="white" stroke="#666666" points="1077.5,-36.5 958.5,-36.5 958.5,-17.5 1077.5,-17.5 1077.5,-36.5"/>
<text text-anchor="middle" x="1018" y="-24.5" font-family="Helvetica,sans-Serif" font-size="10.00">amr_wind::FieldRepo</text>
</a>
</g>
</g>
<!-- Node4&#45;&gt;Node3 -->
<g id="edge3_Node000003_Node000004" class="edge">
<title>Node4&#45;&gt;Node3</title>
<g id="a_edge3_Node000003_Node000004"><a xlink:title=" ">
<path fill="none" stroke="#9a32cd" stroke-dasharray="5,2" d="M1087.96,-23.5C1151.4,-22.24 1247.42,-25.32 1327,-49 1335.77,-51.61 1336.44,-55.75 1345,-59 1354.95,-62.78 1365.85,-65.91 1376.44,-68.47"/>
<polygon fill="#9a32cd" stroke="#9a32cd" points="1087.58,-20.01 1077.67,-23.75 1087.75,-27.01 1087.58,-20.01"/>
</a>
</g>
<text text-anchor="start" x="1193" y="-38.5" font-family="Helvetica,sans-Serif" font-size="10.00" fill="grey">repo</text>
</g>
<!-- Node11 -->
<g id="Node000011" class="node">
<title>Node11</title>
<g id="a_Node000011"><a xlink:href="classamr__wind_1_1_field.html" target="_top" xlink:title=" ">
<polygon fill="white" stroke="#666666" points="1251,-96.5 1157,-96.5 1157,-77.5 1251,-77.5 1251,-96.5"/>
<text text-anchor="middle" x="1204" y="-84.5" font-family="Helvetica,sans-Serif" font-size="10.00">amr_wind::Field</text>
</a>
</g>
</g>
<!-- Node4&#45;&gt;Node11 -->
<g id="edge11_Node000011_Node000004" class="edge">
<title>Node4&#45;&gt;Node11</title>
<g id="a_edge11_Node000011_Node000004"><a xlink:title=" ">
<path fill="none" stroke="#9a32cd" stroke-dasharray="5,2" d="M1078.72,-38.78C1098.2,-43.32 1119.76,-49.1 1139,-56 1155.39,-61.87 1173.14,-70.68 1185.78,-77.41"/>
<polygon fill="#9a32cd" stroke="#9a32cd" points="1079.27,-35.32 1068.74,-36.52 1077.72,-42.14 1079.27,-35.32"/>
</a>
</g>
<text text-anchor="start" x="1099.5" y="-61.5" font-family="Helvetica,sans-Serif" font-size="10.00" fill="grey">m_repo</text>
</g>
<!-- Node5 -->
<g id="Node000005" class="node">
<title>Node5</title>
<g id="a_Node000005"><a xlink:title=" ">
<polygon fill="white" stroke="#666666" points="843,-42 721,-42 721,-12 843,-12 843,-42"/>
<text text-anchor="start" x="729" y="-30" font-family="Helvetica,sans-Serif" font-size="10.00">std::unordered_map</text>
<text text-anchor="middle" x="782" y="-19" font-family="Helvetica,sans-Serif" font-size="10.00">&lt; std::string, size_t &gt;</text>
</a>
</g>
</g>
<!-- Node5&#45;&gt;Node4 -->
<g id="edge4_Node000004_Node000005" class="edge">
<title>Node5&#45;&gt;Node4</title>
<g id="a_edge4_Node000004_Node000005"><a xlink:title=" ">
<path fill="none" stroke="#9a32cd" stroke-dasharray="5,2" d="M853.43,-27C886.86,-27 926.35,-27 958.16,-27"/>
<polygon fill="#9a32cd" stroke="#9a32cd" points="853.26,-23.5 843.26,-27 853.26,-30.5 853.26,-23.5"/>
</a>
</g>
<text text-anchor="start" x="864.5" y="-48" font-family="Helvetica,sans-Serif" font-size="10.00" fill="grey">m_fid_map</text>
<text text-anchor="start" x="864.5" y="-33" font-family="Helvetica,sans-Serif" font-size="10.00" fill="grey">m_int_fid_map</text>
</g>
<!-- Node6 -->
<g id="Node000006" class="node">
<title>Node6</title>
<g id="a_Node000006"><a xlink:title=" ">
<polygon fill="white" stroke="#666666" points="508,-108.5 443,-108.5 443,-89.5 508,-89.5 508,-108.5"/>
<text text-anchor="middle" x="475.5" y="-96.5" font-family="Helvetica,sans-Serif" font-size="10.00">std::string</text>
</a>
</g>
</g>
<!-- Node6&#45;&gt;Node5 -->
<g id="edge5_Node000005_Node000006" class="edge">
<title>Node6&#45;&gt;Node5</title>
<g id="a_edge5_Node000005_Node000006"><a xlink:title=" ">
<path fill="none" stroke="#9a32cd" stroke-dasharray="5,2" d="M504.2,-84.95C524.22,-75.38 552.17,-63.18 578,-56 624.99,-42.93 679.82,-35.54 720.65,-31.5"/>
<polygon fill="#9a32cd" stroke="#9a32cd" points="502.51,-81.88 495.05,-89.41 505.58,-88.18 502.51,-81.88"/>
</a>
</g>
<text text-anchor="start" x="629.5" y="-61.5" font-family="Helvetica,sans-Serif" font-size="10.00" fill="grey">keys</text>
</g>
<!-- Node6&#45;&gt;Node11 -->
<g id="edge12_Node000011_Node000006" class="edge">
<title>Node6&#45;&gt;Node11</title>
<g id="a_edge12_Node000011_Node000006"><a xlink:title=" ">
<path fill="none" stroke="#9a32cd" stroke-dasharray="5,2" d="M518.26,-98.31C644.97,-96.22 1024.44,-89.95 1156.82,-87.76"/>
<polygon fill="#9a32cd" stroke="#9a32cd" points="518.12,-94.81 508.18,-98.48 518.24,-101.81 518.12,-94.81"/>
</a>
</g>
<text text-anchor="start" x="879.5" y="-98.5" font-family="Helvetica,sans-Serif" font-size="10.00" fill="grey">m_name</text>
</g>
<!-- Node13 -->
<g id="Node000013" class="node">
<title>Node13</title>
<g id="a_Node000013"><a xlink:href="structamr__wind_1_1_field_info.html" target="_top" xlink:title=" ">
<polygon fill="white" stroke="#666666" points="838.5,-207.5 725.5,-207.5 725.5,-188.5 838.5,-188.5 838.5,-207.5"/>
<text text-anchor="middle" x="782" y="-195.5" font-family="Helvetica,sans-Serif" font-size="10.00">amr_wind::FieldInfo</text>
</a>
</g>
</g>
<!-- Node6&#45;&gt;Node13 -->
<g id="edge15_Node000013_Node000006" class="edge">
<title>Node6&#45;&gt;Node13</title>
<g id="a_edge15_Node000013_Node000006"><a xlink:title=" ">
<path fill="none" stroke="#9a32cd" stroke-dasharray="5,2" d="M518.42,-99.74C574.68,-101.31 671.25,-106.14 703,-121 735.74,-136.33 762.85,-171.32 774.65,-188.34"/>
<polygon fill="#9a32cd" stroke="#9a32cd" points="518.49,-96.25 508.4,-99.49 518.31,-103.24 518.49,-96.25"/>
</a>
</g>
<text text-anchor="start" x="607.5" y="-126.5" font-family="Helvetica,sans-Serif" font-size="10.00" fill="grey">m_basename</text>
</g>
<!-- Node7 -->
<g id="Node000007" class="node">
<title>Node7</title>
<g id="a_Node000007"><a xlink:title=" ">
<polygon fill="white" stroke="#666666" points="204,-126 100,-126 100,-96 204,-96 204,-126"/>
<text text-anchor="start" x="108" y="-114" font-family="Helvetica,sans-Serif" font-size="10.00">std::basic_string&lt;</text>
<text text-anchor="middle" x="152" y="-103" font-family="Helvetica,sans-Serif" font-size="10.00"> Char &gt;</text>
</a>
</g>
</g>
<!-- Node7&#45;&gt;Node6 -->
<g id="edge6_Node000006_Node000007" class="edge">
<title>Node7&#45;&gt;Node6</title>
<g id="a_edge6_Node000006_Node000007"><a xlink:title=" ">
<path fill="none" stroke="#63b8ff" d="M214.48,-108.71C282.65,-106.16 389.98,-102.15 442.88,-100.18"/>
<polygon fill="#63b8ff" stroke="#63b8ff" points="214.16,-105.21 204.3,-109.09 214.42,-112.21 214.16,-105.21"/>
</a>
</g>
</g>
<!-- Node8 -->
<g id="Node000008" class="node">
<title>Node8</title>
<g id="a_Node000008"><a xlink:title=" ">
<polygon fill="white" stroke="#666666" points="532.5,-30 418.5,-30 418.5,0 532.5,0 532.5,-30"/>
<text text-anchor="start" x="426.5" y="-18" font-family="Helvetica,sans-Serif" font-size="10.00">std::unordered_map</text>
<text text-anchor="middle" x="475.5" y="-7" font-family="Helvetica,sans-Serif" font-size="10.00">&lt; K, T &gt;</text>
</a>
</g>
</g>
<!-- Node8&#45;&gt;Node5 -->
<g id="edge7_Node000005_Node000008" class="edge">
<title>Node8&#45;&gt;Node5</title>
<g id="a_edge7_Node000005_Node000008"><a xlink:title=" ">
<path fill="none" stroke="orange" stroke-dasharray="5,2" d="M543.15,-12.92C588.32,-12.1 649.33,-12.12 703,-16 708.73,-16.41 714.68,-16.99 720.62,-17.66"/>
<polygon fill="orange" stroke="orange" points="542.82,-9.43 532.9,-13.13 542.96,-16.43 542.82,-9.43"/>
</a>
</g>
<text text-anchor="start" x="587.5" y="-21.5" font-family="Helvetica,sans-Serif" font-size="10.00" fill="grey">&lt; std::string, size_t &gt;</text>
</g>
<!-- Node9 -->
<g id="Node000009" class="node">
<title>Node9</title>
<g id="a_Node000009"><a xlink:title=" ">
<polygon fill="white" stroke="#666666" points="166.5,-24.5 137.5,-24.5 137.5,-5.5 166.5,-5.5 166.5,-24.5"/>
<text text-anchor="middle" x="152" y="-12.5" font-family="Helvetica,sans-Serif" font-size="10.00">K</text>
</a>
</g>
</g>
<!-- Node9&#45;&gt;Node8 -->
<g id="edge8_Node000008_Node000009" class="edge">
<title>Node9&#45;&gt;Node8</title>
<g id="a_edge8_Node000008_Node000009"><a xlink:title=" ">
<path fill="none" stroke="#9a32cd" stroke-dasharray="5,2" d="M177.13,-15C228,-15 347.39,-15 418.45,-15"/>
<polygon fill="#9a32cd" stroke="#9a32cd" points="176.81,-11.5 166.81,-15 176.81,-18.5 176.81,-11.5"/>
</a>
</g>
<text text-anchor="start" x="294" y="-20.5" font-family="Helvetica,sans-Serif" font-size="10.00" fill="grey">keys</text>
</g>
<!-- Node10 -->
<g id="Node000010" class="node">
<title>Node10</title>
<g id="a_Node000010"><a xlink:title=" ">
<polygon fill="white" stroke="#666666" points="29,-166.5 0,-166.5 0,-147.5 29,-147.5 29,-166.5"/>
<text text-anchor="middle" x="14.5" y="-154.5" font-family="Helvetica,sans-Serif" font-size="10.00">T</text>
</a>
</g>
</g>
<!-- Node10&#45;&gt;Node8 -->
<g id="edge9_Node000008_Node000010" class="edge">
<title>Node10&#45;&gt;Node8</title>
<g id="a_edge9_Node000008_Node000010"><a xlink:title=" ">
<path fill="none" stroke="#9a32cd" stroke-dasharray="5,2" d="M24.68,-138.35C35.87,-117.82 56.83,-85.65 85,-70 197.67,-7.4 245.77,-56.63 373,-36 387.74,-33.61 403.6,-30.56 418.29,-27.53"/>
<polygon fill="#9a32cd" stroke="#9a32cd" points="21.5,-136.88 19.99,-147.37 27.71,-140.11 21.5,-136.88"/>
</a>
</g>
<text text-anchor="start" x="129" y="-75.5" font-family="Helvetica,sans-Serif" font-size="10.00" fill="grey">elements</text>
</g>
<!-- Node16 -->
<g id="Node000016" class="node">
<title>Node16</title>
<g id="a_Node000016"><a xlink:title=" ">
<polygon fill="white" stroke="#666666" points="211,-206.5 93,-206.5 93,-187.5 211,-187.5 211,-206.5"/>
<text text-anchor="middle" x="152" y="-194.5" font-family="Helvetica,sans-Serif" font-size="10.00">std::unique_ptr&lt; T &gt;</text>
</a>
</g>
</g>
<!-- Node10&#45;&gt;Node16 -->
<g id="edge19_Node000016_Node000010" class="edge">
<title>Node10&#45;&gt;Node16</title>
<g id="a_edge19_Node000016_Node000010"><a xlink:title=" ">
<path fill="none" stroke="#9a32cd" stroke-dasharray="5,2" d="M38.08,-171C41.02,-172.49 44.03,-173.87 47,-175 61.49,-180.52 77.67,-184.78 92.86,-188.02"/>
<polygon fill="#9a32cd" stroke="#9a32cd" points="39.59,-167.83 29.15,-166.04 36.19,-173.95 39.59,-167.83"/>
</a>
</g>
<text text-anchor="start" x="50" y="-186.5" font-family="Helvetica,sans-Serif" font-size="10.00" fill="grey">ptr</text>
</g>
<!-- Node17 -->
<g id="Node000017" class="node">
<title>Node17</title>
<g id="a_Node000017"><a xlink:title=" ">
<polygon fill="white" stroke="#666666" points="364,-168.5 246,-168.5 246,-149.5 364,-149.5 364,-168.5"/>
<text text-anchor="middle" x="305" y="-156.5" font-family="Helvetica,sans-Serif" font-size="10.00">std::shared_ptr&lt; T &gt;</text>
</a>
</g>
</g>
<!-- Node10&#45;&gt;Node17 -->
<g id="edge21_Node000017_Node000010" class="edge">
<title>Node10&#45;&gt;Node17</title>
<g id="a_edge21_Node000017_Node000010"><a xlink:title=" ">
<path fill="none" stroke="#9a32cd" stroke-dasharray="5,2" d="M39.44,-154.48C41.99,-154.28 44.55,-154.12 47,-154 55.88,-153.58 58.11,-153.91 67,-154 127.91,-154.64 197.6,-156.21 245.57,-157.42"/>
<polygon fill="#9a32cd" stroke="#9a32cd" points="38.92,-151.01 29.28,-155.4 39.55,-157.98 38.92,-151.01"/>
</a>
</g>
<text text-anchor="start" x="50" y="-159.5" font-family="Helvetica,sans-Serif" font-size="10.00" fill="grey">ptr</text>
</g>
<!-- Node11&#45;&gt;Node1 -->
<g id="edge22_Node000001_Node000011" class="edge">
<title>Node11&#45;&gt;Node1</title>
<g id="a_edge22_Node000001_Node000011"><a xlink:title=" ">
<path fill="none" stroke="#9a32cd" stroke-dasharray="5,2" d="M1221.77,-103.59C1233.8,-114.27 1251.01,-127.21 1269,-133 1342.78,-156.76 1562.18,-144.04 1677.81,-135.19"/>
<polygon fill="#9a32cd" stroke="#9a32cd" points="1224.03,-100.91 1214.32,-96.67 1219.26,-106.04 1224.03,-100.91"/>
</a>
</g>
<text text-anchor="start" x="1414.5" y="-181.5" font-family="Helvetica,sans-Serif" font-size="10.00" fill="grey">u_mac</text>
<text text-anchor="start" x="1414.5" y="-166.5" font-family="Helvetica,sans-Serif" font-size="10.00" fill="grey">v_mac</text>
<text text-anchor="start" x="1414.5" y="-151.5" font-family="Helvetica,sans-Serif" font-size="10.00" fill="grey">w_mac</text>
</g>
<!-- Node11&#45;&gt;Node3 -->
<g id="edge10_Node000003_Node000011" class="edge">
<title>Node11&#45;&gt;Node3</title>
<g id="a_edge10_Node000003_Node000011"><a xlink:title=" ">
<path fill="none" stroke="#9a32cd" stroke-dasharray="5,2" d="M1228.49,-72.46C1240.2,-66.05 1254.85,-59.25 1269,-56 1294.12,-50.24 1301.36,-53.31 1327,-56 1333.21,-56.65 1362.03,-62.82 1387.69,-68.46"/>
<polygon fill="#9a32cd" stroke="#9a32cd" points="1226.74,-69.43 1219.8,-77.44 1230.22,-75.5 1226.74,-69.43"/>
</a>
</g>
<text text-anchor="start" x="1272" y="-121.5" font-family="Helvetica,sans-Serif" font-size="10.00" fill="grey">conv_term</text>
<text text-anchor="start" x="1272" y="-106.5" font-family="Helvetica,sans-Serif" font-size="10.00" fill="grey">diff_term</text>
<text text-anchor="start" x="1272" y="-91.5" font-family="Helvetica,sans-Serif" font-size="10.00" fill="grey">field</text>
<text text-anchor="start" x="1272" y="-76.5" font-family="Helvetica,sans-Serif" font-size="10.00" fill="grey">mueff</text>
<text text-anchor="start" x="1272" y="-61.5" font-family="Helvetica,sans-Serif" font-size="10.00" fill="grey">src_term</text>
</g>
<!-- Node12 -->
<g id="Node000012" class="node">
<title>Node12</title>
<g id="a_Node000012"><a xlink:title=" ">
<polygon fill="white" stroke="#666666" points="1078,-175 958,-175 958,-145 1078,-145 1078,-175"/>
<text text-anchor="start" x="966" y="-163" font-family="Helvetica,sans-Serif" font-size="10.00">std::shared_ptr&lt; amr</text>
<text text-anchor="middle" x="1018" y="-152" font-family="Helvetica,sans-Serif" font-size="10.00">_wind::FieldInfo &gt;</text>
</a>
</g>
</g>
<!-- Node12&#45;&gt;Node11 -->
<g id="edge13_Node000011_Node000012" class="edge">
<title>Node12&#45;&gt;Node11</title>
<g id="a_edge13_Node000011_Node000012"><a xlink:title=" ">
<path fill="none" stroke="#9a32cd" stroke-dasharray="5,2" d="M1066.47,-141.17C1102.5,-126.87 1150.52,-107.82 1178.96,-96.54"/>
<polygon fill="#9a32cd" stroke="#9a32cd" points="1065.13,-137.93 1057.12,-144.87 1067.71,-144.44 1065.13,-137.93"/>
</a>
</g>
<text text-anchor="start" x="1100.5" y="-133.5" font-family="Helvetica,sans-Serif" font-size="10.00" fill="grey">m_info</text>
</g>
<!-- Node13&#45;&gt;Node12 -->
<g id="edge14_Node000012_Node000013" class="edge">
<title>Node13&#45;&gt;Node12</title>
<g id="a_edge14_Node000012_Node000013"><a xlink:title=" ">
<path fill="none" stroke="#9a32cd" stroke-dasharray="5,2" d="M848.72,-187.67C876.84,-183.22 910.04,-177.91 940,-173 945.75,-172.06 951.75,-171.06 957.73,-170.06"/>
<polygon fill="#9a32cd" stroke="#9a32cd" points="847.94,-184.26 838.61,-189.28 849.03,-191.17 847.94,-184.26"/>
</a>
</g>
<text text-anchor="start" x="893.5" y="-190.5" font-family="Helvetica,sans-Serif" font-size="10.00" fill="grey">ptr</text>
</g>
<!-- Node14 -->
<g id="Node000014" class="node">
<title>Node14</title>
<g id="a_Node000014"><a xlink:title=" ">
<polygon fill="white" stroke="#666666" points="560,-218 391,-218 391,-188 560,-188 560,-218"/>
<text text-anchor="start" x="399" y="-206" font-family="Helvetica,sans-Serif" font-size="10.00">std::unique_ptr&lt; amr</text>
<text text-anchor="middle" x="475.5" y="-195" font-family="Helvetica,sans-Serif" font-size="10.00">_wind::FieldFillPatchOpsBase &gt;</text>
</a>
</g>
</g>
<!-- Node14&#45;&gt;Node13 -->
<g id="edge16_Node000013_Node000014" class="edge">
<title>Node14&#45;&gt;Node13</title>
<g id="a_edge16_Node000013_Node000014"><a xlink:title=" ">
<path fill="none" stroke="#9a32cd" stroke-dasharray="5,2" d="M570.13,-201.46C620.98,-200.63 682.13,-199.62 725.45,-198.91"/>
<polygon fill="#9a32cd" stroke="#9a32cd" points="570.05,-197.96 560.11,-201.63 570.16,-204.96 570.05,-197.96"/>
</a>
</g>
<text text-anchor="start" x="604.5" y="-206.5" font-family="Helvetica,sans-Serif" font-size="10.00" fill="grey">m_fillpatch_op</text>
</g>
<!-- Node15 -->
<g id="Node000015" class="node">
<title>Node15</title>
<g id="a_Node000015"><a xlink:href="classamr__wind_1_1_field_fill_patch_ops_base.html" target="_top" xlink:title=" ">
<polygon fill="white" stroke="#666666" points="219,-267 85,-267 85,-237 219,-237 219,-267"/>
<text text-anchor="start" x="93" y="-255" font-family="Helvetica,sans-Serif" font-size="10.00">amr_wind::FieldFillPatch</text>
<text text-anchor="middle" x="152" y="-244" font-family="Helvetica,sans-Serif" font-size="10.00">OpsBase</text>
</a>
</g>
</g>
<!-- Node15&#45;&gt;Node14 -->
<g id="edge17_Node000014_Node000015" class="edge">
<title>Node15&#45;&gt;Node14</title>
<g id="a_edge17_Node000014_Node000015"><a xlink:title=" ">
<path fill="none" stroke="#9a32cd" stroke-dasharray="5,2" d="M229.33,-247.39C271.85,-244.07 325.63,-238.61 373,-230 389.86,-226.93 408.03,-222.48 424.26,-218.07"/>
<polygon fill="#9a32cd" stroke="#9a32cd" points="229.04,-243.9 219.33,-248.15 229.57,-250.88 229.04,-243.9"/>
</a>
</g>
<text text-anchor="start" x="298" y="-251.5" font-family="Helvetica,sans-Serif" font-size="10.00" fill="grey">ptr</text>
</g>
<!-- Node16&#45;&gt;Node14 -->
<g id="edge18_Node000014_Node000016" class="edge">
<title>Node16&#45;&gt;Node14</title>
<g id="a_edge18_Node000014_Node000016"><a xlink:title=" ">
<path fill="none" stroke="orange" stroke-dasharray="5,2" d="M221.54,-196.52C264.95,-196.42 322.28,-196.64 373,-198 378.82,-198.16 384.83,-198.36 390.87,-198.58"/>
<polygon fill="orange" stroke="orange" points="221.36,-193.03 211.37,-196.56 221.39,-200.03 221.36,-193.03"/>
</a>
</g>
<text text-anchor="start" x="240" y="-219" font-family="Helvetica,sans-Serif" font-size="10.00" fill="grey">&lt; amr_wind::FieldFillPatch</text>
<text text-anchor="start" x="240" y="-204" font-family="Helvetica,sans-Serif" font-size="10.00" fill="grey">  OpsBase &gt;</text>
</g>
<!-- Node17&#45;&gt;Node12 -->
<g id="edge20_Node000012_Node000017" class="edge">
<title>Node17&#45;&gt;Node12</title>
<g id="a_edge20_Node000012_Node000017"><a xlink:title=" ">
<path fill="none" stroke="orange" stroke-dasharray="5,2" d="M374.28,-159.1C513.23,-159.29 826.79,-159.73 957.76,-159.92"/>
<polygon fill="orange" stroke="orange" points="374.19,-155.6 364.18,-159.08 374.18,-162.6 374.19,-155.6"/>
</a>
</g>
<text text-anchor="start" x="581.5" y="-164.5" font-family="Helvetica,sans-Serif" font-size="10.00" fill="grey">&lt; amr_wind::FieldInfo &gt;</text>
</g>
<!-- Node18 -->
<g id="Node000018" class="node">
<title>Node18</title>
<g id="a_Node000018"><a xlink:href="structamr__wind_1_1pde_1_1_advection_op.html" target="_top" xlink:title=" ">
<polygon fill="white" stroke="#666666" points="1518,-50 1345,-50 1345,-20 1518,-20 1518,-50"/>
<text text-anchor="start" x="1353" y="-38" font-family="Helvetica,sans-Serif" font-size="10.00">amr_wind::pde::Advection</text>
<text text-anchor="middle" x="1431.5" y="-27" font-family="Helvetica,sans-Serif" font-size="10.00">Op&lt; PDE, Scheme, typename &gt;</text>
</a>
</g>
</g>
<!-- Node18&#45;&gt;Node1 -->
<g id="edge23_Node000001_Node000018" class="edge">
<title>Node18&#45;&gt;Node1</title>
<g id="a_edge23_Node000001_Node000018"><a xlink:title=" ">
<path fill="none" stroke="orange" stroke-dasharray="5,2" d="M1528.25,-44.03C1569.66,-49.91 1618.14,-59.49 1660,-75 1685.84,-84.57 1712.64,-101.47 1730.41,-113.82"/>
<polygon fill="orange" stroke="orange" points="1528.53,-40.53 1518.15,-42.65 1527.59,-47.47 1528.53,-40.53"/>
</a>
</g>
<text text-anchor="start" x="1539" y="-80.5" font-family="Helvetica,sans-Serif" font-size="10.00" fill="grey">&lt; VOF, fvm::Godunov &gt;</text>
</g>
</g>
</svg>
